<?xml version="1.0" encoding="utf-8"?>
<!-- Generator: Adobe Illustrator 21.0.0, SVG Export Plug-In . SVG Version: 6.00 Build 0)  -->
<svg version="1.1"
	 id="Слой_1" inkscape:version="0.92.1 r15371" sodipodi:docname="england.svg" xmlns:cc="http://creativecommons.org/ns#" xmlns:dc="http://purl.org/dc/elements/1.1/" xmlns:inkscape="http://www.inkscape.org/namespaces/inkscape" xmlns:rdf="http://www.w3.org/1999/02/22-rdf-syntax-ns#" xmlns:sodipodi="http://sodipodi.sourceforge.net/DTD/sodipodi-0.dtd" xmlns:svg="http://www.w3.org/2000/svg"
	 xmlns="http://www.w3.org/2000/svg" xmlns:xlink="http://www.w3.org/1999/xlink" x="0px" y="0px" viewBox="0 0 358 495.3"
	 style="enable-background:new 0 0 358 495.3;" xml:space="preserve">
<style type="text/css">
	.st0{fill:none;stroke:#D00C33;stroke-width:1.5;stroke-miterlimit:3.8637;}
	.st1{fill:none;stroke:#AD0F0A;stroke-width:1.5;stroke-miterlimit:3.8637;}
	.st2{clip-path:url(#SVGID_2_);fill:#D00C33;}
	.st3{clip-path:url(#SVGID_4_);}
	.st4{clip-path:url(#SVGID_6_);fill:#FFFFFF;}
	.st5{fill:none;stroke:#FFFFFF;stroke-width:1.5;stroke-miterlimit:3.8637;}
</style>
<sodipodi:namedview  bordercolor="#666666" borderopacity="1" gridtolerance="10" guidetolerance="10" id="namedview161" inkscape:current-layer="Слой_1" inkscape:cx="316.02501" inkscape:cy="263.62801" inkscape:pageopacity="0" inkscape:pageshadow="2" inkscape:window-height="1018" inkscape:window-maximized="1" inkscape:window-width="1920" inkscape:window-x="-8" inkscape:window-y="-8" inkscape:zoom="0.944" objecttolerance="10" pagecolor="#ffffff" showgrid="false">
	</sodipodi:namedview>
<path class="st0" d="M323.5,83.8c0,0,0.5-7.5,5.9-8c5.4-0.5,9.6,3.7,10.2,9.1c0.5,5.4-4.5,12.3-12,12.8c-7.5,0.5-11.2-7.1-11.2-7.1
	c-2.4-5.7-0.8-17.1,10.3-23c8.4-4.5,24.4-3,28.5,18.9c2.9,15.5-1.8,27.9-13.5,40.8c-16.4,18.1-29.7,40.5-30.2,62.5
	c-0.7,29.4,6.4,42.7,20.1,42.5c11.4-0.1,11.9-11,12.4-15.8c0.5-4.8-3.5-8.8-6.4-8.7c-2.9,0.1-6.6,2.8-6.7,8"/>
<path class="st0" d="M343.7,214.3c0,0-2.9,12.1-12.2,10.7c-9.4-1.3-11.4-10.2-10.2-16.8c1.2-6.7,7.2-13.6,18.6-13.5
	c11.4,0.1,18.1,9.4,17.8,20.7c-0.3,11.4-10.2,32-27.3,32.8c-17.1,0.8-31-13.5-31.6-39.7"/>
<line class="st0" x1="346.2" y1="195.9" x2="312.3" y2="178.4"/>
<path class="st0" d="M298.8,182.8c0,0-2.9-23.3,13.9-46c16.9-22.7,20.6-26.2,19.5-40.1"/>
<path class="st0" d="M317,92c0,0-11-14.6-14.2-18.3c-3.2-3.7-4.5-9.4,1.6-17.7c6.2-8.3,15.5-14.7,21.9-8.8
	c6.4,5.9,22.5,25.1,22.5,25.1"/>
<path class="st0" d="M309.3,81.9c0,0,4.7,6.5,0.5,16.4c-4.3,9.9-11,13.9-11,13.9"/>
<path class="st0" d="M229.8,15.6c0,0-5.1-3.8-7.2,1.1c-2.1,4.8,0.8,10.2,5.9,11.5c5.1,1.3,11.2-0.5,24.9-14.2
	c13.6-13.6,33.2-7.8,37.4-4.3c4.3,3.5,11.8,16.3,1.3,30c-10.4,13.6-19.8,15.5-27,9.9c-7.2-5.6-4.6-14.4-0.5-19.8
	c4-5.3,12.3-5.1,14.2-3.2c1.9,1.9,3.7,6.4-1.1,10.4"/>
<path class="st0" d="M261.2,36.5c0,0-17.5,12.5-28.2,12.8c-10.7,0.3-23.8-10.4-24.9-22.2c-1.1-11.8-1.3-19.8,9.9-25.1
	c11.2-5.4,17.9,4.8,19.8,9.6c1.9,4.8,3.8,14-4.8,16.8"/>
<path class="st0" d="M223.9,0.5c0,0,12.6,1.5,19,6.3c6.4,4.8,9.2,8.4,9.2,8.4"/>
<path class="st0" d="M218.1,2c0,0-9.1,2.9-17.7,11.2c-8.6,8.3-8,9.1-6.2,16.6c1.9,7.5,0.8,16.1,16.6,27.3"/>
<path class="st0" d="M241.9,57.1c0,0,8-3.5,11.8-5.6c3.7-2.1,9-4.4,9-4.4"/>
<path class="st1" d="M266.8,50.7c0,0-3.2,0.8-6.7,6.1"/>
<path class="st0" d="M266.8,50.7c0,0,13.4,7.4,15.8,8.8c2.4,1.3,10.4,0.3,16.6-6.4c6.2-6.7,8.3-11.5,9.4-15.8c1.1-4.3,0.5-5.6-4-11
	c-4.6-5.4-13.6-16.6-13.6-16.6"/>
<line class="st0" x1="306.4" y1="42.8" x2="312.2" y2="48.5"/>
<line class="st1" x1="292.7" y1="57.9" x2="300.2" y2="64.8"/>
<path class="st0" d="M341.4,294.6c-4.5-2.1-11.2-2.4-14.9,3.3c-3.7,5.8-1.2,14.8,1.5,18.4c2.7,3.6,10.5,4.7,15.3,1.3
	c4.8-3.5,8.3-11.5,7.5-19.5c-1.4-14.1-11.8-19-22.7-18.2c-11,0.8-22.2,13.4-21.9,26.2c0.3,12.8,2.7,24.6,7.8,36.9
	c5.1,12.3,16.9,38.8,21.1,49.8c4.3,11,1.3,19-1.9,21.9c-3.2,2.9-8.6,4-13.4,1.3c-4.8-2.7-6.2-4.3-6.2-4.3"/>
<path class="st0" d="M325.3,417.6c0,0,1.9-3.9,1.9-8.5c0-4.6-1.6-9.1-9.4-11c-7.7-1.9-12,4.3-13.9,11.5c-1.9,7.2-0.5,20.9,13.6,23.3
	c14.2,2.4,22.7-4.3,28.6-17.9c5.9-13.6,4.8-27.8-2.4-44.7c-7.2-16.9-14.7-34-20.1-46c-5.4-12-0.8-22.5,4-27.8"/>
<line class="st0" x1="347.5" y1="312.8" x2="328.5" y2="336.1"/>
<line class="st0" x1="315" y1="286.2" x2="299.4" y2="305.1"/>
<path class="st0" d="M303.3,414.2c0,0-3.4,15.5-4.4,19c-1.1,3.5,0.5,16,17.1,17.4c16.6,1.3,25.4-5.1,28.3-16.3
	c2.9-11.2,5.7-36.4,5.7-36.4"/>
<path class="st0" d="M326.4,450.3c0,0-9.6,13.4-11.2,16.6c-1.6,3.2-12,5.4-18.2,0c-6.1-5.4-6.1-10.4-4-14.7
	c2.1-4.3,6.8-11.5,6.8-11.5"/>
<path class="st0" d="M296.1,446.6c0,0-6.1-2.4-8.5,5.3c-2.4,7.8,1.3,13.6,4.3,16.9c2.9,3.2,15.8,9.9,23.8,5.1c8-4.8,4-14.1,4-14.1"
	/>
<path class="st0" d="M298.5,442.7c0,0-12.2-3.6-17.6,6.6c-5.4,10.2-1.9,22.5,5.9,28.9c7.7,6.4,27.5,8,34.8,1.6
	c7.2-6.4,8.2-16.9,1.7-25"/>
<path class="st0" d="M282.5,445.9c0,0-8.8,11.1-12.3,16.4c-3.5,5.3-4,15,3.7,23.3c7.8,8.3,26,13.9,34,6.4c8-7.5,15-13.6,15-13.6"/>
<line class="st0" x1="272.7" y1="458.8" x2="264.6" y2="453"/>
<path class="st0" d="M298.8,347.3c0,0,5.4,11.2,9.6,20.9c4.3,9.6,7.5,20.7,7,29.6"/>
<line class="st0" x1="318.5" y1="246.1" x2="318.5" y2="283.4"/>
<line class="st0" x1="347.9" y1="238.9" x2="347.9" y2="287.7"/>
<path class="st0" d="M298.8,247.3c0,0,9.6,5.6,12.3,6.7c2.7,1.1,7.1,2.9,7.4,7.2c0.4,4.3-2.9,6.4-5.5,8.6
	c-2.7,2.1-14.2,8.5-14.2,8.5"/>
<g>
	<defs>
		<path id="SVGID_1_" d="M178.7,461.5l-1.2-1.3c-8.5-9.2-22.3-17.9-43.5-17.9c-14.2,0.1-36.3,0-36.3,0c-15.4,0-27.8-12.5-27.8-27.8
			V95.6c0-15.4,12.4-27.8,27.8-27.8h80.8h81.8c15.4,0,27.8,12.5,27.8,27.8v318.9c0,15.4-12.5,27.8-27.8,27.8c0,0-22.2,0.1-36.3,0
			c-21.1-0.1-35.2,8.6-43.9,17.7C179.6,460.5,179.2,461,178.7,461.5z"/>
	</defs>
	<clipPath id="SVGID_2_">
		<use xlink:href="#SVGID_1_"  style="overflow:visible;"/>
	</clipPath>
	<rect x="53.8" y="52" class="st2" width="259.5" height="408.7"/>
</g>
<g>
	<defs>
		<path id="SVGID_3_" d="M178.7,461.5l-1.2-1.3c-8.5-9.2-22.3-17.9-43.5-17.9c-14.2,0.1-36.3,0-36.3,0c-15.4,0-27.8-12.5-27.8-27.8
			V95.6c0-15.4,12.4-27.8,27.8-27.8h80.8h81.8c15.4,0,27.8,12.5,27.8,27.8v318.9c0,15.4-12.5,27.8-27.8,27.8c0,0-22.2,0.1-36.3,0
			c-21.1-0.1-35.2,8.6-43.9,17.7C179.6,460.5,179.2,461,178.7,461.5z"/>
	</defs>
	<clipPath id="SVGID_4_">
		<use xlink:href="#SVGID_3_"  style="overflow:visible;"/>
	</clipPath>
	<g class="st3">
		<defs>
			<rect id="SVGID_5_" x="53.8" y="52" width="259.5" height="408.7"/>
		</defs>
		<clipPath id="SVGID_6_">
			<use xlink:href="#SVGID_5_"  style="overflow:visible;"/>
		</clipPath>
		<rect x="49.7" y="246.8" class="st4" width="259.4" height="32.2"/>
		<rect x="160.6" y="46.4" class="st4" width="37.5" height="432.9"/>
	</g>
</g>
<path class="st5" d="M178.7,461.5l-1.2-1.3c-8.5-9.2-22.3-17.9-43.5-17.9c-14.2,0.1-36.3,0-36.3,0c-15.4,0-27.8-12.5-27.8-27.8V95.6
	c0-15.4,12.4-27.8,27.8-27.8h162.6c15.4,0,27.8,12.5,27.8,27.8v318.9c0,15.4-12.5,27.8-27.8,27.8c0,0-22.2,0.1-36.3,0
	c-21.1-0.1-35.2,8.6-43.9,17.7C179.6,460.5,179.2,461,178.7,461.5z"/>
<path class="st0" d="M34.6,83.8c0,0-0.5-7.5-5.9-8c-5.4-0.5-9.6,3.7-10.2,9.1c-0.5,5.4,4.5,12.3,12,12.8c7.5,0.5,11.2-7.1,11.2-7.1
	c2.4-5.7,0.7-17.1-10.3-23c-8.4-4.5-24.4-3-28.5,18.9c-2.9,15.5,1.7,27.9,13.5,40.8c16.5,18.1,29.7,40.5,30.2,62.5
	c0.7,29.4-6.4,42.7-20.1,42.5c-11.4-0.1-11.9-11-12.4-15.8c-0.5-4.8,3.5-8.8,6.4-8.7c2.9,0.1,6.6,2.8,6.7,8"/>
<path class="st0" d="M14.3,214.3c0,0,2.9,12.1,12.2,10.7c9.4-1.3,11.4-10.2,10.2-16.8c-1.2-6.7-7.2-13.6-18.6-13.5
	c-11.4,0.1-18.1,9.4-17.8,20.7c0.3,11.4,10.2,32,27.3,32.8c17.1,0.8,31-13.5,31.6-39.7"/>
<line class="st0" x1="11.8" y1="195.9" x2="45.7" y2="178.4"/>
<path class="st0" d="M59.2,182.8c0,0,2.9-23.3-13.9-46c-16.9-22.7-20.6-26.2-19.5-40.1"/>
<path class="st0" d="M41,92c0,0,11-14.6,14.2-18.3c3.2-3.7,4.6-9.4-1.6-17.7c-6.2-8.3-15.5-14.7-21.9-8.8
	C25.2,53.1,9.1,72.3,9.1,72.3"/>
<path class="st0" d="M48.7,81.9c0,0-4.7,6.5-0.5,16.4c4.3,9.9,11,13.9,11,13.9"/>
<path class="st0" d="M128.2,15.6c0,0,5.1-3.8,7.2,1.1c2.1,4.8-0.8,10.2-5.9,11.5c-5.1,1.3-11.2-0.5-24.9-14.2
	C91,0.4,71.5,6.3,67.2,9.7c-4.3,3.5-11.8,16.3-1.3,30c10.4,13.6,19.8,15.5,27,9.9c7.2-5.6,4.5-14.4,0.5-19.8
	c-4-5.3-12.3-5.1-14.2-3.2c-1.9,1.9-3.7,6.4,1.1,10.4"/>
<path class="st0" d="M96.8,36.5c0,0,17.5,12.5,28.2,12.8c10.7,0.3,23.8-10.4,24.9-22.2c1.1-11.8,1.3-19.8-9.9-25.1
	c-11.2-5.4-17.9,4.8-19.8,9.6c-1.9,4.8-3.8,14,4.8,16.8"/>
<path class="st0" d="M134.1,0.5c0,0-12.6,1.5-19,6.3c-6.4,4.8-9.2,8.4-9.2,8.4"/>
<path class="st0" d="M140,2c0,0,9.1,2.9,17.6,11.2c8.6,8.3,8,9.1,6.2,16.6c-1.9,7.5-0.8,16.1-16.6,27.3"/>
<path class="st1" d="M116.1,57.1c0,0-8-3.5-11.8-5.6c-3.8-2.1-9.1-4.4-9.1-4.4"/>
<path class="st1" d="M91.2,50.7c0,0,3.2,0.8,6.7,6.1"/>
<path class="st0" d="M91.2,50.7c0,0-13.3,7.4-15.8,8.8c-2.4,1.3-10.4,0.3-16.6-6.4s-8.3-11.5-9.4-15.8c-1.1-4.3-0.5-5.6,4-11
	C58.1,21,67.2,9.7,67.2,9.7"/>
<line class="st0" x1="51.6" y1="42.8" x2="45.8" y2="48.5"/>
<line class="st0" x1="65.3" y1="57.9" x2="57.8" y2="64.8"/>
<path class="st0" d="M16.6,294.6c4.6-2.1,11.2-2.4,14.9,3.3c3.7,5.8,1.2,14.8-1.5,18.4c-2.6,3.6-10.5,4.7-15.3,1.3
	c-4.8-3.5-8.3-11.5-7.5-19.5C8.7,284,19,279.1,30,279.9c11,0.8,22.2,13.4,21.9,26.2c-0.3,12.8-2.7,24.6-7.8,36.9
	c-5.1,12.3-16.8,38.8-21.1,49.8c-4.3,11-1.3,19,1.9,21.9c3.2,2.9,8.6,4,13.4,1.3c4.8-2.7,6.2-4.3,6.2-4.3"/>
<path class="st0" d="M32.7,417.6c0,0-1.9-3.9-1.9-8.5c0-4.6,1.6-9.1,9.4-11c7.8-1.9,12,4.3,13.9,11.5c1.9,7.2,0.5,20.9-13.6,23.3
	c-14.2,2.4-22.7-4.3-28.6-17.9c-5.9-13.6-4.8-27.8,2.4-44.7c7.2-16.9,14.7-34,20.1-46c5.4-12,0.8-22.5-4-27.8"/>
<line class="st0" x1="10.5" y1="312.8" x2="29.5" y2="336.1"/>
<line class="st0" x1="43" y1="286.2" x2="58.6" y2="305.1"/>
<path class="st0" d="M54.7,414.2c0,0,3.4,15.5,4.4,19c1.1,3.5-0.5,16-17.1,17.4c-16.6,1.3-25.4-5.1-28.4-16.3S8,397.9,8,397.9"/>
<path class="st0" d="M31.6,450.3c0,0,9.6,13.4,11.2,16.6c1.6,3.2,12,5.4,18.2,0c6.2-5.4,6.2-10.4,4-14.7c-2.1-4.3-6.8-11.5-6.8-11.5
	"/>
<path class="st0" d="M61.9,446.6c0,0,6.1-2.4,8.5,5.3c2.4,7.8-1.3,13.6-4.3,16.9c-2.9,3.2-15.8,9.9-23.8,5.1c-8-4.8-4-14.1-4-14.1"
	/>
<path class="st0" d="M59.5,442.7c0,0,12.2-3.6,17.6,6.6c5.4,10.2,1.9,22.5-5.9,28.9c-7.7,6.4-27.5,8-34.8,1.6
	c-7.2-6.4-8.1-16.9-1.7-25"/>
<path class="st0" d="M75.5,445.9c0,0,8.8,11.1,12.3,16.4c3.5,5.3,4,15-3.7,23.3c-7.8,8.3-26,13.9-34,6.4c-8-7.5-15-13.6-15-13.6"/>
<line class="st1" x1="85.3" y1="458.8" x2="93.4" y2="453"/>
<path class="st0" d="M59.2,347.3c0,0-5.3,11.2-9.6,20.9c-4.3,9.6-7.5,20.7-7,29.6"/>
<line class="st0" x1="39.5" y1="246.1" x2="39.5" y2="283.4"/>
<line class="st0" x1="10.1" y1="238.9" x2="10.1" y2="287.7"/>
<path class="st0" d="M59.2,247.3c0,0-9.6,5.6-12.3,6.7c-2.7,1.1-7.1,2.9-7.4,7.2c-0.3,4.3,2.9,6.4,5.5,8.6
	c2.7,2.1,14.2,8.5,14.2,8.5"/>
<path class="st0" d="M178.5,481.9c0,0-8.7-29.1-44.4-28.9c-14.2,0.1-36.4,0-36.4,0c-21.3,0-38.5-17.3-38.5-38.5V95.6
	c0-21.3,17.3-38.5,38.5-38.5h162.6c21.3,0,38.5,17.2,38.5,38.5v318.9c0,21.3-17.2,38.5-38.5,38.5c0,0-22.2,0.1-36.4,0
	C188.3,452.8,178.5,481.9,178.5,481.9z"/>
<path class="st0" d="M164.8,57.1c0,0,2.4-10.4,4.5-15.3c2.1-4.8,9.6-4.5,9.6-4.5s7.5-0.3,9.6,4.5c2.1,4.8,4.5,15.3,4.5,15.3"/>
<path class="st0" d="M198.4,15.2c0,0-4.1-5.2-10-6.5c-5.9-1.3-9.4-0.8-9.4-0.8s-3.5-0.5-9.4,0.8c-5.9,1.3-10,6.5-10,6.5"/>
</svg>
