<?xml version="1.0" encoding="UTF-8" standalone="no"?>
<!-- Generator: Adobe Illustrator 21.0.0, SVG Export Plug-In . SVG Version: 6.00 Build 0)  -->

<svg
   xmlns:dc="http://purl.org/dc/elements/1.1/"
   xmlns:cc="http://creativecommons.org/ns#"
   xmlns:rdf="http://www.w3.org/1999/02/22-rdf-syntax-ns#"
   xmlns:svg="http://www.w3.org/2000/svg"
   xmlns="http://www.w3.org/2000/svg"
   xmlns:xlink="http://www.w3.org/1999/xlink"
   xmlns:sodipodi="http://sodipodi.sourceforge.net/DTD/sodipodi-0.dtd"
   xmlns:inkscape="http://www.inkscape.org/namespaces/inkscape"
   version="1.1"
   id="Слой_1"
   x="0px"
   y="0px"
   viewBox="0 0 358.01935 495.3187"
   xml:space="preserve"
   sodipodi:docname="england.svg"
   width="358.01935"
   height="495.3187"
   inkscape:version="0.92.1 r15371"><metadata
     id="metadata165"><rdf:RDF><cc:Work
         rdf:about=""><dc:format>image/svg+xml</dc:format><dc:type
           rdf:resource="http://purl.org/dc/dcmitype/StillImage" /></cc:Work></rdf:RDF></metadata><defs
     id="defs163" /><sodipodi:namedview
     pagecolor="#ffffff"
     bordercolor="#666666"
     borderopacity="1"
     objecttolerance="10"
     gridtolerance="10"
     guidetolerance="10"
     inkscape:pageopacity="0"
     inkscape:pageshadow="2"
     inkscape:window-width="1920"
     inkscape:window-height="1018"
     id="namedview161"
     showgrid="false"
     inkscape:zoom="0.944"
     inkscape:cx="316.02501"
     inkscape:cy="263.62801"
     inkscape:window-x="-8"
     inkscape:window-y="-8"
     inkscape:window-maximized="1"
     inkscape:current-layer="Слой_1" /><style
     type="text/css"
     id="style2">
	.st0{fill:none;stroke:#AD0F0A;stroke-width:1.5;stroke-miterlimit:3.8637;}
	.st1{clip-path:url(#SVGID_2_);fill:#FFFFFF;}
	.st2{clip-path:url(#SVGID_4_);}
	.st3{clip-path:url(#SVGID_6_);fill:#AD0F0A;}
	.st4{fill:none;stroke:#FFFFFF;stroke-width:1.5;stroke-miterlimit:3.8637;}
</style><g
     id="g158"
     transform="translate(-71.040327,-2.3553424)"><path
       class="st0"
       d="m 394.1,86.3 c 0,0 0.5,-7.5 5.9,-8 5.3,-0.5 9.6,3.7 10.1,9.1 0.5,5.3 -4.5,12.3 -12,12.8 -7.5,0.5 -11.2,-7.1 -11.2,-7.1 -2.4,-5.7 -0.8,-17 10.3,-22.9 8.4,-4.5 24.3,-3 28.4,18.8 2.9,15.4 -1.8,27.8 -13.5,40.7 -16.4,18 -29.6,40.4 -30.1,62.3 -0.7,29.3 6.4,42.6 20,42.4 11.3,-0.1 11.9,-10.9 12.4,-15.7 0.5,-4.8 -3.5,-8.8 -6.4,-8.7 -2.9,0.1 -6.5,2.8 -6.7,8"
       id="path4"
       inkscape:connector-curvature="0"
       style="fill:none;stroke:#ad0f0a;stroke-width:1.5;stroke-miterlimit:3.86369991" /><path
       class="st0"
       d="m 414.3,216.4 c 0,0 -2.9,12 -12.2,10.7 -9.3,-1.3 -11.3,-10.1 -10.1,-16.8 1.2,-6.7 7.2,-13.6 18.6,-13.5 11.3,0.1 18,9.3 17.7,20.7 -0.3,11.3 -10.1,31.9 -27.2,32.7 -17.1,0.8 -30.9,-13.5 -31.5,-39.6"
       id="path6"
       inkscape:connector-curvature="0"
       style="fill:none;stroke:#ad0f0a;stroke-width:1.5;stroke-miterlimit:3.86369991" /><line
       class="st0"
       x1="416.70001"
       y1="198"
       x2="383"
       y2="180.60001"
       id="line8"
       style="fill:none;stroke:#ad0f0a;stroke-width:1.5;stroke-miterlimit:3.86369991" /><path
       class="st0"
       d="m 369.5,185 c 0,0 -2.9,-23.2 13.9,-45.9 16.8,-22.7 20.5,-26.1 19.5,-40"
       id="path10"
       inkscape:connector-curvature="0"
       style="fill:none;stroke:#ad0f0a;stroke-width:1.5;stroke-miterlimit:3.86369991" /><path
       class="st0"
       d="m 387.7,94.4 c 0,0 -11,-14.6 -14.2,-18.3 -3.2,-3.7 -4.5,-9.3 1.6,-17.6 6.1,-8.3 15.5,-14.7 21.9,-8.8 6.4,5.9 22.5,25 22.5,25"
       id="path12"
       inkscape:connector-curvature="0"
       style="fill:none;stroke:#ad0f0a;stroke-width:1.5;stroke-miterlimit:3.86369991" /><path
       class="st0"
       d="m 380,84.3 c 0,0 4.7,6.5 0.5,16.3 -4.3,9.9 -10.9,13.9 -10.9,13.9"
       id="path14"
       inkscape:connector-curvature="0"
       style="fill:none;stroke:#ad0f0a;stroke-width:1.5;stroke-miterlimit:3.86369991" /><path
       class="st0"
       d="m 300.7,18.2 c 0,0 -5.1,-3.7 -7.2,1.1 -2.1,4.8 0.8,10.1 5.9,11.5 5.1,1.3 11.2,-0.5 24.8,-14.1 13.6,-13.6 33.1,-7.7 37.3,-4.3 4.3,3.5 11.7,16.3 1.3,29.9 -10.4,13.6 -19.7,15.5 -26.9,9.9 -7.2,-5.6 -4.5,-14.4 -0.5,-19.7 4,-5.3 12.3,-5.1 14.1,-3.2 1.9,1.9 3.7,6.4 -1.1,10.4"
       id="path16"
       inkscape:connector-curvature="0"
       style="fill:none;stroke:#ad0f0a;stroke-width:1.5;stroke-miterlimit:3.86369991" /><path
       class="st0"
       d="m 332,39.1 c 0,0 -17.4,12.5 -28.1,12.8 C 293.2,52.2 280.2,41.5 279.1,29.7 278,18 277.7,10 288.9,4.6 c 11.2,-5.3 17.9,4.8 19.7,9.6 1.9,4.8 3.8,14 -4.8,16.7"
       id="path18"
       inkscape:connector-curvature="0"
       style="fill:none;stroke:#ad0f0a;stroke-width:1.5;stroke-miterlimit:3.86369991" /><path
       class="st0"
       d="m 294.8,3.1 c 0,0 12.5,1.5 18.9,6.3 6.4,4.8 9.2,8.4 9.2,8.4"
       id="path20"
       inkscape:connector-curvature="0"
       style="fill:none;stroke:#ad0f0a;stroke-width:1.5;stroke-miterlimit:3.86369991" /><path
       class="st0"
       d="m 288.9,4.6 c 0,0 -9.1,2.9 -17.6,11.2 -8.5,8.3 -8,9.1 -6.1,16.5 1.9,7.5 0.8,16 16.5,27.2"
       id="path22"
       inkscape:connector-curvature="0"
       style="fill:none;stroke:#ad0f0a;stroke-width:1.5;stroke-miterlimit:3.86369991" /><path
       class="st0"
       d="m 312.7,59.6 c 0,0 8,-3.5 11.7,-5.6 3.7,-2.1 9,-4.4 9,-4.4"
       id="path24"
       inkscape:connector-curvature="0"
       style="fill:none;stroke:#ad0f0a;stroke-width:1.5;stroke-miterlimit:3.86369991" /><path
       class="st0"
       d="m 337.5,53.2 c 0,0 -3.2,0.8 -6.7,6.1"
       id="path26"
       inkscape:connector-curvature="0"
       style="fill:none;stroke:#ad0f0a;stroke-width:1.5;stroke-miterlimit:3.86369991" /><path
       class="st0"
       d="m 337.5,53.2 c 0,0 13.3,7.4 15.7,8.8 2.4,1.3 10.4,0.3 16.5,-6.4 6.1,-6.7 8.3,-11.5 9.3,-15.7 1.1,-4.3 0.5,-5.6 -4,-10.9 -4.5,-5.3 -13.6,-16.5 -13.6,-16.5"
       id="path28"
       inkscape:connector-curvature="0"
       style="fill:none;stroke:#ad0f0a;stroke-width:1.5;stroke-miterlimit:3.86369991" /><line
       class="st0"
       x1="377.10001"
       y1="45.400002"
       x2="382.79999"
       y2="51.099998"
       id="line30"
       style="fill:none;stroke:#ad0f0a;stroke-width:1.5;stroke-miterlimit:3.86369991" /><line
       class="st0"
       x1="363.39999"
       y1="60.400002"
       x2="370.79999"
       y2="67.300003"
       id="line32"
       style="fill:none;stroke:#ad0f0a;stroke-width:1.5;stroke-miterlimit:3.86369991" /><path
       class="st0"
       d="m 411.9,296.5 c -4.5,-2.1 -11.2,-2.4 -14.8,3.3 -3.7,5.7 -1.2,14.8 1.5,18.4 2.7,3.5 10.4,4.7 15.2,1.3 4.8,-3.5 8.3,-11.5 7.5,-19.5 -1.4,-14.1 -11.7,-18.9 -22.7,-18.1 -10.9,0.8 -22.2,13.3 -21.9,26.1 0.3,12.8 2.7,24.5 7.7,36.8 5.1,12.3 16.8,38.7 21.1,49.6 4.3,10.9 1.3,18.9 -1.9,21.9 -3.2,2.9 -8.5,4 -13.3,1.3 -4.8,-2.7 -6.1,-4.3 -6.1,-4.3"
       id="path34"
       inkscape:connector-curvature="0"
       style="fill:none;stroke:#ad0f0a;stroke-width:1.5;stroke-miterlimit:3.86369991" /><path
       class="st0"
       d="m 395.9,419.1 c 0,0 1.9,-3.9 1.9,-8.5 0,-4.5 -1.6,-9.1 -9.3,-10.9 -7.7,-1.9 -12,4.3 -13.9,11.5 -1.9,7.2 -0.5,20.8 13.6,23.2 14.1,2.4 22.7,-4.3 28.6,-17.9 5.9,-13.6 4.8,-27.8 -2.4,-44.5 -7.2,-16.8 -14.7,-33.9 -20,-45.9 -5.3,-12 -0.8,-22.5 4,-27.8"
       id="path36"
       inkscape:connector-curvature="0"
       style="fill:none;stroke:#ad0f0a;stroke-width:1.5;stroke-miterlimit:3.86369991" /><line
       class="st0"
       x1="418"
       y1="314.60001"
       x2="399.10001"
       y2="337.79999"
       id="line38"
       style="fill:none;stroke:#ad0f0a;stroke-width:1.5;stroke-miterlimit:3.86369991" /><line
       class="st0"
       x1="385.60001"
       y1="288.10001"
       x2="370"
       y2="306.89999"
       id="line40"
       style="fill:none;stroke:#ad0f0a;stroke-width:1.5;stroke-miterlimit:3.86369991" /><path
       class="st0"
       d="m 373.9,415.8 c 0,0 -3.4,15.5 -4.4,18.9 -1.1,3.5 0.5,16 17.1,17.3 16.5,1.3 25.3,-5.1 28.3,-16.3 2.9,-11.2 5.6,-36.3 5.6,-36.3"
       id="path42"
       inkscape:connector-curvature="0"
       style="fill:none;stroke:#ad0f0a;stroke-width:1.5;stroke-miterlimit:3.86369991" /><path
       class="st0"
       d="m 397,451.7 c 0,0 -9.6,13.4 -11.2,16.6 -1.6,3.2 -12,5.3 -18.1,0 -6.1,-5.3 -6.1,-10.4 -4,-14.7 2.1,-4.3 6.8,-11.5 6.8,-11.5"
       id="path44"
       inkscape:connector-curvature="0"
       style="fill:none;stroke:#ad0f0a;stroke-width:1.5;stroke-miterlimit:3.86369991" /><path
       class="st0"
       d="m 366.8,448 c 0,0 -6.1,-2.4 -8.5,5.3 -2.4,7.7 1.3,13.6 4.3,16.8 2.9,3.2 15.7,9.9 23.7,5.1 8,-4.8 4,-14 4,-14"
       id="path46"
       inkscape:connector-curvature="0"
       style="fill:none;stroke:#ad0f0a;stroke-width:1.5;stroke-miterlimit:3.86369991" /><path
       class="st0"
       d="m 369.2,444.1 c 0,0 -12.2,-3.6 -17.5,6.6 -5.3,10.1 -1.9,22.4 5.9,28.8 7.7,6.4 27.5,8 34.7,1.6 7.2,-6.4 8.1,-16.8 1.7,-25"
       id="path48"
       inkscape:connector-curvature="0"
       style="fill:none;stroke:#ad0f0a;stroke-width:1.5;stroke-miterlimit:3.86369991" /><path
       class="st0"
       d="m 353.2,447.4 c 0,0 -8.8,11 -12.3,16.4 -3.5,5.3 -4,14.9 3.7,23.2 7.7,8.3 25.9,13.9 33.9,6.4 8,-7.5 15,-13.6 15,-13.6"
       id="path50"
       inkscape:connector-curvature="0"
       style="fill:none;stroke:#ad0f0a;stroke-width:1.5;stroke-miterlimit:3.86369991" /><line
       class="st0"
       x1="343.39999"
       y1="460.20001"
       x2="335.39999"
       y2="454.39999"
       id="line52"
       style="fill:none;stroke:#ad0f0a;stroke-width:1.5;stroke-miterlimit:3.86369991" /><path
       class="st0"
       d="m 369.5,349.1 c 0,0 5.3,11.2 9.6,20.8 4.3,9.6 7.5,20.7 6.9,29.5"
       id="path54"
       inkscape:connector-curvature="0"
       style="fill:none;stroke:#ad0f0a;stroke-width:1.5;stroke-miterlimit:3.86369991" /><line
       class="st0"
       x1="389.20001"
       y1="248.10001"
       x2="389.20001"
       y2="285.29999"
       id="line56"
       style="fill:none;stroke:#ad0f0a;stroke-width:1.5;stroke-miterlimit:3.86369991" /><line
       class="st0"
       x1="418.5"
       y1="240.89999"
       x2="418.5"
       y2="289.60001"
       id="line58"
       style="fill:none;stroke:#ad0f0a;stroke-width:1.5;stroke-miterlimit:3.86369991" /><path
       class="st0"
       d="m 369.5,249.3 c 0,0 9.6,5.6 12.3,6.7 2.7,1.1 7,2.9 7.4,7.2 0.4,4.3 -2.9,6.4 -5.5,8.5 -2.7,2.1 -14.1,8.5 -14.1,8.5"
       id="path60"
       inkscape:connector-curvature="0"
       style="fill:none;stroke:#ad0f0a;stroke-width:1.5;stroke-miterlimit:3.86369991" /><g
       id="g70"><defs
         id="defs63"><path
           id="SVGID_1_"
           d="m 249.7,462.9 -1.2,-1.3 c -8.4,-9.2 -22.3,-17.9 -43.4,-17.8 -14.1,0.1 -36.2,0 -36.2,0 -15.3,0 -27.8,-12.4 -27.8,-27.8 V 98 c 0,-15.3 12.4,-27.8 27.7,-27.8 h 80.6 81.6 c 15.3,0 27.7,12.4 27.7,27.8 v 318 c 0,15.3 -12.4,27.8 -27.8,27.8 0,0 -22.1,0.1 -36.2,0 -21.1,-0.1 -35.1,8.6 -43.8,17.7 -0.3,0.4 -0.8,0.9 -1.2,1.4 z"
           inkscape:connector-curvature="0" /></defs><clipPath
         id="SVGID_2_"><use
           xlink:href="#SVGID_1_"
           style="overflow:visible"
           id="use65"
           x="0"
           y="0"
           width="100%"
           height="100%" /></clipPath><rect
         x="125.1"
         y="54.5"
         class="st1"
         width="258.79999"
         height="407.60001"
         clip-path="url(#SVGID_2_)"
         id="rect68"
         style="fill:#ffffff" /></g><g
       id="g90"><defs
         id="defs73"><path
           id="SVGID_3_"
           d="m 249.7,462.9 -1.2,-1.3 c -8.4,-9.2 -22.3,-17.9 -43.4,-17.8 -14.1,0.1 -36.2,0 -36.2,0 -15.3,0 -27.8,-12.4 -27.8,-27.8 V 98 c 0,-15.3 12.4,-27.8 27.7,-27.8 h 80.6 81.6 c 15.3,0 27.7,12.4 27.7,27.8 v 318 c 0,15.3 -12.4,27.8 -27.8,27.8 0,0 -22.1,0.1 -36.2,0 -21.1,-0.1 -35.1,8.6 -43.8,17.7 -0.3,0.4 -0.8,0.9 -1.2,1.4 z"
           inkscape:connector-curvature="0" /></defs><clipPath
         id="SVGID_4_"><use
           xlink:href="#SVGID_3_"
           style="overflow:visible"
           id="use75"
           x="0"
           y="0"
           width="100%"
           height="100%" /></clipPath><g
         class="st2"
         clip-path="url(#SVGID_4_)"
         id="g88"><defs
           id="defs79"><rect
             id="SVGID_5_"
             x="125.1"
             y="54.5"
             width="258.79999"
             height="407.60001" /></defs><clipPath
           id="SVGID_6_"><use
             xlink:href="#SVGID_5_"
             style="overflow:visible"
             id="use81"
             x="0"
             y="0"
             width="100%"
             height="100%" /></clipPath><rect
           x="121"
           y="248.8"
           class="st3"
           width="258.70001"
           height="32.099998"
           clip-path="url(#SVGID_6_)"
           id="rect84"
           style="fill:#ad0f0a" /><rect
           x="231.7"
           y="49"
           class="st3"
           width="37.400002"
           height="431.70001"
           clip-path="url(#SVGID_6_)"
           id="rect86"
           style="fill:#ad0f0a" /></g></g><path
       class="st4"
       d="m 249.7,462.9 -1.2,-1.3 c -8.4,-9.2 -22.3,-17.9 -43.4,-17.8 -14.1,0.1 -36.2,0 -36.2,0 -15.3,0 -27.8,-12.4 -27.8,-27.8 V 98 c 0,-15.3 12.4,-27.8 27.7,-27.8 H 331 c 15.3,0 27.7,12.4 27.7,27.8 v 318 c 0,15.3 -12.4,27.8 -27.8,27.8 0,0 -22.1,0.1 -36.2,0 -21.1,-0.1 -35.1,8.6 -43.8,17.7 -0.3,0.4 -0.8,0.9 -1.2,1.4 z"
       id="path92"
       inkscape:connector-curvature="0"
       style="fill:none;stroke:#ffffff;stroke-width:1.5;stroke-miterlimit:3.86369991" /><path
       class="st0"
       d="m 105.9,86.3 c 0,0 -0.5,-7.5 -5.9,-8 -5.3,-0.5 -9.6,3.7 -10.1,9.1 -0.5,5.3 4.5,12.3 12,12.8 7.5,0.5 11.2,-7.1 11.2,-7.1 2.4,-5.7 0.7,-17 -10.3,-22.9 -8.4,-4.5 -24.3,-3 -28.4,18.8 -2.9,15.4 1.7,27.8 13.5,40.7 16.4,18 29.6,40.4 30.1,62.3 0.7,29.3 -6.4,42.6 -20,42.4 -11.3,-0.1 -11.9,-10.9 -12.4,-15.7 -0.5,-4.8 3.5,-8.8 6.4,-8.7 2.9,0.1 6.5,2.8 6.7,8"
       id="path94"
       inkscape:connector-curvature="0"
       style="fill:none;stroke:#ad0f0a;stroke-width:1.5;stroke-miterlimit:3.86369991" /><path
       class="st0"
       d="m 85.7,216.4 c 0,0 2.9,12 12.2,10.7 9.3,-1.3 11.3,-10.1 10.1,-16.8 -1.2,-6.7 -7.2,-13.6 -18.5,-13.5 -11.3,0.1 -18,9.3 -17.7,20.7 0.3,11.3 10.1,31.9 27.2,32.7 17.1,0.8 30.9,-13.5 31.5,-39.6"
       id="path96"
       inkscape:connector-curvature="0"
       style="fill:none;stroke:#ad0f0a;stroke-width:1.5;stroke-miterlimit:3.86369991" /><line
       class="st0"
       x1="83.199997"
       y1="198"
       x2="117"
       y2="180.60001"
       id="line98"
       style="fill:none;stroke:#ad0f0a;stroke-width:1.5;stroke-miterlimit:3.86369991" /><path
       class="st0"
       d="m 130.5,185 c 0,0 2.9,-23.2 -13.9,-45.9 C 99.8,116.4 96.1,113 97.1,99.1"
       id="path100"
       inkscape:connector-curvature="0"
       style="fill:none;stroke:#ad0f0a;stroke-width:1.5;stroke-miterlimit:3.86369991" /><path
       class="st0"
       d="m 112.3,94.4 c 0,0 11,-14.6 14.2,-18.3 3.2,-3.7 4.5,-9.3 -1.6,-17.6 -6.1,-8.3 -15.5,-14.7 -21.9,-8.8 -6.4,5.9 -22.5,25 -22.5,25"
       id="path102"
       inkscape:connector-curvature="0"
       style="fill:none;stroke:#ad0f0a;stroke-width:1.5;stroke-miterlimit:3.86369991" /><path
       class="st0"
       d="m 120,84.3 c 0,0 -4.7,6.5 -0.5,16.3 4.3,9.9 10.9,13.9 10.9,13.9"
       id="path104"
       inkscape:connector-curvature="0"
       style="fill:none;stroke:#ad0f0a;stroke-width:1.5;stroke-miterlimit:3.86369991" /><path
       class="st0"
       d="m 199.3,18.2 c 0,0 5.1,-3.7 7.2,1.1 2.1,4.8 -0.8,10.1 -5.9,11.5 -5.1,1.3 -11.2,-0.5 -24.8,-14.1 C 162.2,3.1 142.7,9 138.4,12.4 c -4.3,3.5 -11.7,16.3 -1.3,29.9 10.4,13.6 19.7,15.5 26.9,9.9 7.2,-5.6 4.5,-14.4 0.5,-19.7 -4,-5.3 -12.3,-5.1 -14.1,-3.2 -1.9,1.9 -3.7,6.4 1.1,10.4"
       id="path106"
       inkscape:connector-curvature="0"
       style="fill:none;stroke:#ad0f0a;stroke-width:1.5;stroke-miterlimit:3.86369991" /><path
       class="st0"
       d="m 168,39.1 c 0,0 17.4,12.5 28.1,12.8 10.7,0.3 23.7,-10.4 24.8,-22.2 C 222,18 222.2,10 211.1,4.6 c -11.2,-5.3 -17.9,4.8 -19.7,9.6 -1.9,4.8 -3.8,14 4.8,16.7"
       id="path108"
       inkscape:connector-curvature="0"
       style="fill:none;stroke:#ad0f0a;stroke-width:1.5;stroke-miterlimit:3.86369991" /><path
       class="st0"
       d="m 205.2,3.1 c 0,0 -12.5,1.5 -18.9,6.3 -6.4,4.8 -9.2,8.4 -9.2,8.4"
       id="path110"
       inkscape:connector-curvature="0"
       style="fill:none;stroke:#ad0f0a;stroke-width:1.5;stroke-miterlimit:3.86369991" /><path
       class="st0"
       d="m 211.1,4.6 c 0,0 9.1,2.9 17.6,11.2 8.5,8.3 8,9.1 6.1,16.5 -1.9,7.5 -0.8,16 -16.5,27.2"
       id="path112"
       inkscape:connector-curvature="0"
       style="fill:none;stroke:#ad0f0a;stroke-width:1.5;stroke-miterlimit:3.86369991" /><path
       class="st0"
       d="m 187.3,59.6 c 0,0 -8,-3.5 -11.7,-5.6 -3.7,-2.1 -9,-4.4 -9,-4.4"
       id="path114"
       inkscape:connector-curvature="0"
       style="fill:none;stroke:#ad0f0a;stroke-width:1.5;stroke-miterlimit:3.86369991" /><path
       class="st0"
       d="m 162.5,53.2 c 0,0 3.2,0.8 6.7,6.1"
       id="path116"
       inkscape:connector-curvature="0"
       style="fill:none;stroke:#ad0f0a;stroke-width:1.5;stroke-miterlimit:3.86369991" /><path
       class="st0"
       d="m 162.5,53.2 c 0,0 -13.3,7.4 -15.7,8.8 -2.4,1.3 -10.4,0.3 -16.5,-6.4 -6.1,-6.7 -8.3,-11.5 -9.3,-15.7 -1.1,-4.3 -0.5,-5.6 4,-10.9 4.5,-5.3 13.6,-16.5 13.6,-16.5"
       id="path118"
       inkscape:connector-curvature="0"
       style="fill:none;stroke:#ad0f0a;stroke-width:1.5;stroke-miterlimit:3.86369991" /><line
       class="st0"
       x1="122.9"
       y1="45.400002"
       x2="117.1"
       y2="51.099998"
       id="line120"
       style="fill:none;stroke:#ad0f0a;stroke-width:1.5;stroke-miterlimit:3.86369991" /><line
       class="st0"
       x1="136.60001"
       y1="60.400002"
       x2="129.10001"
       y2="67.300003"
       id="line122"
       style="fill:none;stroke:#ad0f0a;stroke-width:1.5;stroke-miterlimit:3.86369991" /><path
       class="st0"
       d="m 88.1,296.5 c 4.5,-2.1 11.2,-2.4 14.8,3.3 3.7,5.7 1.2,14.8 -1.5,18.4 -2.6,3.5 -10.4,4.7 -15.2,1.3 C 81.4,316 77.9,308 78.7,300 c 1.4,-14.1 11.7,-18.9 22.7,-18.1 10.9,0.8 22.1,13.3 21.9,26.1 -0.3,12.8 -2.7,24.5 -7.7,36.8 -5.1,12.3 -16.8,38.7 -21.1,49.6 -4.3,10.9 -1.3,18.9 1.9,21.9 3.2,2.9 8.5,4 13.3,1.3 4.8,-2.7 6.1,-4.3 6.1,-4.3"
       id="path124"
       inkscape:connector-curvature="0"
       style="fill:none;stroke:#ad0f0a;stroke-width:1.5;stroke-miterlimit:3.86369991" /><path
       class="st0"
       d="m 104.1,419.1 c 0,0 -1.9,-3.9 -1.9,-8.5 0,-4.5 1.6,-9.1 9.3,-10.9 7.7,-1.9 12,4.3 13.9,11.5 1.9,7.2 0.5,20.8 -13.6,23.2 -14.1,2.4 -22.7,-4.3 -28.5,-17.9 -5.9,-13.6 -4.8,-27.8 2.4,-44.5 7.2,-16.8 14.7,-33.9 20,-45.9 5.3,-12 0.8,-22.5 -4,-27.8"
       id="path126"
       inkscape:connector-curvature="0"
       style="fill:none;stroke:#ad0f0a;stroke-width:1.5;stroke-miterlimit:3.86369991" /><line
       class="st0"
       x1="82"
       y1="314.60001"
       x2="100.9"
       y2="337.79999"
       id="line128"
       style="fill:none;stroke:#ad0f0a;stroke-width:1.5;stroke-miterlimit:3.86369991" /><line
       class="st0"
       x1="114.4"
       y1="288.10001"
       x2="129.89999"
       y2="306.89999"
       id="line130"
       style="fill:none;stroke:#ad0f0a;stroke-width:1.5;stroke-miterlimit:3.86369991" /><path
       class="st0"
       d="m 126.1,415.8 c 0,0 3.4,15.5 4.4,18.9 1.1,3.5 -0.5,16 -17.1,17.3 -16.5,1.3 -25.3,-5.1 -28.3,-16.3 -2.9,-11.2 -5.6,-36.3 -5.6,-36.3"
       id="path132"
       inkscape:connector-curvature="0"
       style="fill:none;stroke:#ad0f0a;stroke-width:1.5;stroke-miterlimit:3.86369991" /><path
       class="st0"
       d="m 103,451.7 c 0,0 9.6,13.4 11.2,16.6 1.6,3.2 12,5.3 18.1,0 6.1,-5.3 6.1,-10.4 4,-14.7 -2.1,-4.3 -6.8,-11.5 -6.8,-11.5"
       id="path134"
       inkscape:connector-curvature="0"
       style="fill:none;stroke:#ad0f0a;stroke-width:1.5;stroke-miterlimit:3.86369991" /><path
       class="st0"
       d="m 133.2,448 c 0,0 6.1,-2.4 8.5,5.3 2.4,7.7 -1.3,13.6 -4.3,16.8 -2.9,3.2 -15.7,9.9 -23.7,5.1 -8,-4.8 -4,-14 -4,-14"
       id="path136"
       inkscape:connector-curvature="0"
       style="fill:none;stroke:#ad0f0a;stroke-width:1.5;stroke-miterlimit:3.86369991" /><path
       class="st0"
       d="m 130.8,444.1 c 0,0 12.2,-3.6 17.5,6.6 5.3,10.1 1.9,22.4 -5.9,28.8 -7.7,6.4 -27.5,8 -34.7,1.6 -7.2,-6.4 -8.1,-16.8 -1.7,-25"
       id="path138"
       inkscape:connector-curvature="0"
       style="fill:none;stroke:#ad0f0a;stroke-width:1.5;stroke-miterlimit:3.86369991" /><path
       class="st0"
       d="m 146.7,447.4 c 0,0 8.8,11 12.3,16.4 3.5,5.3 4,14.9 -3.7,23.2 -7.7,8.3 -25.9,13.9 -33.9,6.4 -8,-7.5 -15,-13.6 -15,-13.6"
       id="path140"
       inkscape:connector-curvature="0"
       style="fill:none;stroke:#ad0f0a;stroke-width:1.5;stroke-miterlimit:3.86369991" /><line
       class="st0"
       x1="156.60001"
       y1="460.20001"
       x2="164.60001"
       y2="454.39999"
       id="line142"
       style="fill:none;stroke:#ad0f0a;stroke-width:1.5;stroke-miterlimit:3.86369991" /><path
       class="st0"
       d="m 130.5,349.1 c 0,0 -5.3,11.2 -9.6,20.8 -4.3,9.6 -7.5,20.7 -6.9,29.5"
       id="path144"
       inkscape:connector-curvature="0"
       style="fill:none;stroke:#ad0f0a;stroke-width:1.5;stroke-miterlimit:3.86369991" /><line
       class="st0"
       x1="110.8"
       y1="248.10001"
       x2="110.8"
       y2="285.29999"
       id="line146"
       style="fill:none;stroke:#ad0f0a;stroke-width:1.5;stroke-miterlimit:3.86369991" /><line
       class="st0"
       x1="81.5"
       y1="240.89999"
       x2="81.5"
       y2="289.60001"
       id="line148"
       style="fill:none;stroke:#ad0f0a;stroke-width:1.5;stroke-miterlimit:3.86369991" /><path
       class="st0"
       d="m 130.5,249.3 c 0,0 -9.6,5.6 -12.3,6.7 -2.7,1.1 -7,2.9 -7.4,7.2 -0.3,4.3 2.9,6.4 5.5,8.5 2.7,2.1 14.1,8.5 14.1,8.5"
       id="path150"
       inkscape:connector-curvature="0"
       style="fill:none;stroke:#ad0f0a;stroke-width:1.5;stroke-miterlimit:3.86369991" /><path
       class="st0"
       d="m 249.5,483.2 c 0,0 -8.7,-29 -44.3,-28.8 -14.2,0.1 -36.3,0 -36.3,0 -21.2,0 -38.4,-17.2 -38.4,-38.4 V 98 c 0,-21.2 17.2,-38.4 38.4,-38.4 h 162.2 c 21.2,0 38.4,17.2 38.4,38.4 v 318 c 0,21.2 -17.2,38.4 -38.4,38.4 0,0 -22.1,0.1 -36.3,0 -35.6,-0.1 -45.3,28.8 -45.3,28.8 z"
       id="path152"
       inkscape:connector-curvature="0"
       style="fill:none;stroke:#ad0f0a;stroke-width:1.5;stroke-miterlimit:3.86369991" /><path
       class="st0"
       d="m 235.9,59.6 c 0,0 2.4,-10.4 4.5,-15.2 2.1,-4.8 9.6,-4.5 9.6,-4.5 0,0 7.5,-0.3 9.6,4.5 2.1,4.8 4.5,15.2 4.5,15.2"
       id="path154"
       inkscape:connector-curvature="0"
       style="fill:none;stroke:#ad0f0a;stroke-width:1.5;stroke-miterlimit:3.86369991" /><path
       class="st0"
       d="m 269.3,17.8 c 0,0 -4.1,-5.2 -10,-6.5 -5.9,-1.3 -9.3,-0.8 -9.3,-0.8 0,0 -3.5,-0.5 -9.3,0.8 -5.9,1.3 -10,6.5 -10,6.5"
       id="path156"
       inkscape:connector-curvature="0"
       style="fill:none;stroke:#ad0f0a;stroke-width:1.5;stroke-miterlimit:3.86369991" /></g></svg>