<?xml version="1.0" encoding="UTF-8" standalone="no"?>
<!-- Generator: Adobe Illustrator 21.0.0, SVG Export Plug-In . SVG Version: 6.00 Build 0)  -->

<svg
   xmlns:dc="http://purl.org/dc/elements/1.1/"
   xmlns:cc="http://creativecommons.org/ns#"
   xmlns:rdf="http://www.w3.org/1999/02/22-rdf-syntax-ns#"
   xmlns:svg="http://www.w3.org/2000/svg"
   xmlns="http://www.w3.org/2000/svg"
   xmlns:xlink="http://www.w3.org/1999/xlink"
   xmlns:sodipodi="http://sodipodi.sourceforge.net/DTD/sodipodi-0.dtd"
   xmlns:inkscape="http://www.inkscape.org/namespaces/inkscape"
   version="1.1"
   id="Слой_1"
   x="0px"
   y="0px"
   viewBox="0 0 360.01935 498.31863"
   xml:space="preserve"
   sodipodi:docname="hre.svg"
   width="360.01935"
   height="498.31863"
   inkscape:version="0.92.1 r15371"><metadata
     id="metadata147"><rdf:RDF><cc:Work
         rdf:about=""><dc:format>image/svg+xml</dc:format><dc:type
           rdf:resource="http://purl.org/dc/dcmitype/StillImage" /></cc:Work></rdf:RDF></metadata><defs
     id="defs145" /><sodipodi:namedview
     pagecolor="#ffffff"
     bordercolor="#666666"
     borderopacity="1"
     objecttolerance="10"
     gridtolerance="10"
     guidetolerance="10"
     inkscape:pageopacity="0"
     inkscape:pageshadow="2"
     inkscape:window-width="716"
     inkscape:window-height="480"
     id="namedview143"
     showgrid="false"
     inkscape:zoom="0.472"
     inkscape:cx="179.95967"
     inkscape:cy="249.17389"
     inkscape:window-x="0"
     inkscape:window-y="0"
     inkscape:window-maximized="0"
     inkscape:current-layer="Слой_1" /><style
     type="text/css"
     id="style2">
	.st0{fill:none;stroke:#1D1D1B;stroke-width:1.5;stroke-miterlimit:3.8637;}
	.st1{clip-path:url(#SVGID_2_);fill:#FFEC00;}
	.st2{fill:#1D1D1B;}
</style><g
     id="g140"
     transform="translate(-70.040327,-0.85525879)"><path
       class="st0"
       d="m 394.9,85.3 c 0,0 0.5,-7.5 5.9,-8.1 5.4,-0.5 9.7,3.8 10.2,9.1 0.5,5.4 -4.6,12.3 -12.1,12.9 -7.5,0.5 -11.3,-7.1 -11.3,-7.1 C 385.3,86.4 386.9,75 398,69 c 8.5,-4.6 24.5,-3 28.6,18.9 2.9,15.5 -1.8,28 -13.6,40.9 -16.5,18.1 -29.8,40.7 -30.3,62.7 -0.7,29.5 6.4,42.8 20.1,42.7 11.4,-0.1 11.9,-11 12.5,-15.8 0.5,-4.8 -3.5,-8.9 -6.4,-8.7 -3,0.1 -6.6,2.8 -6.7,8"
       id="path4"
       inkscape:connector-curvature="0"
       style="fill:none;stroke:#1d1d1b;stroke-width:1.5;stroke-miterlimit:3.86369991" /><path
       class="st0"
       d="m 415.3,216.2 c 0,0 -2.9,12.1 -12.3,10.8 -9.4,-1.3 -11.4,-10.2 -10.2,-16.9 1.2,-6.7 7.3,-13.7 18.7,-13.6 11.4,0.1 18.1,9.4 17.8,20.8 -0.3,11.4 -10.2,32.1 -27.4,32.9 -17.2,0.8 -31.1,-13.5 -31.7,-39.9"
       id="path6"
       inkscape:connector-curvature="0"
       style="fill:none;stroke:#1d1d1b;stroke-width:1.5;stroke-miterlimit:3.86369991" /><line
       class="st0"
       x1="417.79999"
       y1="197.7"
       x2="383.79999"
       y2="180.2"
       id="line8"
       style="fill:none;stroke:#1d1d1b;stroke-width:1.5;stroke-miterlimit:3.86369991" /><path
       class="st0"
       d="m 370.2,184.6 c 0,0 -3,-23.4 13.9,-46.2 16.9,-22.8 20.7,-26.3 19.6,-40.3"
       id="path10"
       inkscape:connector-curvature="0"
       style="fill:none;stroke:#1d1d1b;stroke-width:1.5;stroke-miterlimit:3.86369991" /><path
       class="st0"
       d="m 388.5,93.5 c 0,0 -11,-14.7 -14.2,-18.4 -3.2,-3.8 -4.6,-9.4 1.6,-17.7 6.2,-8.3 15.6,-14.8 22,-8.9 6.4,5.9 22.6,25.2 22.6,25.2"
       id="path12"
       inkscape:connector-curvature="0"
       style="fill:none;stroke:#1d1d1b;stroke-width:1.5;stroke-miterlimit:3.86369991" /><path
       class="st0"
       d="m 380.8,83.3 c 0,0 4.8,6.5 0.5,16.4 -4.3,9.9 -11,14 -11,14"
       id="path14"
       inkscape:connector-curvature="0"
       style="fill:none;stroke:#1d1d1b;stroke-width:1.5;stroke-miterlimit:3.86369991" /><path
       class="st0"
       d="m 301,16.8 c 0,0 -5.1,-3.8 -7.3,1.1 -2.1,4.8 0.8,10.2 5.9,11.5 5.1,1.3 11.3,-0.5 25,-14.2 13.7,-13.7 33.3,-7.8 37.6,-4.3 4.3,3.5 11.8,16.4 1.3,30.1 -10.5,13.7 -19.9,15.6 -27.1,9.9 -7.3,-5.6 -4.6,-14.5 -0.5,-19.9 4,-5.4 12.3,-5.1 14.2,-3.2 1.9,1.9 3.8,6.4 -1.1,10.5"
       id="path16"
       inkscape:connector-curvature="0"
       style="fill:none;stroke:#1d1d1b;stroke-width:1.5;stroke-miterlimit:3.86369991" /><path
       class="st0"
       d="m 332.5,37.8 c 0,0 -17.5,12.6 -28.3,12.9 -10.7,0.3 -23.9,-10.5 -25,-22.3 -1.1,-11.8 -1.3,-19.8 9.9,-25.2 11.3,-5.4 18,4.8 19.9,9.7 1.9,4.8 3.8,14.1 -4.8,16.8"
       id="path18"
       inkscape:connector-curvature="0"
       style="fill:none;stroke:#1d1d1b;stroke-width:1.5;stroke-miterlimit:3.86369991" /><path
       class="st0"
       d="m 295.1,1.6 c 0,0 12.6,1.5 19.1,6.4 6.4,4.8 9.2,8.4 9.2,8.4"
       id="path20"
       inkscape:connector-curvature="0"
       style="fill:none;stroke:#1d1d1b;stroke-width:1.5;stroke-miterlimit:3.86369991" /><path
       class="st0"
       d="m 289.2,3.2 c 0,0 -9.1,3 -17.7,11.3 -8.6,8.3 -8.1,9.1 -6.2,16.6 1.9,7.5 0.8,16.1 16.6,27.4"
       id="path22"
       inkscape:connector-curvature="0"
       style="fill:none;stroke:#1d1d1b;stroke-width:1.5;stroke-miterlimit:3.86369991" /><path
       class="st0"
       d="m 313.1,58.4 c 0,0 8,-3.5 11.8,-5.6 3.8,-2.2 9.1,-4.4 9.1,-4.4"
       id="path24"
       inkscape:connector-curvature="0"
       style="fill:none;stroke:#1d1d1b;stroke-width:1.5;stroke-miterlimit:3.86369991" /><path
       class="st0"
       d="m 338.1,52 c 0,0 -3.2,0.8 -6.7,6.1"
       id="path26"
       inkscape:connector-curvature="0"
       style="fill:none;stroke:#1d1d1b;stroke-width:1.5;stroke-miterlimit:3.86369991" /><path
       class="st0"
       d="m 338.1,52 c 0,0 13.4,7.5 15.8,8.8 2.4,1.3 10.5,0.3 16.6,-6.4 6.2,-6.7 8.3,-11.5 9.4,-15.8 1.1,-4.3 0.5,-5.6 -4,-11 C 371.3,22.2 362.2,11 362.2,11"
       id="path28"
       inkscape:connector-curvature="0"
       style="fill:none;stroke:#1d1d1b;stroke-width:1.5;stroke-miterlimit:3.86369991" /><line
       class="st0"
       x1="377.89999"
       y1="44.099998"
       x2="383.60001"
       y2="49.900002"
       id="line30"
       style="fill:none;stroke:#1d1d1b;stroke-width:1.5;stroke-miterlimit:3.86369991" /><line
       class="st0"
       x1="364.10001"
       y1="59.299999"
       x2="371.60001"
       y2="66.199997"
       id="line32"
       style="fill:none;stroke:#1d1d1b;stroke-width:1.5;stroke-miterlimit:3.86369991" /><path
       class="st0"
       d="m 412.9,296.8 c -4.6,-2.2 -11.3,-2.4 -14.9,3.4 -3.7,5.8 -1.2,14.9 1.5,18.5 2.7,3.6 10.5,4.8 15.3,1.3 4.8,-3.5 8.3,-11.5 7.5,-19.6 -1.4,-14.2 -11.8,-19 -22.8,-18.2 -11,0.8 -22.3,13.4 -22,26.3 0.3,12.9 2.7,24.7 7.8,37 5.1,12.3 16.9,38.9 21.2,49.9 4.3,11 1.3,19.1 -1.9,22 -3.2,3 -8.6,4 -13.4,1.3 -4.8,-2.7 -6.2,-4.3 -6.2,-4.3"
       id="path34"
       inkscape:connector-curvature="0"
       style="fill:none;stroke:#1d1d1b;stroke-width:1.5;stroke-miterlimit:3.86369991" /><path
       class="st0"
       d="m 396.8,420.2 c 0,0 1.9,-4 1.9,-8.5 0,-4.6 -1.6,-9.1 -9.4,-11 -7.8,-1.9 -12.1,4.3 -13.9,11.5 -1.9,7.2 -0.5,20.9 13.7,23.4 14.2,2.4 22.8,-4.3 28.7,-18 5.9,-13.7 4.8,-27.9 -2.4,-44.8 -7.3,-16.9 -14.8,-34.1 -20.1,-46.2 -5.4,-12.1 -0.8,-22.6 4,-27.9"
       id="path36"
       inkscape:connector-curvature="0"
       style="fill:none;stroke:#1d1d1b;stroke-width:1.5;stroke-miterlimit:3.86369991" /><line
       class="st0"
       x1="419.10001"
       y1="315"
       x2="400"
       y2="338.39999"
       id="line38"
       style="fill:none;stroke:#1d1d1b;stroke-width:1.5;stroke-miterlimit:3.86369991" /><line
       class="st0"
       x1="386.5"
       y1="288.29999"
       x2="370.79999"
       y2="307.20001"
       id="line40"
       style="fill:none;stroke:#1d1d1b;stroke-width:1.5;stroke-miterlimit:3.86369991" /><path
       class="st0"
       d="m 374.7,416.8 c 0,0 -3.4,15.6 -4.4,19 -1.1,3.5 0.5,16.1 17.2,17.4 16.6,1.3 25.5,-5.1 28.4,-16.4 3,-11.3 5.7,-36.5 5.7,-36.5"
       id="path42"
       inkscape:connector-curvature="0"
       style="fill:none;stroke:#1d1d1b;stroke-width:1.5;stroke-miterlimit:3.86369991" /><path
       class="st0"
       d="m 397.9,452.9 c 0,0 -9.7,13.5 -11.3,16.7 -1.6,3.2 -12.1,5.4 -18.2,0 -6.2,-5.4 -6.2,-10.5 -4,-14.8 2.2,-4.3 6.8,-11.5 6.8,-11.5"
       id="path44"
       inkscape:connector-curvature="0"
       style="fill:none;stroke:#1d1d1b;stroke-width:1.5;stroke-miterlimit:3.86369991" /><path
       class="st0"
       d="m 367.5,449.2 c 0,0 -6.1,-2.4 -8.5,5.4 -2.4,7.8 1.3,13.7 4.3,16.9 3,3.2 15.8,9.9 23.9,5.1 8.1,-4.8 4,-14.1 4,-14.1"
       id="path46"
       inkscape:connector-curvature="0"
       style="fill:none;stroke:#1d1d1b;stroke-width:1.5;stroke-miterlimit:3.86369991" /><path
       class="st0"
       d="m 369.9,445.3 c 0,0 -12.3,-3.6 -17.6,6.6 -5.4,10.2 -1.9,22.6 5.9,29 7.8,6.4 27.6,8.1 34.9,1.6 7.3,-6.5 8.2,-16.9 1.7,-25.1"
       id="path48"
       inkscape:connector-curvature="0"
       style="fill:none;stroke:#1d1d1b;stroke-width:1.5;stroke-miterlimit:3.86369991" /><path
       class="st0"
       d="m 353.9,448.6 c 0,0 -8.9,11.1 -12.4,16.5 -3.5,5.4 -4,15 3.8,23.4 7.8,8.3 26,13.9 34.1,6.4 8.1,-7.5 15,-13.7 15,-13.7"
       id="path50"
       inkscape:connector-curvature="0"
       style="fill:none;stroke:#1d1d1b;stroke-width:1.5;stroke-miterlimit:3.86369991" /><line
       class="st0"
       x1="344"
       y1="461.5"
       x2="335.89999"
       y2="455.70001"
       id="line52"
       style="fill:none;stroke:#1d1d1b;stroke-width:1.5;stroke-miterlimit:3.86369991" /><path
       class="st0"
       d="m 370.2,349.7 c 0,0 5.4,11.3 9.7,20.9 4.3,9.7 7.5,20.8 7,29.7"
       id="path54"
       inkscape:connector-curvature="0"
       style="fill:none;stroke:#1d1d1b;stroke-width:1.5;stroke-miterlimit:3.86369991" /><line
       class="st0"
       x1="390"
       y1="248.10001"
       x2="390"
       y2="285.5"
       id="line56"
       style="fill:none;stroke:#1d1d1b;stroke-width:1.5;stroke-miterlimit:3.86369991" /><line
       class="st0"
       x1="419.5"
       y1="240.89999"
       x2="419.5"
       y2="289.79999"
       id="line58"
       style="fill:none;stroke:#1d1d1b;stroke-width:1.5;stroke-miterlimit:3.86369991" /><path
       class="st0"
       d="m 370.2,249.3 c 0,0 9.7,5.6 12.3,6.7 2.7,1.1 7.1,3 7.4,7.3 0.4,4.3 -2.9,6.4 -5.5,8.6 -2.7,2.1 -14.2,8.6 -14.2,8.6"
       id="path60"
       inkscape:connector-curvature="0"
       style="fill:none;stroke:#1d1d1b;stroke-width:1.5;stroke-miterlimit:3.86369991" /><g
       id="g70"><defs
         id="defs63"><path
           id="SVGID_1_"
           d="m 249.7,464.2 -1.2,-1.3 c -8.5,-9.2 -22.4,-18 -43.7,-17.9 -14.2,0.1 -36.4,0 -36.4,0 -15.4,0 -27.9,-12.5 -27.9,-27.9 v -320 c 0,-15.4 12.5,-27.9 27.9,-27.9 h 81.1 82.1 c 15.4,0 27.9,12.5 27.9,27.9 V 417 c 0,15.4 -12.5,27.9 -27.9,27.9 0,0 -22.2,0.1 -36.4,0 -21.2,-0.1 -35.3,8.6 -44,17.8 -0.6,0.5 -1.1,1 -1.5,1.5 z"
           inkscape:connector-curvature="0" /></defs><clipPath
         id="SVGID_2_"><use
           xlink:href="#SVGID_1_"
           style="overflow:visible"
           id="use65"
           x="0"
           y="0"
           width="100%"
           height="100%" /></clipPath><rect
         x="124.3"
         y="53.299999"
         class="st1"
         width="260.39999"
         height="410.10001"
         clip-path="url(#SVGID_2_)"
         id="rect68"
         style="fill:#ffec00" /></g><path
       class="st0"
       d="m 249.7,464.2 -1.2,-1.3 c -8.5,-9.2 -22.4,-18 -43.7,-17.9 -14.2,0.1 -36.4,0 -36.4,0 -15.4,0 -27.9,-12.5 -27.9,-27.9 v -320 c 0,-15.4 12.5,-27.9 27.9,-27.9 h 163.2 c 15.4,0 27.9,12.5 27.9,27.9 V 417 c 0,15.4 -12.5,27.9 -27.9,27.9 0,0 -22.2,0.1 -36.4,0 -21.2,-0.1 -35.3,8.6 -44,17.8 -0.6,0.5 -1.1,1 -1.5,1.5 z"
       id="path72"
       inkscape:connector-curvature="0"
       style="fill:none;stroke:#1d1d1b;stroke-width:1.5;stroke-miterlimit:3.86369991" /><path
       class="st0"
       d="m 105.1,85.3 c 0,0 -0.5,-7.5 -5.9,-8.1 -5.4,-0.5 -9.7,3.8 -10.2,9.1 -0.5,5.4 4.6,12.3 12.1,12.9 7.5,0.5 11.3,-7.1 11.3,-7.1 2.4,-5.7 0.7,-17.1 -10.3,-23.1 -8.5,-4.6 -24.5,-3 -28.6,18.9 -2.9,15.5 1.7,28 13.5,40.9 16.5,18.1 29.8,40.7 30.3,62.7 0.7,29.5 -6.4,42.8 -20.1,42.7 -11.4,-0.1 -11.9,-11 -12.5,-15.8 -0.5,-4.8 3.5,-8.9 6.5,-8.7 2.9,0.1 6.6,2.8 6.7,8"
       id="path74"
       inkscape:connector-curvature="0"
       style="fill:none;stroke:#1d1d1b;stroke-width:1.5;stroke-miterlimit:3.86369991" /><path
       class="st0"
       d="m 84.7,216.2 c 0,0 2.9,12.1 12.3,10.8 9.4,-1.3 11.4,-10.2 10.2,-16.9 -1.2,-6.7 -7.3,-13.7 -18.6,-13.6 -11.4,0.1 -18.1,9.4 -17.8,20.8 0.3,11.4 10.2,32.1 27.4,32.9 17.2,0.8 31.1,-13.5 31.7,-39.9"
       id="path76"
       inkscape:connector-curvature="0"
       style="fill:none;stroke:#1d1d1b;stroke-width:1.5;stroke-miterlimit:3.86369991" /><line
       class="st0"
       x1="82.199997"
       y1="197.7"
       x2="116.2"
       y2="180.2"
       id="line78"
       style="fill:none;stroke:#1d1d1b;stroke-width:1.5;stroke-miterlimit:3.86369991" /><path
       class="st0"
       d="m 129.8,184.6 c 0,0 3,-23.4 -13.9,-46.2 C 99,115.6 95.2,112.1 96.3,98.1"
       id="path80"
       inkscape:connector-curvature="0"
       style="fill:none;stroke:#1d1d1b;stroke-width:1.5;stroke-miterlimit:3.86369991" /><path
       class="st0"
       d="m 111.5,93.5 c 0,0 11,-14.7 14.2,-18.4 3.2,-3.8 4.6,-9.4 -1.6,-17.7 -6.2,-8.3 -15.6,-14.8 -22,-8.9 -6.4,5.9 -22.6,25.2 -22.6,25.2"
       id="path82"
       inkscape:connector-curvature="0"
       style="fill:none;stroke:#1d1d1b;stroke-width:1.5;stroke-miterlimit:3.86369991" /><path
       class="st0"
       d="m 119.2,83.3 c 0,0 -4.8,6.5 -0.5,16.4 4.3,9.9 11,14 11,14"
       id="path84"
       inkscape:connector-curvature="0"
       style="fill:none;stroke:#1d1d1b;stroke-width:1.5;stroke-miterlimit:3.86369991" /><path
       class="st0"
       d="m 199,16.8 c 0,0 5.1,-3.8 7.2,1.1 2.2,4.8 -0.8,10.2 -5.9,11.5 -5.1,1.3 -11.3,-0.5 -25,-14.2 C 161.6,1.5 142,7.4 137.7,10.9 c -4.3,3.5 -11.8,16.4 -1.3,30.1 10.5,13.7 19.9,15.6 27.1,9.9 7.2,-5.6 4.6,-14.5 0.5,-19.9 -4,-5.4 -12.3,-5.1 -14.2,-3.2 -1.9,1.9 -3.8,6.4 1.1,10.5"
       id="path86"
       inkscape:connector-curvature="0"
       style="fill:none;stroke:#1d1d1b;stroke-width:1.5;stroke-miterlimit:3.86369991" /><path
       class="st0"
       d="m 167.5,37.8 c 0,0 17.5,12.6 28.3,12.9 10.7,0.3 23.9,-10.5 25,-22.3 1.1,-11.8 1.3,-19.8 -9.9,-25.2 -11.3,-5.4 -18,4.8 -19.9,9.7 -1.9,4.8 -3.8,14.1 4.8,16.8"
       id="path88"
       inkscape:connector-curvature="0"
       style="fill:none;stroke:#1d1d1b;stroke-width:1.5;stroke-miterlimit:3.86369991" /><path
       class="st0"
       d="m 204.9,1.6 c 0,0 -12.6,1.5 -19.1,6.4 -6.4,4.8 -9.2,8.4 -9.2,8.4"
       id="path90"
       inkscape:connector-curvature="0"
       style="fill:none;stroke:#1d1d1b;stroke-width:1.5;stroke-miterlimit:3.86369991" /><path
       class="st0"
       d="m 210.8,3.2 c 0,0 9.1,3 17.7,11.3 8.6,8.3 8.1,9.1 6.2,16.6 -1.9,7.5 -0.8,16.1 -16.6,27.4"
       id="path92"
       inkscape:connector-curvature="0"
       style="fill:none;stroke:#1d1d1b;stroke-width:1.5;stroke-miterlimit:3.86369991" /><path
       class="st0"
       d="m 186.9,58.4 c 0,0 -8.1,-3.5 -11.8,-5.6 -3.8,-2.2 -9.1,-4.4 -9.1,-4.4"
       id="path94"
       inkscape:connector-curvature="0"
       style="fill:none;stroke:#1d1d1b;stroke-width:1.5;stroke-miterlimit:3.86369991" /><path
       class="st0"
       d="m 161.9,52 c 0,0 3.2,0.8 6.7,6.1"
       id="path96"
       inkscape:connector-curvature="0"
       style="fill:none;stroke:#1d1d1b;stroke-width:1.5;stroke-miterlimit:3.86369991" /><path
       class="st0"
       d="m 161.9,52 c 0,0 -13.4,7.5 -15.8,8.8 -2.4,1.3 -10.5,0.3 -16.6,-6.4 -6.2,-6.7 -8.3,-11.5 -9.4,-15.8 -1.1,-4.3 -0.5,-5.6 4,-11 4.6,-5.4 13.7,-16.6 13.7,-16.6"
       id="path98"
       inkscape:connector-curvature="0"
       style="fill:none;stroke:#1d1d1b;stroke-width:1.5;stroke-miterlimit:3.86369991" /><line
       class="st0"
       x1="122.1"
       y1="44.099998"
       x2="116.3"
       y2="49.900002"
       id="line100"
       style="fill:none;stroke:#1d1d1b;stroke-width:1.5;stroke-miterlimit:3.86369991" /><line
       class="st0"
       x1="135.89999"
       y1="59.299999"
       x2="128.39999"
       y2="66.199997"
       id="line102"
       style="fill:none;stroke:#1d1d1b;stroke-width:1.5;stroke-miterlimit:3.86369991" /><path
       class="st0"
       d="m 87.1,296.8 c 4.6,-2.2 11.3,-2.4 14.9,3.4 3.7,5.8 1.2,14.9 -1.5,18.5 -2.7,3.6 -10.5,4.8 -15.3,1.3 -4.8,-3.5 -8.3,-11.5 -7.5,-19.6 1.4,-14.2 11.8,-19 22.8,-18.2 11,0.8 22.3,13.4 22,26.3 -0.3,12.9 -2.7,24.7 -7.8,37 -5.1,12.3 -16.9,38.9 -21.2,49.9 -4.3,11 -1.3,19.1 1.9,22 3.2,3 8.6,4 13.4,1.3 4.8,-2.7 6.2,-4.3 6.2,-4.3"
       id="path104"
       inkscape:connector-curvature="0"
       style="fill:none;stroke:#1d1d1b;stroke-width:1.5;stroke-miterlimit:3.86369991" /><path
       class="st0"
       d="m 103.2,420.2 c 0,0 -1.9,-4 -1.9,-8.5 0,-4.6 1.6,-9.1 9.4,-11 7.8,-1.9 12.1,4.3 14,11.5 1.9,7.2 0.5,20.9 -13.7,23.4 -14.2,2.4 -22.8,-4.3 -28.7,-18 -5.9,-13.7 -4.8,-27.9 2.4,-44.8 7.3,-16.9 14.8,-34.1 20.1,-46.2 5.4,-12.1 0.8,-22.6 -4,-27.9"
       id="path106"
       inkscape:connector-curvature="0"
       style="fill:none;stroke:#1d1d1b;stroke-width:1.5;stroke-miterlimit:3.86369991" /><line
       class="st0"
       x1="80.900002"
       y1="315"
       x2="100"
       y2="338.39999"
       id="line108"
       style="fill:none;stroke:#1d1d1b;stroke-width:1.5;stroke-miterlimit:3.86369991" /><line
       class="st0"
       x1="113.5"
       y1="288.29999"
       x2="129.2"
       y2="307.20001"
       id="line110"
       style="fill:none;stroke:#1d1d1b;stroke-width:1.5;stroke-miterlimit:3.86369991" /><path
       class="st0"
       d="m 125.3,416.8 c 0,0 3.4,15.6 4.4,19 1.1,3.5 -0.5,16.1 -17.2,17.4 C 95.9,454.5 87,448.1 84,436.8 81,425.5 78.3,400.3 78.3,400.3"
       id="path112"
       inkscape:connector-curvature="0"
       style="fill:none;stroke:#1d1d1b;stroke-width:1.5;stroke-miterlimit:3.86369991" /><path
       class="st0"
       d="m 102.1,452.9 c 0,0 9.6,13.5 11.3,16.7 1.6,3.2 12.1,5.4 18.2,0 6.2,-5.4 6.2,-10.5 4,-14.8 -2.1,-4.3 -6.8,-11.5 -6.8,-11.5"
       id="path114"
       inkscape:connector-curvature="0"
       style="fill:none;stroke:#1d1d1b;stroke-width:1.5;stroke-miterlimit:3.86369991" /><path
       class="st0"
       d="m 132.5,449.2 c 0,0 6.1,-2.4 8.5,5.4 2.4,7.8 -1.3,13.7 -4.3,16.9 -3,3.2 -15.8,9.9 -23.9,5.1 -8.1,-4.8 -4,-14.1 -4,-14.1"
       id="path116"
       inkscape:connector-curvature="0"
       style="fill:none;stroke:#1d1d1b;stroke-width:1.5;stroke-miterlimit:3.86369991" /><path
       class="st0"
       d="m 130.1,445.3 c 0,0 12.3,-3.6 17.6,6.6 5.4,10.2 1.9,22.6 -5.9,29 -7.8,6.4 -27.6,8.1 -34.9,1.6 -7.3,-6.5 -8.2,-16.9 -1.7,-25.1"
       id="path118"
       inkscape:connector-curvature="0"
       style="fill:none;stroke:#1d1d1b;stroke-width:1.5;stroke-miterlimit:3.86369991" /><path
       class="st0"
       d="m 146.1,448.6 c 0,0 8.9,11.1 12.4,16.5 3.5,5.4 4,15 -3.8,23.4 -7.8,8.3 -26,13.9 -34.1,6.4 -8,-7.5 -15,-13.7 -15,-13.7"
       id="path120"
       inkscape:connector-curvature="0"
       style="fill:none;stroke:#1d1d1b;stroke-width:1.5;stroke-miterlimit:3.86369991" /><line
       class="st0"
       x1="156"
       y1="461.5"
       x2="164.10001"
       y2="455.70001"
       id="line122"
       style="fill:none;stroke:#1d1d1b;stroke-width:1.5;stroke-miterlimit:3.86369991" /><path
       class="st0"
       d="m 129.8,349.7 c 0,0 -5.4,11.3 -9.7,20.9 -4.3,9.7 -7.5,20.8 -7,29.7"
       id="path124"
       inkscape:connector-curvature="0"
       style="fill:none;stroke:#1d1d1b;stroke-width:1.5;stroke-miterlimit:3.86369991" /><line
       class="st0"
       x1="110"
       y1="248.10001"
       x2="110"
       y2="285.5"
       id="line126"
       style="fill:none;stroke:#1d1d1b;stroke-width:1.5;stroke-miterlimit:3.86369991" /><line
       class="st0"
       x1="80.5"
       y1="240.89999"
       x2="80.5"
       y2="289.79999"
       id="line128"
       style="fill:none;stroke:#1d1d1b;stroke-width:1.5;stroke-miterlimit:3.86369991" /><path
       class="st0"
       d="m 129.8,249.3 c 0,0 -9.7,5.6 -12.3,6.7 -2.7,1.1 -7.1,3 -7.4,7.3 -0.3,4.3 2.9,6.4 5.6,8.6 2.7,2.1 14.2,8.6 14.2,8.6"
       id="path130"
       inkscape:connector-curvature="0"
       style="fill:none;stroke:#1d1d1b;stroke-width:1.5;stroke-miterlimit:3.86369991" /><path
       class="st0"
       d="m 249.5,484.6 c 0,0 -8.8,-29.2 -44.5,-29 -14.2,0.1 -36.5,0 -36.5,0 -21.3,0 -38.6,-17.3 -38.6,-38.7 V 97.1 c 0,-21.3 17.3,-38.6 38.6,-38.6 h 163.2 c 21.3,0 38.6,17.3 38.6,38.6 V 417 c 0,21.3 -17.3,38.7 -38.6,38.7 0,0 -22.3,0.1 -36.5,0 -35.9,-0.2 -45.7,28.9 -45.7,28.9 z"
       id="path132"
       inkscape:connector-curvature="0"
       style="fill:none;stroke:#1d1d1b;stroke-width:1.5;stroke-miterlimit:3.86369991" /><path
       class="st0"
       d="m 235.8,58.4 c 0,0 2.4,-10.5 4.6,-15.3 2.2,-4.8 9.7,-4.6 9.7,-4.6 0,0 7.5,-0.3 9.7,4.6 2.2,4.8 4.6,15.3 4.6,15.3"
       id="path134"
       inkscape:connector-curvature="0"
       style="fill:none;stroke:#1d1d1b;stroke-width:1.5;stroke-miterlimit:3.86369991" /><path
       class="st0"
       d="m 269.4,16.4 c 0,0 -4.1,-5.2 -10,-6.6 C 253.5,8.5 250,9 250,9 c 0,0 -3.5,-0.5 -9.4,0.8 -5.9,1.4 -10,6.6 -10,6.6"
       id="path136"
       inkscape:connector-curvature="0"
       style="fill:none;stroke:#1d1d1b;stroke-width:1.5;stroke-miterlimit:3.86369991" /><path
       class="st2"
       d="m 250.9,207.6 c 0,0 2.8,-10.8 6.7,-15.3 -4.2,1.1 -4.2,0.8 -4.2,0.8 0,0 5.9,-6.1 10,-7 -5.6,0.6 -5.3,-0.3 -5.3,-0.3 0,0 13.4,-3.9 14.8,-8.3 1.4,-4.4 -6.1,-5 -6.1,-5 0,0 3.9,-3.3 7.5,-2.8 3.6,0.5 5.6,3.1 9.7,1.4 4.2,-1.7 6.4,-1.7 9.2,0.6 8.6,-1.1 8.9,6.7 8.9,6.7 0,0 -10,-1.7 -10,2.2 0,3.9 8.1,2.2 8.1,2.2 0,0 -1.9,4.4 -11.4,4.2 -9.5,-0.3 -22.8,15 -22,22.8 0.8,7.8 8.1,12.5 12.3,9.5 4.2,-3.1 0.6,-4.2 -0.8,-9.7 -1.4,-5.6 20.9,-13.4 28.9,-18.9 8.1,-5.6 12.8,-9.7 16.1,-18.6 1.7,-5 9.5,0 8.4,7.5 -1.1,7.5 -13.1,17.8 -20,20.9 -7,3.1 -11.1,3.6 -11.1,5.8 0,2.2 18.4,-1.7 23.9,-7.8 5.6,-6.1 7.5,-7 7.8,-5.6 0.3,1.4 0.8,11.4 -5,13.9 -5.9,2.5 -10.6,6.4 -27,8.3 -5.6,2.2 9.8,3.3 18.9,0.8 9.2,-2.5 10.3,-7.8 12.5,-4.2 2.2,3.6 -4.2,9.7 -9.7,11.1 -5.6,1.4 -20.6,-2 -22.3,-0.8 -1.7,1.1 9.7,6.1 16.1,6.1 6.4,0 17,-5.8 17,-3.6 0,2.2 -4.4,7 -9.2,7.5 -4.7,0.5 -15,2.2 -23.1,-2.5 -3.9,-1.7 -3.1,3.1 1.7,5.3 4.7,2.2 12.8,3.9 19.5,3.3 6.7,-0.6 9.5,-4.7 10.3,-2.5 0.8,2.2 -2.2,8.3 -12.5,8.9 -10.3,0.6 -15,-5 -17.5,-5.3 -2.5,-0.3 -6.1,0 -5,1.1 1.1,1.1 14.2,8.1 18.9,8.1 4.7,0 12.5,-3.9 13.9,-0.8 1.4,3.1 -4.2,8.1 -12.3,8.3 -8.1,0.3 -15.3,-8.3 -18.9,-9.2 -3.6,-0.8 -5.8,0 -5,1.4 0.8,1.4 13.9,13.6 21.7,14.5 7.8,0.8 11.1,-1.4 12,0.5 0.8,2 -3.4,4.5 -7,4.5 -3.6,0 -12,0 -22.8,-8.1 -10.8,-8.1 -11.7,-7.2 -11.7,-5.6 0,1.6 8.9,12.5 11.7,13.6 2.8,1.1 14.7,2.2 13.9,5 -0.8,2.8 -13.9,-0.3 -16.7,-1.1 -2.8,-0.8 -10.6,-10.3 -12.8,-10 -2.2,0.3 -1.9,4.5 -0.8,6.1 1.1,1.7 7.8,6.9 7.8,6.9 l -5.3,0.3 c 0,0 7.2,5.9 9.2,5.9 0,0 -4.4,0.6 -3.9,2 0.6,1.4 6.4,8.9 10.3,8.9 3.9,0 8.1,-0.8 9.5,-3.1 1.4,-2.2 2.2,-7.8 7.8,-7.8 5.6,0 5.9,5.3 5.9,5.3 0,0 -1.4,-2.8 -3.4,-2.5 1.7,4.4 -2.2,3.3 -5,4.4 -2.8,1.1 -2.5,4.2 -2.5,4.2 0,0 10.9,-3.1 14.2,-0.3 3.3,2.8 2.2,7.8 2.2,7.8 l -1.4,-3.1 c 0,0 -1.7,2.8 -5.3,0.8 -3.6,-1.9 -9.7,-1.9 -11.4,0.3 6.4,1.7 9.5,3.9 9.5,7.2 0,3.3 -3.6,6.1 -3.6,6.1 l 1.4,-3.9 c 0,0 -2.8,-0.6 -6.1,-3.3 -3.3,-2.8 -4.4,-3.9 -8.9,-4.2 -4.5,-0.3 -4.2,0.8 -6.4,-0.8 -2.2,-1.7 -3.9,-1.1 -8.1,0.3 -4.2,1.4 -7.2,0.3 -7.2,0.3 l -0.8,5 c 0,0 -2.2,-9.8 0.8,-10.6 3.1,-0.8 8.4,1.7 10,0.8 1.7,-0.8 0.3,-3.1 0.3,-3.1 l -5.6,-7.2 -3.9,5.8 c 0,0 2.8,-4.7 -0.3,-8.3 -3.1,-3.6 -3.1,-0.6 -3.1,-0.6 l -0.8,4.7 c 0,0 -2,-7.5 -5.6,-7 -3.6,0.5 -5.6,3.3 -5.3,6.7 0.3,3.3 2.5,16.9 18.6,25.6 10.8,5.8 12.8,5 12.8,5 0,0 -1.4,6.1 -13.4,2.2 -12,-3.9 -21.1,-24.8 -21.1,-24.8 0,0 -1.1,0 -0.3,3.6 0.8,3.6 6.3,21.3 19.8,26.4 5.9,2.2 5.9,0.6 5.9,0.6 l 0.3,7.2 -8.9,1.7 c 0,0 -15.9,-11.1 -21.4,-34.2 3.3,16.4 11.1,29.8 18.9,37.3 -0.6,6.9 -0.8,7.2 -0.8,7.2 l -9.2,-1.1 c 0,0 -12,-22.3 -13.1,-42 -1.1,13.4 4.7,35.6 7.8,41.7 -2.2,5.9 -10.8,8.6 -10.8,8.6 0,0 -8.6,-2.8 -10.9,-8.6 3.1,-6.1 8.9,-28.4 7.8,-41.7 -1.1,19.8 -13.1,42 -13.1,42 l -9.2,1.1 c 0,0 -0.3,-0.3 -0.8,-7.2 7.8,-7.5 15.6,-20.9 18.9,-37.3 -5.6,23.1 -21.4,34.2 -21.4,34.2 l -8.9,-1.7 0.3,-7.2 c 0,0 0,1.7 5.8,-0.6 13.5,-5.1 18.9,-22.8 19.8,-26.4 0.8,-3.6 -0.3,-3.6 -0.3,-3.6 0,0 -9.2,20.9 -21.2,24.8 -12,3.9 -13.4,-2.2 -13.4,-2.2 0,0 2,0.8 12.8,-5 16.1,-8.7 18.4,-22.3 18.7,-25.6 0.3,-3.3 -1.7,-6.1 -5.3,-6.7 -3.6,-0.6 -5.6,7 -5.6,7 l -0.8,-4.7 c 0,0 0,-3.1 -3.1,0.6 -3.1,3.6 -0.3,8.3 -0.3,8.3 l -3.9,-5.8 -5.6,7.2 c 0,0 -1.4,2.2 0.3,3.1 1.7,0.8 7,-1.7 10,-0.8 3.1,0.8 0.8,10.6 0.8,10.6 l -0.8,-5 c 0,0 -3.1,1.1 -7.2,-0.3 -4.2,-1.4 -5.8,-1.9 -8.1,-0.3 -2.2,1.7 -2,0.6 -6.4,0.8 -4.5,0.3 -5.6,1.4 -8.9,4.2 -3.3,2.8 -6.1,3.3 -6.1,3.3 l 1.4,3.9 c 0,0 -3.6,-2.8 -3.6,-6.1 0,-3.3 3.1,-5.6 9.5,-7.2 -1.7,-2.2 -7.8,-2.2 -11.4,-0.3 -3.6,1.9 -5.3,-0.8 -5.3,-0.8 l -1.4,3.1 c 0,0 -1.1,-5 2.2,-7.8 3.3,-2.8 14.2,0.3 14.2,0.3 0,0 0.3,-3.1 -2.5,-4.2 -2.8,-1.1 -6.7,0 -5,-4.4 -2,-0.3 -3.3,2.5 -3.3,2.5 0,0 0.3,-5.3 5.8,-5.3 5.6,0 6.4,5.6 7.8,7.8 1.4,2.2 5.6,3.1 9.5,3.1 3.9,0 9.7,-7.5 10.3,-8.9 0.6,-1.4 -3.9,-2 -3.9,-2 2,0 9.2,-5.9 9.2,-5.9 l -5.3,-0.3 c 0,0 6.7,-5.3 7.8,-6.9 1.1,-1.7 1.4,-5.9 -0.8,-6.1 -2.2,-0.3 -10,9.2 -12.8,10 -2.8,0.8 -15.9,3.9 -16.7,1.1 -0.8,-2.8 11.1,-3.9 13.9,-5 2.8,-1.1 11.7,-12 11.7,-13.6 0,-1.6 -0.8,-2.5 -11.7,5.6 -10.8,8.1 -19.2,8.1 -22.8,8.1 -3.6,0 -7.8,-2.5 -7,-4.5 0.8,-1.9 4.2,0.3 12,-0.5 7.8,-0.8 20.9,-13.1 21.7,-14.5 0.8,-1.4 -1.4,-2.2 -5,-1.4 -3.6,0.8 -10.9,9.5 -18.9,9.2 -8.1,-0.3 -13.6,-5.3 -12.3,-8.3 1.4,-3.1 9.2,0.8 13.9,0.8 4.7,0 17.8,-7 18.9,-8.1 1.1,-1.1 -2.5,-1.4 -5,-1.1 -2.5,0.3 -7.2,5.9 -17.5,5.3 -10.3,-0.5 -13.4,-6.7 -12.5,-8.9 0.8,-2.2 3.6,1.9 10.3,2.5 6.7,0.6 14.8,-1.1 19.5,-3.3 4.7,-2.2 5.6,-7 1.7,-5.3 -8.1,4.7 -18.4,3.1 -23.1,2.5 -4.7,-0.6 -9.2,-5.3 -9.2,-7.5 0,-2.2 10.6,3.6 17,3.6 6.4,0 17.8,-5 16.1,-6.1 -1.7,-1.1 -16.7,2.2 -22.3,0.8 -5.6,-1.4 -12,-7.5 -9.8,-11.1 2.2,-3.6 3.3,1.7 12.5,4.2 9.2,2.5 24.5,1.4 18.9,-0.8 -16.4,-1.9 -21.2,-5.9 -27,-8.3 -5.9,-2.5 -5.3,-12.5 -5,-13.9 0.3,-1.4 2.2,-0.6 7.8,5.6 5.6,6.1 23.9,10 23.9,7.8 0,-2.2 -4.2,-2.8 -11.1,-5.8 -6.9,-3.1 -18.9,-13.4 -20,-20.9 -1.1,-7.5 6.7,-12.5 8.3,-7.5 3.3,8.9 8.1,13.1 16.2,18.6 8.1,5.6 30.3,13.4 28.9,18.9 -1.4,5.6 -5,6.7 -0.8,9.7 4.2,3.1 11.4,-1.7 12.3,-9.5 0.8,-7.8 -12.5,-23.1 -22,-22.8 -9.5,0.3 -11.4,-4.2 -11.4,-4.2 0,0 8.1,1.7 8.1,-2.2 0,-3.9 -10,-2.2 -10,-2.2 0,0 0.3,-7.8 8.9,-6.7 2.8,-2.2 5,-2.2 9.2,-0.6 4.2,1.7 6.1,-0.8 9.7,-1.4 3.6,-0.6 7.5,2.8 7.5,2.8 0,0 -7.5,0.6 -6.1,5 1.4,4.5 14.8,8.3 14.8,8.3 0,0 0.3,0.8 -5.3,0.3 4.2,0.8 10,7 10,7 0,0 0,0.3 -4.2,-0.8 3.7,4.4 6.4,15.3 6.4,15.3"
       id="path138"
       inkscape:connector-curvature="0"
       style="fill:#1d1d1b" /></g></svg>