<?xml version="1.0" encoding="utf-8"?>
<!-- Generator: Adobe Illustrator 21.0.0, SVG Export Plug-In . SVG Version: 6.00 Build 0)  -->
<svg version="1.1"
	 id="Слой_1" inkscape:version="0.92.1 r15371" sodipodi:docname="spain.svg" xmlns:cc="http://creativecommons.org/ns#" xmlns:dc="http://purl.org/dc/elements/1.1/" xmlns:inkscape="http://www.inkscape.org/namespaces/inkscape" xmlns:rdf="http://www.w3.org/1999/02/22-rdf-syntax-ns#" xmlns:sodipodi="http://sodipodi.sourceforge.net/DTD/sodipodi-0.dtd" xmlns:svg="http://www.w3.org/2000/svg"
	 xmlns="http://www.w3.org/2000/svg" xmlns:xlink="http://www.w3.org/1999/xlink" x="0px" y="0px" viewBox="0 0 359.3 497.5"
	 style="enable-background:new 0 0 359.3 497.5;" xml:space="preserve">
<style type="text/css">
	.st0{fill:none;stroke:#B40005;stroke-width:1.5;stroke-miterlimit:3.8637;}
	.st1{clip-path:url(#SVGID_2_);fill:#FFFFFF;}
	.st2{fill:#FFFFFF;stroke:#B40005;stroke-width:1.5;stroke-miterlimit:3.8637;}
	.st3{fill:#B40005;stroke:#B40005;stroke-width:1.5;stroke-miterlimit:3.8637;}
	.st4{fill:#FFFFFF;}
	.st5{fill:#F6D155;}
	.st6{fill:#DFDDE2;}
	.st7{fill:#F1EEF0;}
	.st8{fill:#E8E6EB;}
	.st9{fill:#C3BDC9;}
	.st10{fill:url(#path6988_1_);}
	.st11{fill:url(#path8936_1_);}
	.st12{fill:url(#path24476_1_);}
	.st13{fill:#CECAD5;}
	.st14{fill:#C5BDCB;}
	.st15{fill:#C3BDCA;}
	.st16{fill:#E0DEE2;}
	.st17{fill:#DFDDE1;}
	.st18{fill:#C4BEC9;}
	.st19{fill:#C3BECA;}
	.st20{fill:#C4C0CD;}
	.st21{fill:#E1DFE3;}
	.st22{fill:#E0DEE3;}
	.st23{fill:#C4BECB;}
	.st24{fill:#C3BEC9;}
	.st25{fill:#C4BECA;}
	.st26{fill:#B6B1BF;}
	.st27{fill:#AAA3B5;}
	.st28{fill:#DFDCE1;}
	.st29{fill:#DFA12F;}
	.st30{fill:#DEA12F;}
	.st31{fill:#C1C0C8;}
	.st32{fill:#DFDDE3;}
	.st33{fill:#E0DEE4;}
	.st34{fill:#E1A02F;}
</style>
<sodipodi:namedview  bordercolor="#666666" borderopacity="1" gridtolerance="10" guidetolerance="10" id="namedview141" inkscape:current-layer="Слой_1" inkscape:cx="167.76793" inkscape:cy="319.2473" inkscape:pageopacity="0" inkscape:pageshadow="2" inkscape:window-height="480" inkscape:window-maximized="0" inkscape:window-width="716" inkscape:window-x="0" inkscape:window-y="0" inkscape:zoom="0.472" objecttolerance="10" pagecolor="#ffffff" showgrid="false">
	</sodipodi:namedview>
<path id="path4" inkscape:connector-curvature="0" class="st0" d="M324.4,84.4c0,0,0.5-7.5,5.9-8s9.6,3.7,10.2,9.1
	c0.5,5.4-4.5,12.3-12.1,12.9c-7.5,0.5-11.2-7.1-11.2-7.1c-2.4-5.7-0.8-17.1,10.3-23.1c8.4-4.5,24.4-3,28.6,18.9
	c2.9,15.5-1.8,27.9-13.5,40.9c-16.5,18.1-29.8,40.6-30.3,62.6c-0.7,29.5,6.4,42.8,20.1,42.6c11.4-0.1,11.9-11,12.5-15.8
	c0.5-4.8-3.5-8.8-6.4-8.7s-6.6,2.8-6.7,8"/>
<path id="path6" inkscape:connector-curvature="0" class="st0" d="M344.7,215.2c0,0-2.9,12.1-12.3,10.8s-11.4-10.2-10.2-16.9
	c1.2-6.7,7.2-13.7,18.6-13.5c11.4,0.1,18.1,9.4,17.8,20.8c-0.3,11.4-10.2,32-27.3,32.8c-17.1,0.8-31.1-13.5-31.6-39.8"/>
<line id="line8" class="st0" x1="347.2" y1="196.6" x2="313.3" y2="179.2"/>
<path id="path10" inkscape:connector-curvature="0" class="st0" d="M299.8,183.6c0,0-2.9-23.3,13.9-46.1
	c16.9-22.8,20.6-26.3,19.6-40.2"/>
<path id="path12" inkscape:connector-curvature="0" class="st0" d="M318,92.6c0,0-11-14.6-14.2-18.4s-4.5-9.4,1.6-17.7
	c6.2-8.3,15.5-14.7,22-8.8c6.4,5.9,22.6,25.1,22.6,25.1"/>
<path id="path14" inkscape:connector-curvature="0" class="st0" d="M310.3,82.5c0,0,4.8,6.5,0.5,16.4s-11,13.9-11,13.9"/>
<path id="path16" inkscape:connector-curvature="0" class="st0" d="M230.6,16.1c0,0-5.1-3.8-7.2,1.1c-2.1,4.8,0.8,10.2,5.9,11.5
	c5.1,1.3,11.3-0.5,24.9-14.2c13.7-13.7,33.2-7.8,37.5-4.3s11.8,16.3,1.3,30s-19.8,15.5-27.1,9.9c-7.2-5.6-4.6-14.5-0.5-19.8
	c4-5.4,12.3-5.1,14.2-3.2c1.9,1.9,3.7,6.4-1.1,10.5"/>
<path id="path18" inkscape:connector-curvature="0" class="st0" d="M262.1,37c0,0-17.5,12.6-28.2,12.8C223.2,50.1,210,39.3,209,27.5
	c-1.1-11.8-1.3-19.8,9.9-25.2s18,4.8,19.8,9.6c1.9,4.8,3.8,14.1-4.8,16.8"/>
<path id="path20" inkscape:connector-curvature="0" class="st0" d="M224.7,0.9c0,0,12.6,1.5,19,6.4c6.4,4.8,9.2,8.4,9.2,8.4"/>
<path id="path22" inkscape:connector-curvature="0" class="st0" d="M218.8,2.4c0,0-9.1,3-17.7,11.3c-8.6,8.3-8,9.1-6.2,16.6
	c1.9,7.5,0.8,16.1,16.6,27.3"/>
<path id="path24" inkscape:connector-curvature="0" class="st0" d="M242.7,57.6c0,0,8-3.5,11.8-5.6c3.7-2.1,9.1-4.4,9.1-4.4"/>
<path id="path26" inkscape:connector-curvature="0" class="st0" d="M267.6,51.2c0,0-3.2,0.8-6.7,6.1"/>
<path id="path28" inkscape:connector-curvature="0" class="st0" d="M267.6,51.2c0,0,13.4,7.5,15.8,8.8s10.5,0.3,16.6-6.4
	c6.2-6.7,8.3-11.5,9.4-15.8s0.5-5.6-4-11c-4.6-5.4-13.7-16.6-13.7-16.6"/>
<line id="line30" class="st0" x1="307.4" y1="43.3" x2="313.2" y2="49"/>
<line id="line32" class="st0" x1="293.6" y1="58.4" x2="301.1" y2="65.4"/>
<path id="path34" inkscape:connector-curvature="0" class="st0" d="M342.4,295.6c-4.5-2.1-11.3-2.4-14.9,3.3
	c-3.7,5.8-1.2,14.9,1.5,18.4c2.7,3.6,10.5,4.7,15.3,1.3c4.8-3.5,8.3-11.5,7.5-19.6c-1.4-14.1-11.8-19-22.8-18.2s-22.3,13.4-22,26.3
	s2.7,24.7,7.8,37c5.1,12.3,16.9,38.9,21.2,49.9c4.3,11,1.3,19-1.9,22c-3.2,3-8.6,4-13.4,1.3s-6.2-4.3-6.2-4.3"/>
<path id="path36" inkscape:connector-curvature="0" class="st0" d="M326.3,418.8c0,0,1.9-3.9,1.9-8.5s-1.6-9.1-9.4-11
	s-12.1,4.3-13.9,11.5c-1.9,7.2-0.5,20.9,13.7,23.3s22.8-4.3,28.7-18c5.9-13.7,4.8-27.9-2.4-44.8c-7.2-16.9-14.7-34-20.1-46.1
	s-0.8-22.6,4-27.9"/>
<line id="line38" class="st0" x1="348.5" y1="313.8" x2="329.5" y2="337.2"/>
<line id="line40" class="st0" x1="316" y1="287.2" x2="300.3" y2="306.1"/>
<path id="path42" inkscape:connector-curvature="0" class="st0" d="M304.2,415.4c0,0-3.4,15.5-4.4,19c-1.1,3.5,0.5,16.1,17.2,17.4
	c16.6,1.3,25.5-5.1,28.4-16.4s5.7-36.5,5.7-36.5"/>
<path id="path44" inkscape:connector-curvature="0" class="st0" d="M327.4,451.6c0,0-9.6,13.4-11.3,16.6c-1.6,3.2-12.1,5.4-18.2,0
	c-6.2-5.4-6.2-10.4-4-14.7c2.1-4.3,6.8-11.5,6.8-11.5"/>
<path id="path46" inkscape:connector-curvature="0" class="st0" d="M297,447.9c0,0-6.1-2.4-8.5,5.3c-2.4,7.8,1.3,13.7,4.3,16.9
	c2.9,3.2,15.8,9.9,23.9,5.1c8-4.8,4-14.1,4-14.1"/>
<path id="path48" inkscape:connector-curvature="0" class="st0" d="M299.4,443.9c0,0-12.2-3.6-17.6,6.6s-1.9,22.5,5.9,29
	c7.8,6.4,27.6,8,34.8,1.6c7.2-6.4,8.2-16.9,1.7-25.1"/>
<path id="path50" inkscape:connector-curvature="0" class="st0" d="M283.4,447.2c0,0-8.9,11.1-12.3,16.4c-3.5,5.3-4,15,3.7,23.3
	c7.8,8.3,26,13.9,34,6.4s15-13.7,15-13.7"/>
<line id="line52" class="st0" x1="273.6" y1="460.1" x2="265.5" y2="454.3"/>
<path id="path54" inkscape:connector-curvature="0" class="st0" d="M299.8,348.4c0,0,5.4,11.3,9.6,20.9c4.3,9.6,7.5,20.8,7,29.7"/>
<line id="line56" class="st0" x1="319.5" y1="247" x2="319.5" y2="284.4"/>
<line id="line58" class="st0" x1="349" y1="239.8" x2="349" y2="288.6"/>
<path id="path60" inkscape:connector-curvature="0" class="st0" d="M299.8,248.2c0,0,9.6,5.6,12.3,6.7c2.7,1.1,7.1,3,7.4,7.2
	c0.4,4.3-2.9,6.4-5.5,8.6c-2.7,2.1-14.2,8.6-14.2,8.6"/>
<g id="g72" transform="translate(-70.340327,-1.1328692)">
	<g>
		<defs>
			<path id="SVGID_1_" d="M249.7,463.9l-1.2-1.3c-8.5-9.2-22.4-18-43.6-17.9c-14.2,0.1-36.4,0-36.4,0c-15.4,0-27.9-12.5-27.9-27.9
				V97.3c0-15.4,12.5-27.9,27.9-27.9h81h82c15.4,0,27.9,12.5,27.9,27.9v319.5c0,15.4-12.5,27.9-27.9,27.9c0,0-22.2,0.1-36.4,0
				c-21.2-0.1-35.3,8.6-44,17.7C250.6,462.9,250.1,463.4,249.7,463.9L249.7,463.9z"/>
		</defs>
		<clipPath id="SVGID_2_">
			<use xlink:href="#SVGID_1_"  style="overflow:visible;"/>
		</clipPath>
		<rect id="rect68" x="124.5" y="53.6" class="st1" width="260" height="409.5"/>
	</g>
	<g>
		<defs>
			<path id="SVGID_3_" d="M249.7,463.9l-1.2-1.3c-8.5-9.2-22.4-18-43.6-17.9c-14.2,0.1-36.4,0-36.4,0c-15.4,0-27.9-12.5-27.9-27.9
				V97.3c0-15.4,12.5-27.9,27.9-27.9h81h82c15.4,0,27.9,12.5,27.9,27.9v319.5c0,15.4-12.5,27.9-27.9,27.9c0,0-22.2,0.1-36.4,0
				c-21.2-0.1-35.3,8.6-44,17.7C250.6,462.9,250.1,463.4,249.7,463.9L249.7,463.9z"/>
		</defs>
		<clipPath id="SVGID_4_">
			<use xlink:href="#SVGID_3_"  style="overflow:visible;"/>
		</clipPath>
	</g>
</g>
<path id="path76" inkscape:connector-curvature="0" class="st0" d="M35,84.4c0,0-0.5-7.5-5.9-8s-9.6,3.7-10.2,9.1
	c-0.5,5.4,4.5,12.3,12.1,12.9c7.5,0.5,11.3-7.1,11.3-7.1C44.7,85.6,43,74.2,32,68.2c-8.4-4.5-24.4-3-28.5,18.9
	C0.6,102.6,5.2,115,17,128c16.5,18.1,29.7,40.6,30.3,62.6c0.7,29.5-6.4,42.8-20.1,42.6c-11.4-0.1-11.9-11-12.5-15.8
	c-0.5-4.8,3.5-8.8,6.4-8.7s6.6,2.8,6.7,8"/>
<path id="path78" inkscape:connector-curvature="0" class="st0" d="M14.7,215.2c0,0,2.9,12.1,12.3,10.8s11.4-10.2,10.2-16.9
	s-7.2-13.7-18.6-13.5C7.2,195.7,0.5,205,0.8,216.4c0.3,11.4,10.2,32,27.3,32.8c17.2,0.8,31.1-13.5,31.6-39.8"/>
<line id="line80" class="st0" x1="12.2" y1="196.6" x2="46.1" y2="179.2"/>
<path id="path82" inkscape:connector-curvature="0" class="st0" d="M59.6,183.6c0,0,2.9-23.3-13.9-46.1
	c-16.9-22.8-20.6-26.3-19.6-40.2"/>
<path id="path84" inkscape:connector-curvature="0" class="st0" d="M41.4,92.6c0,0,11-14.6,14.2-18.4s4.6-9.4-1.6-17.7
	s-15.6-14.7-22-8.8S9.4,72.8,9.4,72.8"/>
<path id="path86" inkscape:connector-curvature="0" class="st0" d="M49.1,82.5c0,0-4.7,6.5-0.5,16.4c4.3,9.9,11,13.9,11,13.9"/>
<path id="path88" inkscape:connector-curvature="0" class="st0" d="M128.8,16.1c0,0,5.1-3.8,7.2,1.1c2.1,4.8-0.8,10.2-5.9,11.5
	c-5.1,1.3-11.3-0.5-24.9-14.2C91.5,0.8,72,6.7,67.7,10.2s-11.8,16.3-1.3,30c10.4,13.7,19.8,15.5,27.1,9.9c7.2-5.6,4.5-14.5,0.5-19.8
	c-4-5.4-12.3-5.1-14.2-3.2c-1.9,1.9-3.7,6.4,1.1,10.5"/>
<path id="path90" inkscape:connector-curvature="0" class="st0" d="M97.3,37c0,0,17.5,12.6,28.2,12.8c10.7,0.3,23.9-10.5,24.9-22.3
	c1.1-11.8,1.3-19.8-9.9-25.2c-11.3-5.4-18,4.8-19.8,9.6c-1.9,4.8-3.8,14.1,4.8,16.8"/>
<path id="path92" inkscape:connector-curvature="0" class="st0" d="M134.7,0.9c0,0-12.6,1.5-19,6.4c-6.4,4.8-9.2,8.4-9.2,8.4"/>
<path id="path94" inkscape:connector-curvature="0" class="st0" d="M140.6,2.4c0,0,9.1,3,17.7,11.3c8.6,8.3,8,9.1,6.2,16.6
	c-1.9,7.5-0.8,16.1-16.6,27.3"/>
<path id="path96" inkscape:connector-curvature="0" class="st0" d="M116.7,57.6c0,0-8-3.5-11.8-5.6s-9.1-4.4-9.1-4.4"/>
<path id="path98" inkscape:connector-curvature="0" class="st0" d="M91.8,51.2c0,0,3.2,0.8,6.7,6.1"/>
<path id="path100" inkscape:connector-curvature="0" class="st0" d="M91.8,51.2c0,0-13.4,7.5-15.8,8.8s-10.5,0.3-16.6-6.4
	S51.1,42.1,50,37.8c-1.1-4.3-0.5-5.6,4-11s13.7-16.6,13.7-16.6"/>
<line id="line102" class="st0" x1="52" y1="43.3" x2="46.2" y2="49"/>
<line id="line104" class="st0" x1="65.8" y1="58.4" x2="58.3" y2="65.4"/>
<path id="path106" inkscape:connector-curvature="0" class="st0" d="M17,295.6c4.6-2.1,11.3-2.4,14.9,3.3c3.7,5.8,1.2,14.9-1.5,18.4
	c-2.7,3.6-10.5,4.7-15.3,1.3c-4.8-3.5-8.3-11.5-7.5-19.6c1.4-14.1,11.8-19,22.8-18.2s22.2,13.4,22,26.3c-0.3,12.9-2.7,24.7-7.8,37
	S27.7,383,23.4,394s-1.3,19,1.9,22s8.6,4,13.4,1.3s6.2-4.3,6.2-4.3"/>
<path id="path108" inkscape:connector-curvature="0" class="st0" d="M33.1,418.8c0,0-1.9-3.9-1.9-8.5s1.6-9.1,9.4-11
	s12.1,4.3,13.9,11.5c1.9,7.2,0.5,20.9-13.7,23.3s-22.8-4.3-28.7-18s-4.8-27.9,2.4-44.8s14.7-34,20.1-46.1s0.8-22.6-4-27.9"/>
<line id="line110" class="st0" x1="10.9" y1="313.8" x2="29.9" y2="337.2"/>
<line id="line112" class="st0" x1="43.4" y1="287.2" x2="59.1" y2="306.1"/>
<path id="path114" inkscape:connector-curvature="0" class="st0" d="M55.2,415.4c0,0,3.4,15.5,4.4,19c1.1,3.5-0.5,16.1-17.1,17.4
	s-25.5-5.1-28.4-16.4s-5.7-36.5-5.7-36.5"/>
<path id="path116" inkscape:connector-curvature="0" class="st0" d="M32,451.6c0,0,9.6,13.4,11.2,16.6s12.1,5.4,18.2,0
	c6.2-5.4,6.2-10.4,4-14.7c-2.1-4.3-6.8-11.5-6.8-11.5"/>
<path id="path118" inkscape:connector-curvature="0" class="st0" d="M62.4,447.9c0,0,6.1-2.4,8.5,5.3c2.4,7.8-1.3,13.7-4.3,16.9
	c-2.9,3.2-15.8,9.9-23.9,5.1c-8-4.8-4-14.1-4-14.1"/>
<path id="path120" inkscape:connector-curvature="0" class="st0" d="M60,443.9c0,0,12.2-3.6,17.6,6.6s1.9,22.5-5.9,29
	c-7.8,6.4-27.6,8-34.8,1.6s-8.2-16.9-1.7-25.1"/>
<path id="path122" inkscape:connector-curvature="0" class="st0" d="M76,447.2c0,0,8.9,11.1,12.3,16.4c3.5,5.3,4,15-3.7,23.3
	c-7.8,8.3-26,13.9-34,6.4s-15-13.7-15-13.7"/>
<line id="line124" class="st0" x1="85.8" y1="460.1" x2="93.9" y2="454.3"/>
<path id="path126" inkscape:connector-curvature="0" class="st0" d="M59.6,348.4c0,0-5.3,11.3-9.6,20.9s-7.5,20.8-7,29.7"/>
<line id="line128" class="st0" x1="39.9" y1="247" x2="39.9" y2="284.4"/>
<line id="line130" class="st0" x1="10.4" y1="239.8" x2="10.4" y2="288.6"/>
<path id="path132" inkscape:connector-curvature="0" class="st0" d="M59.6,248.2c0,0-9.6,5.6-12.3,6.7c-2.7,1.1-7.1,3-7.4,7.2
	c-0.3,4.3,2.9,6.4,5.5,8.6c2.7,2.1,14.2,8.6,14.2,8.6"/>
<g>
	<path id="path134" inkscape:connector-curvature="0" class="st2" d="M179.2,484c0,0-8.8-29.1-44.5-28.9c-14.2,0.1-36.5,0-36.5,0
		c-21.3,0-38.6-17.3-38.6-38.6V97c0-21.3,17.3-38.6,38.6-38.6h163c21.3,0,38.6,17.3,38.6,38.6v319.5c0,21.3-17.3,38.6-38.6,38.6
		c0,0-22.2,0.1-36.4,0C189,454.9,179.2,484,179.2,484z"/>
	<path id="path74" inkscape:connector-curvature="0" class="st3" d="M177,462.5l-1.2-1.3c-8.5-9.2-22.4-18-43.6-17.9
		c-14.2,0.1-36.4,0-36.4,0c-15.4,0-27.9-12.5-27.9-27.9V95.9C67.9,80.5,80.4,68,95.8,68h163c15.4,0,27.9,12.5,27.9,27.9v319.5
		c0,15.4-12.5,27.9-27.9,27.9c0,0-22.2,0.1-36.4,0c-21.2-0.1-35.3,8.6-44,17.7C177.9,461.5,177.4,462,177,462.5L177,462.5z"/>
</g>
<path id="path136" inkscape:connector-curvature="0" class="st0" d="M165.5,57.6c0,0,2.4-10.5,4.5-15.3s9.7-4.5,9.7-4.5
	s7.5-0.3,9.6,4.5s4.5,15.3,4.5,15.3"/>
<path id="path138" inkscape:connector-curvature="0" class="st0" d="M199.1,15.6c0,0-4.1-5.2-10-6.6c-5.9-1.3-9.4-0.8-9.4-0.8
	s-3.5-0.5-9.4,0.8s-10,6.6-10,6.6"/>
<defs>
	
	
		<inkscape:perspective  id="perspective229" inkscape:persp3d-origin="1579.1925 : 1238.5824 : 1" inkscape:vp_x="0 : 1857.8735 : 1" inkscape:vp_y="0 : 1000 : 0" inkscape:vp_z="3158.385 : 1857.8735 : 1" sodipodi:type="inkscape:persp3d">
		</inkscape:perspective>
</defs>
<sodipodi:namedview  bordercolor="#666666" borderopacity="1.0" gridtolerance="10.0" guidetolerance="10.0" id="base" inkscape:current-layer="svg2" inkscape:cx="2652.7373" inkscape:cy="951.90043" inkscape:guide-bbox="true" inkscape:pageopacity="0.0" inkscape:pageshadow="2" inkscape:window-height="712" inkscape:window-width="1024" inkscape:window-x="0" inkscape:window-y="22" inkscape:zoom="0.080427955" objecttolerance="10.0" pagecolor="#ffffff" showgrid="false" showguides="true">
	</sodipodi:namedview>
<g id="g17183" transform="translate(-112.03125,-153.62672)">
	<path id="path81137" class="st4" d="M300.5,322.8c-1.9,3.3-2.8,3.5-11.2,2.2c-6.7-0.7-12.7-2.6-13,3.5c2.2,0.3,5.5,0.5,6.9,5.2
		l-4.1,3.5c-2.9,0.5-7.5,4.3-10.5,0.7c-0.8,3.4,2.3,4.3,5.5,4.2c2.3-0.2,3-0.8,7.2-1.7l1.1,1.2c6.4,0.5,9.7,9.7-0.7,15.1
		c-0.4,1.2,0.3,2.7,1.2,2.9c-3,4.3-8,9.6-9.8,6.1c-0.4,0.4-1.6,3.3,0.7,4.9c-1.7,2.1-2.4,4.6-2.3,7.5c-6.8-1.1-11.4-2.2-9.8-8.6
		c7.3,0.3,9.3-8.5,8.2-12.9c-4.2-17.8-27.2-32.1-43.9-32.6c0.9,4.8,3.9,8.3,7.3,11.6c-4.4-2.2-9.6-4.3-15-3.2
		c0.6,3.8,2.7,8.3,11.4,15.5c-6.3-3.7-12.1-7.4-14.1-10.4c-0.9,1.2-1.4,6.2,4,9.9c-1.7-0.7-10.1-0.6-12.7,1.2
		c1.5,3.5,8.6,9.6,14.4,11.5c-5.5-0.8-10.6-3-15.3-7c-0.7,0.6,0,7.1,5.9,9.7c-1.9,0.1-8.3,1.9-10,4c3.4,4.5,12,8.5,16.3,8.5
		c-5.8,0.8-12.2-0.4-14.9-1.2c0.1,1.5-1.2,7.5,14.8,6.5c-5.7,2.7-14.3,8.3-15.7,13.2c5.5,2.5,15.5,0.4,20.6-1.2
		c-15.2,9.3-17.6,10.2-20.4,9.6c3.7,7.8,12.5,2.5,20.2-1.8c-9.4,12.6-10.9,19-10.7,27.9c7.6-0.9,18.5-11.8,24.4-21
		c-6.8,13.9-10.8,25.1-18.2,28.4c8.4,3.3,15.6-7.2,20.7-18.4c-1.9,7.1-2.7,22.1-0.3,25.8c7.6-5.2,13.4-16.6,17.2-29.7
		c-1.3,6.5-2.3,12.9-4.7,19.4c4.9,0.9,7.4-7.8,9-13c0.2,0.3,0.3,0.5,0.8,0.9c6.2-4.5,8.1-14.9,8.6-19c5.6,1.6,8.1-0.4,9.6-1.5
		c1.2,1.7,1.3,4.4,1.7,4.7c-6.1-5-12.7,0-13,8.3c-0.7,3.5-2.5,7.5-7.1,10.6c0.3,0.4,0.9,0.5,1.8,0.5c-0.8,1.4-1.5,2.6-2.9,3.8
		c0.4,0.2,0.8,0.2,1.2,0.3c-1,1.7-2.7,3.3-4.5,4.2c0.4,0.4,0.6,0.5,1.9,0.9c-1.1,1.5-3,2.9-4.8,3.6c3.4,2,5.9,2.2,8,2.1c0,0,0,0,0,0
		c-1.3,2.6-3.5,4-5.6,5.1c0.7,0.6,1.4,0.7,2.1,0.6c-1.9,2-3.9,3.5-5.7,4.1c0.3,0.2,0.6,0.6,1.7,0.5c-1.3,1.6-2.9,3.1-5.6,3.9
		c0.5,1.1,1.7,0.9,2.6,0.9c-0.8,1.6-3.1,2.2-5.5,2.7c1.8,0.5,3,1.5,2,1.2c-0.7,0.9-1.4,1.3-3,1.6c-1.6,0.2-7.4-1.8-9.7-1
		c-0.7-1.3-2.2-2.2-3.9-2.2c-2.1,0-4.2,1.4-4.3,3.3c-0.3-0.2-1.7-0.4-1.5,1.2c0.5,1,0.5,1.8,3.6,2.9c0.5,0.2,1.1,0.3,1.9,0.3
		c1.1,0,2.3-0.6,3.2-1.4l0,0c1.5,0.3,3.2,0.5,4.2,0.9c-2.4,0.2-3.3,1.5-4.6,2.5c-0.6,0-1.1-0.2-1.6-0.3l0,0
		c-0.3-0.1-0.6-0.1-0.9-0.1c-1.7,0.1-3.5,2-3.7,4.3c0,0.4,0.1,0.9,0.3,1.3l0,0.4c-0.5,0.6-0.3,1.1,0.2,1.5c2.1,0.8,3.4,0.3,4.1,0.2
		c1.9-0.2,3.5-1.8,3.5-3.6c0,0,0,0,0,0l0,0c2.3-0.5,4.5-1.1,5.8-2c0.1,0.1,0.1,0.3,0.1,0.5c-0.8,0.5-2.1,1.2-2.8,3.5
		c-0.2,0-0.4,0-0.6,0c-2.6,0-3.2,1.8-3.2,3.3c0,1.4,0.6,2.3,1.3,2.9c-0.2,0.9,0,1.6,0.9,1.9c3.1,0.5,3.8-1.1,4.5-1.1
		c0-0.4,0-0.7,0.2-1c1-0.4,1.6-0.8,1.7-2.6c0.1-1.1-0.1-1.8-0.5-2.2l0.1,0c0,0,0,0,0,0c0,0,0,0,0,0l0,0l0,0c2.8-2.4,4.7-4.3,5.9-6
		c1.1,0.3,3.5,0.2,4.7-0.2l0,0.4c-1.1,1.1-0.4,3.7,1.1,3.6c-0.1,0.2-0.1,0.5,0,0.7c1,0.6,2.8,0.2,4.1,0.5c0.7-0.1,1-0.6,0.9-1.5l0,0
		c1.1-0.7,1.8-1.8,1.7-3.3c0-2.1-1.6-3.7-3.6-3.8l0,0c-2.1-0.2-4.2,1.3-3.7-2c5.8-6.9,13.7-17.3,15.9-18.5c-0.2-0.2-0.3-0.5-0.4-0.8
		c0.9,2.3,4.1,4.7,7.5,4.5c-0.6-1.2-1.3-2.2-1.5-5.3c0.5,0.7,1.4,1.1,2.4,1.3c-1.6-7.3,0.8-13.3,5.7-18.8
		c-0.4,7.1-1.3,14.2-5.6,21.4c2.2,0.7,5.1-1.6,5.5-2.9c0.5,6.4-5.6,14.6-10.3,10.6c-3,6.5,4.1,9.7,8.5,5.9c-0.7,3.9-3.8,6.3-7.2,7.2
		c-3.4,0.9-6.9-0.5-4.6-5.9c-0.5-0.3-7.2-0.5-7.4,6.9c0.2,4.2,3.1,5.8,3.3,5.9c-9.6,7.3,0.1,15.4,8,13.8c6.3-1,9.9-6.1,12.1-9.8
		c-0.7,2.7-3.5,11.2,3.7,20.4c7.2-11.2,4.1-18.8,4-20c5.6,8.7,11.2,9.3,14.5,9.1c5.6,0.1,13.6-8.7,3.5-14.4
		c5.2-2.5,5.5-12.7-1.8-13.2c1.5,4.1-1.7,6.5-5.2,6.2c-3.5-0.3-6.7-2.3-8-6.9c6.9,3.3,10.1-3.2,7.7-6.7c-5.9,4.9-8.7-2.9-9.4-7.6
		c1.5,1.1,2.8,1.5,5.3,1.2c-4.8-6.1-5.9-14.4-6.3-22.1c3.3,5.2,6.5,11.5,6.4,17.7c0.8-0.4,1.4-0.5,2.8-3.2c0.1,4.6-0.4,5.3-2,7.2
		c2.6,1.1,5.9-1,7.6-3.8c0,0,0,0,0,0c5,6.7,10.4,13.7,15.6,19c1.1,1.2,1.5,2.4-0.6,2.8c-6.7-2.5-7.4,4.6-4.7,5.5
		c-0.2,0.6-0.3,1.3-0.1,2c1.3,0.4,4-0.7,4.8-0.7c0.3-0.3,0.3-0.9,0.3-1.6c0.7,0,1.1-0.4,1.5-1c1.3,0.3,2.6,0.4,4.3-1l5,5
		c0.3,0.1-0.3,0.7,0.4,0.8c-0.6,3.3,0.7,3.7,1.8,4.5c-0.2,3.2,4.5,1.3,5,1.5c0.5-0.3,0.5-0.6,0.5-1c0.6-0.6,0.3-0.9,0.1-1.3
		c2.4-3.6-1-6.4-2.9-6.1c-2-2.2-3.4-3.1-5-4.4c3.3,1.2,8.3,2.6,9.8,3.7c0.6,3.7,3.8,2.2,6.2,2.3c0.7-1,0.3-1.4,0-1.7
		c3.2-4.1-3.5-7.4-6.3-5c-1.7-1.6-3.1-1.8-4.7-2.4c0.6-0.6,2-1.1,5-1.3c1.4,0.9,2.7,1.2,4.1,0.2c0.6,1.3,1.7,0.9,2.1,0.7
		c1-1.1,1-2.9,1.3-4.5c-0.3-0.6-0.7-0.9-1.4-0.9c-2-3.5-6-1.4-6.2,0.2c-3.4,0.3-6.4,0.7-10,2.2c-1.2,0.4-2.3-0.9-3.3-1.7
		c0.9-0.4,1.7-0.8,1.7-1.6c-1.5-0.1-2.9,0-4.6-1.8l0.4-1.2c-1.3-0.4-2.7-1.3-4.4-4c0.4-0.2,0.7-0.6,1-1.2c-1.9-0.4-3.5-1.5-4.8-3
		c0.5-0.2,0.9-0.6,1.3-1.3c-1.8-1.1-3.6-2-7-6.6c0,0,0,0,0-0.1c3.7,0.6,7.5,0.3,9.7-1.4c-1.8-0.5-5-1.5-6.4-4.3
		c0.7-0.1,1.1-0.2,1.5-0.3c-2.7-1.8-3.5-2.8-4.2-4.3c0.6,0.1,1.4-0.2,1.7-0.6c-1.8-0.8-2.5-1.9-3.2-3.1c0.7,0,1.5,0.2,2.1-0.3
		c-7-3.2-6-19.5-13.5-19.5c-3.3,0.3-3.9,1-5.7,1.9c0.5-1.4,1.4-2.7,2.3-4c4.1,1.9,7.3,0.8,8.4-0.1c0.6,6.6,2.7,13.6,7.2,17.1
		c0.8-0.4,1.7-1,2.3-1.6c0.8,6.1,3.1,14.1,8.2,13.5c-2.4-5.9-2.3-11.8-2.6-17.7c2.1,17.2,7.4,27.3,11.8,30.3
		c2-2.7,3.5-15.2,2.5-22.8c4.3,7.8,9.1,15,13.1,14.9c1.8,0,3.8-1.5,5-1.9c-6.3-2.5-10.5-14.1-14.4-21.3
		c7.2,11.3,15.8,16.4,19.8,17.2c0.1-3.5,0.9-13.3-8.1-26.8c16.1,8.5,19.5,3,20.4,0.1c-7.3,2.5-17-6.8-23.6-9.8l-0.1-0.3
		c9.6,4.4,19,5.9,24.8,2.2c-5-7.7-9.9-10.5-15.1-12.5c10.4,1.2,13.8-2.4,14-6.3c-3.8,1.3-7.3,1.5-11.8,0.8c10-2,11.8-6.2,11.7-6.7
		c-2.6-2-7.4-4.2-11.7-4.6c12-4.3,8.2-8.4,7.7-9.7c-3.7,3.5-10.2,6-11.4,5.9c5.6-2.9,10.5-10.6,10.2-11.4c-2.8-1.4-8.6-1.4-10.9-0.7
		c2.3-2.6,5.4-6.9,2.6-10.6c-2.7,3.8-5.3,5.9-7.9,7.9c2.3-3,5.1-6.4,6-13.3c-3.5,0.5-6.7,0.1-11.2,3.1c2.6-3.3,4.2-6.5,4.5-10.4
		c-15.7,1.1-34,9.3-42.9,29.8c-2.6,6-0.6,16.3,7.5,15.1c1.3,5.2-2.1,8.3-9.6,8.1c-0.2-1.7,0.4-5.2-1.7-7c1.8-0.1,2.2-1,2.5-1.8
		c-4.9-1.1-4.1-2.7-3.2-11.4c0.6,0.3,1.4,0.1,1.9-0.4c-2-1.8-1.3-5.3-0.3-16c0.2-4.7-0.8-7-1.8-7.9c0.6-0.3,1-0.8,0.7-2
		c2.2-0.4,1.3-3.1,0.4-4c-0.5,1.2-2.4,1.7-4.2,0.3C302.1,327,302.2,324.5,300.5,322.8z M309.5,438.6c0.1,0.1,0.2,0.2,0.2,0.3
		C309.7,438.8,309.6,438.7,309.5,438.6C309.5,438.6,309.5,438.6,309.5,438.6z M263.6,438.9c-0.2,0.8,0.2,3,0.2,4.5
		c0.7,0.4,2.1,0,3.6-0.6c-0.1,0-0.2,0.1-0.2,0.1c-1.1,0.4-2.5,0.8-3.3,0.5l-0.3-3.3C263.5,439.8,263.5,439.4,263.6,438.9
		C263.6,438.9,263.6,438.9,263.6,438.9z M263.1,439.1c-0.1,0-0.3,0.1-0.4,0.1C262.8,439.2,263,439.1,263.1,439.1z M310.5,439.5
		c1.7,1.2,3.7,1.2,4.5,1.1c0-0.1,0.1-0.2,0.1-0.3c0,0.1-0.1,0.2-0.1,0.3C313.4,440.8,311.9,440.6,310.5,439.5z M253.4,467.2
		C253.4,467.2,253.4,467.2,253.4,467.2L253.4,467.2C253.4,467.2,253.4,467.2,253.4,467.2z M295.9,469c1.6,1.6,7.6,6.1,14.5,3.9
		c0.6,3.9-2.8,5.4-5.4,4.9C302.4,477.3,298.5,475.2,295.9,469z M282,470c-2.3,4.3-6,7.9-9.4,8.8c-3.3,0.9-6.5-0.8-5.2-5.1
		C274.6,476.1,280.5,471.9,282,470z"/>
	<path id="path2569" sodipodi:nodetypes="ccccccccccccccc" class="st5" d="M273.8,309.3c3,5.3,4.2,10.3,5.9,15.1
		c2.8-0.4,6,0.3,9.1,0.6c3.2,0.4,6.4,1,9.1,0.6c1.6-7.5,3.1-11.3,6.3-16.6c-1.4,1-4.5,1.4-5.7,3.2c-1.8-1.6-3.2-0.6-4.1,1.1
		c0.3-1.4-0.1-2.5-1.9-2.6c1.1-2-0.6-3-2.3-2.1c0-1.7-1.4-1.7-1.5-2.7c-0.2,1.1-1.4,0.5-1.3,3.1c-1.4-1.1-2.7-0.4-2.2,1.6
		c-1.7,0-2.1,1.4-2,3.1c-1.1-2.6-3.3-1.8-4-0.9C277.8,310.1,276.8,311.8,273.8,309.3z"/>
	<path id="path80166" sodipodi:nodetypes="ccccccccccccccccccccc" class="st6" d="M248.8,390.2c-2.4-2.9-2.1-4.7-2-5.7
		c-2.7-2-2-2.8-2.4-3.6c0.9,1.6,1.9,2.7,2.8,2.9c1.8,1.6,3.6,2.2,5.3,3.2c-10.9-5.9-7.9-13.2-7.7-15.3c-1.7,0.1-2.9-0.3-3.9-0.9
		c0.3-2.9,1.9-5.3,5.2-6.9c-0.4,0.1-0.8,0.3-1.2,0.4c-0.4-0.1-1.3-2.5-0.1-4.1c0.7-0.4,2.5-0.6,4.4,0.1c1.1-2.2,2.5-4.2,5.5-5
		c0.7,0.8,2,3,1.1,6.9c1.2,0.4,2.4,1,3.4,2.5c-0.3,1.2-0.6,1.6-0.9,1.9c4.7,0,5.2-6.6-0.1-7.3c0.9-6.3-7.2-10-10.7-2.3
		c-6.4-1.7-8.2,3.3-5.7,7.2c-0.8,0.6-7.2,5.3-1.1,12c0,3.3,0.8,6.5,5.3,9.4C247,389.4,247.8,389.4,248.8,390.2z"/>
	<path id="path40357" sodipodi:nodetypes="cccccccccc" class="st6" d="M328.6,355.2l0.9-1.6c5.8-0.9,9.3,3,7,7.6
		c4.7,4,2.1,9.2-0.7,10.2c3.4-2.5,1.5-3.2,0.9-3.2c0.2-0.1,0.5-0.2,0.7-0.4c-0.2-2.2-1-4.3-4.4-6.7c1.7-1.8,1.5-3.6,1.3-4.8
		c-1.9-0.5-3.5-0.3-4.9,0.4L328.6,355.2z"/>
	<path id="path39386" sodipodi:nodetypes="ccccccccccc" class="st6" d="M320.6,366.5c0.3-0.9,0.5-2.4,2.2-3.7
		c-0.5,0.4-1.1,0.8-1.7,1.4c-2.1-0.9-3.5-2.8-3.8-4c1.3-1.7,4.4-1.4,4.8-1.3c-0.9-3.4,0.3-5.9,1.1-6.8c2.8,0.3,4.2,1.7,5.3,3
		l0.8-1.5c-0.8-2.4-3.1-4.1-5.8-3.6c-2.3,0.2-4.9,2.2-3.8,6.9C312.7,359.6,315.7,366.2,320.6,366.5z"/>
	<path id="path38415" sodipodi:nodetypes="cccccccc" class="st7" d="M305.6,378.3c-0.3,2.5-0.8,4.4-1.3,6.1
		c9.4-1.4,23.3-3.8,21.4-14.1c-1.7,1.2-3.4,1.5-5.1,1.5c-0.3-1.5-0.5-3,0.1-5.1c-1.5,2.1-3.4,2.9-5.3,3.4c8.5,3.8-3.6,10.5-8.6,8.2
		H305.6z"/>
	<path id="path34476" sodipodi:nodetypes="ccc" class="st8" d="M271.7,382.1c0.3,2.9,1.2,6.5,2.1,9.8
		C273.2,391,271.4,385.2,271.7,382.1z"/>
	<path id="path33505" sodipodi:nodetypes="cccc" class="st9" d="M299.6,380.1c-2.3,9,7.7,8.1,0.7-1.1c6.8,4.2,2.3,10.4,2,11.8
		C301.3,385.9,297,384.7,299.6,380.1z"/>
	<path id="path5999" sodipodi:nodetypes="cccc" class="st4" d="M254.4,355.4l-3.4,9.9c-0.8-0.4-1.6-0.7-2.7-2
		C248.4,360,251.4,355.7,254.4,355.4z"/>
	<path id="path6003" sodipodi:nodetypes="cccc" class="st9" d="M257.1,374.8l-6.1-9.4c1,0,2.1,0,3.4-0.3
		C256.2,366.8,258.2,371.2,257.1,374.8z"/>
	<path id="path6007" sodipodi:nodetypes="cccc" class="st4" d="M255.4,362.3c1.8,0.5,3.1,1.7,3.3,2.5l-4.3,0.4
		C254.8,364.2,255.1,363.3,255.4,362.3z"/>
	<path id="path6982" sodipodi:nodetypes="cccc" class="st4" d="M244.7,364.2c-0.8-1.2-0.8-3.5,0-4l3.6,3.3
		C247.4,363.7,245.7,363.8,244.7,364.2z"/>
	<path id="path6986" sodipodi:nodetypes="cccc" class="st4" d="M240.9,370.6l10.1-5.2c0.2-0.1-1.4-1.7-2.7-2
		C245.6,363.1,241.2,366.5,240.9,370.6z"/>
	
		<linearGradient id="path6988_1_" gradientUnits="userSpaceOnUse" x1="360.2886" y1="281.1035" x2="380.1947" y2="265.3528" gradientTransform="matrix(1 0 0 -1 -112.0313 653.6267)">
		<stop  offset="0" style="stop-color:#C3BDC9"/>
		<stop  offset="1" style="stop-color:#C3BDC9;stop-opacity:0"/>
	</linearGradient>
	<path id="path6988" sodipodi:nodetypes="ccccc" class="st10" d="M249.3,370.7c-5.2,14.9,17.2,17.2,23.1,17.6l-0.7-3.7
		c-10.8-0.5-20.9-2.9-19.4-11C250.4,372.3,249.9,371.8,249.3,370.7z"/>
	
		<linearGradient id="path8936_1_" gradientUnits="userSpaceOnUse" x1="419.9988" y1="245.34" x2="359.716" y2="276.5335" gradientTransform="matrix(1 0 0 -1 -112.0313 653.6267)">
		<stop  offset="0" style="stop-color:#C3BDC9"/>
		<stop  offset="1" style="stop-color:#C3BDC9;stop-opacity:0"/>
	</linearGradient>
	<path id="path8936" sodipodi:nodetypes="ccccc" class="st11" d="M249.3,370.6c-1.2,0.6-2.9,0.8-4.6,1.1c-4.3,18,23.6,19.4,29,20.1
		c-0.8-1.7-1.1-2.5-1.3-3.6C258.3,387.3,245.1,382,249.3,370.6z"/>
	<path id="path13795" sodipodi:nodetypes="cccc" class="st9" d="M323.2,352.1c1.6,3.2,3.2,7,4.4,10.6c0.7-1,1.3-2,2.7-3.1
		C329.6,356.3,327.9,352.7,323.2,352.1z"/>
	<path id="path14766" sodipodi:nodetypes="cccc" class="st4" d="M323.2,352.1c1.6,3.3,3.4,7.3,4.4,10.7l-3.8-0.5
		C321.5,359.8,321,354.9,323.2,352.1z"/>
	<path id="path15737" sodipodi:nodetypes="cccc" class="st9" d="M317.3,360.1c1-1.1,3.1-1.5,4.8-1.2c0.4,0.9,1,2.3,1.7,3.3
		L317.3,360.1z"/>
	<path id="path16708" sodipodi:nodetypes="cccc" class="st9" d="M334.2,356.2l-3.9,3.5l2.5,1.3C334.8,359.3,334.3,356.2,334.2,356.2
		z"/>
	<path id="path17679" sodipodi:nodetypes="cccc" class="st9" d="M330.3,359.6c-0.6,0.1-2.8,3.1-2.6,3.1l9.7,4.9
		C337.4,366,335.8,361.9,330.3,359.6z"/>
	<path id="path18650" sodipodi:nodetypes="cccc" class="st9" d="M327.6,362.7l-7,9c4.5-0.2,6.3-2.2,7.8-4.7L327.6,362.7z"/>
	<path id="path19621" sodipodi:nodetypes="cccc" class="st4" d="M334.2,356.2c-1.5-0.5-3.5-0.3-4.9,0.4c0.5,1,0.8,2.2,1,3
		L334.2,356.2z"/>
	<path id="path20592" sodipodi:nodetypes="cccc" class="st4" d="M327.6,362.7l9.7,5c-1.8,1.5-7.4,0.1-8.9-0.6L327.6,362.7z"/>
	<path id="path21563" sodipodi:nodetypes="cccc" class="st4" d="M327.6,362.7l-3.8-0.5c-4.2,1.8-3.5,9-3.2,9.5L327.6,362.7z"/>
	<path id="path22534" sodipodi:nodetypes="cccc" class="st4" d="M323.8,362.2l-6.4-2.1c0.3,1.5,2.2,3.3,3.6,3.9
		C321.3,363.7,322.7,362.4,323.8,362.2z"/>
	<path id="path23505" sodipodi:nodetypes="ccccc" class="st4" d="M328.5,367.1c-1.2,1.8-1.6,2.2-2.9,3.1c2.3,10.4-12.7,13-21.4,14.3
		c-0.1,1.4-0.5,2.6-1,3.8C304.9,388.1,335.7,387.5,328.5,367.1z"/>
	
		<linearGradient id="path24476_1_" gradientUnits="userSpaceOnUse" x1="452.2204" y1="287.3647" x2="416.1507" y2="259.7728" gradientTransform="matrix(1 0 0 -1 -112.0313 653.6267)">
		<stop  offset="0" style="stop-color:#C3BDC9"/>
		<stop  offset="1" style="stop-color:#C3BDC9;stop-opacity:0"/>
	</linearGradient>
	<path id="path24476" sodipodi:nodetypes="ccccc" class="st12" d="M328.7,367.2c4.1,15.2-9.4,19.5-25.4,21c-0.4,0.9-0.8,2-1.1,3
		c21.7-1.5,33-8.5,30-23.1C330.9,367.9,329.8,367.6,328.7,367.2z"/>
	<path id="path9207" sodipodi:nodetypes="cccc" class="st5" d="M227.6,473.6c1.7,0.8,3.9,0.3,5.1-0.1c0.6,0.6-0.2,2.9,1.7,4.6
		C233.2,478.6,227.5,476.8,227.6,473.6z"/>
	<path id="path10178" sodipodi:nodetypes="cccc" class="st5" d="M225.1,461.1c0.7,2.3,2.8,2.6,3.6,3c0,0.9-2.3,0.8-2.3,4
		C224.8,468,222.6,464.3,225.1,461.1z"/>
	<path id="path11151" sodipodi:nodetypes="cccc" class="st5" d="M236.7,480.2c2.8,0.5,3.8-1,4.5-1.1c0.3,0.9,1.6,2.1,2.8,2.8
		C243.4,483.9,236.6,483.4,236.7,480.2z"/>
	<path id="path11153" sodipodi:nodetypes="cccc" class="st5" d="M258.4,472.5c-0.2-0.4-3.4,0-4-0.5c-0.4,0.5-0.5,2.2-1.7,2.8
		C253.5,476.2,258.9,475.7,258.4,472.5z"/>
	<path id="path2396" sodipodi:nodetypes="ccscscccccccccccsccccccccccccccssssccccccsccccccccccccccccccccccccccc" class="st6" d="
		M264.6,443.6c0.5-0.1,0.9-0.1,1.3-0.2c-1.9,2.3-5.1,6.3-8.3,9.6c-3.2,3.4-6.1,6.7-5,9.7c-2.2-2.2-0.2-4.3,2.7-7.9
		C258.7,451,262.4,446.6,264.6,443.6z M260.6,468c0,1.6-1.3,3-4.4,2.9c3.5-3.9-3.6-4.1-1.9-5.7C259,462.2,260.9,466.8,260.6,468z
		 M257.2,471.5c1,0.2,1.7-1.1,1.9-0.4C259.6,472.3,257.2,472.6,257.2,471.5z M233.3,458c-0.7,0-0.5,2.9-4.8,2.8
		c-0.1,0-0.5,0-0.7,0.4c-0.5,1,1.2,3,2.8,2.9c1.4-0.1,2.6-0.9,3.3-1.9c0.3-0.2,2.6-1.4,2.4-0.9c-2.7,1.3-2,2.1,2.2,2.4
		c2.7-0.4,4.9-2.7,5.9-3.2c-2.7,0.5-8.5-1.3-9.9-1.4C234.3,458.7,233.9,458.2,233.3,458C233.3,458,233.3,458,233.3,458z
		 M228.5,472.9c-0.1,0.2-0.2,0.4-0.4,0.5c0.8,0.5,2.8,0.4,3,0.2C230.9,473.7,229.2,473.6,228.5,472.9z M248.4,460.8
		c-3.6,1.8-6.1,8.2-15.1,7.3c-0.2,0.8-0.7,0.9-1.2,1.2c-1.9,0-4,0.4-4,1.6c0,1.4,2.2,2.3,3.7,2.1c1.5-0.2,3-1.6,3-3c0,0,0,0,0,0
		c0-0.1,0.1-0.2,0.3-0.2C245,467.7,246.6,462.6,248.4,460.8z M250,461c-0.4,2.4-8.2,9.6-8.6,12c-0.4-0.3-1-0.6-2.3-0.5
		c0.7,3.6-2.3,4.7-3.1,4.1c0,1.6,2.4,2.3,3.9,2c1.8-0.3,3.3-3.1,2.3-4.8c0.2-3,4.2-3.9,5.8-7.7c1.5,0,1.7-2.3,3.5-2.7
		C251.1,462.3,249.6,463.8,250,461z M226.8,461c0.2,1.4,0.9,2,1.9,2.9c-0.9-0.3-1.7-0.5-2.6-1.4C227,462.8,226.3,460.8,226.8,461z
		 M245.6,457.2c1.7,0.4,3.8,0.5,6.8,0.4C248.1,459,246.2,458.5,245.6,457.2z M251.1,454.4c0,0.2-0.3,0.7-0.7,1
		c2.1,0,4.1-0.5,5.6-2.1C254.6,453.9,253,454.4,251.1,454.4z M254,449.7c-0.2,0.3-0.7,0.9-1.1,1.3c1.7,0.2,5.2-0.6,6.6-2.3
		C258.2,449.3,256,449.7,254,449.7z M258,445.1c-0.3,0.3-1.3,1.3-1.7,1.6c1.7,0.2,5.6-1.2,7.1-2.8C262,444.5,260,445.1,258,445.1z
		 M263.5,440c-0.1,2-0.8,3.2-1.5,4.1c0.6-0.2,1.2-0.3,1.8-0.6C263.8,442.4,263.7,441.1,263.5,440z"/>
	<path id="path2431" sodipodi:nodetypes="cccc" class="st5" d="M318.9,470.5c1.7,0.4,3.8-0.7,4.8-0.7c0.5,0.9,0.6,1.9,2.6,2.6
		C325,473.7,320.2,474.2,318.9,470.5z"/>
	<path id="path5344" sodipodi:nodetypes="cccc" class="st5" d="M338,478.3c-0.6,0.6-1.3,1.3-2.5,2c2.1,1.9,6.5-0.2,6.3-2.1
		C341.4,477.4,340.2,479,338,478.3z"/>
	<path id="path7286" sodipodi:nodetypes="cccc" class="st5" d="M346.4,471.4c0,2.5-0.3,3.2-0.6,4.1c1.2,0.8,4.4-1.1,4.7-4.1
		C350.2,470.7,348.8,471.9,346.4,471.4z"/>
	<path id="path9228" sodipodi:nodetypes="cccc" class="st5" d="M352.1,457.4c-0.9,0.2-0.4,3.3-1.4,4.3c0.9,0.5,1.4,1.6,2.1,2.6
		C354.8,462.8,354.7,458.5,352.1,457.4z"/>
	<path id="path3402" class="st6" d="M321,470.2c1-0.3,2-0.8,2.4-0.6C324,467.5,322.6,468.7,321,470.2z M319.7,468.6
		c1.9,0,4.5,0.3,5.2-2.2c2.9,1.4,6-1.3,5.3-3.8c0,0-0.9,4.3-7,1.6c-1.2-0.2-2.9,0.6-2.8,1.4C320.5,466.6,322.6,467.5,319.7,468.6z
		 M335.6,466.5c1.5,1.5,2.5,3,2.2,4.1c0.9-1.4,1-0.5,1.2,0c1.1,0.9,2,3.5-0.8,5.2c1.3,0.4,1.4,1.5,0,2c0.1,1.2,3.4-0.3,3.7,0.2
		c0.3-0.1,0.3-0.5,0.4-0.9c0.3-0.4,0.3-0.8,0-1.4c2.2-3.6-0.5-5.5-2.8-5.9C338.1,468.3,336.9,467.5,335.6,466.5z M335.7,462.6
		c2.3,1.5,5.4,2.6,8.4,4.5c3-2.9,5.1,1.9,0.9,2.2c1.1,2,5.6,1.8,5.4,0.3c2.8-5.3-4.8-6.6-6.3-4.7c-2.3-1.3-4.4-2.8-7.7-3.4
		c6.6,2.8,7.7,3.7,6.5,3.9C341.9,465.5,338.2,463.4,335.7,462.6z M337.7,458.5c1.8-0.8,5.7-0.7,6.8-1.6c1.7-3.1,4.9-2.3,5.9-0.3
		c0.7,0,1.3,0.2,1.4,0.7c-0.7,1.5-0.2,5.1-2.1,4.2c0.3-0.3,0.2-0.5,0-0.8c-0.8,0.8-0.8-0.1-0.8-0.5c-1.2,1.4-1.8,1.2-2.7,1
		c0.2-0.1,0.3-0.3,0.3-0.7c3.5-1.4,0.5-5.5-2.4-1.6C343.1,459.2,339.2,458.4,337.7,458.5z M309.5,438.6l-0.1,0.4
		c1.5,1.3,14,15.2,17.8,21.1c-0.6-1.3-0.3-1.8-2.5-4.4c5.7,3.2,8.5,0.4,8.2-0.3c-0.5,0.1-0.8,0.1-1,0c-5.3,2.7-9.2-1.8-11.5-4.7
		c2.9,2.3,4.9,2.8,7.9,2.9c0.3-0.5,0.3-0.8,0.4-1.1c-0.3,0-0.5-0.1-0.7-0.3c-3.6,1.4-7.9-1.4-11.2-5.9c3.2,2.3,5.5,2.1,7.7,2.1
		c0.3-0.4,0.8-0.7,0.9-1.2c-0.3,0-0.5-0.1-0.8-0.2c-2.2,0.8-7.7,0.5-10.4-4.1c1.8,1.2,3.9,2,6.5,1.3c0.5-0.4,1.1-0.8,1.2-1.2
		c-3.2,0.8-6.3,0.8-9.2-1.7c0.8,0,1.7-0.3,2.5-0.7C313.3,440.8,311.5,440.6,309.5,438.6z"/>
	<path id="path14081" sodipodi:nodetypes="cccc" class="st9" d="M270.5,340c6.2,3.3,13.5-4.3,18.5-0.1c0.5,0,0.6-0.4,0.5-0.7
		C283.7,333.9,277.4,341.6,270.5,340z"/>
	<path id="path2450" sodipodi:nodetypes="ccccc" class="st9" d="M268.2,436l-0.5,0.5c-0.6,2.7-2,4.9-3.7,7c1.5,0.2,3.4-0.6,5.2-1.4
		C268.1,440,267.9,438.6,268.2,436z"/>
	<path id="path3421" sodipodi:nodetypes="ccccc" class="st6" d="M270,432.3c0.9,1.7,2.5-1.1,3.3-1.9c-1,3.7-3.1,7.5,1.4,11
		c-2.3,0.2-3,1.2-0.8,3.5C269.7,442.9,267.3,439.5,270,432.3z"/>
	<path id="path4392" sodipodi:nodetypes="ccccsc" class="st13" d="M273.5,430.3c-1.5,7.4,0.9,10.2,3.3,10.9c-0.9-8,2.3-13.7,6.7-18
		c-0.3-7.4-1.3-10.8-2.1-16.1c0.1,2.5,1.8,9.3,0.6,14C280.7,426.1,277.2,430.9,273.5,430.3z"/>
	<path id="path5363" sodipodi:nodetypes="cccc" class="st9" d="M258.8,437.9c4.2,0.3,7.6-1,10.3-3.9c-1.5,3.7-5,5.4-10.1,4.9
		C260.9,438.6,261,438.3,258.8,437.9z"/>
	<path id="path6334" sodipodi:nodetypes="cccccc" class="st9" d="M258.3,433.7c-0.4,0.6-0.7,0.9-1,1.2c6.6,0.9,10.3-2.3,12.7-5
		c3.7,0.2,6.2-2.2,8.4-4.6c-2.5,2-5,3.6-7.9,3.2C267.7,432.6,263.7,434.5,258.3,433.7z"/>
	<path id="path7307" sodipodi:nodetypes="cccccc" class="st9" d="M260.9,428.6c-0.5,1-0.6,1-0.9,1.3c2.2,0.5,5.3-0.4,10.5-4.8
		c5.2-0.1,7.3-3.5,8.8-5c-2.7,2.4-5.5,3.6-8.4,3.7C268.2,426.7,265.2,429,260.9,428.6z"/>
	<path id="path8278" sodipodi:nodetypes="cccccc" class="st9" d="M262.6,424.5l-0.9,1.5c1.8-0.1,4.2,0,9.2-4.7
		c3.9-0.8,7.4-3.7,10.4-8.8c-2.5,3.1-4.8,6.5-10,6.9C270,422.4,266.6,423.7,262.6,424.5z"/>
	<path id="path9273" sodipodi:nodetypes="cccc" class="st9" d="M305.1,430.6c-0.3,2.7-0.9,5.1-2.1,7c0.1,0.9,0.1,1.8,0.1,2.6
		C304.9,438.4,306.2,433.1,305.1,430.6z"/>
	<path id="path10244" sodipodi:nodetypes="cccccc" class="st9" d="M307.7,431.9c1.9,5.1,0.2,11.8-6,12.9c1.9,0.8,7.7-1.8,8.5-9.6
		l4.7,5.3c0.3-1.2,0.4-2.5-0.5-4.3C310.7,435.5,309.5,434,307.7,431.9z"/>
	<path id="path11215" sodipodi:nodetypes="ccccc" class="st14" d="M310.8,433.6c2.5,1.1,7,2.7,11.4,0.8c0.7,0.3,1.3,0.5,2,0.6
		c-1.5,1.6-5.8,2-9.7,1.4C320,435.7,311.8,435.1,310.8,433.6z"/>
	<path id="path12186" sodipodi:nodetypes="cccccc" class="st15" d="M302,424.5c1.8,1.3,3.9,2.1,6.3,2.1c1.8,3.3,6.9,4.3,9.7,4.1
		c0.1,0.5,0.4,0.9,0.8,1.2c-2.4,0-5.5-0.8-10.2-3.8C307.3,427.7,302.8,425.6,302,424.5z"/>
	<path id="path13157" sodipodi:nodetypes="cccccc" class="st9" d="M301,419.6c1.8,1.5,3.9,2.3,6,2.6c2.2,2.4,4.9,3.6,8.3,4l0.7,1.3
		c-1.1,0.1-6.3-2.2-8.2-4C304.6,422.6,302.2,421,301,419.6z"/>
	<path id="path14128" sodipodi:nodetypes="cccccc" class="st9" d="M301.4,415.5c2.1,2.1,4.6,2.9,6.5,2.9c1.5,1.5,2.8,3.1,5.9,3.9
		c0.1,0.4,0.3,0.8,0.6,1c-2.3,0-5.5-3.3-5.9-3.8C305.3,419.2,301.8,417.7,301.4,415.5z"/>
	<path id="path2423" sodipodi:nodetypes="ccccccc" class="st6" d="M282.8,406.1c0.7-0.3,1-0.6,1.3-1c0.6,0.8,1.4,0.9,2.2,1.1
		c-1.5-0.1-1.7,0.7-1,1.9c0.3,0.5,0.8,7.9,1,12.4c0,4.1,0.6,6.8,1.4,8.6C284.4,426.3,286.2,409.7,282.8,406.1z"/>
	<path id="path3394" sodipodi:nodetypes="ccccccc" class="st13" d="M288.3,406.4c1.8-0.2,3.6-0.3,5.8-1.6l0.8,0.9
		c-1.6,3.4-2.4,11.4-3.4,18.6c0.3-4.6,0.4-8.7,0.1-9.8c-0.5-2.6-0.4-4.2-0.4-4.6C292.2,406.4,289.5,407.3,288.3,406.4z"/>
	<path id="path4365" sodipodi:nodetypes="ccccc" class="st9" d="M295.6,406.1l0.2,0.2c-3.1,6.7,0,22.1-6.6,29.9l-0.1-3
		C294.1,429.9,292.8,413,295.6,406.1z"/>
	<path id="path5336" sodipodi:nodetypes="ccccc" class="st9" d="M284.4,422.7c0,11,1.8,13.1-5.7,22.2c3.5-2.9,7.4-11.8,6.9-6.7
		c0.9-1.6,1.7-3.3,1.9-4.7C284.7,428.6,284.8,425.8,284.4,422.7z"/>
	<path id="path6307" sodipodi:nodetypes="cccc" class="st9" d="M290.5,434.8l-1.4,1.7l0.4,14.5C289.7,445,290,439.5,290.5,434.8z"/>
	<path id="path7278" sodipodi:nodetypes="cccc" class="st6" d="M293.9,424.3c-0.4,2.2-0.6,5-1.2,6.5c1,11.6,4.2,12.8,6.8,13.8
		C295,438.3,294.2,430,293.9,424.3z"/>
	<path id="path8249" sodipodi:nodetypes="ccccccccc" class="st16" d="M285.4,439.5c-1.4,3.1-0.9,9-4.7,12.8c3.2-1.6,4.4-5.6,4.5-8.7
		l0.3,3.3c-1.1,6.7-4.1,8.5-6.2,8.9c0.3-0.1,3.7,0.6,6.7-6.2c0.1,2.5-1.6,5.2-3.9,6.1c2,0.1,3.9-1.7,4.9-3.1
		C285.4,447.9,285.4,443.7,285.4,439.5z"/>
	<path id="path9220" sodipodi:nodetypes="ccccccccc" class="st9" d="M286.9,449.5c0.3,1.6,0.8,3.9,2.6,6.2l0.1,2.8
		c0.8-1.1,4-10.1,4.1-13.1c0.1-0.9,0.2-2,0.9-1.3c0.1,0.1,0.2,0.1,0.3,0c-1-0.7-2-3.9-2.7-5c0.6,3.5,1,8.5-2.6,15.9
		C288.4,453.8,287.6,451.7,286.9,449.5z"/>
	<path id="path10191" sodipodi:nodetypes="ccccc" class="st6" d="M302.2,455.3c-3.9,2-7.2-2.8-8.8-5.8l0.7-4.1
		c0-0.1,0.3-0.2,0.4-0.1C295.2,449.8,298.1,455.1,302.2,455.3z"/>
	<path id="path11162" sodipodi:nodetypes="cccc" class="st17" d="M292.8,451l-0.4,1.2c1.5,3.3,3.2,4.5,5.5,5.3
		C293.4,455.4,293.1,453.2,292.8,451z"/>
	<path id="path12133" sodipodi:nodetypes="ccccc" class="st6" d="M288.4,456.7l1.2,2l0.9-2c-0.2,5.4-0.5,11.9-0.7,17.9
		C289.4,468.6,288.7,462.4,288.4,456.7z"/>
	<path id="path13104" sodipodi:nodetypes="cccccccc" class="st9" d="M291.9,453.3c-0.1,0.3-0.2,0.6-0.3,0.8
		c4,14.8-0.7,22.7-1.8,23.8c-2.8-4.9-2.7-9.7-3.3-13.9c0.4,3.7,0,8.5,3.2,14.5l0,2.4c3.9-4.9,6.3-11.7,3.3-26.4
		C292.5,454.4,292.3,453.8,291.9,453.3z"/>
	<path id="path14075" sodipodi:nodetypes="ccccc" class="st6" d="M288.4,479.7c0.3,0.5,0.6,1.1,1.3,1.6c0.9-0.9,1.1-1.4,1.4-1.9
		c-0.7,3.9-1.1,7.8-1.6,11.6C289.2,487.2,288.9,483,288.4,479.7z"/>
	<path id="path15046" sodipodi:nodetypes="cccccccccc" class="st9" d="M295.4,480.4c-0.8-1.9-1.8-3.5-1.2-5.6
		c-0.1-0.6-0.4-0.7-0.7-0.9c-0.2,1.1-0.6,1.9-0.9,2.7c1.5,9-0.6,13.8-3.1,17.9c-4-5.5-3.3-11.3-3.4-16.4c-1.2,10.2,1.3,14.7,3.3,17
		l0,2.5c5.8-8.5,5.2-16.3,3.9-20.1C294,478.5,294.6,479.5,295.4,480.4z"/>
	<path id="path16017" sodipodi:nodetypes="cccc" class="st18" d="M273.5,454.6c0.8,7.4,10.2,5.2,14-0.4l-0.4-1
		C283.6,457.7,276,461.8,273.5,454.6z"/>
	<path id="path16988" sodipodi:nodetypes="ccccccc" class="st6" d="M286.7,457.3c-3.5,7.2-7.6,12.3-13.3,12.8
		c3.9,0.3,8.1-2.9,9.4-4.2c0.9-1.6,2.2-2.2,1,0c-0.5,0.8-0.9,1.3-1.6,2c0.9-0.4,2.8-3.3,3.2-3.6
		C285.4,461.1,286.1,459.4,286.7,457.3z"/>
	<path id="path2439" sodipodi:nodetypes="cccc" class="st19" d="M285.2,464.5c-0.1,0.8-0.1,1.6-0.1,2.3c-5.4,5.6-10.1,7.4-15.1,6.2
		C274.1,473.1,278.9,473.5,285.2,464.5z"/>
	<path id="path3410" sodipodi:nodetypes="cccccc" class="st6" d="M267.6,467.7c-1.2-3-0.7-5.4,1.4-7.2c-4.3-0.1-8.9,7.9-1,11.9
		c-4-2.3-4.2-7.1-2.9-8.7c0.9-1.4,2.1-1.8,1.2-0.2C265.8,466,266.9,467.2,267.6,467.7z"/>
	<path id="path4381" sodipodi:nodetypes="cccc" class="st6" d="M293.2,455.2c0.8,1.3,1.8,2.4,3.1,3.2c-0.4,7.3,7.6,12.1,13,10
		C306.2,470.7,296,470.1,293.2,455.2z"/>
	<path id="path5352" sodipodi:nodetypes="cccc" class="st20" d="M294.4,464.3v0.9c3.7,6.2,10,6.5,12,6.2
		C300.5,471.3,296.8,468.5,294.4,464.3z"/>
	<path id="path6323" sodipodi:nodetypes="ccc" class="st21" d="M310.7,459.7c5,3.4,3.6,8.8-1.7,11
		C313.1,468.1,315.1,464.6,310.7,459.7z"/>
	<path id="path7294" sodipodi:nodetypes="ccc" class="st9" d="M304.9,472.3c4.7,0.9,12.7-2.8,8.4-11.1
		C317.6,466.2,312.8,475.2,304.9,472.3z"/>
	<path id="path8265" sodipodi:nodetypes="cccc" class="st22" d="M294.4,469.3c0,0.5-0.1,0.8-0.2,1.5c4,8.1,6.3,8.6,8.9,10.7
		C298.3,477.8,295.7,473.7,294.4,469.3z"/>
	<path id="path9236" sodipodi:nodetypes="cscc" class="st23" d="M301,484.4c0.9,0.4,1.5,0.1,2.2,0.3c6.2,2.2,13.8-1.5,11.5-9
		C318.8,479.7,311.4,491,301,484.4z"/>
	<path id="path10207" sodipodi:nodetypes="ccc" class="st19" d="M311.9,473.6c4.7,4.6-0.1,11.1-6.4,8.9
		C312.1,483.3,314.6,477.8,311.9,473.6z"/>
	<path id="path11178" sodipodi:nodetypes="ccccc" class="st6" d="M266.5,473.5c-6.4,4.2-2.9,9.4,0.1,10.6c-1.1-0.8-2.3-3.7,1.2-2.1
		c1.2,0.5,2.2,0.5,3.2,0.5C264.4,480.4,265.8,476.9,266.5,473.5z"/>
	<path id="path12149" sodipodi:nodetypes="cccccc" class="st6" d="M285.2,467.7c0.2,2.2,0.4,4,0.7,5.3c-2.1,4.1-4.5,6.8-7.1,8.8
		c3-2.9,5.3-5.8,6.3-8.9c-5.2,8.1-8.8,9.4-12.6,9.6C277.2,481.5,284,477.5,285.2,467.7z"/>
	<path id="path13120" sodipodi:nodetypes="ccccc" class="st24" d="M286,473.3c0.1,0.7,0.3,1.3,0.7,1.8
		c-6.6,12.7-15.3,12.3-18.3,11.3c5.7,0.6,3.7-0.4,1.9-0.8C276.9,485.8,282.9,481.2,286,473.3z"/>
	<path id="path14091" sodipodi:nodetypes="ccccc" class="st25" d="M280.6,403.6c0.8-0.6,1.3-1.3,1.7-1.9c0.2,0.3,0.5,0.6,1,1
		c-1.2,0.4-1.7,2.2-2.4,2.2C280.8,404.4,280.8,404,280.6,403.6z"/>
	<path id="path17000" sodipodi:nodetypes="cccc" class="st9" d="M283.3,402.6c1.9,0.7,3.8,0.6,6.1-1c0.2,0.2,0.5,0.5,0.8,0.7
		C288,403.9,284.3,403.5,283.3,402.6z"/>
	<path id="path17971" sodipodi:nodetypes="cccc" class="st9" d="M291.3,402.6c1.3,0.2,2.6,0.5,4.3-0.4c0.2,0.3,0.5,0.6,0.7,0.8
		C295.8,403.6,293,403.5,291.3,402.6z"/>
	<path id="path18942" sodipodi:nodetypes="cccs" class="st9" d="M296.7,399.1c0.4,0.3,1.2,1,1.9,1.5c-0.5,0.8-1.1,1.6-1.6,2.6
		C294.5,401.1,296.3,398.8,296.7,399.1z"/>
	<path id="path20882" sodipodi:nodetypes="ccccc" class="st9" d="M278.8,399.7c0.4,0.5,0.6,0.8,0.8,1.2c1.5-1,2-2.2,2.5-3.3
		c-0.2-0.1-0.4-0.3-0.6-0.6C280.4,399,279.6,399.3,278.8,399.7z"/>
	<path id="path21853" sodipodi:nodetypes="ccccc" class="st9" d="M282.3,397.6l-0.2,0.3c3,1.7,7.8,3,13.9-0.1l-0.6-1.2
		C291.4,399.7,286.9,400.2,282.3,397.6z"/>
	<path id="path22824" sodipodi:nodetypes="ccccccc" class="st9" d="M296.4,397.6c1.7-0.3,1.1-2.5,2.8-3.2c2.6,4,7.2,2.9,9-0.1
		l0.3,2.2c-1.7,1.1-4.1,3-7.9,1.2c-0.3,0.6-0.4,1.7-0.4,2.8C298.5,400.1,297.1,399.2,296.4,397.6z"/>
	<path id="path23795" sodipodi:nodetypes="ccccc" class="st9" d="M301.8,390.2c0.7,1.3,0,4.2,0.1,5.2c-1.3-0.2-2-1.2-2.7-2.1
		c0.1,0,0.2-0.1,0.3-0.2C299.6,392.4,301.1,392,301.8,390.2z"/>
	<path id="path24766" sodipodi:nodetypes="ccccc" class="st19" d="M290.2,393.9l-0.1,0.2c2,0.7,6.2,1.1,9.2-0.9l-0.5-0.9
		C296.7,394,294,394.8,290.2,393.9z"/>
	<path id="path25737" sodipodi:nodetypes="ccccc" class="st9" d="M289,393.2c0.4,0.3,0.7,0.5,1.1,0.7c-2.8,2.5-6.8,1.9-10.8-0.3
		c0-0.1,0-0.2,0-0.4C283.9,395.7,287.1,395,289,393.2z"/>
	<path id="path26708" sodipodi:nodetypes="cccc" class="st24" d="M279,393.2c1,1.6-1.5,2.1-1.5,4.4l-1-1.2
		C276.5,394.8,278.5,395,279,393.2z"/>
	<path id="path27679" sodipodi:nodetypes="cccccccc" class="st24" d="M276.3,395.9l-1.9-2.9c-2-2.6,4.6-3.1,3.9-8.1
		c0.4,0.3,0.8,0.8,1.3,1c-0.2,4-3.7,3.8-3.8,6.6c-0.4-0.2-0.7-0.6-0.8-1.1c-0.2,0.1-0.2,0.1-0.4,0.3
		C273.8,392.7,275,393.3,276.3,395.9z"/>
	<path id="path28650" sodipodi:nodetypes="cccc" class="st9" d="M278.1,390.5c1.9,0.3,3.9,0,5.7-1.7c0.3,0.3,0.6,0.6,1,0.9
		C282.4,391.1,279.3,391.3,278.1,390.5z"/>
	<path id="path29621" sodipodi:nodetypes="ccccc" class="st25" d="M284.8,389.8l-0.2,0.2c3.2,1.8,7.7,1.8,10.2,0.2
		c-0.3-0.2-0.6-0.4-0.9-0.7C291,391.5,286.6,390.9,284.8,389.8z"/>
	<path id="path30592" sodipodi:nodetypes="ccccc" class="st18" d="M294.9,390.1l-0.2,0.2c2.3,0.9,5.1,0.8,7.1-0.3
		c-0.1-0.4-0.3-0.7-0.5-1C299.1,390.7,297,390.6,294.9,390.1z"/>
	<path id="path31563" sodipodi:nodetypes="cccc" class="st18" d="M279.9,386.1c3.4,1.7,7,0.6,9-1.2c0.3,0.4,0.7,0.7,1,0.9
		C287.5,388,281,387.8,279.9,386.1z"/>
	<path id="path32534" sodipodi:nodetypes="ccccc" class="st9" d="M290.1,385.9l-0.2,0.2c3,2.1,7.7,0.8,8.9,0
		c-0.2-0.5-0.3-0.9-0.5-1.3C296.2,386.6,293,387.2,290.1,385.9z"/>
	<path id="path35449" sodipodi:nodetypes="ccscccscsc" class="st9" d="M271.4,381.6l0.4,0.2c0.5-0.7,0.8-0.8,1-0.6
		c0.2,0.3-0.2,0.7,0.3,1.2c1.6-1.2,5.2-2.1,5.6-3.9c0.7,1.8,2.9,1.9,4.7,5.1c-0.4-2.4-2.9-3.1-3.9-4.7c-1-1.6-0.4-3.7,0.4-6.3
		c-1.7,2.3-0.4,5.6-3.1,7C275.1,380.6,271.7,380.4,271.4,381.6z"/>
	<path id="path36420" sodipodi:nodetypes="cccc" class="st9" d="M285.9,370.1l0.1,2.2c-2.9,1.1-0.6,8.3-1.8,9.9
		C283.8,376,281.2,373.8,285.9,370.1z"/>
	<path id="path37391" sodipodi:nodetypes="cccccc" class="st9" d="M288.2,375.3h0.3c0.4,4,4.6,4.4,5.3,8.4c-0.9-2.7-3.3-3.5-4.6-5
		c-0.7,3.1-4.4,4-5.4,5.7C283.7,382.9,289.1,380.9,288.2,375.3z"/>
	<path id="path38362" sodipodi:nodetypes="ccccc" class="st9" d="M294.6,371.4c-2.2,3.5,2.2,5.7-0.2,11.6c1.2-7.6-4.1-7-0.7-12.5
		c1.2,1.1,5.2,2.3,5.5,4.2C297.9,372.8,295.8,372.7,294.6,371.4z"/>
	<path id="path39333" sodipodi:nodetypes="cccc" class="st9" d="M299.2,375.2c0.4,1.3,0.8,1.9,1.1,2.8c-1.2,4-6,5.3-6.2,6.8
		C293.2,382.9,299.2,381.9,299.2,375.2z"/>
	<path id="path40304" sodipodi:nodetypes="ccccccc" class="st9" d="M303.7,371.2c-0.8-0.2-1.5,0-2.3-0.9c0.1,1.3-0.1,2-0.2,2.8
		c1.6,0.9,2.6,9.3,3.2,9.7c-0.3-3.6-0.2-8.4-2.4-10.9l0.1-0.4C302.8,371.7,303.3,371.6,303.7,371.2z"/>
	<path id="path41275" sodipodi:nodetypes="csccccc" class="st9" d="M274.4,377.7c1.5-2.2,2.8-4.9,4.7-6.2c1.9-1.3,3.1-0.8,7-4
		l1.5-3.8c-3.3,4.8-7.1,8.1-12.7,6.9c0.3,0.2,0.5,0.6,2.8,0.8C276.5,372.6,275.5,375,274.4,377.7z"/>
	<path id="path42246" sodipodi:nodetypes="cccc" class="st6" d="M273.6,367.1c2.9,1.5,6.5,2.2,12.6-6.5c1.3-0.4,2.6-1.1,3.8-2.3
		C286.1,367.7,274.9,373.5,273.6,367.1z"/>
	<path id="path43217" sodipodi:nodetypes="ccc" class="st7" d="M286.7,372.6c4.7-17.6,18.9-28.2,6.6-37.5
		C302.2,350.5,288,357,286.7,372.6z"/>
	<path id="path44188" sodipodi:nodetypes="ccc" class="st6" d="M283.3,357.3c0.2,4.6,6.1,1.2,7.5-1.8
		C288.4,357.1,286.1,358.5,283.3,357.3z"/>
	<path id="path45159" sodipodi:nodetypes="cccc" class="st6" d="M292.1,350.2c0.5-0.8,0.6-0.1,1.6,0.2c-2.1,4.5-5.8,5.7-7.7,5.8
		C288.6,354.7,291,353.1,292.1,350.2z"/>
	<path id="path46130" sodipodi:nodetypes="cccccccc" class="st9" d="M290.6,342.7l0.5,0.5c0.6,0,1.3,0,1.9-0.6c0,0.6-0.2,0.8-0.5,1
		c0.4,3.2,0,5.1-0.4,6.6c0.6-0.6,1,0.2,1.5,0.2c0.8-1.3,2.2-5.7,0-9.5C293.7,341.9,292.5,343,290.6,342.7z"/>
	<path id="path47101" sodipodi:nodetypes="cccc" class="st9" d="M283,341.3c3.5-1.4,5.6,1.1,7.2,1.3c2.5,3.7-0.1,7-1.8,9
		C289.5,349.6,291.2,341.9,283,341.3z"/>
	<path id="path48072" sodipodi:nodetypes="cccc" class="st13" d="M286.2,374.6c3.9,1.8,5.7-2.6,7.5-4.3c-0.9-2.1-0.6-3.8-0.7-5.6
		C289.6,366.6,289.7,373.2,286.2,374.6z"/>
	<path id="path49043" sodipodi:nodetypes="cccsc" class="st13" d="M299.4,343.6c-0.3,0.1-0.3,1.4-0.8,1.4
		c-0.3,8.9-8.4,13.8-10.3,26.7c1.2-1.4,2-6.8,5.1-11.8C296.6,354.6,299.7,351.7,299.4,343.6z"/>
	<path id="path50983" sodipodi:nodetypes="ccc" class="st6" d="M295.3,360.4c-3.2,8.7,3.2,8.8,3.7,11.6
		C292.4,369.7,291.9,364.9,295.3,360.4z"/>
	<path id="path51954" sodipodi:nodetypes="ccc" class="st6" d="M296.4,335.5c10.7,7,1.5,21-2.5,24.8
		C295.5,356.7,305.2,346.9,296.4,335.5z"/>
	<path id="path52925" sodipodi:nodetypes="cccccccc" class="st13" d="M300.1,331.6c1.1,2,2.9,5.2,0.3,4.5
		c4.6,10.1-0.4,15.3-2.9,20.9c-5.3,13.8,3.5,8.3,2.4,17.9c3-3.5-0.9-8.5-0.7-10.2c-0.2-2.5,1.4-8,1.9-11.3c0.6,1.8,1.6,2.9,2.8,3.6
		C301.7,349.9,308.1,335.8,300.1,331.6z"/>
	<path id="path3457" sodipodi:nodetypes="cccc" class="st13" d="M301.1,355.3c0.5,0.7,0.9,1.5,1.7,2c0.4,2.8-3.5,11.7,2.4,12.4
		C300.4,372.1,297.8,365.2,301.1,355.3z"/>
	<path id="path3459" sodipodi:nodetypes="cccc" class="st9" d="M298.5,328.8c1,0.1,3.4,1.8,5.7,0c1.5,2.1-1.3,3.9-4.3,2.3
		C299,330.6,301.5,330.4,298.5,328.8z"/>
	<path id="path4430" sodipodi:nodetypes="cccc" class="st6" d="M280.6,329.6c0.9,1,1.8,1.5,2.7,4c0.6,0,1.3,0.1,1.9,0.3
		C284.2,332.1,282.9,330.6,280.6,329.6z"/>
	<path id="path5401" sodipodi:nodetypes="ccc" class="st9" d="M290.4,326.7c9.3,2.5,8.4-1.8,10.1-2.5
		C302.1,326.8,297.6,330.3,290.4,326.7z"/>
	<path id="path6372" sodipodi:nodetypes="cccc" class="st24" d="M279,328.5c-0.5-0.2-1-0.1-1.3-0.1c0.8-6.7,8.2-2.4,12.2,0.1
		C284.9,326.1,278.5,323,279,328.5z"/>
	<path id="path7343" sodipodi:nodetypes="cccc" class="st7" d="M279,328.5c-0.4-7.6,10.5,1.1,15.6,1.4c-3.5,0.4-15.1-7.3-15.1-1.3
		L279,328.5z"/>
	<path id="path8314" sodipodi:nodetypes="ccsccccccccc" class="st9" d="M279.7,328.7l0.9,0.4c0.1-0.7,0.3-1.4,0.7-1.5
		c2.1-0.4,0.1,0.7,0.5,1.1c0.4,0.3,0.9,0.6,1.3,0.9c0-0.3,0-0.7,0.1-1.1c0-1.7,5,1.1,8.5,2.2c0.4,1-1.9,2.3-3.8,2
		c1.7,1.3,5.2,0.7,6.7-1.5c2.7,0.2,3.3-0.2,3.9-0.9c-2-0.4-3,0.6-8.1-0.8C285.6,328,279.9,323.9,279.7,328.7z"/>
	<path id="path9285" sodipodi:nodetypes="ccccc" class="st26" d="M284,327.9c0.6-0.1,1.1,0.1,1.6,0.4c-1,1.6,0.5,3.2,1.3,2.9
		c0.3,0.3,0.6,0.5,1.6,0.8C287.1,332.3,282.5,330.8,284,327.9z"/>
	<path id="path10256" sodipodi:nodetypes="ccc" class="st27" d="M286.6,329.1c0.7,0.5,3.9,1.1,4,1.4
		C289.6,333,286.1,332.2,286.6,329.1z"/>
	<path id="path11227" sodipodi:nodetypes="cccccccccccscc" class="st9" d="M308.7,396.5c0,0-0.1,0.1,0,0.2c0.8,0.4,1.8,0.6,2.9,0.7
		l2.7,15.9c-0.2-4.1-0.5-8.4-0.6-12.4c-0.3-0.8-0.5-2.2-0.7-3.6c0.3,0,0.7-0.1,1-0.2c1.7,10.1,5.9,12.1,6.7,12.9
		c-2.2-2.3-5.2-5.6-6.2-13.1c1.5-0.8,2.2-1.8,2.6-2c0.1-0.4,0.1-1.4-0.2-1.9c-1.5,1.4-2.8,3.1-5.8,2.9c-0.2,0,0,0.3,0,0.3
		C312.3,397.7,310,396.8,308.7,396.5z"/>
	<path id="path12198" sodipodi:nodetypes="cccccccc" class="st13" d="M314.5,415l0.1,2.4c1.5-1,2.9-1.3,4.9-5.9
		c0.8,8.2,0.9,16.1,5.7,17.7c-2.5-5.6-2.5-11.8-2.6-17.7c-0.3,0.4-0.6,0.6-0.9,0.9c-2-1.1-2.6-2-3.6-3.1
		C317.4,411.5,317.1,413.6,314.5,415z"/>
	<path id="path13169" sodipodi:nodetypes="cccc" class="st6" d="M318,395.3c0.7,0.2,1.4,0.3,2.2,0.3l0.8,11.9L318,395.3z"/>
	<path id="path14140" sodipodi:nodetypes="cccccccc" class="st9" d="M323.7,394.4l0.4-0.3c1,2.2,2.3,4.1,4.2,5.6l5.1,34.5l-7.4-34.5
		c0,6-1.7,9.9-4.4,12.6l-0.3-2.3C324.1,406.1,325.8,401.6,323.7,394.4z"/>
	<path id="path15111" sodipodi:nodetypes="ccccccccc" class="st18" d="M331.5,402.4c0.8,0.5,1.7,0.8,2.7,1.1
		c3.1,10.4,4.3,30.9,0.2,38.3L334,439c-7.1-5.5-8.9-20.7-10.4-29.2l0.2-0.4c1.4,7.8,3,22.8,10,28.9c1.3-4,4-15.5-0.9-34.6
		C332.6,403.2,332,402.8,331.5,402.4z"/>
	<path id="path16082" sodipodi:nodetypes="cccc" class="st6" d="M327.1,391.3c0.6-0.1,1,0,1.9-0.3l6.8,10.2L327.1,391.3z"/>
	<path id="path17053" sodipodi:nodetypes="ccccc" class="st6" d="M334.4,403.6c1,0.3,2.2,0.6,3.5,0.9c0,0.3,10,25.8,16.9,27.8
		c-8.9,1.8-13.3-13.8-19.1-23C335.4,407.4,334.9,405.5,334.4,403.6z"/>
	<path id="path18024" sodipodi:nodetypes="ccccccccc" class="st9" d="M333.3,388.2c-0.1,0.1-0.2,0.3-0.3,0.3
		c4,6.3,4.1,10.1,3.6,13.5l1.6,2.1c0.8-4.8-0.1-8.3-1.2-11.7l20.1,29.2l-17.8-28.4l3.8,0.5C340,392.8,336.8,392.4,333.3,388.2z"/>
	<path id="path18995" sodipodi:nodetypes="ccccccc" class="st9" d="M345.4,393.9c0.8,0,1.5,0,2-0.2c4,6.5,14.3,18.3,13.1,34.3
		l-1.3-2.4c-9.5-2.2-16.2-14.2-19.5-19c5.6,7.4,11.9,17,19.3,18.5C359.6,413.1,350.5,401.3,345.4,393.9z"/>
	<path id="path19966" sodipodi:nodetypes="cccccc" class="st6" d="M347.5,393.7l0.3,0.6c8.8,4.7,18.7,14,24.8,7.1
		c-6.3,2.6-16.6-6.4-23.4-9.8l0.3,1.5C348.8,393.5,348.2,393.6,347.5,393.7z"/>
	<path id="path20937" sodipodi:nodetypes="ccccc" class="st6" d="M335,382.7c0,0.3,0,0.5-0.1,0.6l11,6.8l-10-8
		C335.7,382.4,335.3,382.6,335,382.7z"/>
	<path id="path21908" sodipodi:nodetypes="ccccc" class="st9" d="M348.7,389.1c0.2,0.7,0.4,1.4,0.5,2.2c13.1,6.1,21,4.6,24.8,2.2
		l-2-0.7C366.2,396.6,352.2,391.5,348.7,389.1z"/>
	<path id="path22879" sodipodi:nodetypes="ccccccccccccc" class="st9" d="M338.2,378.8c0,0.2-0.1,0.4-0.1,0.5
		c5.6,2.9,9.5,8.4,9.3,12.2l1.9,1.6c-0.7-6.3-3-8.6-5.3-11l26.7,10.4l-25.9-12.1c3.5-0.8,7.1-1,10-4.6l6.1-0.2
		c5.2-0.8,11.1-3.8,11.7-6.6l-2,0.2c-2.5,5.5-12.4,5.3-17.5,5.5C350.9,379.1,343.4,379.4,338.2,378.8z"/>
	<path id="path23850" sodipodi:nodetypes="ccccc" class="st6" d="M353.1,377.5c-0.7,0.5-1.4,0.9-2.1,1.2c2.8,0.6,5.4,1.3,7.8,2.3
		c6.9,0.7,13.7-0.3,14-6.2C369.9,379.5,361.7,378.7,353.1,377.5z"/>
	<path id="path24821" sodipodi:nodetypes="cccc" class="st6" d="M338.1,373.4c0.2,0.6,0.3,1.1,0.4,1.6l14.1-0.4
		C347.8,374.3,342.9,373.9,338.1,373.4z"/>
	<path id="path25792" sodipodi:nodetypes="cccccc" class="st9" d="M345,367.7c2.9,1.3,5.5,2.8,7.6,4.4l-1.9-1.7c6-0.5,12.2-1,19-1.4
		l-21.5-0.1L345,367.7z"/>
	<path id="path26763" sodipodi:nodetypes="cccccccccc" class="st9" d="M340.4,368.2c-0.1,0.3-0.2,0.6-0.3,0.9l4.7-1.4
		c7.1-5.1,7.4-7.6,8.3-10.4l10.8-6.7l-12.2,6.1c-6.7,0.1-8.4,1-10.4,1.5c5.6-1.2,9.3-1.4,11.4-0.8l-1.3,0.8
		C349.7,364,343.3,367.2,340.4,368.2z"/>
	<path id="path27734" sodipodi:nodetypes="cccc" class="st6" d="M340.4,363.6c0.2,0.4,0.2,0.8,0.3,1.2c3.4-1.8,6.5-3.8,9.7-5.9
		C347,360.6,343.7,362.3,340.4,363.6z"/>
	<path id="path28705" sodipodi:nodetypes="ccccc" class="st6" d="M349.5,364.3c3.8-0.3,7.7-0.4,11.6-0.1c0.9-0.5,10.5-3.3,8.2-8.4
		c-2.8,5.6-13,7.5-13.8,7.9C353.8,363.9,349.9,364.1,349.5,364.3z"/>
	<path id="path29676" sodipodi:nodetypes="cccccc" class="st28" d="M365.3,350l2.1-0.9c0.2,0.4-1.3,3.3-4,6.4
		c-3.6,4-5.7,5.7-12.5,6.9c0.1-0.2,0.3-0.4,0.4-0.5C356.6,360.4,363.8,355.2,365.3,350z"/>
	<path id="path30647" sodipodi:nodetypes="ccccc" class="st6" d="M342.7,355.6l-0.6,1c6.1-4.4,10.9-7,14.5-8.2
		c3.6-3.8,4.5-7.6,2.9-9.8C359.8,345.6,348.5,350.9,342.7,355.6z"/>
	<path id="path31618" sodipodi:nodetypes="cccccccc" class="st24" d="M338.8,358.3l-0.2,1.8c4.5-3.3,6.9-9.2,6.3-14.2l-1.6,1.6
		l-7,5.7c0.4,0.3,0.8,0.7,1.1,1l5.9-6.5C343.7,353.1,340.1,357.2,338.8,358.3z"/>
	<path id="path32589" sodipodi:nodetypes="cccccc" class="st6" d="M344.9,349.9l-0.4,1.5c2.9-1.8,4.9-3.7,6.7-5.7
		c5-5.8,5.7-10.9,6.1-13.3l-2.2,1.7C355.5,341.5,347.2,348.7,344.9,349.9z"/>
	<path id="path33560" sodipodi:nodetypes="cccc" class="st9" d="M342.5,345.7c0.8,0,1.7-0.1,2.5,0l9.8-11.3L342.5,345.7z"/>
	<path id="path34531" sodipodi:nodetypes="cccccccc" class="st9" d="M335.2,339.3l-1.2,1.4c0.5,2.8,0.5,6.5-3.6,11l0.1,0.2l0.3-0.1
		c3.2-4,6.7-5.1,10.1-6.1c-2,0.5-4,0.8-6.2,2C336.2,343.2,335.6,340.8,335.2,339.3z"/>
	<path id="path35502" sodipodi:nodetypes="cccccc" class="st6" d="M335.7,343l0,0.9c3.5-2.2,7.1-4.8,10.3-8.4
		c1.9-2.4,4.3-5.8,4.6-10.4l-1.8,1.5C348.3,334.3,338.4,340.9,335.7,343z"/>
	<path id="path36473" sodipodi:nodetypes="cccsc" class="st6" d="M327.7,342.1c2.9-1.2,5.6-2.4,7.6-2.8l12.4-11.5
		c-3.3,2.4-10.3,8.4-13.5,10.9C333,339.5,331.9,339.5,327.7,342.1z"/>
	<path id="path37444" sodipodi:nodetypes="cccccccc" class="st7" d="M348.3,326.7c-31.3,5.5-48.7,43.2-27.7,39.8l-1.2-0.3
		c-4.2,0.4-5.3-3.3-4.9-5.6c0.4-2.5,2.8-3.9,3.5-4.1c-0.2-2.2-0.3-4.4,1.9-6.3c0.9-2.1,1.9-3.2,2.9-4.3
		C326.1,334,342.7,328.1,348.3,326.7z"/>
	<path id="path41328" sodipodi:nodetypes="cscccccccccsccccccccccccccc" class="st9" d="M333.7,340.7c-3.9,0.6-9.3,4.9-10.1,6.7
		c-0.1,0.2,0,0.4-1.3,1.2l0.1,0.2c1.3-0.6,5,0,1.6,0.8c2.2-0.1,4.2,0.8,5.5,3.8c7.2-1.1,9,4.2,7.2,7.7c4.8,4.1,1.8,9.5-0.9,10.4
		c1.6,3.5,2.4,8.2-2.4,10c0,3.2-0.4,8.1-7.9,8c-0.9,2.1-3.5,5.8-8,3.8c0,0,0,0.1,0,0.3c-0.1,0.2,1.9,0.7,1.9,0.6
		c1.5,0.2,1.7,1.2-0.2,0.7c-0.7-0.2-1.3-0.4-1.8-0.6l0,0c0,0.2,0,0.3-0.1,0.5c4.9,1.7,7.7-1.3,9.2-3.8c5.8-0.3,8.2-3.5,8.5-8.5
		c4.7-3,4.1-7.5,2.6-10.5c4.2-3.2,3.9-8.7,0.7-11.3c2.2-7.3-4.3-9.3-7.8-8.7c-1.2-1.9-1.9-2.2-2.7-2.8l6.1-8.3l-7.5,7.7
		c-0.7-0.3-1.7-0.4-2.9-0.3C325.1,344.4,331.3,341.4,333.7,340.7z"/>
	<path id="path42299" sodipodi:nodetypes="ccccccsccc" class="st5" d="M271.8,337.2c-5.2-9.9,9.7-11.6,11.3-3.5c0,0,3.8,0.1,7,1.9
		c6.4,4.6,2.5,7.3,1.2,7.1c-3,0.1-3.5-2.8-7.9-1.7c-1,0.4-1.1,0.9-1.6,0.9c-2.6-0.7,2.2-5.9,7.3-2.1c0.5,0.3,1.4-0.3,0.6-1.3
		c-3.4-3.4-9.3-1.6-10.6-1.2C277.4,334.6,273.7,335.2,271.8,337.2z"/>
	<path id="path43270" sodipodi:nodetypes="ccccsc" class="st29" d="M276.8,332c0.9,1.4,2.5-0.4,5.1,2.4l0.3-0.1
		c-0.6-2.4-2.2-3.8-4.5-4c1,0.9,0.3,0.9,0.2,1.5C277.8,332.1,277.9,332.7,276.8,332z"/>
	<path id="path43272" sodipodi:nodetypes="ccccc" class="st29" d="M272.6,336.2c1.4-0.8,4.5-1.9,6.5,0.8c6.2-1.8,10.5-0.1,11.1,2.3
		c0.4-0.7-1.4-4.4-8.4-3.8C275.8,331.4,272.4,335.2,272.6,336.2z"/>
	<path id="path44243" sodipodi:nodetypes="cccccc" class="st30" d="M282,341.5c-1.1,0,2.3-4,7.7-0.2c2,0.8,2.9-0.2,2.5-1.8
		c-0.1-1.2-0.8-1.8-1.2-2.8c2.8,2.1,3.1,4.6,1.2,5.6C289.4,343.8,287.4,338.6,282,341.5z"/>
	<path id="path47152" sodipodi:nodetypes="ccccccccccccccccccccccccccccccc" class="st9" d="M277.5,397.8l1.2,1.7l-0.3-0.2
		c-3.4,1.6-5.2,1-6.9,0.2l-0.2-0.1c-3.5,0.7-5.8-0.2-7.7-1.6c0.1,1.1,0.9,1.9,1.8,2.6l-3.7,16.2l1.8-15.2c-2.1,5.9-4.9,8.7-8.7,10.4
		l0.3-1.7c3.5-1.8,6.5-5.2,7.9-12.5c-1.4,0.2-2.8,0.4-4.2,0l-3.5,12l1.7-12.4c-1.5-1-2.8-2.3-4-3.5v-0.2c0.4,0.5,0.8-1.1,0.7-1.6
		c2.6,4.3,6.3,5.1,9.9,3.8c0,0.4,0,0.8-0.2,1.4l0.2,0c0.2,0,0.2-0.4,0.3-0.7c-0.1-0.1-0.1-0.2-0.2-0.4l0-0.1c2,3.6,7,1.9,7.6,2.2
		c-0.1,0.2,0,0.7,0.1,1.2l0.1,0.1c0.1-0.2,0.1-0.5,0-0.9l-0.2-0.3l0.1,0.1C273.2,399.5,275.5,399.4,277.5,397.8z"/>
	<path id="path48123" sodipodi:nodetypes="cccccccccc" class="st31" d="M266,400.7c1.1,0.5,2.3,1,3.6,1.2
		c-0.6,7.6-4.5,16.3-8.5,18.9l0.1-2.1c-1-1.7-1.8-4.3-2-9.8l0.3-0.3c0.1,3.8,0.5,7.3,1.8,9.9c1.9-1.5,6.2-6.3,6.8-15.6
		c0-0.6-0.1-0.9-0.4-1.1C266.9,401.3,266.4,401,266,400.7z"/>
	<path id="path49094" sodipodi:nodetypes="ccccc" class="st9" d="M251.3,432.9c4.4,1.2,7.3-7.3,9-13c-0.8-1.5-1.9-3.1-1.9-10
		l-0.4,0.4C257.5,419.1,257.4,428.9,251.3,432.9z"/>
	<path id="path50065" sodipodi:nodetypes="cccc" class="st32" d="M253.4,394.2l0.3,0.3c-0.3,1.7-2.6,7.8,0.2,13.7
		C252.3,405.8,251,402.2,253.4,394.2z"/>
	<path id="path51036" sodipodi:nodetypes="ccccccccccccc" class="st9" d="M251,397.9l-0.9,1.4l-9.3,37.9l9.9-31.5
		c0.5,1.8,1.1,3.7,3.7,6.7c-3.6,12.9-9.4,24.4-14.3,27.4l0.5-1.6c-2.1-6.4-0.4-19.8,3.2-33.3c-2.3,7.4-7,23.5-4,35.3l-0.9,2.9
		c9.8-6.7,15.5-23.4,17.7-32c-0.5,0.4-1.1,0.7-1.7,0.9C251.6,409.2,250.2,404.8,251,397.9z"/>
	<path id="path52007" sodipodi:nodetypes="ccccccccccccc" class="st9" d="M245.1,387.3c0.2,1.2,1.6,2.5,2.3,3.7
		c0.4,0.6,0.8,0.8,1.3,0.1l0.4-0.7c1,1.1,2.4,1.8,4.5,1.4l-2.5,5.7c-2.8,5.5-6.6,6.7-10.4,8l1.2-2.2c4.9-0.5,8.4-5.3,10.2-9.8
		c-1.2-0.3-2.4-0.8-3.8-1.7l-5.8,10.1l3.8-10.2C247.1,390.3,245.1,389,245.1,387.3z"/>
	<path id="path52978" sodipodi:nodetypes="ccccc" class="st13" d="M242.8,404.9c-0.7,0.3-1.4,0.5-2.2,0.7
		c-6.3,14.1-9.8,26.7-21.1,30.7c10.2,1.9,17-14.4,19.5-19.3C240.9,412.6,242,408.4,242.8,404.9z"/>
	<path id="path53949" sodipodi:nodetypes="cccc" class="st33" d="M244.2,387.7c-1.1,1.4-5,6.8-2.6,15.9l0.2-0.3
		C240.1,397.3,241.9,390.6,244.2,387.7z"/>
	<path id="path54920" sodipodi:nodetypes="ccccccccc" class="st9" d="M240,395.7c-0.3,2.4-0.2,4.2-0.1,6.1
		c-7.6,13.5-20.4,26-27.8,26.5c9.4-12.6,18.8-25.6,28.2-38.4c0.6-0.3,1.2-0.7,1.8-1.1c-1,1.5-1.4,2.6-1.6,3.7l-25.8,33.1
		c8.6-0.7,22.8-21.2,24.9-26.7C239.6,397.4,239.8,396.5,240,395.7z"/>
	<path id="path55891" sodipodi:nodetypes="cccc" class="st28" d="M213.7,426.2l0.6-0.7c-0.7-12.8,13.7-28,17.6-32.7
		C231.3,394.1,212.8,410.3,213.7,426.2z"/>
	<path id="path56862" sodipodi:nodetypes="ccccc" class="st6" d="M203.2,403.3c2.2,3.4,5.8,5.5,19.5-2.8c2.7-3,5.5-6.1,8.2-8.7
		l-0.7,0C225.6,393.7,213.7,406.2,203.2,403.3z"/>
	<path id="path57833" sodipodi:nodetypes="ccccccccccc" class="st9" d="M238.8,379.3c-1.8,0.7-8.5,3.2-9.2,10.8l-1.5,0.8
		c9.2,3.1,16.2-3.9,17.6-5.2c-1.4-0.9-2.9-1.7-4.1-3.9l-1.2,0.6c-3,2.5-6.6,4.9-10,7.2l10.7-5.5c0.6,0.7,1.3,1.4,2.8,2.3
		c-6.5,4.5-11.6,4.2-14,3.6C230.2,385.7,232.8,382,238.8,379.3z"/>
	<path id="path58804" sodipodi:nodetypes="ccccccc" class="st13" d="M228.4,388.4c-0.2,0.9-0.4,1.9-0.4,2.6
		c-2.9,1.2-6.2,2.1-9.8,2.7c-0.2,0.1-1.2,0.4-1.5-0.3c-0.4-0.3-0.9-0.3-1.4-0.3c-0.1-0.2-0.5-0.1-0.6-0.3
		C223.6,391.2,227.6,389.1,228.4,388.4z"/>
	<path id="path59775" sodipodi:nodetypes="ccccccc" class="st17" d="M218.4,381.8c-2.3,1.1-12.1,6.3-13.8,11.3
		c4.8,1.4,8.3,0.2,10.5,0c-0.1-0.1-0.5-0.1-0.5-0.3c-3.6,0.5-7.8,0.8-9,0.1l0.9-0.4C206.7,388.2,216.8,382.9,218.4,381.8z"/>
	<path id="path60746" sodipodi:nodetypes="ccccc" class="st9" d="M207,392.3c15.9-5.9,23.6-10.6,32.1-13.5v0.3
		c-0.7,0.4-6.3,1.7-8.4,4.9L207,392.3z"/>
	<path id="path61717" sodipodi:nodetypes="ccccccccccccccc" class="st9" d="M236.4,379.6c-1.1,0.5-2.2,0.8-3.3,1.4
		c-5.2-0.8-6-2.1-8.3-3.1l0.4-0.2c0.8,0.6,1.8,1.1,2.8,1.6c1.5,0.5,1.9-0.1,0.4-0.6c-1.8-0.6-3-1.4-4-2.1c1.8-3.5,6-5.1,6.6-5.4
		c-2.3,1.5-5,2.9-5.7,5.2c3.6-0.5,7.5-1.2,12.2-2.2c0.4,0.6,0.7,1.2,1.4,2.1l-0.1,0.1l-0.7-0.9l-12.7,1
		C228.9,379,232.7,379.2,236.4,379.6z"/>
	<path id="path62688" sodipodi:nodetypes="ccccc" class="st6" d="M203.8,374.8c1.5,4.9,13.8,3.7,21,3.1l0.4-0.1
		c-0.6-0.4-1.1-0.8-1.4-1.2C220.8,375.9,207,378.8,203.8,374.8z"/>
	<path id="path63659" sodipodi:nodetypes="cccccccc" class="st6" d="M227,372.1l0.1,0.1c-0.9,0.7-1.7,1.4-2.6,2.4
		c-11.4,0-18.5-4.5-20.6-7.1c2.8-2.3,6.4-3.1,10.1-3.5c-3.2,1-7,1.5-8.7,3.6h-0.8C209.8,373.4,223.9,376.1,227,372.1z"/>
	<path id="path64630" sodipodi:nodetypes="ccccc" class="st9" d="M206.1,367.7c7.6,1.1,14.9,2,22.7,3.2c1-0.9,2.9-1.5,5.9-1.7
		c-1,0-1.8-0.1-3.4,0.1C222.6,369.4,214.4,368.4,206.1,367.7z"/>
	<path id="path65601" sodipodi:nodetypes="ccccccccccc" class="st9" d="M238.5,366.6c-0.7,0.7-1.1,1.8-1.4,3
		c-8.3-2.7-9.7-7.9-9.9-8.4c5-3.5,8-2.2,12.2-2.3c-8.8-0.4-11.1,1.9-11.5,2.4c3.3,0.9,5.6,1.7,12.7,2.9c-0.7,0.5-1.1,0.9-1.4,1.4
		c-2.7-1.1-7.8-2.7-11.4-4.1c0.6,2.4,4.3,6,7.4,7c0.9,0.2,1.8,0.7,2.2-0.4C237.5,367.5,238.2,366.8,238.5,366.6z"/>
	<path id="path66572" sodipodi:nodetypes="ccccc" class="st6" d="M206.9,355.7c1.6,1.6,7.7,6.9,18.7,5.5c0.4,1.1,0.8,1.5,1.3,1.9
		c-2.9-0.4-5.9-0.8-8.9-0.6C213.1,361.1,208.7,359.3,206.9,355.7z"/>
	<path id="path67543" sodipodi:nodetypes="cccccccc" class="st6" d="M229.5,358c0.2,0.1,0.3,0.2,0.6,0.3c-1.8,0.7-3.2,1.5-4.3,2.3
		c-5.6-1.7-13.5-5.9-16.4-11c3.5-1.5,9.3-0.8,12.7,0c-3.8,0-8.3-0.8-10.6,0.7l-1.7-0.6C210.5,351.8,222.4,362.2,229.5,358z"/>
	<path id="path68514" sodipodi:nodetypes="ccccccc" class="st9" d="M212.1,350.5c7.1,2.5,13.8,4.9,19.5,7.3c1.8-0.4,3.5-0.3,5.2,0
		c-0.4-0.4-0.8-0.7-1.1-1.3l-0.1,0.1l0.7,0.9C226.6,354.2,219.5,352.4,212.1,350.5z"/>
	<path id="path69485" sodipodi:nodetypes="cccc" class="st6" d="M234.4,353.3c-0.5-1-1.1-2.1-1.1-3.6c-2.7,1.3-14.9-4-17.8-10.7
		C215.8,344.9,226.2,349.5,234.4,353.3z"/>
	<path id="path70456" sodipodi:nodetypes="ccccccc" class="st9" d="M241.5,356.9c-0.4,0.4-0.7,0.9-1.1,1.1c-0.2,0.2-0.5,0.1-0.7,0
		c-4.3-2.8-5.2-7.5-5.1-8.5c3.3-0.6,7.9-0.5,14.3,3.5c-1.4-0.3-6.1-3.8-13.6-3.1C235.2,352.5,237.1,357.5,241.5,356.9z"/>
	<path id="path71427" sodipodi:nodetypes="ccccc" class="st9" d="M235.9,350.3l7.6,5.6c1,0.1,2,0,3,0.5c0.1-0.2,0.1-0.4,0.3-0.8
		C242.6,353.8,239.5,352.1,235.9,350.3z"/>
	<path id="path72398" sodipodi:nodetypes="ccccccc" class="st6" d="M218.7,332.6l2,1.2c-0.3,4.6,7.9,13.6,17,14.3
		c-1.5,0.2-3.1,0.1-4.3,0.6c-4.3-2.7-7.2-5.5-9.6-8c-0.5,0.1-0.9-1.2-1.7-0.8C219.8,336.9,218.8,334.6,218.7,332.6z"/>
	<path id="path73369" sodipodi:nodetypes="cccccccc" class="st25" d="M232,336.2c-3-1.2-5.8-2.5-11.1-2.3
		c8.2,5.9,12.7,9.7,18.7,14.4c2.8,0.4,5.4,1.6,8.1,2.7c-0.3-0.7-0.6-1.5-0.8-2.2c0,0.6,0,1.2,0.4,1.9c-3.6-1-18.3-11.5-25.5-16.2
		C224.5,333.5,228.3,335.1,232,336.2z"/>
	<path id="path74340" sodipodi:nodetypes="ccccc" class="st6" d="M236.2,336.5c-3.3-2.9-7-6.1-7.8-10.7c3.9,0.5,11.4,3.1,17.2,7.3
		c-5.4-3.1-10.6-5.5-14.8-5.4C230.5,331.4,234,333.9,236.2,336.5z"/>
	<path id="path75311" sodipodi:nodetypes="ccccccc" class="st9" d="M231.1,327.7l-0.2,0.1c5.6,4.1,9.6,8.1,14,12
		c1.2,1,1.1,2.2,1.2,3.3c0.5-0.5-0.1-2.3,0.8-2.5c0.9-0.2,4.4,1.6,4.6,1.3C243.3,338.4,237.9,332.5,231.1,327.7z"/>
	<path id="path76282" sodipodi:nodetypes="ccccccccccc" class="st33" d="M248.6,349.8c-0.8-1.3-2-5.2-1.2-7.8
		c10.6,2.3,12.4,10.6,12.6,12.3c-1.6-6-7.3-11.5-11.3-10.8c2.4,2.2,5.4,6.8,7.2,8.8c-0.9,0-1.8,0.1-2.3,0.3
		c-1.5-0.2-2.2,0.1-2.9,0.4c-0.8-0.9-1.1-1.7-1.6-2.5c1.1,1.5,2.6,1.3,4.2,0.8c-1.6-3-3.3-5.1-4.9-7.6
		C247.6,344.2,248.3,347.4,248.6,349.8z"/>
	<path id="path77253" sodipodi:nodetypes="ccc" class="st6" d="M252.9,338.5c18,12,19.4,31.7,6.7,28.4
		C274.8,365.1,256.9,342.3,252.9,338.5z"/>
	<path id="path78224" sodipodi:nodetypes="cccc" class="st9" d="M253.7,352.6c1.5-0.6,5.5-0.6,5.6,5.6l-1.3,1
		C258.1,357.5,258.3,353.7,253.7,352.6z"/>
	<path id="path79195" sodipodi:nodetypes="cccc" class="st9" d="M258,359.2l1.4-1c6.6,2.5,3.3,9.6-1.2,8.5
		C263.7,366.2,262.5,359.2,258,359.2z"/>
	<path id="path2573" sodipodi:nodetypes="ccccccccccccccscscccccccccc" class="st29" d="M279.2,313.2c0.9,1.6-1.6,6.2,2.7,5.5
		c1.4,0.9,2.7,0.4,3.4,0.4c2.8-1,2.7-2.9,2.9-3.5c-2.5-3.5,0.3-4.1,0.6-4.3c1.5,0.2,2.3,3,0.3,3.9c0.2,0.1,0.4,0.1,0.7-0.1
		c0,4.5,3.2,4.8,5.4,4.1c4.4,1.2,2.2-3.8,4.3-7.6c-2.3,4.1-0.8,7.9-4.2,7.4c0.9-2.1-1.4-3.8-0.3-6.1c-1.8,1.5,1.2,4.3,0,5.8
		c-1.2,1.1-2.4,0.2-2.4-0.3c-0.5-1.5,3-3.4,0.9-6.2c0.7,1.5,0.5,2.2,0.1,3.2c-0.4,1-1.9,1.8-1.2,3.8c-1.5-0.3-2.3-2.1-1.9-3.5
		c0.4-1.4,1.1-3.8-1.5-4.5c-3.4,1-1.7,3.7-1.2,4.1c0.8,0.9-0.7,3.6-2.6,3.6c0.9-1.3-0.2-1.6-1.4-3.7c-0.1,1.1,2.5,2.6,1,3.5
		c-0.8,0.6-1.9,0.3-2.3-0.2c-0.9-1,1.2-2.1,0.8-4c-0.6,2.7-1.3,2.6-1.2,3.9c-1,0.3-2,0.6-2.3-1.3
		C279.6,314.5,279.6,312.9,279.2,313.2z"/>
	<path id="path3544" sodipodi:nodetypes="ccccc" class="st29" d="M296.7,323.8l0,0.3c-5.2,0.3-10.5-0.7-15.7-0.8v-0.2
		C286.3,323.2,290.4,324.1,296.7,323.8z"/>
	<path id="path4515" sodipodi:nodetypes="ccccc" class="st29" d="M288.7,324.7l0,0.2c3,0.5,6,0.9,8.5,0.7v-0.2
		C294.1,325.8,291.4,325.2,288.7,324.7z"/>
	<path id="path5495" class="st34" d="M281.5,320.4c-0.8,0.3-0.4,1.5,0,1.5c1,0,1.9,0.2,2.9,0c0.5-0.3,0.7-1.2,0.1-1.6
		C283.5,320.2,282.5,320.2,281.5,320.4z M281.3,320.2c1.6-0.3,3.1-0.1,4,0c0.8,0.2,0.8,1.5,0,1.8c-0.9,0.1-2.7,0.1-4,0
		C280.5,321.3,281,320.5,281.3,320.2z"/>
	<path id="path6471" class="st34" d="M287.3,321.7c2.1,0.3,4,0.4,3.5-1.2C290.2,320.5,286,319.6,287.3,321.7z M287.2,321.9
		c-0.3-0.3-0.7-1,0.1-1.8c1.2-0.1,2.4,0,3.7,0.2c1.1,0.5,1,1.5,0.1,1.9C289,322.2,288,322.1,287.2,321.9z"/>
	<path id="path7447" sodipodi:nodetypes="cccccccc" class="st34" d="M293.1,322c2.1,0.5,3.9,0.9,3.6-0.9
		C296,321.1,292,319.8,293.1,322z M293,322.2c-0.3-0.3-0.6-1,0.2-1.8c3,0.2,2.5,0.2,3.6,0.5c1.1,0.6,0.9,1.6-0.1,1.9
		C294.2,322.9,293.7,322.5,293,322.2z"/>
	<path id="path5028" sodipodi:nodetypes="cccc" class="st9" d="M254.4,355.5l-3.4,10c0.9,0,1.7,0,3.4-0.3
		C255.9,362,256.3,357.5,254.4,355.5z"/>
	<path id="path6005" sodipodi:nodetypes="cccc" class="st4" d="M257.1,374.9l-6.1-9.4c-0.1-0.2-1.5,3.9-1.7,5.2
		C250.1,372.7,253.7,374.8,257.1,374.9z"/>
	<path id="path6978" sodipodi:nodetypes="cccc" class="st9" d="M256.1,367.6c2.1-0.8,2.5-2.1,2.6-2.8l-4.3,0.4
		C255,365.9,255.7,366.7,256.1,367.6z"/>
	<path id="path6980" sodipodi:nodetypes="cccc" class="st9" d="M249,360.4c-0.9-0.6-3.7-0.8-4.3-0.3l3.6,3.3
		C248.5,362.5,248.7,361.4,249,360.4z"/>
	<path id="path6984" sodipodi:nodetypes="cccc" class="st9" d="M240.9,370.6l10.1-5.2c0.2-0.1-1.2,4-1.7,5.2
		C248.1,371.2,243.1,372.4,240.9,370.6z"/>
</g>
</svg>
