<?xml version="1.0" encoding="utf-8"?>
<!-- Generator: Adobe Illustrator 21.0.0, SVG Export Plug-In . SVG Version: 6.00 Build 0)  -->
<svg version="1.1"
	 id="Слой_1" inkscape:version="0.92.1 r15371" sodipodi:docname="spain.svg" xmlns:cc="http://creativecommons.org/ns#" xmlns:dc="http://purl.org/dc/elements/1.1/" xmlns:inkscape="http://www.inkscape.org/namespaces/inkscape" xmlns:rdf="http://www.w3.org/1999/02/22-rdf-syntax-ns#" xmlns:sodipodi="http://sodipodi.sourceforge.net/DTD/sodipodi-0.dtd" xmlns:svg="http://www.w3.org/2000/svg"
	 xmlns="http://www.w3.org/2000/svg" xmlns:xlink="http://www.w3.org/1999/xlink" x="0px" y="0px" viewBox="0 0 359.3 497.5"
	 style="enable-background:new 0 0 359.3 497.5;" xml:space="preserve">
<style type="text/css">
	.st0{fill:none;stroke:#000000;stroke-width:1.5;stroke-miterlimit:3.8637;}
	.st1{clip-path:url(#SVGID_2_);fill:#FFFFFF;}
	.st2{fill:#FFFFFF;stroke:#000000;stroke-width:1.5;stroke-miterlimit:3.8637;}
	.st3{fill:#DF0006;}
	.st4{fill:#FFFFFF;}
	.st5{fill:#003FA2;}
	.st6{fill:none;stroke:#323232;stroke-width:0.2822;}
	.st7{fill:#EA1C24;stroke:#323232;stroke-width:0.2822;}
	.st8{fill:#E2A036;stroke:#323232;stroke-width:0.2822;}
	.st9{fill:#FEC356;stroke:#323232;stroke-width:0.2822;}
	.st10{fill:#FFFFFF;stroke:#323232;stroke-width:0.2822;}
</style>
<sodipodi:namedview  bordercolor="#666666" borderopacity="1" gridtolerance="10" guidetolerance="10" id="namedview141" inkscape:current-layer="Слой_1" inkscape:cx="167.76793" inkscape:cy="319.2473" inkscape:pageopacity="0" inkscape:pageshadow="2" inkscape:window-height="480" inkscape:window-maximized="0" inkscape:window-width="716" inkscape:window-x="0" inkscape:window-y="0" inkscape:zoom="0.472" objecttolerance="10" pagecolor="#ffffff" showgrid="false">
	</sodipodi:namedview>
<path id="path4" inkscape:connector-curvature="0" class="st0" d="M324.4,84.4c0,0,0.5-7.5,5.9-8s9.6,3.7,10.2,9.1
	c0.5,5.4-4.5,12.3-12.1,12.9c-7.5,0.5-11.2-7.1-11.2-7.1c-2.4-5.7-0.8-17.1,10.3-23.1c8.4-4.5,24.4-3,28.6,18.9
	c2.9,15.5-1.8,27.9-13.5,40.9c-16.5,18.1-29.8,40.6-30.3,62.6c-0.7,29.5,6.4,42.8,20.1,42.6c11.4-0.1,11.9-11,12.5-15.8
	c0.5-4.8-3.5-8.8-6.4-8.7s-6.6,2.8-6.7,8"/>
<path id="path6" inkscape:connector-curvature="0" class="st0" d="M344.7,215.2c0,0-2.9,12.1-12.3,10.8s-11.4-10.2-10.2-16.9
	c1.2-6.7,7.2-13.7,18.6-13.5c11.4,0.1,18.1,9.4,17.8,20.8c-0.3,11.4-10.2,32-27.3,32.8c-17.1,0.8-31.1-13.5-31.6-39.8"/>
<line id="line8" class="st0" x1="347.2" y1="196.6" x2="313.3" y2="179.2"/>
<path id="path10" inkscape:connector-curvature="0" class="st0" d="M299.8,183.6c0,0-2.9-23.3,13.9-46.1
	c16.9-22.8,20.6-26.3,19.6-40.2"/>
<path id="path12" inkscape:connector-curvature="0" class="st0" d="M318,92.6c0,0-11-14.6-14.2-18.4s-4.5-9.4,1.6-17.7
	c6.2-8.3,15.5-14.7,22-8.8c6.4,5.9,22.6,25.1,22.6,25.1"/>
<path id="path14" inkscape:connector-curvature="0" class="st0" d="M310.3,82.5c0,0,4.8,6.5,0.5,16.4s-11,13.9-11,13.9"/>
<path id="path16" inkscape:connector-curvature="0" class="st0" d="M230.6,16.1c0,0-5.1-3.8-7.2,1.1c-2.1,4.8,0.8,10.2,5.9,11.5
	c5.1,1.3,11.3-0.5,24.9-14.2c13.7-13.7,33.2-7.8,37.5-4.3s11.8,16.3,1.3,30s-19.8,15.5-27.1,9.9c-7.2-5.6-4.6-14.5-0.5-19.8
	c4-5.4,12.3-5.1,14.2-3.2c1.9,1.9,3.7,6.4-1.1,10.5"/>
<path id="path18" inkscape:connector-curvature="0" class="st0" d="M262.1,37c0,0-17.5,12.6-28.2,12.8C223.2,50.1,210,39.3,209,27.5
	c-1.1-11.8-1.3-19.8,9.9-25.2s18,4.8,19.8,9.6c1.9,4.8,3.8,14.1-4.8,16.8"/>
<path id="path20" inkscape:connector-curvature="0" class="st0" d="M224.7,0.9c0,0,12.6,1.5,19,6.4c6.4,4.8,9.2,8.4,9.2,8.4"/>
<path id="path22" inkscape:connector-curvature="0" class="st0" d="M218.8,2.4c0,0-9.1,3-17.7,11.3c-8.6,8.3-8,9.1-6.2,16.6
	c1.9,7.5,0.8,16.1,16.6,27.3"/>
<path id="path24" inkscape:connector-curvature="0" class="st0" d="M242.7,57.6c0,0,8-3.5,11.8-5.6c3.7-2.1,9.1-4.4,9.1-4.4"/>
<path id="path26" inkscape:connector-curvature="0" class="st0" d="M267.6,51.2c0,0-3.2,0.8-6.7,6.1"/>
<path id="path28" inkscape:connector-curvature="0" class="st0" d="M267.6,51.2c0,0,13.4,7.5,15.8,8.8s10.5,0.3,16.6-6.4
	c6.2-6.7,8.3-11.5,9.4-15.8s0.5-5.6-4-11c-4.6-5.4-13.7-16.6-13.7-16.6"/>
<line id="line30" class="st0" x1="307.4" y1="43.3" x2="313.2" y2="49"/>
<line id="line32" class="st0" x1="293.6" y1="58.4" x2="301.1" y2="65.4"/>
<path id="path34" inkscape:connector-curvature="0" class="st0" d="M342.4,295.6c-4.5-2.1-11.3-2.4-14.9,3.3
	c-3.7,5.8-1.2,14.9,1.5,18.4c2.7,3.6,10.5,4.7,15.3,1.3c4.8-3.5,8.3-11.5,7.5-19.6c-1.4-14.1-11.8-19-22.8-18.2s-22.3,13.4-22,26.3
	s2.7,24.7,7.8,37c5.1,12.3,16.9,38.9,21.2,49.9c4.3,11,1.3,19-1.9,22c-3.2,3-8.6,4-13.4,1.3s-6.2-4.3-6.2-4.3"/>
<path id="path36" inkscape:connector-curvature="0" class="st0" d="M326.3,418.8c0,0,1.9-3.9,1.9-8.5s-1.6-9.1-9.4-11
	s-12.1,4.3-13.9,11.5c-1.9,7.2-0.5,20.9,13.7,23.3s22.8-4.3,28.7-18c5.9-13.7,4.8-27.9-2.4-44.8c-7.2-16.9-14.7-34-20.1-46.1
	s-0.8-22.6,4-27.9"/>
<line id="line38" class="st0" x1="348.5" y1="313.8" x2="329.5" y2="337.2"/>
<line id="line40" class="st0" x1="316" y1="287.2" x2="300.3" y2="306.1"/>
<path id="path42" inkscape:connector-curvature="0" class="st0" d="M304.2,415.4c0,0-3.4,15.5-4.4,19c-1.1,3.5,0.5,16.1,17.2,17.4
	c16.6,1.3,25.5-5.1,28.4-16.4s5.7-36.5,5.7-36.5"/>
<path id="path44" inkscape:connector-curvature="0" class="st0" d="M327.4,451.6c0,0-9.6,13.4-11.3,16.6c-1.6,3.2-12.1,5.4-18.2,0
	c-6.2-5.4-6.2-10.4-4-14.7c2.1-4.3,6.8-11.5,6.8-11.5"/>
<path id="path46" inkscape:connector-curvature="0" class="st0" d="M297,447.9c0,0-6.1-2.4-8.5,5.3c-2.4,7.8,1.3,13.7,4.3,16.9
	c2.9,3.2,15.8,9.9,23.9,5.1c8-4.8,4-14.1,4-14.1"/>
<path id="path48" inkscape:connector-curvature="0" class="st0" d="M299.4,443.9c0,0-12.2-3.6-17.6,6.6s-1.9,22.5,5.9,29
	c7.8,6.4,27.6,8,34.8,1.6c7.2-6.4,8.2-16.9,1.7-25.1"/>
<path id="path50" inkscape:connector-curvature="0" class="st0" d="M283.4,447.2c0,0-8.9,11.1-12.3,16.4c-3.5,5.3-4,15,3.7,23.3
	c7.8,8.3,26,13.9,34,6.4s15-13.7,15-13.7"/>
<line id="line52" class="st0" x1="273.6" y1="460.1" x2="265.5" y2="454.3"/>
<path id="path54" inkscape:connector-curvature="0" class="st0" d="M299.8,348.4c0,0,5.4,11.3,9.6,20.9c4.3,9.6,7.5,20.8,7,29.7"/>
<line id="line56" class="st0" x1="319.5" y1="247" x2="319.5" y2="284.4"/>
<line id="line58" class="st0" x1="349" y1="239.8" x2="349" y2="288.6"/>
<path id="path60" inkscape:connector-curvature="0" class="st0" d="M299.8,248.2c0,0,9.6,5.6,12.3,6.7c2.7,1.1,7.1,3,7.4,7.2
	c0.4,4.3-2.9,6.4-5.5,8.6c-2.7,2.1-14.2,8.6-14.2,8.6"/>
<g id="g72" transform="translate(-70.340327,-1.1328692)">
	<g>
		<defs>
			<path id="SVGID_1_" d="M249.7,463.9l-1.2-1.3c-8.5-9.2-22.4-18-43.6-17.9c-14.2,0.1-36.4,0-36.4,0c-15.4,0-27.9-12.5-27.9-27.9
				V97.3c0-15.4,12.5-27.9,27.9-27.9h81h82c15.4,0,27.9,12.5,27.9,27.9v319.5c0,15.4-12.5,27.9-27.9,27.9c0,0-22.2,0.1-36.4,0
				c-21.2-0.1-35.3,8.6-44,17.7C250.6,462.9,250.1,463.4,249.7,463.9L249.7,463.9z"/>
		</defs>
		<clipPath id="SVGID_2_">
			<use xlink:href="#SVGID_1_"  style="overflow:visible;"/>
		</clipPath>
		<rect id="rect68" x="124.5" y="53.6" class="st1" width="260" height="409.5"/>
	</g>
	<g>
		<defs>
			<path id="SVGID_3_" d="M249.7,463.9l-1.2-1.3c-8.5-9.2-22.4-18-43.6-17.9c-14.2,0.1-36.4,0-36.4,0c-15.4,0-27.9-12.5-27.9-27.9
				V97.3c0-15.4,12.5-27.9,27.9-27.9h81h82c15.4,0,27.9,12.5,27.9,27.9v319.5c0,15.4-12.5,27.9-27.9,27.9c0,0-22.2,0.1-36.4,0
				c-21.2-0.1-35.3,8.6-44,17.7C250.6,462.9,250.1,463.4,249.7,463.9L249.7,463.9z"/>
		</defs>
		<clipPath id="SVGID_4_">
			<use xlink:href="#SVGID_3_"  style="overflow:visible;"/>
		</clipPath>
	</g>
</g>
<path id="path76" inkscape:connector-curvature="0" class="st0" d="M35,84.4c0,0-0.5-7.5-5.9-8s-9.6,3.7-10.2,9.1
	c-0.5,5.4,4.5,12.3,12.1,12.9c7.5,0.5,11.3-7.1,11.3-7.1C44.7,85.6,43,74.2,32,68.2c-8.4-4.5-24.4-3-28.5,18.9
	C0.6,102.6,5.2,115,17,128c16.5,18.1,29.7,40.6,30.3,62.6c0.7,29.5-6.4,42.8-20.1,42.6c-11.4-0.1-11.9-11-12.5-15.8
	c-0.5-4.8,3.5-8.8,6.4-8.7s6.6,2.8,6.7,8"/>
<path id="path78" inkscape:connector-curvature="0" class="st0" d="M14.7,215.2c0,0,2.9,12.1,12.3,10.8s11.4-10.2,10.2-16.9
	s-7.2-13.7-18.6-13.5C7.2,195.7,0.5,205,0.8,216.4c0.3,11.4,10.2,32,27.3,32.8c17.2,0.8,31.1-13.5,31.6-39.8"/>
<line id="line80" class="st0" x1="12.2" y1="196.6" x2="46.1" y2="179.2"/>
<path id="path82" inkscape:connector-curvature="0" class="st0" d="M59.6,183.6c0,0,2.9-23.3-13.9-46.1
	c-16.9-22.8-20.6-26.3-19.6-40.2"/>
<path id="path84" inkscape:connector-curvature="0" class="st0" d="M41.4,92.6c0,0,11-14.6,14.2-18.4s4.6-9.4-1.6-17.7
	s-15.6-14.7-22-8.8S9.4,72.8,9.4,72.8"/>
<path id="path86" inkscape:connector-curvature="0" class="st0" d="M49.1,82.5c0,0-4.7,6.5-0.5,16.4c4.3,9.9,11,13.9,11,13.9"/>
<path id="path88" inkscape:connector-curvature="0" class="st0" d="M128.8,16.1c0,0,5.1-3.8,7.2,1.1c2.1,4.8-0.8,10.2-5.9,11.5
	c-5.1,1.3-11.3-0.5-24.9-14.2C91.5,0.8,72,6.7,67.7,10.2s-11.8,16.3-1.3,30c10.4,13.7,19.8,15.5,27.1,9.9c7.2-5.6,4.5-14.5,0.5-19.8
	c-4-5.4-12.3-5.1-14.2-3.2c-1.9,1.9-3.7,6.4,1.1,10.5"/>
<path id="path90" inkscape:connector-curvature="0" class="st0" d="M97.3,37c0,0,17.5,12.6,28.2,12.8c10.7,0.3,23.9-10.5,24.9-22.3
	c1.1-11.8,1.3-19.8-9.9-25.2c-11.3-5.4-18,4.8-19.8,9.6c-1.9,4.8-3.8,14.1,4.8,16.8"/>
<path id="path92" inkscape:connector-curvature="0" class="st0" d="M134.7,0.9c0,0-12.6,1.5-19,6.4c-6.4,4.8-9.2,8.4-9.2,8.4"/>
<path id="path94" inkscape:connector-curvature="0" class="st0" d="M140.6,2.4c0,0,9.1,3,17.7,11.3c8.6,8.3,8,9.1,6.2,16.6
	c-1.9,7.5-0.8,16.1-16.6,27.3"/>
<path id="path96" inkscape:connector-curvature="0" class="st0" d="M116.7,57.6c0,0-8-3.5-11.8-5.6s-9.1-4.4-9.1-4.4"/>
<path id="path98" inkscape:connector-curvature="0" class="st0" d="M91.8,51.2c0,0,3.2,0.8,6.7,6.1"/>
<path id="path100" inkscape:connector-curvature="0" class="st0" d="M91.8,51.2c0,0-13.4,7.5-15.8,8.8s-10.5,0.3-16.6-6.4
	S51.1,42.1,50,37.8c-1.1-4.3-0.5-5.6,4-11s13.7-16.6,13.7-16.6"/>
<line id="line102" class="st0" x1="52" y1="43.3" x2="46.2" y2="49"/>
<line id="line104" class="st0" x1="65.8" y1="58.4" x2="58.3" y2="65.4"/>
<path id="path106" inkscape:connector-curvature="0" class="st0" d="M17,295.6c4.6-2.1,11.3-2.4,14.9,3.3c3.7,5.8,1.2,14.9-1.5,18.4
	c-2.7,3.6-10.5,4.7-15.3,1.3c-4.8-3.5-8.3-11.5-7.5-19.6c1.4-14.1,11.8-19,22.8-18.2s22.2,13.4,22,26.3c-0.3,12.9-2.7,24.7-7.8,37
	S27.7,383,23.4,394s-1.3,19,1.9,22s8.6,4,13.4,1.3s6.2-4.3,6.2-4.3"/>
<path id="path108" inkscape:connector-curvature="0" class="st0" d="M33.1,418.8c0,0-1.9-3.9-1.9-8.5s1.6-9.1,9.4-11
	s12.1,4.3,13.9,11.5c1.9,7.2,0.5,20.9-13.7,23.3s-22.8-4.3-28.7-18s-4.8-27.9,2.4-44.8s14.7-34,20.1-46.1s0.8-22.6-4-27.9"/>
<line id="line110" class="st0" x1="10.9" y1="313.8" x2="29.9" y2="337.2"/>
<line id="line112" class="st0" x1="43.4" y1="287.2" x2="59.1" y2="306.1"/>
<path id="path114" inkscape:connector-curvature="0" class="st0" d="M55.2,415.4c0,0,3.4,15.5,4.4,19c1.1,3.5-0.5,16.1-17.1,17.4
	s-25.5-5.1-28.4-16.4s-5.7-36.5-5.7-36.5"/>
<path id="path116" inkscape:connector-curvature="0" class="st0" d="M32,451.6c0,0,9.6,13.4,11.2,16.6s12.1,5.4,18.2,0
	c6.2-5.4,6.2-10.4,4-14.7c-2.1-4.3-6.8-11.5-6.8-11.5"/>
<path id="path118" inkscape:connector-curvature="0" class="st0" d="M62.4,447.9c0,0,6.1-2.4,8.5,5.3c2.4,7.8-1.3,13.7-4.3,16.9
	c-2.9,3.2-15.8,9.9-23.9,5.1c-8-4.8-4-14.1-4-14.1"/>
<path id="path120" inkscape:connector-curvature="0" class="st0" d="M60,443.9c0,0,12.2-3.6,17.6,6.6s1.9,22.5-5.9,29
	c-7.8,6.4-27.6,8-34.8,1.6s-8.2-16.9-1.7-25.1"/>
<path id="path122" inkscape:connector-curvature="0" class="st0" d="M76,447.2c0,0,8.9,11.1,12.3,16.4c3.5,5.3,4,15-3.7,23.3
	c-7.8,8.3-26,13.9-34,6.4s-15-13.7-15-13.7"/>
<line id="line124" class="st0" x1="85.8" y1="460.1" x2="93.9" y2="454.3"/>
<path id="path126" inkscape:connector-curvature="0" class="st0" d="M59.6,348.4c0,0-5.3,11.3-9.6,20.9s-7.5,20.8-7,29.7"/>
<line id="line128" class="st0" x1="39.9" y1="247" x2="39.9" y2="284.4"/>
<line id="line130" class="st0" x1="10.4" y1="239.8" x2="10.4" y2="288.6"/>
<path id="path132" inkscape:connector-curvature="0" class="st0" d="M59.6,248.2c0,0-9.6,5.6-12.3,6.7c-2.7,1.1-7.1,3-7.4,7.2
	c-0.3,4.3,2.9,6.4,5.5,8.6c2.7,2.1,14.2,8.6,14.2,8.6"/>
<g>
	<path id="path134" inkscape:connector-curvature="0" class="st2" d="M179.2,484c0,0-8.8-29.1-44.5-28.9c-14.2,0.1-36.5,0-36.5,0
		c-21.3,0-38.6-17.3-38.6-38.6V97c0-21.3,17.3-38.6,38.6-38.6h163c21.3,0,38.6,17.3,38.6,38.6v319.5c0,21.3-17.3,38.6-38.6,38.6
		c0,0-22.2,0.1-36.4,0C189,454.9,179.2,484,179.2,484z"/>
	<path id="path74" inkscape:connector-curvature="0" class="st3" d="M177,462.5l-1.2-1.3c-8.5-9.2-22.4-18-43.6-17.9
		c-14.2,0.1-36.4,0-36.4,0c-15.4,0-27.9-12.5-27.9-27.9V95.9C67.9,80.5,80.4,68,95.8,68h163c15.4,0,27.9,12.5,27.9,27.9v319.5
		c0,15.4-12.5,27.9-27.9,27.9c0,0-22.2,0.1-36.4,0c-21.2-0.1-35.3,8.6-44,17.7C177.9,461.5,177.4,462,177,462.5L177,462.5z"/>
</g>
<path id="path136" inkscape:connector-curvature="0" class="st0" d="M165.5,57.6c0,0,2.4-10.5,4.5-15.3s9.7-4.5,9.7-4.5
	s7.5-0.3,9.6,4.5s4.5,15.3,4.5,15.3"/>
<path id="path138" inkscape:connector-curvature="0" class="st0" d="M199.1,15.6c0,0-4.1-5.2-10-6.6c-5.9-1.3-9.4-0.8-9.4-0.8
	s-3.5-0.5-9.4,0.8s-10,6.6-10,6.6"/>
<path class="st4" d="M286.8,192.9h-219V95.7c0-15.3,12.5-27.9,27.9-27.9h163.3c15.3,0,27.9,12.5,27.9,27.9V192.9z"/>
<rect x="67.8" y="192.8" class="st5" width="219" height="137"/>
<g id="Capa_x0020_1">
	
		<sodipodi:namedview  bordercolor="#666666" borderopacity="1.0" gridtolerance="10.0" guidetolerance="10.0" id="base" inkscape:current-layer="svg2" inkscape:cx="295.86615" inkscape:cy="274.60629" inkscape:pageopacity="0.0" inkscape:pageshadow="2" inkscape:window-height="714" inkscape:window-width="1024" inkscape:window-x="0" inkscape:window-y="22" inkscape:zoom="0.92678138" objecttolerance="10.0" pagecolor="#ffffff" showgrid="false">
		</sodipodi:namedview>
	<g id="g4007">
		<g id="g3839">
			<path id="path4097" sodipodi:nodetypes="cc" class="st6" d="M136,295.3c1.3-3.4,0.1-4.6-0.3-6.4 M136,295.3L136,295.3L136,295.3z
				"/>
			<path id="path4163" sodipodi:nodetypes="cc" class="st6" d="M135.9,295.3c1.3-3.4,0.1-4.6-0.3-6.4 M135.9,295.3L135.9,295.3
				L135.9,295.3z"/>
			<path id="path3764" sodipodi:nodetypes="cccc" class="st7" d="M98.1,304c-1.7-1.4-3.4-1.6-4.8-0.5c1.1-5.2,4.1-3.7,7.4-1.4
				C100.7,302.1,98.1,304,98.1,304z"/>
			<path id="path3762" sodipodi:nodetypes="cccccccccccccccccccccccccc" class="st8" d="M113.9,304.9l24.8-19.1l5.7,7.9l-22.9,13.2
				c1.2-0.3,2.2-0.8,3.8-0.6c3.6-2.3,5.2-0.6,5.5-0.9c0.4,1.3,1.3,2.6-0.3,4.1c-0.1,1.3-1.9,1.1-4.4,0.3c-1.6,1.3-1.6,3.4-5.6,3.3
				c-2.1-0.6-5-1.1-4.7-2.4l-4.3,1.4c-2.5,4.8-5.1,10.9-8.3,11.2l-3.3-1.3c-1.4-2.9,1.8-5.2,4-7.6l4.8-3.7
				c-3.7,1.3-9.1,6.1-11.7,5.6l-2.9-3.8c2.2-4.6,7.7-3.6,11.5-3.6l-5.3-1.6l-2.9-0.6c-1.2-1.5-0.2-2.4,0.5-3.6
				c0.1-0.6,1.7-2.2,4.2-2c0.9-0.1,2.8,2.1,4.4,4c1.6,0.3,2.8-0.4,5,1.4c-1.6-1.1-1.6-1.6,0.2-1.3L113.9,304.9L113.9,304.9
				L113.9,304.9z"/>
			<path id="path3766" sodipodi:nodetypes="cccc" class="st7" d="M95.1,312.6c-3,2.1-6.4,4-2.6,7.3c-0.3-3,2.5-3.4,5.4-4.3
				C97.6,313.7,96.6,312.7,95.1,312.6L95.1,312.6z"/>
			<path id="path3768" sodipodi:nodetypes="cccc" class="st7" d="M100.6,320.8c-2.1,4.1-2.8,7.7,2.9,9.1c-3.2-3.4-0.6-5.1,0.4-7.2
				C103.7,321.7,102.8,321,100.6,320.8C100.6,320.8,100.6,320.8,100.6,320.8z"/>
			<path id="path3770" sodipodi:nodetypes="cccc" class="st7" d="M130,308.8c-0.5-1-0.4-1.9,0.4-2.9c5,0.1,4.6,2.4,5,4.3
				C133.7,309.4,132.5,308,130,308.8L130,308.8L130,308.8z"/>
			<path id="path3772" sodipodi:nodetypes="ccc" class="st6" d="M140.8,291.4l-23.1,14.7c-2.3,0.5-2.6-0.2-3.6-0.4 M140.8,291.4
				L140.8,291.4L140.8,291.4z"/>
			<path id="path3776" class="st6" d="M117.3,303.4l3.6,0.5 M117.3,303.4L117.3,303.4L117.3,303.4z"/>
			<path id="path3778" class="st6" d="M120.1,301.6l3.6,0.5 M120.1,301.6L120.1,301.6L120.1,301.6z"/>
			<path id="path3780" class="st6" d="M123.1,299.3l4,0.6 M123.1,299.3L123.1,299.3L123.1,299.3z"/>
			<path id="path3782" class="st6" d="M126.2,297.3l4.1,0.6 M126.2,297.3L126.2,297.3L126.2,297.3z"/>
			<path id="path3784" class="st6" d="M129.1,295l4.7,0.7 M129.1,295L129.1,295L129.1,295z"/>
			<path id="path3786" class="st6" d="M131.8,292.9l5.3,0.8 M131.8,292.9L131.8,292.9L131.8,292.9z"/>
			<path id="path3788" sodipodi:nodetypes="cc" class="st6" d="M115.3,307.3c1.8,2.1,4.4-0.3,6.6-0.5 M115.3,307.3L115.3,307.3
				L115.3,307.3z"/>
			<path id="path3790" sodipodi:nodetypes="cc" class="st6" d="M109.4,314.3c-1.8,2.4-1.4,5-5.5,7.3 M109.4,314.3L109.4,314.3
				L109.4,314.3z"/>
			<path id="path3792" sodipodi:nodetypes="cc" class="st6" d="M97.7,314.3c1.8,1.6,3.9-1.5,5.9-2.3 M97.7,314.3L97.7,314.3
				L97.7,314.3z"/>
			<path id="path3794" sodipodi:nodetypes="cc" class="st6" d="M99.1,304.3c-2.2,2,1.2,2.2,3.5,2.7 M99.1,304.3L99.1,304.3
				L99.1,304.3z"/>
			<path id="path3796" sodipodi:nodetypes="cc" class="st6" d="M117.9,311c1,1.5,3.2,1.3,6.3-0.3 M117.9,311L117.9,311L117.9,311z"
				/>
		</g>
		<g id="g3665">
			<path id="path3667" sodipodi:nodetypes="cc" class="st6" d="M219.3,295.3c-1.3-3.4-0.1-4.6,0.3-6.4 M219.3,295.3L219.3,295.3
				L219.3,295.3z"/>
			<path id="path3669" sodipodi:nodetypes="cc" class="st6" d="M219.4,295.3c-1.3-3.4-0.1-4.6,0.3-6.4 M219.4,295.3L219.4,295.3
				L219.4,295.3z"/>
			<path id="path3671" sodipodi:nodetypes="cccc" class="st7" d="M257.2,304c1.7-1.4,3.4-1.6,4.8-0.5c-1.1-5.2-4.1-3.7-7.4-1.4
				L257.2,304z"/>
			<path id="path3673" sodipodi:nodetypes="cccccccccccccccccccccccccc" class="st8" d="M241.4,304.9l-24.8-19.1l-5.7,7.9l22.9,13.2
				c-1.2-0.3-2.2-0.8-3.8-0.6c-3.6-2.3-5.2-0.6-5.5-0.9c-0.4,1.3-1.3,2.6,0.3,4.1c0.1,1.3,1.9,1.1,4.4,0.3c1.6,1.3,1.6,3.4,5.6,3.3
				c2.1-0.6,5-1.1,4.7-2.4l4.3,1.4c2.5,4.8,5.1,10.9,8.3,11.2l3.3-1.3c1.4-2.9-1.8-5.2-4-7.6l-4.8-3.7c3.7,1.3,9.1,6.1,11.7,5.6
				l2.9-3.8c-2.2-4.6-7.7-3.6-11.5-3.6l5.3-1.6l2.9-0.6c1.2-1.5,0.2-2.4-0.5-3.6c-0.1-0.6-1.7-2.2-4.2-2c-0.9-0.1-2.8,2.1-4.4,4
				c-1.6,0.3-2.8-0.4-5,1.4c1.6-1.1,1.6-1.6-0.2-1.3L241.4,304.9L241.4,304.9L241.4,304.9L241.4,304.9z"/>
			<path id="path3675" sodipodi:nodetypes="cccc" class="st7" d="M260.3,312.6c3,2.1,6.4,4,2.6,7.3c0.3-3-2.5-3.4-5.4-4.3
				C257.8,313.7,258.7,312.7,260.3,312.6L260.3,312.6z"/>
			<path id="path3677" sodipodi:nodetypes="cccc" class="st7" d="M254.7,320.8c2.1,4.1,2.8,7.7-2.9,9.1c3.2-3.4,0.6-5.1-0.4-7.2
				C251.6,321.7,252.6,321,254.7,320.8z"/>
			<path id="path3679" sodipodi:nodetypes="cccc" class="st7" d="M225.4,308.8c0.5-1,0.4-1.9-0.4-2.9c-5,0.1-4.6,2.4-5,4.3
				C221.6,309.4,222.9,308,225.4,308.8L225.4,308.8L225.4,308.8z"/>
			<path id="path3681" sodipodi:nodetypes="ccc" class="st6" d="M214.6,291.4l23.1,14.7c2.3,0.5,2.6-0.2,3.6-0.4 M214.6,291.4
				L214.6,291.4L214.6,291.4z"/>
			<path id="path3683" class="st6" d="M238.1,303.4l-3.6,0.5 M238.1,303.4L238.1,303.4L238.1,303.4z"/>
			<path id="path3685" class="st6" d="M235.3,301.6l-3.6,0.5 M235.3,301.6L235.3,301.6L235.3,301.6z"/>
			<path id="path3687" class="st6" d="M232.2,299.3l-4,0.6 M232.2,299.3L232.2,299.3L232.2,299.3z"/>
			<path id="path3689" class="st6" d="M229.1,297.3l-4.1,0.6 M229.1,297.3L229.1,297.3L229.1,297.3z"/>
			<path id="path3691" class="st6" d="M226.3,295l-4.7,0.7 M226.3,295L226.3,295L226.3,295z"/>
			<path id="path3693" class="st6" d="M223.6,292.9l-5.3,0.8 M223.6,292.9L223.6,292.9L223.6,292.9z"/>
			<path id="path3695" sodipodi:nodetypes="cc" class="st6" d="M240,307.3c-1.8,2.1-4.4-0.3-6.6-0.5 M240,307.3L240,307.3L240,307.3
				z"/>
			<path id="path3697" sodipodi:nodetypes="cc" class="st6" d="M246,314.3c1.8,2.4,1.4,5,5.5,7.3 M246,314.3L246,314.3L246,314.3z"
				/>
			<path id="path3699" sodipodi:nodetypes="cc" class="st6" d="M257.7,314.3c-1.8,1.6-3.9-1.5-5.9-2.3 M257.7,314.3L257.7,314.3
				L257.7,314.3z"/>
			<path id="path3701" sodipodi:nodetypes="cc" class="st6" d="M256.2,304.3c2.2,2-1.2,2.2-3.5,2.7 M256.2,304.3L256.2,304.3
				L256.2,304.3z"/>
			<path id="path3703" sodipodi:nodetypes="cc" class="st6" d="M237.5,311c-1,1.5-3.2,1.3-6.3-0.3 M237.5,311L237.5,311L237.5,311z"
				/>
		</g>
	</g>
	<g id="g3026">
		<g id="g4158">
			<g id="g4150">
				<path id="path4152" sodipodi:nodetypes="cccccc" class="st9" d="M138.8,245.7l0.1,15.1c0.4,1.6,3.1,2.4,5.6,3.4
					c1.5-1.3,3.6-1.5,4.4-4.1l-1.4-15L138.8,245.7L138.8,245.7L138.8,245.7z"/>
				<path id="path4154" sodipodi:nodetypes="ccc" class="st6" d="M147.3,257.3c0.5,4.2-1.6,3.6-2.9,5.1c-2.2-1.4-4.6-0.5-4.3-4.2
					 M147.3,257.3L147.3,257.3L147.3,257.3z"/>
				<path id="path4156" class="st6" d="M144.4,246.6l-0.3,9.8l-1.6-9.5 M144.4,246.6L144.4,246.6L144.4,246.6z"/>
			</g>
			<g id="g3800">
				<g id="g3802">
					<path id="path3804" sodipodi:nodetypes="ccccccccccccccccccccccccc" class="st9" d="M112.6,240.5l-12.4,14.4
						c-1.1,1.5-4.2,1.3-7.8,0.7c-0.1-2.4-1.9-5,0.8-7.1l9.3-8.3c-4.6,2.2-8.9,9.6-18.8,5.9c1.1-7.6,2.7-6.2,9.4-10.1
						c-8.9,2.5-12.3,0.5-15.7-1.3c2.2-5.3,5-5.9,7.7-6.8c-7.2,0.1-9.5-3.4-12.1-5.2c2.1-3.2,7.5-5.3,10.7-4.9
						c-8.4-2-10.3-5.3-12.9-9.2c4.8-2.6,8.6-3.1,12.5-2.2c-7.7-3.3-11.2-7.5-13-12.1c4.1-1.4,7.7-0.6,11.3,0.2c-7-4-8.7-9.4-9-13.8
						c5.3-0.5,8.6,1.2,12.2,2.7c-11.5-7.7-8.9-18-7.3-21.1c5.6,5.5,11.6,11,17.9,16.5c-17.4-19.4-13.9-27.4-8.7-34.5
						c5.4,10,9.9,19.4,20.1,31.2l5.8,14.2l-3.8,23l7.3,22.6L112.6,240.5L112.6,240.5L112.6,240.5L112.6,240.5z"/>
					<path id="path3806" sodipodi:nodetypes="cc" class="st6" d="M108.5,189.9c-4.8-3.4-9.3-7.2-13.5-11.5 M108.5,189.9L108.5,189.9
						L108.5,189.9z"/>
					<path id="path3808" sodipodi:nodetypes="ccc" class="st6" d="M105.1,182.4c-6.3-5-9.4-12.2-13.3-18.8c4.3,5.5,8,11.4,13.2,16.2
						 M105.1,182.4L105.1,182.4L105.1,182.4z"/>
					<path id="path3810" class="st6" d="M112.3,238.1l-10.5,9.4l10.4-11.5 M112.3,238.1L112.3,238.1L112.3,238.1z"/>
					<path id="path3812" class="st6" d="M108.3,233.3l-12.1,6.2l10.6-6.9 M108.3,233.3L108.3,233.3L108.3,233.3z"/>
					<path id="path3814" class="st6" d="M104.8,229.4l-12.2,2l12.7-3.5 M104.8,229.4L104.8,229.4L104.8,229.4z"/>
					<path id="path3816" class="st6" d="M101.2,223.3L88,222.9l12.9-1.1 M101.2,223.3L101.2,223.3L101.2,223.3z"/>
					<path id="path3818" class="st6" d="M100.3,215.3l-14.7-2.9l13.2,1.3 M100.3,215.3L100.3,215.3L100.3,215.3z"/>
					<path id="path3820" class="st6" d="M101.3,207.3l-17.2-6.4l15.6,4.7 M101.3,207.3L101.3,207.3L101.3,207.3z"/>
					<path id="path3822" class="st6" d="M100.9,199.4l-14.6-9.1l17.2,9 M100.9,199.4L100.9,199.4L100.9,199.4z"/>
					<path id="path3824" class="st6" d="M100.9,190.4l-12.7-11l13.7,9.9 M100.9,190.4L100.9,190.4L100.9,190.4z"/>
					<path id="path3826" sodipodi:nodetypes="ccc" class="st6" d="M93,159.9c-3-4.3-5.5-9-6.5-12.3c-4.1,11.1,1.2,16.2,3.7,21.4
						 M93,159.9L93,159.9L93,159.9z"/>
					<path id="path3828" sodipodi:nodetypes="ccc" class="st6" d="M89.7,176.1c-4.1-3.6-8.4-7.2-11.4-10.9c-1,10.8,3.4,13.4,7.4,17
						 M89.7,176.1L89.7,176.1L89.7,176.1z"/>
					<path id="path3830" sodipodi:nodetypes="ccc" class="st6" d="M88.3,187.6c-3.7-2.9-8.1-4.1-13.2-5c1.4,4.2,3.4,8.6,9.3,11.6
						 M88.3,187.6L88.3,187.6L88.3,187.6z"/>
					<path id="path3832" sodipodi:nodetypes="ccc" class="st6" d="M84.9,198c-3.5-1.2-6.9-2.6-11.3-2c2.5,4.8,6.6,6.9,10.6,8.8
						 M84.9,198L84.9,198L84.9,198z"/>
					<path id="path3834" sodipodi:nodetypes="ccc" class="st6" d="M85.4,209.1c-4.6-1.2-8.1-0.5-11.4,0.6c2.6,3.3,6.6,5.2,11,6.7
						 M85.4,209.1L85.4,209.1L85.4,209.1z"/>
					<path id="path3836" sodipodi:nodetypes="ccc" class="st6" d="M84.8,219.5c-3,0.2-5.9,1.1-8.9,3.1c3,3.9,7,3.4,11,3.5
						 M84.8,219.5L84.8,219.5L84.8,219.5z"/>
					<path id="path3838" sodipodi:nodetypes="ccc" class="st6" d="M86.9,229.1c-3.5,1.2-6.6,2.6-7.3,5c2.2,0.8,2.9,1.8,10.1,0.9
						 M86.9,229.1L86.9,229.1L86.9,229.1z"/>
					<path id="path3840" sodipodi:nodetypes="ccc" class="st6" d="M88.9,240c-2.8,1.5-3.2,1.8-3.2,5.4c2.3,0.7,3.6,1,6.5-0.2
						 M88.9,240L88.9,240L88.9,240z"/>
					<path id="path3842" sodipodi:nodetypes="ccc" class="st6" d="M96,248c-4.1,2.9-2.5,4.6-2.7,6.4c3.3-0.2,4.5,1.6,7.2-2 M96,248
						L96,248L96,248z"/>
					<path id="path3844" class="st6" d="M102.1,240.5l9.7-7 M102.1,240.5L102.1,240.5L102.1,240.5z"/>
					<path id="path3846" class="st6" d="M92.9,236l11.8-4.4 M92.9,236L92.9,236L92.9,236z"/>
					<path id="path3848" class="st6" d="M84.6,228l20.9-2.5 M84.6,228L84.6,228L84.6,228z"/>
					<path id="path3850" class="st6" d="M83.1,217.8l20.9,0.5 M83.1,217.8L83.1,217.8L83.1,217.8z"/>
					<path id="path3852" class="st6" d="M82.9,206.3l17.3,4.1 M82.9,206.3L82.9,206.3L82.9,206.3z"/>
					<path id="path3854" class="st6" d="M84.4,183.1l17.2,10.8 M84.4,183.1L84.4,183.1L84.4,183.1z"/>
				</g>
				<path id="path3856" class="st6" d="M81.4,194.4l16.8,7 M81.4,194.4L81.4,194.4L81.4,194.4z"/>
			</g>
			<g id="g3858">
				<path id="path3860" sodipodi:nodetypes="cccccc" class="st9" d="M122.2,241.6l-10.9,18.8c-0.9,1.9-4,1.7-6.8,1.8
					c-2.1-2.5-2.4-5-1.4-7.6l12.8-17.5L122.2,241.6L122.2,241.6L122.2,241.6L122.2,241.6z"/>
				<path id="path3862" sodipodi:nodetypes="ccc" class="st6" d="M118.8,241.9l-8.3,11.2l8.1-13.5 M118.8,241.9L118.8,241.9
					L118.8,241.9z"/>
				<path id="path3864" sodipodi:nodetypes="ccc" class="st6" d="M105,254.9c-1.8,2.9-1,3.7,0.5,6c3-0.8,3.5,0.9,5.5-3 M105,254.9
					L105,254.9L105,254.9z"/>
			</g>
			<g id="g3866">
				<path id="path3868" sodipodi:nodetypes="cccccc" class="st9" d="M129.7,245.1l-6.1,17.9c-2.1,2.9-4.2,2.2-6.3,3.1
					c-2.8-2.6-3.7-5.5-3.4-6.3l8.7-18L129.7,245.1L129.7,245.1L129.7,245.1L129.7,245.1z"/>
				<path id="path3870" sodipodi:nodetypes="ccc" class="st6" d="M126.3,245.7l-6,11.6l4.3-12.6 M126.3,245.7L126.3,245.7
					L126.3,245.7z"/>
				<path id="path3872" sodipodi:nodetypes="ccc" class="st6" d="M115.9,258.8c-0.8,1.3-0.5,3.1,1.6,5.7c1.8-1,4.7-0.7,4.9-3.9
					 M115.9,258.8L115.9,258.8L115.9,258.8z"/>
			</g>
			<g id="g3874">
				<path id="path3876" sodipodi:nodetypes="cccccc" class="st9" d="M129.4,245.3l-2.3,14.9c0.2,1.6,2.7,2.9,5,4.2
					c1.7-1,3.8-1,5-3.4l0.9-15.1L129.4,245.3L129.4,245.3L129.4,245.3L129.4,245.3z"/>
				<path id="path3878" sodipodi:nodetypes="ccc" class="st6" d="M136,258.1c-0.2,4.3-2.1,3.3-3.7,4.6c-1.9-1.7-4.5-1.2-3.6-4.8
					 M136,258.1L136,258.1L136,258.1z"/>
				<path id="path3880" class="st6" d="M134.8,247.1l-1.8,9.7l-0.1-9.6 M134.8,247.1L134.8,247.1L134.8,247.1z"/>
			</g>
			<path id="path3884" sodipodi:nodetypes="cccccccccccccccccccccccccccc" class="st9" d="M118.5,187.6c-5.5-4.4-9.5-9.2-11-14.5
				c-4.3,6.2-2.2,12.4,2.5,18.6c-3-1.9-6-2.7-9.2-2.1c-0.1,4.8,3.1,6.9,5,10c-2.8-0.5-5.5-1-8.2,2c0.4,2,3,6,6.7,7.2
				c-2.1,0.2-4.2,1-6.3,4c2.1,2.5,4.4,4.3,7,4.8c-1.6,1-3.2,1.4-4.5,4.8c1.7,2,3.7,3,6.3,3.5c-1,1.4-2.2,2.1-2.2,5.7
				c3.8,2.2,5.7,1.4,7.5,1.3c-0.7,2-0.8,4.4,0.2,7.6c2.4-0.1,5,0.1,6.6-1.1c-0.8,2.2,0.5,4,1.2,5.9c2.7,0,4.9-0.2,6.2-1.8
				c-0.4,1.9,1.1,3.8,2.6,5.7c2.3-0.5,4.9-0.8,5.8-2.8c0.5,2,2.6,3,4.7,4.1c2.2-0.7,4.2-1.9,4.7-3.7c0.9,1.7,2.5,3,5.3,3.9
				c1.5-1.2,3.6-2.6,3.5-4.4l-4-13.4L130,225l-3.3-11.5l3.4-13.1L118.5,187.6L118.5,187.6L118.5,187.6L118.5,187.6z"/>
			<path id="path3886" class="st6" d="M144.1,246.9l-0.6-11.4 M144.1,246.9L144.1,246.9L144.1,246.9z"/>
			<path id="path3888" class="st6" d="M134.9,246.6l1.5-10.6 M134.9,246.6L134.9,246.6L134.9,246.6z"/>
			<path id="path3890" class="st6" d="M126.3,243.4l4.4-9.3 M126.3,243.4L126.3,243.4L126.3,243.4z"/>
			<path id="path3892" class="st6" d="M118.8,239.6l6.9-9.3 M118.8,239.6L118.8,239.6L118.8,239.6z"/>
			<path id="path3894" class="st6" d="M112.2,232.9l7.7-5.1 M112.2,232.9L112.2,232.9L112.2,232.9z"/>
			<path id="path3896" class="st6" d="M106.6,225.9l12.1-2.4 M106.6,225.9L106.6,225.9L106.6,225.9z"/>
			<path id="path3898" class="st6" d="M105,217.5l11.5-0.2 M105,217.5L105,217.5L105,217.5z"/>
			<path id="path3900" sodipodi:nodetypes="cc" class="st6" d="M104.1,208.8l15.3,2.6 M104.1,208.8L104.1,208.8L104.1,208.8z"/>
			<path id="path3902" class="st6" d="M105.9,199.7l9.9,4.5 M105.9,199.7L105.9,199.7L105.9,199.7z"/>
			<path id="path3904" class="st6" d="M109.8,191.5l9.8,7.4 M109.8,191.5L109.8,191.5L109.8,191.5z"/>
			<path id="path3906" sodipodi:nodetypes="ccc" class="st6" d="M147.4,236l0.7,7.2l-2.4-7 M147.4,236L147.4,236L147.4,236z"/>
			<path id="path3908" sodipodi:nodetypes="ccc" class="st6" d="M151.4,244.3c0.4,1.7-0.3,2.3-2.2,4.1c-1.5-0.9-3.7-1-4-3.1
				 M151.4,244.3L151.4,244.3L151.4,244.3z"/>
			<path id="path3910" class="st6" d="M140.8,235l-0.9,8l-0.7-7.2 M140.8,235L140.8,235L140.8,235z"/>
			<path id="path3912" class="st6" d="M134.3,234.9l-2.6,6.3l1.6-7.8 M134.3,234.9L134.3,234.9L134.3,234.9z"/>
			<path id="path3914" class="st6" d="M127.7,233.7l-3.5,5.7l2.7-6.3 M127.7,233.7L127.7,233.7L127.7,233.7z"/>
			<path id="path3916" sodipodi:nodetypes="ccc" class="st6" d="M142.5,245.5c0.4,1.8-1.6,2.3-2.9,3.3c-1.2-1-3.4-1.8-3.2-3.2
				 M142.5,245.5L142.5,245.5L142.5,245.5z"/>
			<path id="path3918" sodipodi:nodetypes="ccc" class="st6" d="M133.9,245.3c-1.4,2-2.8,1.4-4.2,2.1c-0.7-1.3-2.4-2.3-1.7-4
				 M133.9,245.3L133.9,245.3L133.9,245.3z"/>
			<path id="path3920" sodipodi:nodetypes="ccc" class="st6" d="M125.4,242.3c-0.7,1.5-2.8,0.8-4.2,1.2c-0.2-1.3-1.3-2.7-0.7-4
				 M125.4,242.3L125.4,242.3L125.4,242.3z"/>
			<path id="path3922" sodipodi:nodetypes="ccc" class="st6" d="M123.6,228.8l-5.8,5.2l4.4-5.3 M123.6,228.8L123.6,228.8
				L123.6,228.8z"/>
			<path id="path3924" sodipodi:nodetypes="ccc" class="st6" d="M117.8,237.9c-1.1,1.3-3.2,0.9-4.7,0.9c0.1-1.3-0.6-3.5,0.4-4.7
				 M117.8,237.9L117.8,237.9L117.8,237.9z"/>
			<path id="path3926" class="st6" d="M117,191.1l-5-5.2l5.1,6.9 M117,191.1L117,191.1L117,191.1z"/>
			<path id="path3928" sodipodi:nodetypes="ccc" class="st6" d="M119.5,201.9l-9.1-5.1l8,5.5 M119.5,201.9L119.5,201.9L119.5,201.9z
				"/>
			<path id="path3930" class="st6" d="M116,206.5l-8.2-1.9l8.7,3 M116,206.5L116,206.5L116,206.5z"/>
			<path id="path3932" sodipodi:nodetypes="ccc" class="st6" d="M111.8,191c-3-3.7-6.3-7.2-4.5-14.2c0.7,1.5,1.8,3.6,3.1,5
				 M111.8,191L111.8,191L111.8,191z"/>
			<path id="path3934" sodipodi:nodetypes="ccc" class="st6" d="M110.8,194.1c-5.4-3.3-5.7-2.9-8.2-2.7c1.5,3.4,1.1,3.2,4.9,7
				 M110.8,194.1L110.8,194.1L110.8,194.1z"/>
			<path id="path3936" sodipodi:nodetypes="ccc" class="st6" d="M106.5,201.7c-2.1-0.7-4.2-0.6-7,0.4c1.3,2.4,3.5,3.9,5.8,4.9
				 M106.5,201.7L106.5,201.7L106.5,201.7z"/>
			<path id="path3938" class="st6" d="M116.2,213.2l-8.7,0.2l8.2,1.2 M116.2,213.2L116.2,213.2L116.2,213.2z"/>
			<path id="path3940" sodipodi:nodetypes="ccc" class="st6" d="M106.1,210.9c-2.8-0.6-3.8,0.2-5.5,1.8c0.7,1.1,0.9,2.4,4.7,3.5
				 M106.1,210.9L106.1,210.9L106.1,210.9z"/>
			<path id="path3942" sodipodi:nodetypes="ccc" class="st6" d="M107,219c-3.4,1-3.7,1.6-4.4,3.3c1.6,0.9,2.2,2.3,5.2,1.8 M107,219
				L107,219L107,219z"/>
			<path id="path3944" class="st6" d="M118.7,219.6l-8,1.6l9.4-0.3 M118.7,219.6L118.7,219.6L118.7,219.6z"/>
			<path id="path3946" class="st6" d="M118.3,225.6l-6.7,2.6l6.8-1.5 M118.3,225.6L118.3,225.6L118.3,225.6z"/>
			<path id="path3948" sodipodi:nodetypes="ccc" class="st6" d="M109.3,226.5c-3,1.2-2.4,2.1-2.9,3.9c1.6,0.8,1.5,1.3,5.5,0.9
				 M109.3,226.5L109.3,226.5L109.3,226.5z"/>
			<path id="path3952" sodipodi:nodetypes="ccccccccccccccccccccc" class="st9" d="M148.2,220.3c-6.2,8.2-16,2.9-16.9-3.7
				c-0.6-6.6,9.7-5.6,4.5-14.1l-17.5-18.7c-2.1,7.8-1.9,14.4,4.9,18.3c-3.2,0.1-6.9-0.3-7.3,2.1c-0.4,3.9,2.9,5.5,4.8,6.9
				c-1.3,0.4-3,0.3-5.4,3.6c1,2.8,2.5,5.2,5.7,5.8c-1,0.8-2.4,0.6-2.7,6.5c3,2,5.2,2,7.3,1.6c0,1.6-0.1,3.3,1.8,5.1
				c5.2,1,4.5,0,6-0.2c1.2,1.1,1.6,2.3,4.2,3.2c2.5-0.9,2.8-1.8,3.9-2.7c1.5,0.9,1.2,1.9,5,2.6c3-1.7,2.4-2.8,3.1-4.1
				c1.3,0.5,2,1.3,4.5,1.2c2.7-2.9,0.5-4.8,0.2-6.8l-2.3-7.1L148.2,220.3L148.2,220.3L148.2,220.3L148.2,220.3z"/>
			<path id="path3954" class="st6" d="M149.7,232.4l-2-5.9 M149.7,232.4L149.7,232.4L149.7,232.4z"/>
			<path id="path3956" class="st6" d="M141.6,233.9l-0.5-5.7 M141.6,233.9L141.6,233.9L141.6,233.9z"/>
			<path id="path3958" class="st6" d="M145,229.3l-0.5-2 M145,229.3L145,229.3L145,229.3z"/>
			<path id="path3960" class="st6" d="M137.8,229.4l0.3-1.6 M137.8,229.4L137.8,229.4L137.8,229.4z"/>
			<path id="path3962" class="st6" d="M133.3,233.3l1.7-5.6 M133.3,233.3L133.3,233.3L133.3,233.3z"/>
			<path id="path3964" class="st6" d="M125.5,228.5l3.5-3.8 M125.5,228.5L125.5,228.5L125.5,228.5z"/>
			<path id="path3966" class="st6" d="M120.9,220.3l4.2-0.5 M120.9,220.3L120.9,220.3L120.9,220.3z"/>
			<path id="path3968" class="st6" d="M120.6,211.1l5.5,1.9 M120.6,211.1L120.6,211.1L120.6,211.1z"/>
			<path id="path3970" sodipodi:nodetypes="cc" class="st6" d="M128.6,206.9c-1.6-2-3.3-3.7-5.4-4.9 M128.6,206.9L128.6,206.9
				L128.6,206.9z"/>
			<path id="path3972" sodipodi:nodetypes="ccc" class="st6" d="M123.9,191.8l-5-5.3c0,7.4,1,9.8,3.2,12.8 M123.9,191.8L123.9,191.8
				L123.9,191.8z"/>
			<path id="path3974" sodipodi:nodetypes="ccc" class="st6" d="M122.6,203.6c-1.6-0.1-3.3-0.7-5.3,0.6c-0.3,2.8,1.5,4.1,2.9,5
				 M122.6,203.6L122.6,203.6L122.6,203.6z"/>
			<path id="path3976" sodipodi:nodetypes="ccc" class="st6" d="M121.2,212.5c-0.9,0.2-2.7,0.1-4.2,2.4c0.5,2.4,1.9,2.9,3.2,3.7
				 M121.2,212.5L121.2,212.5L121.2,212.5z"/>
			<path id="path3978" sodipodi:nodetypes="ccc" class="st6" d="M121.1,221.8c-0.7,0.9-1.6,1.3-1.6,4.4c1.9,1.2,3.6,1.7,5.1,1.2
				 M121.1,221.8L121.1,221.8L121.1,221.8z"/>
			<path id="path3980" class="st6" d="M132.3,225.7l-0.9,1.5 M132.3,225.7L132.3,225.7L132.3,225.7z"/>
			<path id="path3982" sodipodi:nodetypes="ccc" class="st6" d="M127.1,228.5c-0.1,0.8-0.9,2.2,1.1,4c3.1,0.9,3.2,0,4.4-0.8
				 M127.1,228.5L127.1,228.5L127.1,228.5z"/>
			<path id="path3984" sodipodi:nodetypes="ccc" class="st6" d="M134.7,232c-0.3,1.7,1.7,2.2,2.9,3.1c1-0.8,2.5-0.5,3-2.5
				 M134.7,232L134.7,232L134.7,232z"/>
			<path id="path3986" sodipodi:nodetypes="ccc" class="st6" d="M142.8,233.3c0.6,0.6,1.2,1.2,3.6,1.6c1-1,1.9-1.9,2-2.9
				 M142.8,233.3L142.8,233.3L142.8,233.3z"/>
			<path id="path3988" sodipodi:nodetypes="ccc" class="st6" d="M150.3,231.4c0.7,0.7,1.7,1.1,2.9,1.2c1.2-0.9,1.1-1.7,1.2-2.6
				 M150.3,231.4L150.3,231.4L150.3,231.4z"/>
			<path id="path3990" sodipodi:nodetypes="ccc" class="st6" d="M125.2,196.6c2.3,2.5,7.2,5.5,6,6.7
				C129.3,203.9,127.2,198.7,125.2,196.6L125.2,196.6z"/>
			<path id="path3992" sodipodi:nodetypes="ccc" class="st6" d="M122.6,206.9c2,1.2,5.9,2.3,5.3,3.3
				C126.8,211.1,124.4,207.9,122.6,206.9z"/>
			<path id="path3994" sodipodi:nodetypes="ccc" class="st6" d="M121.5,216c2,0.1,5.2-0.5,5.2,0.4
				C126.3,217.4,123.2,216.1,121.5,216z"/>
			<path id="path3996" sodipodi:nodetypes="ccc" class="st6" d="M123.6,225c1.6-1.2,3.5-3.9,4.1-3.2
				C128,222.8,124.9,223.9,123.6,225z"/>
		</g>
		<g id="g3461">
			<g id="g3463">
				<path id="path3465" sodipodi:nodetypes="cccccc" class="st9" d="M216.6,245.7l-0.1,15.1c-0.4,1.6-3.1,2.4-5.6,3.4
					c-1.5-1.3-3.6-1.5-4.4-4.1l1.4-15L216.6,245.7L216.6,245.7L216.6,245.7L216.6,245.7z"/>
				<path id="path3467" sodipodi:nodetypes="ccc" class="st6" d="M208.1,257.3c-0.5,4.2,1.6,3.6,2.9,5.1c2.2-1.4,4.6-0.5,4.3-4.2
					 M208.1,257.3L208.1,257.3L208.1,257.3z"/>
				<path id="path3469" class="st6" d="M210.9,246.6l0.3,9.8l1.6-9.5 M210.9,246.6L210.9,246.6L210.9,246.6z"/>
			</g>
			<g id="g3471">
				<g id="g3473">
					<path id="path3475" sodipodi:nodetypes="ccccccccccccccccccccccccc" class="st9" d="M242.8,240.5l12.4,14.4
						c1.1,1.5,4.2,1.3,7.8,0.7c0.1-2.4,1.9-5-0.8-7.1l-9.3-8.3c4.6,2.2,8.9,9.6,18.8,5.9c-1.1-7.6-2.7-6.2-9.4-10.1
						c8.9,2.5,12.3,0.5,15.7-1.3c-2.2-5.3-5-5.9-7.7-6.8c7.2,0.1,9.5-3.4,12.1-5.2c-2.1-3.2-7.5-5.3-10.7-4.9
						c8.4-2,10.3-5.3,12.9-9.2c-4.8-2.6-8.6-3.1-12.5-2.2c7.7-3.3,11.2-7.5,13-12.1c-4.1-1.4-7.7-0.6-11.3,0.2c7-4,8.7-9.4,9-13.8
						c-5.3-0.5-8.6,1.2-12.2,2.7c11.5-7.7,8.9-18,7.3-21.1c-5.6,5.5-11.6,11-17.9,16.5c17.4-19.4,13.9-27.4,8.7-34.5
						c-5.4,10-9.9,19.4-20.1,31.2l-5.8,14.2l3.8,23l-7.3,22.6L242.8,240.5L242.8,240.5L242.8,240.5L242.8,240.5z"/>
					<path id="path3477" sodipodi:nodetypes="cc" class="st6" d="M246.9,189.9c4.8-3.4,9.3-7.2,13.5-11.5 M246.9,189.9L246.9,189.9
						L246.9,189.9z"/>
					<path id="path3479" sodipodi:nodetypes="ccc" class="st6" d="M250.2,182.4c6.3-5,9.4-12.2,13.3-18.8c-4.3,5.5-8,11.4-13.2,16.2
						 M250.2,182.4L250.2,182.4L250.2,182.4z"/>
					<path id="path3481" class="st6" d="M243,238.1l10.5,9.4l-10.4-11.5 M243,238.1L243,238.1L243,238.1z"/>
					<path id="path3483" class="st6" d="M247.1,233.3l12.1,6.2l-10.6-6.9 M247.1,233.3L247.1,233.3L247.1,233.3z"/>
					<path id="path3485" class="st6" d="M250.6,229.4l12.2,2l-12.7-3.5 M250.6,229.4L250.6,229.4L250.6,229.4z"/>
					<path id="path3487" class="st6" d="M254.2,223.3l13.2-0.3l-12.9-1.1 M254.2,223.3L254.2,223.3L254.2,223.3z"/>
					<path id="path3489" class="st6" d="M255.1,215.3l14.7-2.9l-13.2,1.3 M255.1,215.3L255.1,215.3L255.1,215.3z"/>
					<path id="path3491" class="st6" d="M254.1,207.3l17.2-6.4l-15.6,4.7 M254.1,207.3L254.1,207.3L254.1,207.3z"/>
					<path id="path3493" class="st6" d="M254.5,199.4l14.6-9.1l-17.2,9 M254.5,199.4L254.5,199.4L254.5,199.4z"/>
					<path id="path3495" class="st6" d="M254.5,190.4l12.7-11l-13.7,9.9 M254.5,190.4L254.5,190.4L254.5,190.4z"/>
					<path id="path3497" sodipodi:nodetypes="ccc" class="st6" d="M262.4,159.9c3-4.3,5.5-9,6.5-12.3c4.1,11.1-1.2,16.2-3.7,21.4
						 M262.4,159.9L262.4,159.9L262.4,159.9z"/>
					<path id="path3499" sodipodi:nodetypes="ccc" class="st6" d="M265.7,176.1c4.1-3.6,8.4-7.2,11.4-10.9c1,10.8-3.4,13.4-7.4,17
						 M265.7,176.1L265.7,176.1L265.7,176.1z"/>
					<path id="path3501" sodipodi:nodetypes="ccc" class="st6" d="M267.1,187.6c3.7-2.9,8.1-4.1,13.2-5c-1.4,4.2-3.4,8.6-9.3,11.6
						 M267.1,187.6L267.1,187.6L267.1,187.6z"/>
					<path id="path3503" sodipodi:nodetypes="ccc" class="st6" d="M270.5,198c3.5-1.2,6.9-2.6,11.3-2c-2.5,4.8-6.6,6.9-10.6,8.8
						 M270.5,198L270.5,198L270.5,198z"/>
					<path id="path3505" sodipodi:nodetypes="ccc" class="st6" d="M270,209.1c4.6-1.2,8.1-0.5,11.4,0.6c-2.6,3.3-6.6,5.2-11,6.7
						 M270,209.1L270,209.1L270,209.1z"/>
					<path id="path3507" sodipodi:nodetypes="ccc" class="st6" d="M270.6,219.5c3,0.2,5.9,1.1,8.9,3.1c-3,3.9-7,3.4-11,3.5
						 M270.6,219.5L270.6,219.5L270.6,219.5z"/>
					<path id="path3509" sodipodi:nodetypes="ccc" class="st6" d="M268.4,229.1c3.5,1.2,6.6,2.6,7.3,5c-2.2,0.8-2.9,1.8-10.1,0.9
						 M268.4,229.1L268.4,229.1L268.4,229.1z"/>
					<path id="path3511" sodipodi:nodetypes="ccc" class="st6" d="M266.5,240c2.8,1.5,3.2,1.8,3.2,5.4c-2.3,0.7-3.6,1-6.5-0.2
						 M266.5,240L266.5,240L266.5,240z"/>
					<path id="path3513" sodipodi:nodetypes="ccc" class="st6" d="M259.3,248c4.1,2.9,2.5,4.6,2.7,6.4c-3.3-0.2-4.5,1.6-7.2-2
						 M259.3,248L259.3,248L259.3,248z"/>
					<path id="path3515" class="st6" d="M253.2,240.5l-9.7-7 M253.2,240.5L253.2,240.5L253.2,240.5z"/>
					<path id="path3517" class="st6" d="M262.4,236l-11.8-4.4 M262.4,236L262.4,236L262.4,236z"/>
					<path id="path3519" class="st6" d="M270.7,228l-20.9-2.5 M270.7,228L270.7,228L270.7,228z"/>
					<path id="path3521" class="st6" d="M272.2,217.8l-20.9,0.5 M272.2,217.8L272.2,217.8L272.2,217.8z"/>
					<path id="path3523" class="st6" d="M272.4,206.3l-17.3,4.1 M272.4,206.3L272.4,206.3L272.4,206.3z"/>
					<path id="path3525" class="st6" d="M271,183.1l-17.2,10.8 M271,183.1L271,183.1L271,183.1z"/>
				</g>
				<path id="path3527" class="st6" d="M274,194.4l-16.8,7 M274,194.4L274,194.4L274,194.4z"/>
			</g>
			<g id="g3529">
				<path id="path3531" sodipodi:nodetypes="cccccc" class="st9" d="M233.2,241.6l10.9,18.8c0.9,1.9,4,1.7,6.8,1.8
					c2.1-2.5,2.4-5,1.4-7.6l-12.8-17.5L233.2,241.6L233.2,241.6L233.2,241.6L233.2,241.6z"/>
				<path id="path3533" sodipodi:nodetypes="ccc" class="st6" d="M236.5,241.9l8.3,11.2l-8.1-13.5 M236.5,241.9L236.5,241.9
					L236.5,241.9z"/>
				<path id="path3535" sodipodi:nodetypes="ccc" class="st6" d="M250.3,254.9c1.8,2.9,1,3.7-0.5,6c-3-0.8-3.5,0.9-5.5-3
					 M250.3,254.9L250.3,254.9L250.3,254.9z"/>
			</g>
			<g id="g3537">
				<path id="path3539" sodipodi:nodetypes="cccccc" class="st9" d="M225.7,245.1l6.1,17.9c2.1,2.9,4.2,2.2,6.3,3.1
					c2.8-2.6,3.7-5.5,3.4-6.3l-8.7-18L225.7,245.1L225.7,245.1L225.7,245.1L225.7,245.1z"/>
				<path id="path3541" sodipodi:nodetypes="ccc" class="st6" d="M229,245.7l6,11.6l-4.3-12.6 M229,245.7L229,245.7L229,245.7z"/>
				<path id="path3543" sodipodi:nodetypes="ccc" class="st6" d="M239.4,258.8c0.8,1.3,0.5,3.1-1.6,5.7c-1.8-1-4.7-0.7-4.9-3.9
					 M239.4,258.8L239.4,258.8L239.4,258.8z"/>
			</g>
			<g id="g3545">
				<path id="path3547" sodipodi:nodetypes="cccccc" class="st9" d="M225.9,245.3l2.3,14.9c-0.2,1.6-2.7,2.9-5,4.2
					c-1.7-1-3.8-1-5-3.4l-0.9-15.1L225.9,245.3L225.9,245.3L225.9,245.3L225.9,245.3z"/>
				<path id="path3549" sodipodi:nodetypes="ccc" class="st6" d="M219.3,258.1c0.2,4.3,2.1,3.3,3.7,4.6c1.9-1.7,4.5-1.2,3.6-4.8
					 M219.3,258.1L219.3,258.1L219.3,258.1z"/>
				<path id="path3551" class="st6" d="M220.5,247.1l1.8,9.7l0.1-9.6 M220.5,247.1L220.5,247.1L220.5,247.1z"/>
			</g>
			<path id="path3553" sodipodi:nodetypes="cccccccccccccccccccccccccccc" class="st9" d="M236.8,187.6c5.5-4.4,9.5-9.2,11-14.5
				c4.3,6.2,2.2,12.4-2.5,18.6c3-1.9,6-2.7,9.2-2.1c0.1,4.8-3.1,6.9-5,10c2.8-0.5,5.5-1,8.2,2c-0.4,2-3,6-6.7,7.2
				c2.1,0.2,4.2,1,6.3,4c-2.1,2.5-4.4,4.3-7,4.8c1.6,1,3.2,1.4,4.5,4.8c-1.7,2-3.7,3-6.3,3.5c1,1.4,2.2,2.1,2.2,5.7
				c-3.8,2.2-5.7,1.4-7.5,1.3c0.7,2,0.8,4.4-0.2,7.6c-2.4-0.1-5,0.1-6.6-1.1c0.8,2.2-0.5,4-1.2,5.9c-2.7,0-4.9-0.2-6.2-1.8
				c0.4,1.9-1.1,3.8-2.6,5.7c-2.3-0.5-4.9-0.8-5.8-2.8c-0.5,2-2.6,3-4.7,4.1c-2.2-0.7-4.2-1.9-4.7-3.7c-0.9,1.7-2.5,3-5.3,3.9
				c-1.5-1.2-3.6-2.6-3.5-4.4l4-13.4l18.9-7.8l3.3-11.5l-3.4-13.1L236.8,187.6L236.8,187.6L236.8,187.6L236.8,187.6z"/>
			<path id="path3555" class="st6" d="M211.2,246.9l0.6-11.4 M211.2,246.9L211.2,246.9L211.2,246.9z"/>
			<path id="path3557" class="st6" d="M220.5,246.6L219,236 M220.5,246.6L220.5,246.6L220.5,246.6z"/>
			<path id="path3559" class="st6" d="M229.1,243.4l-4.4-9.3 M229.1,243.4L229.1,243.4L229.1,243.4z"/>
			<path id="path3561" class="st6" d="M236.6,239.6l-6.9-9.3 M236.6,239.6L236.6,239.6L236.6,239.6z"/>
			<path id="path3563" class="st6" d="M243.1,232.9l-7.7-5.1 M243.1,232.9L243.1,232.9L243.1,232.9z"/>
			<path id="path3565" class="st6" d="M248.8,225.9l-12.1-2.4 M248.8,225.9L248.8,225.9L248.8,225.9z"/>
			<path id="path3567" class="st6" d="M250.3,217.5l-11.5-0.2 M250.3,217.5L250.3,217.5L250.3,217.5z"/>
			<path id="path3569" sodipodi:nodetypes="cc" class="st6" d="M251.2,208.8l-15.3,2.6 M251.2,208.8L251.2,208.8L251.2,208.8z"/>
			<path id="path3571" class="st6" d="M249.4,199.7l-9.9,4.5 M249.4,199.7L249.4,199.7L249.4,199.7z"/>
			<path id="path3573" class="st6" d="M245.5,191.5l-9.8,7.4 M245.5,191.5L245.5,191.5L245.5,191.5z"/>
			<path id="path3575" sodipodi:nodetypes="ccc" class="st6" d="M207.9,236l-0.7,7.2l2.4-7 M207.9,236L207.9,236L207.9,236z"/>
			<path id="path3577" sodipodi:nodetypes="ccc" class="st6" d="M204,244.3c-0.4,1.7,0.3,2.3,2.2,4.1c1.5-0.9,3.7-1,4-3.1
				 M204,244.3L204,244.3L204,244.3z"/>
			<path id="path3579" class="st6" d="M214.5,235l0.9,8l0.7-7.2 M214.5,235L214.5,235L214.5,235z"/>
			<path id="path3581" class="st6" d="M221,234.9l2.6,6.3l-1.6-7.8 M221,234.9L221,234.9L221,234.9z"/>
			<path id="path3583" class="st6" d="M227.6,233.7l3.5,5.7l-2.7-6.3 M227.6,233.7L227.6,233.7L227.6,233.7z"/>
			<path id="path3585" sodipodi:nodetypes="ccc" class="st6" d="M212.9,245.5c-0.4,1.8,1.6,2.3,2.9,3.3c1.2-1,3.4-1.8,3.2-3.2
				 M212.9,245.5L212.9,245.5L212.9,245.5z"/>
			<path id="path3587" sodipodi:nodetypes="ccc" class="st6" d="M221.5,245.3c1.4,2,2.8,1.4,4.2,2.1c0.7-1.3,2.4-2.3,1.7-4
				 M221.5,245.3L221.5,245.3L221.5,245.3z"/>
			<path id="path3589" sodipodi:nodetypes="ccc" class="st6" d="M230,242.3c0.7,1.5,2.8,0.8,4.2,1.2c0.2-1.3,1.3-2.7,0.7-4
				 M230,242.3L230,242.3L230,242.3z"/>
			<path id="path3591" sodipodi:nodetypes="ccc" class="st6" d="M231.7,228.8l5.8,5.2l-4.4-5.3 M231.7,228.8L231.7,228.8
				L231.7,228.8z"/>
			<path id="path3593" sodipodi:nodetypes="ccc" class="st6" d="M237.5,237.9c1.1,1.3,3.2,0.9,4.7,0.9c-0.1-1.3,0.6-3.5-0.4-4.7
				 M237.5,237.9L237.5,237.9L237.5,237.9z"/>
			<path id="path3595" class="st6" d="M238.3,191.1l5-5.2l-5.1,6.9 M238.3,191.1L238.3,191.1L238.3,191.1z"/>
			<path id="path3597" sodipodi:nodetypes="ccc" class="st6" d="M235.8,201.9l9.1-5.1l-8,5.5 M235.8,201.9L235.8,201.9L235.8,201.9z
				"/>
			<path id="path3599" class="st6" d="M239.3,206.5l8.2-1.9l-8.7,3 M239.3,206.5L239.3,206.5L239.3,206.5z"/>
			<path id="path3601" sodipodi:nodetypes="ccc" class="st6" d="M243.5,191c3-3.7,6.3-7.2,4.5-14.2c-0.7,1.5-1.8,3.6-3.1,5
				 M243.5,191L243.5,191L243.5,191z"/>
			<path id="path3603" sodipodi:nodetypes="ccc" class="st6" d="M244.6,194.1c5.4-3.3,5.7-2.9,8.2-2.7c-1.5,3.4-1.1,3.2-4.9,7
				 M244.6,194.1L244.6,194.1L244.6,194.1z"/>
			<path id="path3605" sodipodi:nodetypes="ccc" class="st6" d="M248.8,201.7c2.1-0.7,4.2-0.6,7,0.4c-1.3,2.4-3.5,3.9-5.8,4.9
				 M248.8,201.7L248.8,201.7L248.8,201.7z"/>
			<path id="path3607" class="st6" d="M239.2,213.2l8.7,0.2l-8.2,1.2 M239.2,213.2L239.2,213.2L239.2,213.2z"/>
			<path id="path3609" sodipodi:nodetypes="ccc" class="st6" d="M249.2,210.9c2.8-0.6,3.8,0.2,5.5,1.8c-0.7,1.1-0.9,2.4-4.7,3.5
				 M249.2,210.9L249.2,210.9L249.2,210.9z"/>
			<path id="path3611" sodipodi:nodetypes="ccc" class="st6" d="M248.3,219c3.4,1,3.7,1.6,4.4,3.3c-1.6,0.9-2.2,2.3-5.2,1.8
				 M248.3,219L248.3,219L248.3,219z"/>
			<path id="path3613" class="st6" d="M236.7,219.6l8,1.6l-9.4-0.3 M236.7,219.6L236.7,219.6L236.7,219.6z"/>
			<path id="path3615" class="st6" d="M237.1,225.6l6.7,2.6l-6.8-1.5 M237.1,225.6L237.1,225.6L237.1,225.6z"/>
			<path id="path3617" sodipodi:nodetypes="ccc" class="st6" d="M246.1,226.5c3,1.2,2.4,2.1,2.9,3.9c-1.6,0.8-1.5,1.3-5.5,0.9
				 M246.1,226.5L246.1,226.5L246.1,226.5z"/>
			<path id="path3619" sodipodi:nodetypes="ccccccccccccccccccccc" class="st9" d="M207.1,220.3c6.2,8.2,16,2.9,16.9-3.7
				c0.6-6.6-9.7-5.6-4.5-14.1l17.5-18.7c2.1,7.8,1.9,14.4-4.9,18.3c3.2,0.1,6.9-0.3,7.3,2.1c0.4,3.9-2.9,5.5-4.8,6.9
				c1.3,0.4,3,0.3,5.4,3.6c-1,2.8-2.5,5.2-5.7,5.8c1,0.8,2.4,0.6,2.7,6.5c-3,2-5.2,2-7.3,1.6c0,1.6,0.1,3.3-1.8,5.1
				c-5.2,1-4.5,0-6-0.2c-1.2,1.1-1.6,2.3-4.2,3.2c-2.5-0.9-2.8-1.8-3.9-2.7c-1.5,0.9-1.2,1.9-5,2.6c-3-1.7-2.4-2.8-3.1-4.1
				c-1.3,0.5-2,1.3-4.5,1.2c-2.7-2.9-0.5-4.8-0.2-6.8l2.3-7.1L207.1,220.3L207.1,220.3L207.1,220.3L207.1,220.3z"/>
			<path id="path3621" class="st6" d="M205.6,232.4l2-5.9 M205.6,232.4L205.6,232.4L205.6,232.4z"/>
			<path id="path3623" class="st6" d="M213.8,233.9l0.5-5.7 M213.8,233.9L213.8,233.9L213.8,233.9z"/>
			<path id="path3625" class="st6" d="M210.3,229.3l0.5-2 M210.3,229.3L210.3,229.3L210.3,229.3z"/>
			<path id="path3627" class="st6" d="M217.6,229.4l-0.3-1.6 M217.6,229.4L217.6,229.4L217.6,229.4z"/>
			<path id="path3629" class="st6" d="M222,233.3l-1.7-5.6 M222,233.3L222,233.3L222,233.3z"/>
			<path id="path3631" class="st6" d="M229.9,228.5l-3.5-3.8 M229.9,228.5L229.9,228.5L229.9,228.5z"/>
			<path id="path3633" class="st6" d="M234.4,220.3l-4.2-0.5 M234.4,220.3L234.4,220.3L234.4,220.3z"/>
			<path id="path3635" class="st6" d="M234.7,211.1l-5.5,1.9 M234.7,211.1L234.7,211.1L234.7,211.1z"/>
			<path id="path3637" sodipodi:nodetypes="cc" class="st6" d="M226.8,206.9c1.6-2,3.3-3.7,5.4-4.9 M226.8,206.9L226.8,206.9
				L226.8,206.9z"/>
			<path id="path3639" sodipodi:nodetypes="ccc" class="st6" d="M231.5,191.8l5-5.3c0,7.4-1,9.8-3.2,12.8 M231.5,191.8L231.5,191.8
				L231.5,191.8z"/>
			<path id="path3641" sodipodi:nodetypes="ccc" class="st6" d="M232.7,203.6c1.6-0.1,3.3-0.7,5.3,0.6c0.3,2.8-1.5,4.1-2.9,5
				 M232.7,203.6L232.7,203.6L232.7,203.6z"/>
			<path id="path3643" sodipodi:nodetypes="ccc" class="st6" d="M234.1,212.5c0.9,0.2,2.7,0.1,4.2,2.4c-0.5,2.4-1.9,2.9-3.2,3.7
				 M234.1,212.5L234.1,212.5L234.1,212.5z"/>
			<path id="path3645" sodipodi:nodetypes="ccc" class="st6" d="M234.3,221.8c0.7,0.9,1.6,1.3,1.6,4.4c-1.9,1.2-3.6,1.7-5.1,1.2
				 M234.3,221.8L234.3,221.8L234.3,221.8z"/>
			<path id="path3647" class="st6" d="M223.1,225.7l0.9,1.5 M223.1,225.7L223.1,225.7L223.1,225.7z"/>
			<path id="path3649" sodipodi:nodetypes="ccc" class="st6" d="M228.2,228.5c0.1,0.8,0.9,2.2-1.1,4c-3.1,0.9-3.2,0-4.4-0.8
				 M228.2,228.5L228.2,228.5L228.2,228.5z"/>
			<path id="path3651" sodipodi:nodetypes="ccc" class="st6" d="M220.6,232c0.3,1.7-1.7,2.2-2.9,3.1c-1-0.8-2.5-0.5-3-2.5
				 M220.6,232L220.6,232L220.6,232z"/>
			<path id="path3653" sodipodi:nodetypes="ccc" class="st6" d="M212.5,233.3c-0.6,0.6-1.2,1.2-3.6,1.6c-1-1-1.9-1.9-2-2.9
				 M212.5,233.3L212.5,233.3L212.5,233.3z"/>
			<path id="path3655" sodipodi:nodetypes="ccc" class="st6" d="M205,231.4c-0.7,0.7-1.7,1.1-2.9,1.2c-1.2-0.9-1.1-1.7-1.2-2.6
				 M205,231.4L205,231.4L205,231.4z"/>
			<path id="path3657" sodipodi:nodetypes="ccc" class="st6" d="M230.1,196.6c-2.3,2.5-7.2,5.5-6,6.7
				C226,203.9,228.1,198.7,230.1,196.6L230.1,196.6z"/>
			<path id="path3659" sodipodi:nodetypes="ccc" class="st6" d="M232.7,206.9c-2,1.2-5.9,2.3-5.3,3.3
				C228.5,211.1,231,207.9,232.7,206.9z"/>
			<path id="path3661" sodipodi:nodetypes="ccc" class="st6" d="M233.8,216c-2,0.1-5.2-0.5-5.2,0.4
				C229.1,217.4,232.1,216.1,233.8,216z"/>
			<path id="path3663" sodipodi:nodetypes="ccc" class="st6" d="M231.7,225c-1.6-1.2-3.5-3.9-4.1-3.2
				C227.4,222.8,230.5,223.9,231.7,225L231.7,225z"/>
		</g>
	</g>
	<g id="g3887">
		<path id="path3881" sodipodi:nodetypes="ccccccccccccccccccccccccccccccccccccccccccccccccccccc" class="st9" d="M177.8,204.1
			l26.7,15.4c4,0.6,3.4,9.3,7.8,11.3c-2.7,2.3-4.7,0.5-6.9-0.2c5.4,2.9,2.9,16.2,6.5,20.6c-3.4,0.1-4.9-2.2-5.9-5.2
			c-0.2,6.3-4.1,14,1.2,18.4c-0.6,0.5-1.5,0.7-3.5-0.3c2.7,6.1,6.5,5,10.3,3.8l-1.6,1.4c17.8,4.6,1.9,18.2,13.7,19.8
			c-4.5,3.8-7.6,2.9-9.7-1.2c0.1,2.7-1.7,5.4,0.9,8.2c-1.2,0.2-2.5-0.2-4.8-3.2c0.2,1.4,0.5,2.4,0.8,3.2c-1-0.9-2-1.6-3.1-3.5
			c-0.6,1.8-0.4,3.5-0.3,5.2c-2.8-0.2-3-3.4-3.9-5.7c0,1.6-1.8,3.4-2,5.2c-1.8-1.4-0.9-2.8-1-4.3c-4.1,6.6-9.8,0.1-9.7-1.3
			c13.3,1.3,5.6-12.4-1.2-10.1c-1.1,0.2-6.4,2.5-6.8,11.7c0.3,2.4,3.3,3.6,5.1,4c3.3,1.4,2.4,4.4,2,5c-0.5-2.1-2.9-3-6.7-3.1h-8h-8
			c-3.8,0.1-6.2,1-6.7,3.1c-0.4-0.7-1.4-3.6,2-5c1.8-0.4,4.8-1.6,5.1-4c-0.5-9.2-5.7-11.5-6.8-11.7c-6.8-2.3-14.5,11.3-1.2,10.1
			c0.1,1.4-5.6,7.9-9.7,1.3c-0.1,1.4,0.8,2.8-1,4.3c-0.1-1.8-2-3.6-2-5.2c-0.9,2.3-1.1,5.5-3.9,5.7c0.1-1.7,0.3-3.4-0.3-5.2
			c-1,1.9-2,2.7-3.1,3.5c0.3-0.8,0.6-1.8,0.8-3.2c-2.3,3-3.6,3.4-4.8,3.2c2.5-2.7,0.7-5.4,0.9-8.2c-2.2,4.1-5.2,5-9.7,1.2
			c11.8-1.6-4.1-15.1,13.7-19.8l-1.6-1.4c3.8,1.2,7.7,2.3,10.3-3.8c-2,1-3,0.9-3.5,0.3c5.3-4.4,1.3-12.1,1.2-18.4
			c-1,3-2.5,5.4-5.9,5.2c3.7-4.4,1.1-17.7,6.5-20.6c-2.2,0.7-4.2,2.5-6.9,0.2c4.4-2.1,3.8-10.7,7.8-11.3L177.8,204.1L177.8,204.1
			L177.8,204.1z"/>
	</g>
	<path id="path4127" sodipodi:nodetypes="csccc" class="st6" d="M172.1,285.1c-4.2-2.7-5-7.8-7.2-11.9 M172.1,285.1L172.1,285.1
		L172.1,285.1z"/>
	<path id="path4064" sodipodi:nodetypes="ccccccc" class="st9" d="M179.8,297.5H176c1,9.4-6.6,22.3-5.4,35.9c0.2,7,4.2,9.2,7.1,11.1
		h0.5c2.8-1.9,6.8-4.1,7.1-11.1C186.3,319.8,178.7,306.9,179.8,297.5L179.8,297.5L179.8,297.5L179.8,297.5z"/>
	<g id="g4257">
		<path id="path4004" sodipodi:nodetypes="cccccc" class="st9" d="M180.2,296.6c0.4,11.5,7.6,19.7,9.4,29.5c0.2,5.1-2.1,9.2-7.6,8.4
			c5.9,10.1,16.1,4.9,17.6-3.5c-0.3-6.1-0.3-10-15.7-29.6L180.2,296.6L180.2,296.6L180.2,296.6L180.2,296.6z"/>
		<path id="path4066" sodipodi:nodetypes="cccccccccccccccc" class="st9" d="M183.2,292.4l-2.7,3.5c0,5.8,19.6,15,19,21.8
			c-0.8,1.4-1.2,2.7-5,2.1c1.3,4.7,4.6,5.4,9.7,2.5c0.3,2.8,2.3,6.1-7.7,6.3c-2.4,0.9-2,2.9-1.7,5c2-3,5.4,2.6,10.3,2.3
			c6.3,0.1,7.5-6.7,8.1-9.7c1.2,6.4,2.6,6.9,4,7.7c-0.7-0.6-0.5-2.2-0.1-2.8c3.9-3.9,6.4-7.9-0.4-13.1c6.2-6.4-1.2-10-3-10.4
			c0.6,2.6,0.5,5.7-3,5.6c-2.7-0.1-4.1-4.4-11.3-7.2C186.1,301.4,187,298.1,183.2,292.4L183.2,292.4L183.2,292.4L183.2,292.4z"/>
		<line id="path4071" class="st6" x1="177.9" y1="336.6" x2="177.9" y2="300.1"/>
		<path id="path4073" sodipodi:nodetypes="cc" class="st9" d="M173.6,325.6c-1.2,9.7,0.4,14.8,4.5,15.8 M173.6,325.6L173.6,325.6
			L173.6,325.6z"/>
		<path id="path4079" sodipodi:nodetypes="cc" class="st6" d="M189.6,335.4c8.1-9.1,1.4-18.4-4-27.7 M189.6,335.4L189.6,335.4
			L189.6,335.4z"/>
		<path id="path4081" sodipodi:nodetypes="cc" class="st6" d="M202.9,330.9c10.4-4.2,5.3-19.1-11.7-26.2 M202.9,330.9L202.9,330.9
			L202.9,330.9z"/>
		<path id="path4083" sodipodi:nodetypes="cc" class="st9" d="M196.8,322.1c3.3,0.9,4-1.1,5.9-1.7 M196.8,322.1L196.8,322.1
			L196.8,322.1z"/>
		<path id="path4085" sodipodi:nodetypes="cc" class="st9" d="M210,315.8c0.9,0.2,1.5,0,2.1-0.2 M210,315.8L210,315.8L210,315.8z"/>
		<path id="path4087" sodipodi:nodetypes="cc" class="st9" d="M213.4,317.1c2-0.6,3.5-1.7,3.5-4.8 M213.4,317.1L213.4,317.1
			L213.4,317.1z"/>
		<line id="path4089" class="st6" x1="213" y1="318.3" x2="216.8" y2="318"/>
		<path id="path4091" sodipodi:nodetypes="cc" class="st9" d="M211.7,319.8c4.1,1.6,5.4,4.1,4.7,7.2 M211.7,319.8L211.7,319.8
			L211.7,319.8z"/>
		<path id="path4093" sodipodi:nodetypes="ccc" class="st9" d="M214.2,326.1c-0.4-1.6-1.2-1.7-2.6-2.5c0.7,6.8-3.7,10.4-4.7,10.4
			 M214.2,326.1L214.2,326.1L214.2,326.1z"/>
		<path id="path4095" sodipodi:nodetypes="cccccc" class="st9" d="M175.7,296.6c-0.4,11.5-7.6,19.7-9.4,29.5
			c-0.2,5.1,2.1,9.2,7.6,8.4c-5.9,10.1-16.1,4.9-17.6-3.5c0.3-6.1,0.3-10,15.7-29.6L175.7,296.6L175.7,296.6L175.7,296.6
			L175.7,296.6z"/>
		<path id="path4099" sodipodi:nodetypes="cccccccccccccccc" class="st9" d="M172.6,292.4l2.7,3.5c0,5.8-19.6,15-19,21.8
			c0.8,1.4,1.2,2.7,5,2.1c-1.3,4.7-4.6,5.4-9.7,2.5c-0.3,2.8-2.3,6.1,7.7,6.3c2.4,0.9,2,2.9,1.7,5c-2-3-5.4,2.6-10.3,2.3
			c-6.3,0.1-7.5-6.7-8.1-9.7c-1.2,6.4-2.6,6.9-4,7.7c0.7-0.6,0.5-2.2,0.1-2.8c-3.9-3.9-6.4-7.9,0.4-13.1c-6.2-6.4,1.2-10,3-10.4
			c-0.6,2.6-0.5,5.7,3,5.6c2.7-0.1,4.1-4.4,11.3-7.2C169.7,301.4,168.9,298.1,172.6,292.4L172.6,292.4L172.6,292.4z"/>
		<path id="path4105" sodipodi:nodetypes="cc" class="st9" d="M182.3,325.6c1.2,9.7-0.4,14.8-4.5,15.8 M182.3,325.6L182.3,325.6
			L182.3,325.6z"/>
		<path id="path4109" sodipodi:nodetypes="cc" class="st6" d="M166.3,335.4c-8.1-9.1-1.4-18.4,4-27.7 M166.3,335.4L166.3,335.4
			L166.3,335.4z"/>
		<path id="path4111" sodipodi:nodetypes="cc" class="st6" d="M153,330.9c-10.4-4.2-5.3-19.1,11.7-26.2 M153,330.9L153,330.9
			L153,330.9z"/>
		<path id="path4113" sodipodi:nodetypes="cc" class="st9" d="M159,322.1c-3.3,0.9-4-1.1-5.9-1.7 M159,322.1L159,322.1L159,322.1z"
			/>
		<path id="path4115" sodipodi:nodetypes="cc" class="st9" d="M145.8,315.8c-0.9,0.2-1.5,0-2.1-0.2 M145.8,315.8L145.8,315.8
			L145.8,315.8z"/>
		<path id="path4117" sodipodi:nodetypes="cc" class="st9" d="M142.5,317.1c-2-0.6-3.5-1.7-3.5-4.8 M142.5,317.1L142.5,317.1
			L142.5,317.1z"/>
		<line id="path4119" class="st6" x1="142.9" y1="318.3" x2="139.1" y2="318"/>
		<path id="path4121" sodipodi:nodetypes="cc" class="st9" d="M144.1,319.8c-4.1,1.6-5.4,4.1-4.7,7.2 M144.1,319.8L144.1,319.8
			L144.1,319.8z"/>
		<path id="path4123" sodipodi:nodetypes="ccc" class="st9" d="M141.7,326.1c0.4-1.6,1.2-1.7,2.6-2.5c-0.7,6.8,3.7,10.4,4.7,10.4
			 M141.7,326.1L141.7,326.1L141.7,326.1z"/>
	</g>
	<path id="path4008" sodipodi:nodetypes="cccc" class="st9" d="M184.7,280.2c-1.3,6,3,3.5-6.6,21.9h-0.2
		c-9.6-18.4-5.3-15.9-6.6-21.9 M184.7,280.2L184.7,280.2L184.7,280.2z"/>
	<path id="path4129" sodipodi:nodetypes="ccc" class="st6" d="M168.9,273c-0.4,2.2,0.4,4.3,0.7,6.5c-0.8-1.2-1.5-2.7-2.3-6.3
		 M168.9,273L168.9,273L168.9,273z"/>
	<path id="path4131" sodipodi:nodetypes="cc" class="st6" d="M165.9,282.8c-2-1.3-4-5.7-6-9 M165.9,282.8L165.9,282.8L165.9,282.8z"
		/>
	<path id="path4133" sodipodi:nodetypes="ccc" class="st6" d="M163.8,274.9c-0.1,1.5,1.2,3.1,1.9,4.8c-1.3-1.3-2.8-2.8-3.1-4.5
		 M163.8,274.9L163.8,274.9L163.8,274.9z"/>
	<path id="path4135" sodipodi:nodetypes="cc" class="st6" d="M143,269.3c2.5,1.2,5,2.8,8.1,1.2 M143,269.3L143,269.3L143,269.3z"/>
	<path id="path4137" sodipodi:nodetypes="ccccc" class="st6" d="M154.6,270c-3,2.5-3.6,1-9.2,8.1c8.4-0.1,8-2.3,11.4-3.6
		c-2.7,2.7-5.5,4.2-7.8,9.3c5.1-2.7,11.8-6.3,15.5-1.9"/>
	<path id="path4139" sodipodi:nodetypes="cc" class="st6" d="M151,272.5c-3.1,0.2-5.3,0.5-8.1-3.3 M151,272.5L151,272.5L151,272.5z"
		/>
	<path id="path4141" sodipodi:nodetypes="ccc" class="st6" d="M144.8,271.3c-5.8,2.9-4.5,5.3-5.2,7.8c2.6-0.9,5.1-1.8,7.1-2.5
		 M144.8,271.3L144.8,271.3L144.8,271.3z"/>
	<path id="path4143" sodipodi:nodetypes="ccc" class="st6" d="M149,274.2c-1.5-0.6-3,0.3-4.5,0.5c0.7-0.6,0.6-0.9,3.8-2.1
		 M149,274.2L149,274.2L149,274.2z"/>
	<path id="path4145" sodipodi:nodetypes="cc" class="st6" d="M138.9,288.2c-1.6-3.8-2.8-7.6,1-12.2 M138.9,288.2L138.9,288.2
		L138.9,288.2z"/>
	<path id="path4147" sodipodi:nodetypes="cc" class="st6" d="M138,286.2c-0.3,1.4-0.7,2.8-2.6,4 M138,286.2L138,286.2L138,286.2z"/>
	<path id="path4149" sodipodi:nodetypes="ccccc" class="st6" d="M152.3,292.8c-1.7-3-2.3-6.1,2-11.7 M152.3,292.8L152.3,292.8
		L152.3,292.8z"/>
	<path id="path4151" sodipodi:nodetypes="cc" class="st6" d="M149.4,292.3c-0.3-2.7-1.8-5.2,1.3-9.5"/>
	<path id="path4153" sodipodi:nodetypes="cc" class="st6" d="M145.2,292.5c-0.7-2.5-0.6-4.8,0-6.7 M145.2,292.5L145.2,292.5
		L145.2,292.5z"/>
	<path id="path4155" sodipodi:nodetypes="ccc" class="st6" d="M149.2,283.2c-2.5,0.8-4,2.5-5.5,4.2c-0.5-3.3-0.1-6.4,3.5-9.2
		 M149.2,283.2L149.2,283.2L149.2,283.2z"/>
	<path id="path4157" sodipodi:nodetypes="cc" class="st6" d="M148.4,283.6c-1.7,1.9-1.2,4.1-1.7,6.1 M148.4,283.6L148.4,283.6
		L148.4,283.6z"/>
	<path id="path4159" sodipodi:nodetypes="ccc" class="st6" d="M144.1,282.4c-1,1-1.9,2.2-2.7,5.8c-3.2-3.1-2.4-6.3-1.3-9.4
		 M144.1,282.4L144.1,282.4L144.1,282.4z"/>
	<path id="path4161" sodipodi:nodetypes="ccc" class="st6" d="M145.5,278.1c-1.7,0.6-2.5,1.9-3.6,2.9c0.5-1.1,0.8-2.3,2.1-3.4
		 M145.5,278.1L145.5,278.1L145.5,278.1z"/>
	<path id="path4165" sodipodi:nodetypes="cc" class="st6" d="M151.8,264c5.9-2.8,3-10.8,3.5-16.8"/>
	<path id="path4167" sodipodi:nodetypes="cc" class="st6" d="M152.7,257.5c0-2.2,0.1-4.2-0.3-6.5 M152.7,257.5L152.7,257.5
		L152.7,257.5z"/>
	<path id="path4169" sodipodi:nodetypes="ccccc" class="st6" d="M151.5,268.2c1.3-1.4,2.6-2.3,3.7-5 M151.5,268.2L151.5,268.2
		L151.5,268.2z"/>
	<path id="path3472" sodipodi:nodetypes="ccccccccccccccc" class="st9" d="M146.1,211.8c3.6,4.7,6.4,1.8,12.3-2.4
		c-6.8,1.2-8.7-1.7-8.3-4.8c9.1,5.3,6.4-9.9,6-15.4l8.7-18.1l7,7.7c9.1,13.8,5.8,18.3,6,28.8l-0.6,13c-0.4,5-1.5,9.9-4,10.6
		c0.6-3.5-1.3-3.9-2.3-9.9c-1.3,4.5-4.1,8.4-6.5,8.6c0.8-3.8,0.6-6.1-0.6-8.3c-5.8,5.7-10.5,4.6-12.2,4.7c-0.2-1,3.6-2.3,4.8-5.3
		C151.1,223,143.6,222.8,146.1,211.8L146.1,211.8L146.1,211.8L146.1,211.8z"/>
	<path id="path3474" sodipodi:nodetypes="ccc" class="st6" d="M150.3,215.8c-2.7,0.3-3.1-0.9-3.8-2c-0.4,2.9,0.3,5.3,1.9,5.8
		 M150.3,215.8L150.3,215.8L150.3,215.8z"/>
	<path id="path3476" sodipodi:nodetypes="ccccccc" class="st6" d="M157.9,209.5c5.8-2,4.4-10.8,5.3-16.8c1.1,4.7,2,9.7,1.8,16.2
		c1.2-7,1.6-15.6,0.9-21.7c1.8,1.2,3.2,5.3,4.1,8.5c0-3.4-0.2-6.7-1.2-10.1c4,6.9,6.5,14.3,8.8,24.1 M157.9,209.5L157.9,209.5
		L157.9,209.5z"/>
	<path id="path3480" sodipodi:nodetypes="cc" class="st6" d="M156.3,221.1c7.9-3.7,6.8-11.7,8.6-19.2 M156.3,221.1L156.3,221.1
		L156.3,221.1z"/>
	<path id="path3482" sodipodi:nodetypes="cc" class="st6" d="M163.6,221.8c3.2-4.6,5.5-10.5,6.5-18.9 M163.6,221.8L163.6,221.8
		L163.6,221.8z"/>
	<path id="path3484" sodipodi:nodetypes="cc" class="st6" d="M170.8,221.4c3.1-6.5,2.5-13.2,1.7-20.3 M170.8,221.4L170.8,221.4
		L170.8,221.4z"/>
	<path id="path3486" sodipodi:nodetypes="cc" class="st6" d="M166.6,216.8c0.3-4.5,0.6-9.3-0.6-15.6 M166.6,216.8L166.6,216.8
		L166.6,216.8z"/>
	<path id="path3488" sodipodi:nodetypes="cc" class="st6" d="M159.6,219.1c0-0.3,3.7,0.3,7.3-10.2 M159.6,219.1L159.6,219.1
		L159.6,219.1z"/>
	<path id="path3490" sodipodi:nodetypes="cc" class="st6" d="M159.8,194.3c1,3.6,1.5,9.9,0.4,13.8 M159.8,194.3L159.8,194.3
		L159.8,194.3z"/>
	<path id="path3492" sodipodi:nodetypes="cc" class="st6" d="M156.1,208.8c1.5,0.4,4.9-3.8,4.7-6.1 M156.1,208.8L156.1,208.8
		L156.1,208.8z"/>
	<path id="path3494" sodipodi:nodetypes="cc" class="st6" d="M158.3,213.3c1.9-1.4,2.7-3.1,3.5-4.8 M158.3,213.3L158.3,213.3
		L158.3,213.3z"/>
	<path id="path3496" sodipodi:nodetypes="ccc" class="st6" d="M172,192.5c0.7,7.1,0.2,11.5-0.2,17.1c-1.2-6.3-2.8-9.6-5.6-15.9
		 M172,192.5L172,192.5L172,192.5z"/>
	<path id="path3498" sodipodi:nodetypes="cc" class="st6" d="M172.2,218c1.7-3.6,4.1-6.3,4.1-12.8 M172.2,218L172.2,218L172.2,218z"
		/>
	<path id="path3500" sodipodi:nodetypes="cc" class="st6" d="M169.5,207.5c1.1,6.9,0.1,12.3-0.5,18 M169.5,207.5L169.5,207.5
		L169.5,207.5z"/>
	<path id="path3512" sodipodi:nodetypes="cc" class="st9" d="M165.8,187.1c-1.1-2.3-2.6-4.2-4.5-5.9 M165.8,187.1L165.8,187.1
		L165.8,187.1z"/>
	<path id="path3514" sodipodi:nodetypes="cc" class="st9" d="M164.1,180.3c1.3,2.1,3.8,2.5,4.8,5.6 M164.1,180.3L164.1,180.3
		L164.1,180.3z"/>
	<g id="g3462">
		<path id="path3434" sodipodi:nodetypes="cccccccccccccccccccccccc" class="st9" d="M136.8,161.3c-1.1,0.4-3.8,1.1-3.6,4.2l0.9,2.6
			l15.8,10.4c2.2,0.7,4.6,1.3,5.7,3.4c1.7,2.9,0.5,5.6,0.1,8.3c1.7-1.1,3.3-2.3,3.4-4.5l1.4,4.1c1.2-1.9,1.2-3.4,1.2-5.3l2.5,2.9
			c0.3-2.4-0.5-4.5-2-6.3l4.3,4l-1.2-2.9c0.7,0.6,1.8,1.2,3.4,1.7c0.2-1.2-0.8-2-1.4-2.8c1.3,0.9,3.4,1.4,6.1,1.6l-3.5-2.7
			c1.1,0.6,3.1,0.2,5,0c-4.2-2.1-7.2-6.8-11.6-9.2l5.9,2.5c-2.4-2.8-4.9-5.6-10.7-8.5l5.7-1.2c-2.2-0.2-3.1,0.1-7-0.8
			C145.9,160.4,144.2,159.6,136.8,161.3L136.8,161.3L136.8,161.3L136.8,161.3z"/>
		<path id="path4205" sodipodi:nodetypes="cccccccc" class="st10" d="M140.5,170.7c4.4,0.3,3.7-2.5,5.1-3.7l2.6,0.5
			c-1.8-0.3-2.9-1-5.3-1c-0.9,0.2-1.1,0-3,1l-3.3,1.5l3.4,2.1L140.5,170.7C140.5,170.7,140.5,170.7,140.5,170.7z"/>
		<path id="path4209" sodipodi:nodetypes="cccc" class="st9" d="M138.7,170.3c2.4,0.1,2.9-1.5,3.2-3.5c-2,0.5-3.3,1.8-4.7,1.7
			L138.7,170.3L138.7,170.3z"/>
		<path id="path4203" sodipodi:nodetypes="ccccccccccccc" class="st8" d="M124.9,177.1c-5.7-6.8-0.4-9.8,8.5-11.5
			c1.5,0.5,2.9,1.2,3.7,2.4c1,0.2,1.9,0,2.8-0.4c-0.3,0.4,0.1,0.7-2.2,1.3c2.9,2.5,5.9,2.7,7,3.6c1.1,0.8,1.4,1.8,1.9,2.7
			c2.8,2,5,0.9,7.3,1.9c0.1,0.3,1,1-2.5,1.8c-6.4,0.6-11,5.7-13.9,2.8c3.3-0.2,4.9-3.2,9.3-3.9c-0.6-2.5-7.3-5.4-8.3-4.9
			C130.5,175.7,125.9,170.3,124.9,177.1L124.9,177.1L124.9,177.1L124.9,177.1z"/>
		<path id="path3436" sodipodi:nodetypes="ccccc" class="st7" d="M146.5,177.9c-1.8-0.4-3.1-1.7-5.7-0.4c-5.5,2.7-7.8,1.9-10,1
			c3-0.4,1.4,1.1,10.2-3.1C143.1,174.7,145,176.8,146.5,177.9L146.5,177.9L146.5,177.9z"/>
		<path id="path3438" sodipodi:nodetypes="cc" class="st9" d="M159.1,186c-0.1-1.4-0.9-3.6-2.1-5.3 M159.1,186L159.1,186L159.1,186z
			"/>
		<path id="path3440" sodipodi:nodetypes="cc" class="st9" d="M167.7,181.3c-2.2-1.6-2.8-1.6-3.9-1.9 M167.7,181.3L167.7,181.3
			L167.7,181.3z"/>
		<path id="path3442" sodipodi:nodetypes="cc" class="st9" d="M170.1,180c-2.1-1.1-5.2-4.3-7.7-5.3 M170.1,180L170.1,180L170.1,180z
			"/>
	</g>
	<path id="path4396" sodipodi:nodetypes="cc" class="st6" d="M154.1,225.3c2.7-0.4,5-1.6,7.1-3.3 M154.1,225.3L154.1,225.3
		L154.1,225.3z"/>
	<path id="path4398" sodipodi:nodetypes="cc" class="st6" d="M165.7,228c1.7-1.1,2.4-3,2.6-5.3 M165.7,228L165.7,228L165.7,228z"/>
	<path id="path4400" sodipodi:nodetypes="cc" class="st6" d="M174.2,228.8c1.4-2.8,1.6-7,1.9-11 M174.2,228.8L174.2,228.8
		L174.2,228.8z"/>
	<path id="path4402" sodipodi:nodetypes="cc" class="st9" d="M163,193.2c0.2-2.6-0.2-5.1-0.9-7.6 M163,193.2L163,193.2L163,193.2z"
		/>
	<path id="path2617" sodipodi:nodetypes="ccc" class="st6" d="M164.6,246.8c-3.2,5.9,0.7,17.8-9.8,16.2c1.6-2.3,2.9-6.3,0.9-10.7
		 M164.6,246.8L164.6,246.8L164.6,246.8z"/>
	<path id="path2619" sodipodi:nodetypes="ccc" class="st6" d="M173.7,246.8c-4.8,5.5-1.7,17.1-11.4,15.5c2.5-2.1,1.8-5.5,1.2-10.7
		 M173.7,246.8L173.7,246.8L173.7,246.8z"/>
	<path id="path2621" sodipodi:nodetypes="cccc" class="st6" d="M182.5,247.2c-0.9,4.3,2,2.5-4.4,15.6h-0.2
		c-6.5-13.1-3.5-11.3-4.4-15.6 M182.5,247.2L182.5,247.2L182.5,247.2z"/>
	<path id="path3393" sodipodi:nodetypes="cc" class="st6" d="M149.4,246c0.6-5.8,5-8.4,5.2-12.6 M149.4,246L149.4,246L149.4,246z"/>
	<path id="path3395" sodipodi:nodetypes="ccc" class="st6" d="M161.6,233.8c-3.6,3-1.7,11.9-8,13.7c0.6-3.5,0.7-6.9-0.4-10.1
		 M161.6,233.8L161.6,233.8L161.6,233.8z"/>
	<path id="path3397" sodipodi:nodetypes="ccc" class="st6" d="M167.5,234.5c-1.8,4.6,2,12.5-5.9,13.1c1.4-3.7-0.8-7.3-1.7-11
		 M167.5,234.5L167.5,234.5L167.5,234.5z"/>
	<path id="path3399" sodipodi:nodetypes="ccc" class="st6" d="M173.5,234.1c-0.5,4.4,1.8,8.7-2,13.1c-0.6-3.8-2.8-6.4-4.5-9.4
		 M173.5,234.1L173.5,234.1L173.5,234.1z"/>
	<path id="path3401" sodipodi:nodetypes="cccc" class="st6" d="M182.3,231.2c-0.9,4.3,2,2.5-4.4,15.6h-0.2
		c-6.5-13.1-3.5-11.3-4.4-15.6 M182.3,231.2L182.3,231.2L182.3,231.2z"/>
	<path id="path3403" sodipodi:nodetypes="ccccccc" class="st6" d="M158.5,263.1c-0.2,2.4-1.7,4.8-4.5,7.5c5.5,0.7,6.9-3.9,10.8-5.1
		c-0.3,5.8-3.1,6.9-3.8,8c7.3,1,7.5-5.9,9.9-8.2c-2.1,3.9,1.8,9.4-0.3,15.1c8-2.8,5.3-14.6,7.3-17.8 M158.5,263.1L158.5,263.1
		L158.5,263.1z"/>
	<path id="path3407" sodipodi:nodetypes="ccc" class="st6" d="M157.4,225.9c-0.4,5.3-3.4,6.7-3.8,7.7c9.3-1.8,8.7-3.2,11.1-7.8
		 M157.4,225.9L157.4,225.9L157.4,225.9z"/>
	<path id="path3409" sodipodi:nodetypes="cc" class="st6" d="M150,230.6c2.9-1.5,3.3-3,4.9-4.5"/>
	<path id="path3411" sodipodi:nodetypes="ccc" class="st6" d="M167,228.2c0.8,2.5,0.2,4.7-0.4,6.9c2.7-1.9,4.9-4.5,6.1-8.3
		 M167,228.2L167,228.2L167,228.2z"/>
	<path id="path3413" sodipodi:nodetypes="cc" class="st6" d="M145.2,230.9c2.3,0.2,5.3-2.2,7.4-3.5 M145.2,230.9L145.2,230.9
		L145.2,230.9z"/>
	<path id="path3415" sodipodi:nodetypes="cc" class="st6" d="M157,231.8c5.5-1.4,5.2-4.6,7-7.4 M157,231.8L157,231.8L157,231.8z"/>
	<path id="path3417" sodipodi:nodetypes="cc" class="st6" d="M168.2,232c2.1-1.6,2.4-3.6,3.6-5.5 M168.2,232L168.2,232L168.2,232z"
		/>
	<path id="path3419" sodipodi:nodetypes="cc" class="st6" d="M163.2,246c3.8-2.3,1.9-5.8,2.7-8.8 M163.2,246L163.2,246L163.2,246z"
		/>
	<path id="path3421" sodipodi:nodetypes="cc" class="st6" d="M155.2,245.3c3.3-3.9,2.5-7.3,3.8-10.9 M155.2,245.3L155.2,245.3
		L155.2,245.3z"/>
	<path id="path3423" sodipodi:nodetypes="cc" class="st6" d="M145.9,249.1c3.5-3.1,2-5.9,5-10.8 M145.9,249.1L145.9,249.1
		L145.9,249.1z"/>
	<path id="path3425" sodipodi:nodetypes="cc" class="st6" d="M171.8,244.5c2-3.1-0.2-5.5-0.1-9.8 M171.8,244.5L171.8,244.5
		L171.8,244.5z"/>
	<path id="path3427" sodipodi:nodetypes="ccc" class="st6" d="M174.5,234.7c0.4,5,2.3,7.6,3.4,10c0.4-0.9,3.4-6.5,3.3-10.2
		 M174.5,234.7L174.5,234.7L174.5,234.7z"/>
	<path id="path3429" sodipodi:nodetypes="ccc" class="st6" d="M174.6,251.1c0.5,3.2,1.6,6.3,3.5,9.3c1.6-2.5,2.5-5.9,3.4-9.3
		 M174.6,251.1L174.6,251.1L174.6,251.1z"/>
	<path id="path3431" sodipodi:nodetypes="cc" class="st6" d="M164.5,261.4c5.4-1,4.1-8.1,6.4-11.6 M164.5,261.4L164.5,261.4
		L164.5,261.4z"/>
	<path id="path3433" sodipodi:nodetypes="cc" class="st6" d="M157.3,262c3.8-0.9,4.4-6.3,4.6-8.8 M157.3,262L157.3,262L157.3,262z"
		/>
	<path id="path3435" sodipodi:nodetypes="cc" class="st6" d="M159,250.8c1-3.3,1-7.4,1.1-10.7 M159,250.8L159,250.8L159,250.8z"/>
	<path id="path3437" sodipodi:nodetypes="cc" class="st6" d="M166.6,250.5c1.2-3,1.3-5.7,1.5-8.4 M166.6,250.5L166.6,250.5
		L166.6,250.5z"/>
	<path id="path3439" sodipodi:nodetypes="cc" class="st6" d="M148.6,276.9c2.5-0.1,5.1-1.9,7.6-4.1 M148.6,276.9L148.6,276.9
		L148.6,276.9z"/>
	<path id="path3441" sodipodi:nodetypes="cc" class="st6" d="M152.7,280.3c2.1-1.2,4.1-2.5,7.9-2.2 M152.7,280.3L152.7,280.3
		L152.7,280.3z"/>
	<path id="path3443" sodipodi:nodetypes="cc" class="st6" d="M159.1,271.5c2.4-0.7,3.9-3.2,5.3-5.7 M159.1,271.5L159.1,271.5
		L159.1,271.5z"/>
	<path id="path3445" sodipodi:nodetypes="cc" class="st6" d="M156.7,269.1c2.8-0.3,3.9-3.4,7.8-5.1 M156.7,269.1L156.7,269.1
		L156.7,269.1z"/>
	<path id="path3447" sodipodi:nodetypes="cc" class="st6" d="M164,272c3.3-0.6,4-5.3,6-8.1 M164,272L164,272L164,272z"/>
	<path id="path3449" sodipodi:nodetypes="cc" class="st6" d="M172.6,277.8c3.7-4.1,2.5-10.2,3.8-15.3 M172.6,277.8L172.6,277.8
		L172.6,277.8z"/>
	<path id="path3451" sodipodi:nodetypes="cc" class="st6" d="M172.4,261.1c1.2-3-0.3-8.5,0.7-12.9 M172.4,261.1L172.4,261.1
		L172.4,261.1z"/>
	<path id="path3453" sodipodi:nodetypes="cc" class="st6" d="M172.7,269.7c-0.9-2.7,1.2-5.2,1.5-7.9 M172.7,269.7L172.7,269.7
		L172.7,269.7z"/>
	<path id="path3705" sodipodi:nodetypes="cc" class="st6" d="M184.7,285.1c4.4-2.8,4.5-7.7,6.9-11.9 M184.7,285.1L184.7,285.1
		L184.7,285.1z"/>
	<path id="path3709" sodipodi:nodetypes="ccc" class="st6" d="M187.3,273c0.4,2.2-0.4,4.3-0.7,6.5c0.8-1.2,1.5-2.7,2.3-6.3
		 M187.3,273L187.3,273L187.3,273z"/>
	<path id="path3711" sodipodi:nodetypes="cc" class="st6" d="M190.1,282.6c2-1.3,4.8-5.5,6.8-8.8"/>
	<path id="path3713" sodipodi:nodetypes="ccc" class="st6" d="M193,274.9c0.1,1.5-1.2,3.1-1.9,4.8c1.3-1.3,2.8-2.8,3.1-4.5
		 M193,274.9L193,274.9L193,274.9z"/>
	<path id="path3715" sodipodi:nodetypes="cc" class="st6" d="M212.5,269.3c-2.5,1.2-4.8,2.8-7.9,1.2"/>
	<path id="path3717" sodipodi:nodetypes="cccccccc" class="st6" d="M200.9,270.2c3,2.5,3.7,0.9,9.3,7.9c-8.4-0.1-8-2.3-11.4-3.6
		c2.7,2.7,5.5,4.2,7.8,9.3c-5.1-2.7-11.3-6.6-15-2.2 M200.9,270.2L200.9,270.2L200.9,270.2z"/>
	<path id="path3719" sodipodi:nodetypes="ccccc" class="st6" d="M204.7,272.5c3.1,0.2,5.2,0.5,7.9-3.3 M204.7,272.5L204.7,272.5
		L204.7,272.5z"/>
	<path id="path3721" sodipodi:nodetypes="ccc" class="st6" d="M210.9,271.3c5.8,2.9,4.5,5.3,5.2,7.8c-2.6-0.9-5.1-1.8-7.1-2.5
		 M210.9,271.3L210.9,271.3L210.9,271.3z"/>
	<path id="path3723" sodipodi:nodetypes="ccc" class="st6" d="M206.7,274.2c1.5-0.6,3,0.3,4.5,0.5c-0.7-0.6-0.6-0.9-3.8-2.1
		 M206.7,274.2L206.7,274.2L206.7,274.2z"/>
	<path id="path3725" sodipodi:nodetypes="cc" class="st6" d="M216.8,288.2c1.6-3.8,2.8-7.6-1-12.2 M216.8,288.2L216.8,288.2
		L216.8,288.2z"/>
	<path id="path3727" sodipodi:nodetypes="cc" class="st6" d="M217.6,286.2c0.3,1.4,0.7,2.8,2.6,4 M217.6,286.2L217.6,286.2
		L217.6,286.2z"/>
	<path id="path3729" sodipodi:nodetypes="cc" class="st6" d="M203.2,292.8c1.7-3,2.7-6.4-1.6-12"/>
	<path id="path3731" sodipodi:nodetypes="cc" class="st6" d="M206,292.3c0.3-2.7,2-4.9-1.1-9.2"/>
	<path id="path3733" sodipodi:nodetypes="cc" class="st6" d="M210.3,292.5c0.7-2.5,0.9-4.8,0.2-6.7"/>
	<path id="path3735" sodipodi:nodetypes="ccc" class="st6" d="M206.5,283.2c2.5,0.8,4,2.5,5.5,4.2c0.5-3.3,0.1-6.4-3.5-9.2
		 M206.5,283.2L206.5,283.2L206.5,283.2z"/>
	<path id="path3737" sodipodi:nodetypes="cc" class="st6" d="M207.3,283.6c1.7,1.9,1.2,4.1,1.7,6.1 M207.3,283.6L207.3,283.6
		L207.3,283.6z"/>
	<path id="path3739" sodipodi:nodetypes="ccc" class="st6" d="M211.6,282.4c1,1,1.9,2.2,2.7,5.8c3.2-3.1,2.4-6.3,1.3-9.4
		 M211.6,282.4L211.6,282.4L211.6,282.4z"/>
	<path id="path3741" sodipodi:nodetypes="ccc" class="st6" d="M210.2,278.1c1.7,0.6,2.5,1.9,3.6,2.9c-0.5-1.1-0.8-2.3-2.1-3.4
		 M210.2,278.1L210.2,278.1L210.2,278.1z"/>
	<path id="path3743" sodipodi:nodetypes="cc" class="st6" d="M203.8,264c-5.9-2.8-3-10.8-3.5-16.8"/>
	<path id="path3745" sodipodi:nodetypes="cc" class="st6" d="M203,257.5c0-2.2-0.1-4.2,0.3-6.5 M203,257.5L203,257.5L203,257.5z"/>
	<path id="path3747" sodipodi:nodetypes="ccccc" class="st6" d="M204.2,268.2c-1.3-1.4-2.6-2.3-3.8-5.1 M204.2,268.2L204.2,268.2
		L204.2,268.2z"/>
	<path id="path3751" sodipodi:nodetypes="ccccccccccccccc" class="st9" d="M209.6,211.8c-3.6,4.7-6.4,1.8-12.3-2.4
		c6.8,1.2,8.7-1.7,8.3-4.8c-9.3,5.3-7.1-10.3-6.5-15.9l-8.2-17.7l-7.1,7.6c-7.9,13.8-5.2,18.4-5.8,28.9l0.6,13c0.4,5,1.5,9.9,4,10.6
		c-0.6-3.5,1.3-3.9,2.3-9.9c1.3,4.5,4.1,8.4,6.5,8.6c-0.8-3.8-0.6-6.1,0.6-8.3c5.8,5.7,10.5,4.6,12.2,4.7c0.2-1-3.6-2.3-4.8-5.3
		C204.6,223,212.1,222.8,209.6,211.8L209.6,211.8L209.6,211.8L209.6,211.8z"/>
	<path id="path3753" sodipodi:nodetypes="ccc" class="st6" d="M205.3,215.8c2.7,0.3,3.1-0.9,3.8-2c0.4,2.9-0.3,5.3-1.9,5.8
		 M205.3,215.8L205.3,215.8L205.3,215.8z"/>
	<path id="path3755" sodipodi:nodetypes="ccccccc" class="st6" d="M197.8,209.5c-5.8-2-4.4-10.8-5.3-16.8c-1.1,4.7-2,9.7-1.8,16.2
		c-1.2-7-1.6-15.6-0.9-21.7c-1.8,1.2-3.2,5.3-4.1,8.5c0-3.4,0.2-6.7,1.2-10.1c-4,6.9-6.5,14.3-8.8,24.1 M197.8,209.5L197.8,209.5
		L197.8,209.5z"/>
	<path id="path3757" sodipodi:nodetypes="cc" class="st6" d="M199.4,221.1c-7.9-3.7-6.8-11.7-8.6-19.2 M199.4,221.1L199.4,221.1
		L199.4,221.1z"/>
	<path id="path3759" sodipodi:nodetypes="cc" class="st6" d="M192,221.8c-3.2-4.6-5.5-10.5-6.5-18.9 M192,221.8L192,221.8L192,221.8
		z"/>
	<path id="path3761" sodipodi:nodetypes="cc" class="st6" d="M184.9,221.4c-3.1-6.5-2.5-13.2-1.7-20.3 M184.9,221.4L184.9,221.4
		L184.9,221.4z"/>
	<path id="path3763" sodipodi:nodetypes="cc" class="st6" d="M189.1,216.8c-0.3-4.5-0.6-9.3,0.6-15.6 M189.1,216.8L189.1,216.8
		L189.1,216.8z"/>
	<path id="path3765" sodipodi:nodetypes="cc" class="st6" d="M196.1,219.1c0-0.3-3.7,0.3-7.3-10.2 M196.1,219.1L196.1,219.1
		L196.1,219.1z"/>
	<path id="path3767" sodipodi:nodetypes="cc" class="st6" d="M195.9,194.3c-1,3.6-1.5,9.9-0.4,13.8 M195.9,194.3L195.9,194.3
		L195.9,194.3z"/>
	<path id="path3769" sodipodi:nodetypes="cc" class="st6" d="M199.5,208.8c-1.5,0.4-4.9-3.8-4.7-6.1 M199.5,208.8L199.5,208.8
		L199.5,208.8z"/>
	<path id="path3771" sodipodi:nodetypes="cc" class="st6" d="M197.4,213.3c-1.9-1.4-2.7-3.1-3.5-4.8 M197.4,213.3L197.4,213.3
		L197.4,213.3z"/>
	<path id="path3773" sodipodi:nodetypes="ccc" class="st6" d="M183.7,192.5c-0.7,7.1-0.2,11.5,0.2,17.1c1.2-6.3,2.8-9.6,5.6-15.9
		 M183.7,192.5L183.7,192.5L183.7,192.5z"/>
	<path id="path3775" sodipodi:nodetypes="cc" class="st6" d="M183.5,218c-1.7-3.6-4.1-6.3-4.1-12.8 M183.5,218L183.5,218L183.5,218z
		"/>
	<path id="path3777" sodipodi:nodetypes="cc" class="st6" d="M186.2,207.5c-1.1,6.9-0.1,12.3,0.5,18 M186.2,207.5L186.2,207.5
		L186.2,207.5z"/>
	<path id="path3779" sodipodi:nodetypes="cc" class="st9" d="M189.8,187.1c1.1-2.3,2.6-4.2,4.5-5.9 M189.8,187.1L189.8,187.1
		L189.8,187.1z"/>
	<path id="path3781" sodipodi:nodetypes="cc" class="st9" d="M191.6,180.3c-1.3,2.1-3.8,2.5-4.8,5.6 M191.6,180.3L191.6,180.3
		L191.6,180.3z"/>
	<g id="g3783">
		<path id="path3785" sodipodi:nodetypes="cccccccccccccccccccccccc" class="st9" d="M219,161.3c1.1,0.4,3.8,1.1,3.6,4.2l-0.9,2.6
			l-15.8,10.4c-2.2,0.7-4.6,1.3-5.7,3.4c-1.7,2.9-0.5,5.6-0.1,8.3c-1.7-1.1-3.3-2.3-3.4-4.5l-1.4,4.1c-1.2-1.9-1.2-3.4-1.2-5.3
			l-2.5,2.9c-0.3-2.4,0.5-4.5,2-6.3l-4.3,4l1.2-2.9c-0.7,0.6-1.8,1.2-3.4,1.7c-0.2-1.2,0.8-2,1.4-2.8c-1.3,0.9-3.4,1.4-6.1,1.6
			l3.5-2.7c-1.1,0.6-3.1,0.2-5,0c4.2-2.1,7.2-6.8,11.6-9.2l-5.9,2.5c2.4-2.8,4.9-5.6,10.7-8.5l-5.7-1.2c2.2-0.2,3.1,0.1,7-0.8
			C209.8,160.4,211.5,159.6,219,161.3L219,161.3L219,161.3L219,161.3z"/>
		<path id="path3787" sodipodi:nodetypes="cccccccc" class="st10" d="M215.2,170.7c-4.4,0.3-3.7-2.5-5.1-3.7l-2.6,0.5
			c1.8-0.3,2.9-1,5.3-1c0.9,0.2,1.1,0,3,1l3.3,1.5l-3.4,2.1L215.2,170.7L215.2,170.7L215.2,170.7z"/>
		<path id="path3789" sodipodi:nodetypes="cccc" class="st9" d="M217,170.3c-2.4,0.1-2.9-1.5-3.2-3.5c2,0.5,3.3,1.8,4.7,1.7
			L217,170.3L217,170.3z"/>
		<path id="path3791" sodipodi:nodetypes="ccccccccccccc" class="st8" d="M230.8,177.1c5.7-6.8,0.4-9.8-8.5-11.5
			c-1.5,0.5-2.9,1.2-3.7,2.4c-1,0.2-1.9,0-2.8-0.4c0.3,0.4-0.1,0.7,2.2,1.3c-2.9,2.5-5.9,2.7-7,3.6c-1.1,0.8-1.4,1.8-1.9,2.7
			c-2.8,2-5,0.9-7.3,1.9c-0.1,0.3-1,1,2.5,1.8c6.4,0.6,11,5.7,13.9,2.8c-3.3-0.2-4.9-3.2-9.3-3.9c0.6-2.5,7.3-5.4,8.3-4.9
			C225.2,175.7,229.8,170.3,230.8,177.1L230.8,177.1L230.8,177.1L230.8,177.1z"/>
		<path id="path3793" sodipodi:nodetypes="ccccc" class="st7" d="M209.3,177.9c1.8-0.4,3.1-1.7,5.7-0.4c5.5,2.7,7.8,1.9,10,1
			c-3-0.4-1.4,1.1-10.2-3.1C212.6,174.7,210.7,176.8,209.3,177.9L209.3,177.9L209.3,177.9z"/>
		<path id="path3795" sodipodi:nodetypes="cc" class="st9" d="M196.6,186c0.1-1.4,0.9-3.6,2.1-5.3 M196.6,186L196.6,186L196.6,186z"
			/>
		<path id="path3797" sodipodi:nodetypes="cc" class="st9" d="M188,181.3c2.2-1.6,2.8-1.6,3.9-1.9 M188,181.3L188,181.3L188,181.3z"
			/>
		<path id="path3799" sodipodi:nodetypes="cc" class="st9" d="M185.6,180c2.1-1.1,5.4-4.3,8-5.3 M185.6,180L185.6,180L185.6,180z"/>
	</g>
	<path id="path3801" sodipodi:nodetypes="cc" class="st6" d="M201.6,225.3c-2.7-0.4-5-1.6-7.1-3.3 M201.6,225.3L201.6,225.3
		L201.6,225.3z"/>
	<path id="path3803" sodipodi:nodetypes="cc" class="st6" d="M189.9,228c-1.7-1.1-2.4-3-2.6-5.3 M189.9,228L189.9,228L189.9,228z"/>
	<path id="path3805" sodipodi:nodetypes="cc" class="st6" d="M181.4,228.8c-1.4-2.8-1.6-7-1.9-11 M181.4,228.8L181.4,228.8
		L181.4,228.8z"/>
	<path id="path3807" sodipodi:nodetypes="cc" class="st9" d="M192.6,193.2c-0.2-2.6,0.2-5.1,0.9-7.6 M192.6,193.2L192.6,193.2
		L192.6,193.2z"/>
	<path id="path3809" sodipodi:nodetypes="ccc" class="st6" d="M191.1,246.8c3.2,5.9-0.7,17.8,9.8,16.2c-1.6-2.3-2.9-6.3-0.9-10.7
		 M191.1,246.8L191.1,246.8L191.1,246.8z"/>
	<path id="path3811" sodipodi:nodetypes="ccc" class="st6" d="M182,246.8c4.8,5.5,1.7,17.1,11.4,15.5c-2.5-2.1-1.8-5.5-1.2-10.7
		 M182,246.8L182,246.8L182,246.8z"/>
	<path id="path3815" sodipodi:nodetypes="cc" class="st6" d="M206.1,246c-0.6-5.8-4.8-8.4-4.9-12.6"/>
	<path id="path3817" sodipodi:nodetypes="ccc" class="st6" d="M194.1,233.8c3.6,3,1.7,11.9,8,13.7c-0.6-3.5-0.7-6.9,0.4-10.1
		 M194.1,233.8L194.1,233.8L194.1,233.8z"/>
	<path id="path3819" sodipodi:nodetypes="ccc" class="st6" d="M188.1,234.5c1.8,4.6-2,12.5,5.9,13.1c-1.4-3.7,0.8-7.3,1.7-11
		 M188.1,234.5L188.1,234.5L188.1,234.5z"/>
	<path id="path3821" sodipodi:nodetypes="ccc" class="st6" d="M182.2,234.1c0.5,4.4-1.8,8.7,2,13.1c0.6-3.8,2.8-6.4,4.5-9.4
		 M182.2,234.1L182.2,234.1L182.2,234.1z"/>
	<path id="path3825" sodipodi:nodetypes="ccccccc" class="st6" d="M197.1,263.1c0.2,2.4,1.7,4.8,4.5,7.5c-5.5,0.7-6.9-3.9-10.8-5.1
		c0.3,5.8,3.1,6.9,3.8,8c-7.3,1-7.5-5.9-9.9-8.2c2.1,3.9-1.8,9.4,0.3,15.1c-8-2.8-5.3-14.6-7.3-17.8 M197.1,263.1L197.1,263.1
		L197.1,263.1z"/>
	<path id="path3827" sodipodi:nodetypes="ccc" class="st6" d="M198.3,225.9c0.4,5.3,3.4,6.7,3.8,7.7c-9.3-1.8-8.7-3.2-11.1-7.8
		 M198.3,225.9L198.3,225.9L198.3,225.9z"/>
	<path id="path3829" sodipodi:nodetypes="cc" class="st6" d="M205.5,230.6c-2.9-1.5-3.2-3-4.8-4.5"/>
	<path id="path3831" sodipodi:nodetypes="ccc" class="st6" d="M188.6,228.2c-0.8,2.5-0.2,4.7,0.4,6.9c-2.7-1.9-4.9-4.5-6.1-8.3
		 M188.6,228.2L188.6,228.2L188.6,228.2z"/>
	<path id="path3833" sodipodi:nodetypes="cc" class="st6" d="M210.5,230.9c-2.3,0.2-5.3-2.2-7.4-3.5 M210.5,230.9L210.5,230.9
		L210.5,230.9z"/>
	<path id="path3835" sodipodi:nodetypes="cc" class="st6" d="M198.7,231.8c-5.5-1.4-5.2-4.6-7-7.4 M198.7,231.8L198.7,231.8
		L198.7,231.8z"/>
	<path id="path3837" sodipodi:nodetypes="cc" class="st6" d="M187.5,232c-2.1-1.6-2.4-3.6-3.6-5.5 M187.5,232L187.5,232L187.5,232z"
		/>
	<path id="path3839" sodipodi:nodetypes="cc" class="st6" d="M192.4,246c-3.8-2.3-1.9-5.8-2.7-8.8 M192.4,246L192.4,246L192.4,246z"
		/>
	<path id="path3841" sodipodi:nodetypes="cc" class="st6" d="M200.5,245.3c-3.3-3.9-2.5-7.3-3.8-10.9 M200.5,245.3L200.5,245.3
		L200.5,245.3z"/>
	<path id="path3843" sodipodi:nodetypes="cc" class="st6" d="M209.8,249.1c-3.5-3.1-2-5.9-5-10.8 M209.8,249.1L209.8,249.1
		L209.8,249.1z"/>
	<path id="path3845" sodipodi:nodetypes="cc" class="st6" d="M183.9,244.5c-2-3.1,0.2-5.5,0.1-9.8 M183.9,244.5L183.9,244.5
		L183.9,244.5z"/>
	<path id="path3851" sodipodi:nodetypes="cc" class="st6" d="M191.2,261.4c-5.4-1-4.1-8.1-6.4-11.6 M191.2,261.4L191.2,261.4
		L191.2,261.4z"/>
	<path id="path3853" sodipodi:nodetypes="cc" class="st6" d="M198.4,262c-3.8-0.9-4.4-6.3-4.6-8.8 M198.4,262L198.4,262L198.4,262z"
		/>
	<path id="path3855" sodipodi:nodetypes="cc" class="st6" d="M196.7,250.8c-1-3.3-1-7.4-1.1-10.7 M196.7,250.8L196.7,250.8
		L196.7,250.8z"/>
	<path id="path3857" sodipodi:nodetypes="cc" class="st6" d="M189.1,250.5c-1.2-3-1.3-5.7-1.5-8.4 M189.1,250.5L189.1,250.5
		L189.1,250.5z"/>
	<path id="path3859" sodipodi:nodetypes="cc" class="st6" d="M207.1,276.9c-2.5-0.1-5.1-1.9-7.6-4.1 M207.1,276.9L207.1,276.9
		L207.1,276.9z"/>
	<path id="path3861" sodipodi:nodetypes="cc" class="st6" d="M202.9,280.3c-2.1-1.2-4.1-2.5-7.9-2.2 M202.9,280.3L202.9,280.3
		L202.9,280.3z"/>
	<path id="path3863" sodipodi:nodetypes="cc" class="st6" d="M196.5,271.5c-2.4-0.7-3.9-3.2-5.3-5.7 M196.5,271.5L196.5,271.5
		L196.5,271.5z"/>
	<path id="path3865" sodipodi:nodetypes="cc" class="st6" d="M199,269.1c-2.8-0.3-3.9-3.4-7.8-5.1 M199,269.1L199,269.1L199,269.1z"
		/>
	<path id="path3867" sodipodi:nodetypes="cc" class="st6" d="M191.7,272c-3.3-0.6-4-5.3-6-8.1 M191.7,272L191.7,272L191.7,272z"/>
	<path id="path3869" sodipodi:nodetypes="cc" class="st6" d="M183,277.8c-3.7-4.1-2.5-10.2-3.8-15.3 M183,277.8L183,277.8L183,277.8
		z"/>
	<path id="path3871" sodipodi:nodetypes="cc" class="st6" d="M183.3,261.1c-1.2-3,0.3-8.5-0.7-12.9 M183.3,261.1L183.3,261.1
		L183.3,261.1z"/>
	<path id="path3873" sodipodi:nodetypes="cc" class="st6" d="M182.9,269.7c0.9-2.7-1.2-5.2-1.5-7.9 M182.9,269.7L182.9,269.7
		L182.9,269.7z"/>
	<path id="path3877" sodipodi:nodetypes="ccc" class="st6" d="M173.6,278.8c0.3,1.8,1.3,4.6,4.2,10.5c1.8-3.1,3.5-6.8,4.4-10.6
		 M173.6,278.8L173.6,278.8L173.6,278.8z"/>
	<path id="path3879" sodipodi:nodetypes="ccc" class="st6" d="M181.3,277.6c-0.5,3.2-1.6,6.3-3.5,9.3c-1.6-2.5-2.5-5.9-3.4-9.3
		 M181.3,277.6L181.3,277.6L181.3,277.6z"/>
	<line id="path3891" class="st6" x1="177.8" y1="247.2" x2="177.8" y2="254.1"/>
	<path id="path3459" sodipodi:nodetypes="cc" class="st6" d="M170.7,182.3c2.2,3.1,4.6,8.9,4.8,13 M170.7,182.3L170.7,182.3
		L170.7,182.3z"/>
	<path id="path4231" sodipodi:nodetypes="cc" class="st6" d="M185.1,182.3c-2.2,3.1-4.6,8.9-4.8,13 M185.1,182.3L185.1,182.3
		L185.1,182.3z"/>
</g>
</svg>
