<?xml version="1.0" encoding="UTF-8" standalone="no"?>
<!-- Generator: Adobe Illustrator 21.0.0, SVG Export Plug-In . SVG Version: 6.00 Build 0)  -->

<svg
   xmlns:dc="http://purl.org/dc/elements/1.1/"
   xmlns:cc="http://creativecommons.org/ns#"
   xmlns:rdf="http://www.w3.org/1999/02/22-rdf-syntax-ns#"
   xmlns:svg="http://www.w3.org/2000/svg"
   xmlns="http://www.w3.org/2000/svg"
   xmlns:xlink="http://www.w3.org/1999/xlink"
   xmlns:sodipodi="http://sodipodi.sourceforge.net/DTD/sodipodi-0.dtd"
   xmlns:inkscape="http://www.inkscape.org/namespaces/inkscape"
   version="1.1"
   id="Слой_1"
   x="0px"
   y="0px"
   viewBox="0 0 359.31934 497.54114"
   xml:space="preserve"
   sodipodi:docname="spain.svg"
   width="359.31934"
   height="497.54114"
   inkscape:version="0.92.1 r15371"><metadata
     id="metadata145"><rdf:RDF><cc:Work
         rdf:about=""><dc:format>image/svg+xml</dc:format><dc:type
           rdf:resource="http://purl.org/dc/dcmitype/StillImage" /></cc:Work></rdf:RDF></metadata><defs
     id="defs143" /><sodipodi:namedview
     pagecolor="#ffffff"
     bordercolor="#666666"
     borderopacity="1"
     objecttolerance="10"
     gridtolerance="10"
     guidetolerance="10"
     inkscape:pageopacity="0"
     inkscape:pageshadow="2"
     inkscape:window-width="716"
     inkscape:window-height="480"
     id="namedview141"
     showgrid="false"
     inkscape:zoom="0.472"
     inkscape:cx="167.76793"
     inkscape:cy="319.2473"
     inkscape:window-x="0"
     inkscape:window-y="0"
     inkscape:window-maximized="0"
     inkscape:current-layer="Слой_1" /><style
     type="text/css"
     id="style2">
	.st0{fill:none;stroke:#000000;stroke-width:1.5;stroke-miterlimit:3.8637;}
	.st1{clip-path:url(#SVGID_2_);fill:#FFFFFF;}
	.st2{clip-path:url(#SVGID_2_);fill:#E20613;}
</style><path
     class="st0"
     d="m 324.35967,84.367131 c 0,0 0.5,-7.5 5.9,-8 5.4,-0.5 9.6,3.7 10.2,9.1 0.5,5.4 -4.5,12.3 -12.1,12.9 -7.5,0.5 -11.2,-7.1 -11.2,-7.1 -2.4,-5.7 -0.8,-17.1 10.3,-23.1 8.4,-4.5 24.4,-3 28.6,18.9 2.9,15.499999 -1.8,27.899999 -13.5,40.899999 -16.5,18.1 -29.8,40.6 -30.3,62.6 -0.7,29.5 6.4,42.8 20.1,42.6 11.4,-0.1 11.9,-11 12.5,-15.8 0.5,-4.8 -3.5,-8.8 -6.4,-8.7 -2.9,0.1 -6.6,2.8 -6.7,8"
     id="path4"
     inkscape:connector-curvature="0"
     style="fill:none;stroke:#000000;stroke-width:1.5;stroke-miterlimit:3.86369991" /><path
     class="st0"
     d="m 344.65967,215.16713 c 0,0 -2.9,12.1 -12.3,10.8 -9.4,-1.3 -11.4,-10.2 -10.2,-16.9 1.2,-6.7 7.2,-13.7 18.6,-13.5 11.4,0.1 18.1,9.4 17.8,20.8 -0.3,11.4 -10.2,32 -27.3,32.8 -17.1,0.8 -31.1,-13.5 -31.6,-39.8"
     id="path6"
     inkscape:connector-curvature="0"
     style="fill:none;stroke:#000000;stroke-width:1.5;stroke-miterlimit:3.86369991" /><line
     class="st0"
     x1="347.15967"
     y1="196.56712"
     x2="313.25967"
     y2="179.16713"
     id="line8"
     style="fill:none;stroke:#000000;stroke-width:1.5;stroke-miterlimit:3.86369991" /><path
     class="st0"
     d="m 299.75967,183.56713 c 0,0 -2.9,-23.3 13.9,-46.1 16.9,-22.8 20.6,-26.3 19.6,-40.199999"
     id="path10"
     inkscape:connector-curvature="0"
     style="fill:none;stroke:#000000;stroke-width:1.5;stroke-miterlimit:3.86369991" /><path
     class="st0"
     d="m 317.95967,92.567131 c 0,0 -11,-14.6 -14.2,-18.4 -3.2,-3.8 -4.5,-9.4 1.6,-17.7 6.2,-8.3 15.5,-14.7 22,-8.8 6.4,5.9 22.6,25.1 22.6,25.1"
     id="path12"
     inkscape:connector-curvature="0"
     style="fill:none;stroke:#000000;stroke-width:1.5;stroke-miterlimit:3.86369991" /><path
     class="st0"
     d="m 310.25967,82.467131 c 0,0 4.8,6.5 0.5,16.4 -4.3,9.899999 -11,13.899999 -11,13.899999"
     id="path14"
     inkscape:connector-curvature="0"
     style="fill:none;stroke:#000000;stroke-width:1.5;stroke-miterlimit:3.86369991" /><path
     class="st0"
     d="m 230.55967,16.067131 c 0,0 -5.1,-3.8 -7.2,1.1 -2.1,4.8 0.8,10.2 5.9,11.5 5.1,1.3 11.3,-0.5 24.9,-14.2 13.7,-13.70000023 33.2,-7.8000002 37.5,-4.3 4.3,3.5 11.8,16.3 1.3,30 -10.5,13.7 -19.8,15.5 -27.1,9.9 -7.2,-5.6 -4.6,-14.5 -0.5,-19.8 4,-5.4 12.3,-5.1 14.2,-3.2 1.9,1.9 3.7,6.4 -1.1,10.5"
     id="path16"
     inkscape:connector-curvature="0"
     style="fill:none;stroke:#000000;stroke-width:1.5;stroke-miterlimit:3.86369991" /><path
     class="st0"
     d="m 262.05967,36.967131 c 0,0 -17.5,12.6 -28.2,12.8 -10.7,0.3 -23.9,-10.5 -24.9,-22.3 -1.1,-11.8 -1.3,-19.8000002 9.9,-25.2000002 11.2,-5.4 18,4.8 19.8,9.6000002 1.9,4.8 3.8,14.1 -4.8,16.8"
     id="path18"
     inkscape:connector-curvature="0"
     style="fill:none;stroke:#000000;stroke-width:1.5;stroke-miterlimit:3.86369991" /><path
     class="st0"
     d="m 224.65967,0.86713077 c 0,0 12.6,1.50000003 19,6.40000003 6.4,4.8000002 9.2,8.4000002 9.2,8.4000002"
     id="path20"
     inkscape:connector-curvature="0"
     style="fill:none;stroke:#000000;stroke-width:1.5;stroke-miterlimit:3.86369991" /><path
     class="st0"
     d="m 218.75967,2.3671308 c 0,0 -9.1,3 -17.7,11.3000002 -8.6,8.3 -8,9.1 -6.2,16.6 1.9,7.5 0.8,16.1 16.6,27.3"
     id="path22"
     inkscape:connector-curvature="0"
     style="fill:none;stroke:#000000;stroke-width:1.5;stroke-miterlimit:3.86369991" /><path
     class="st0"
     d="m 242.65967,57.567131 c 0,0 8,-3.5 11.8,-5.6 3.7,-2.1 9.1,-4.4 9.1,-4.4"
     id="path24"
     inkscape:connector-curvature="0"
     style="fill:none;stroke:#000000;stroke-width:1.5;stroke-miterlimit:3.86369991" /><path
     class="st0"
     d="m 267.55967,51.167131 c 0,0 -3.2,0.8 -6.7,6.1"
     id="path26"
     inkscape:connector-curvature="0"
     style="fill:none;stroke:#000000;stroke-width:1.5;stroke-miterlimit:3.86369991" /><path
     class="st0"
     d="m 267.55967,51.167131 c 0,0 13.4,7.5 15.8,8.8 2.4,1.3 10.5,0.3 16.6,-6.4 6.2,-6.7 8.3,-11.5 9.4,-15.8 1.1,-4.3 0.5,-5.6 -4,-11 -4.6,-5.4 -13.7,-16.6 -13.7,-16.6"
     id="path28"
     inkscape:connector-curvature="0"
     style="fill:none;stroke:#000000;stroke-width:1.5;stroke-miterlimit:3.86369991" /><line
     class="st0"
     x1="307.35968"
     y1="43.267132"
     x2="313.15967"
     y2="48.967129"
     id="line30"
     style="fill:none;stroke:#000000;stroke-width:1.5;stroke-miterlimit:3.86369991" /><line
     class="st0"
     x1="293.55966"
     y1="58.36713"
     x2="301.05966"
     y2="65.367134"
     id="line32"
     style="fill:none;stroke:#000000;stroke-width:1.5;stroke-miterlimit:3.86369991" /><path
     class="st0"
     d="m 342.35967,295.56713 c -4.5,-2.1 -11.3,-2.4 -14.9,3.3 -3.7,5.8 -1.2,14.9 1.5,18.4 2.7,3.6 10.5,4.7 15.3,1.3 4.8,-3.5 8.3,-11.5 7.5,-19.6 -1.4,-14.1 -11.8,-19 -22.8,-18.2 -11,0.8 -22.3,13.4 -22,26.3 0.3,12.9 2.7,24.7 7.8,37 5.1,12.3 16.9,38.9 21.2,49.9 4.3,11 1.3,19 -1.9,22 -3.2,3 -8.6,4 -13.4,1.3 -4.8,-2.7 -6.2,-4.3 -6.2,-4.3"
     id="path34"
     inkscape:connector-curvature="0"
     style="fill:none;stroke:#000000;stroke-width:1.5;stroke-miterlimit:3.86369991" /><path
     class="st0"
     d="m 326.25967,418.76713 c 0,0 1.9,-3.9 1.9,-8.5 0,-4.6 -1.6,-9.1 -9.4,-11 -7.8,-1.9 -12.1,4.3 -13.9,11.5 -1.9,7.2 -0.5,20.9 13.7,23.3 14.2,2.4 22.8,-4.3 28.7,-18 5.9,-13.7 4.8,-27.9 -2.4,-44.8 -7.2,-16.9 -14.7,-34 -20.1,-46.1 -5.4,-12.1 -0.8,-22.6 4,-27.9"
     id="path36"
     inkscape:connector-curvature="0"
     style="fill:none;stroke:#000000;stroke-width:1.5;stroke-miterlimit:3.86369991" /><line
     class="st0"
     x1="348.45966"
     y1="313.76712"
     x2="329.45966"
     y2="337.16711"
     id="line38"
     style="fill:none;stroke:#000000;stroke-width:1.5;stroke-miterlimit:3.86369991" /><line
     class="st0"
     x1="315.95966"
     y1="287.16711"
     x2="300.25967"
     y2="306.06714"
     id="line40"
     style="fill:none;stroke:#000000;stroke-width:1.5;stroke-miterlimit:3.86369991" /><path
     class="st0"
     d="m 304.15967,415.36713 c 0,0 -3.4,15.5 -4.4,19 -1.1,3.5 0.5,16.1 17.2,17.4 16.6,1.3 25.5,-5.1 28.4,-16.4 2.9,-11.3 5.7,-36.5 5.7,-36.5"
     id="path42"
     inkscape:connector-curvature="0"
     style="fill:none;stroke:#000000;stroke-width:1.5;stroke-miterlimit:3.86369991" /><path
     class="st0"
     d="m 327.35967,451.56713 c 0,0 -9.6,13.4 -11.3,16.6 -1.6,3.2 -12.1,5.4 -18.2,0 -6.2,-5.4 -6.2,-10.4 -4,-14.7 2.1,-4.3 6.8,-11.5 6.8,-11.5"
     id="path44"
     inkscape:connector-curvature="0"
     style="fill:none;stroke:#000000;stroke-width:1.5;stroke-miterlimit:3.86369991" /><path
     class="st0"
     d="m 296.95967,447.86713 c 0,0 -6.1,-2.4 -8.5,5.3 -2.4,7.8 1.3,13.7 4.3,16.9 2.9,3.2 15.8,9.9 23.9,5.1 8,-4.8 4,-14.1 4,-14.1"
     id="path46"
     inkscape:connector-curvature="0"
     style="fill:none;stroke:#000000;stroke-width:1.5;stroke-miterlimit:3.86369991" /><path
     class="st0"
     d="m 299.35967,443.86713 c 0,0 -12.2,-3.6 -17.6,6.6 -5.4,10.2 -1.9,22.5 5.9,29 7.8,6.4 27.6,8 34.8,1.6 7.2,-6.4 8.2,-16.9 1.7,-25.1"
     id="path48"
     inkscape:connector-curvature="0"
     style="fill:none;stroke:#000000;stroke-width:1.5;stroke-miterlimit:3.86369991" /><path
     class="st0"
     d="m 283.35967,447.16713 c 0,0 -8.9,11.1 -12.3,16.4 -3.5,5.3 -4,15 3.7,23.3 7.8,8.3 26,13.9 34,6.4 8,-7.5 15,-13.7 15,-13.7"
     id="path50"
     inkscape:connector-curvature="0"
     style="fill:none;stroke:#000000;stroke-width:1.5;stroke-miterlimit:3.86369991" /><line
     class="st0"
     x1="273.55966"
     y1="460.06714"
     x2="265.45966"
     y2="454.26712"
     id="line52"
     style="fill:none;stroke:#000000;stroke-width:1.5;stroke-miterlimit:3.86369991" /><path
     class="st0"
     d="m 299.75967,348.36713 c 0,0 5.4,11.3 9.6,20.9 4.3,9.6 7.5,20.8 7,29.7"
     id="path54"
     inkscape:connector-curvature="0"
     style="fill:none;stroke:#000000;stroke-width:1.5;stroke-miterlimit:3.86369991" /><line
     class="st0"
     x1="319.45966"
     y1="246.96713"
     x2="319.45966"
     y2="284.36713"
     id="line56"
     style="fill:none;stroke:#000000;stroke-width:1.5;stroke-miterlimit:3.86369991" /><line
     class="st0"
     x1="348.95966"
     y1="239.76712"
     x2="348.95966"
     y2="288.56714"
     id="line58"
     style="fill:none;stroke:#000000;stroke-width:1.5;stroke-miterlimit:3.86369991" /><path
     class="st0"
     d="m 299.75967,248.16713 c 0,0 9.6,5.6 12.3,6.7 2.7,1.1 7.1,3 7.4,7.2 0.4,4.3 -2.9,6.4 -5.5,8.6 -2.7,2.1 -14.2,8.6 -14.2,8.6"
     id="path60"
     inkscape:connector-curvature="0"
     style="fill:none;stroke:#000000;stroke-width:1.5;stroke-miterlimit:3.86369991" /><g
     id="g72"
     transform="translate(-70.340327,-1.1328692)"><defs
       id="defs63"><path
         id="SVGID_1_"
         d="m 249.7,463.9 -1.2,-1.3 c -8.5,-9.2 -22.4,-18 -43.6,-17.9 -14.2,0.1 -36.4,0 -36.4,0 -15.4,0 -27.9,-12.5 -27.9,-27.9 V 97.3 c 0,-15.4 12.5,-27.9 27.9,-27.9 h 81 82 c 15.4,0 27.9,12.5 27.9,27.9 v 319.5 c 0,15.4 -12.5,27.9 -27.9,27.9 0,0 -22.2,0.1 -36.4,0 -21.2,-0.1 -35.3,8.6 -44,17.7 -0.5,0.5 -1,1 -1.4,1.5 z"
         inkscape:connector-curvature="0" /></defs><clipPath
       id="SVGID_2_"><use
         xlink:href="#SVGID_1_"
         style="overflow:visible"
         id="use65"
         x="0"
         y="0"
         width="100%"
         height="100%" /></clipPath><rect
       x="124.5"
       y="53.599998"
       class="st1"
       width="260"
       height="409.5"
       clip-path="url(#SVGID_2_)"
       id="rect68"
       style="fill:#ffffff" /><polyline
       class="st2"
       points="332.7,345.9 344.2,368.8 332.4,365.6 344.2,387.6 356.7,392.3 368.3,415.3 357.5,412.3 384.7,463    344.1,463 328.4,433.6 325.1,451.6 312.6,428.1 316.7,411.7 304.3,388.4 304.2,389.2 301.1,405.1 288.6,381.6 292.4,366.2    279.8,342.5 276.6,358.3 264.1,334.8 267.8,320.1 254.7,295.5 244.3,314.8 248.1,329.7 235.5,353.2 232.4,337.3 219.7,361    223.6,376.5 211.1,400 207.9,384.1 207.9,383.2 195.4,406.5 199.5,423 187,446.5 183.7,428.4 165.3,463 124.7,463 154.6,407.2    143.9,410.2 155.4,387.2 167.9,382.5 179.8,360.5 167.9,363.7 179.5,340.7 193.1,335.6 205.1,313.4 192.4,316.9 203.9,293.9    218.5,288.5 234.7,258.2 218.5,227.9 203.9,222.4 192.4,199.5 205.1,202.9 193.1,180.8 179.5,175.6 167.9,152.6 179.8,155.9    167.9,133.9 155.4,129.2 143.9,106.2 154.6,109.1 124.7,53.4 165.3,53.4 183.7,87.9 187,69.9 199.5,93.4 195.4,109.8 207.9,133.2    207.9,132.3 211.1,116.4 223.6,139.9 219.7,155.4 232.4,179.1 235.5,163.2 248.1,186.7 244.3,201.6 254.7,220.9 267.8,196.3    264.1,181.6 276.6,158.1 279.8,173.9 292.4,150.2 288.6,134.8 301.1,111.3 304.2,127.2 304.3,128 316.7,104.7 312.6,88.3    325.1,64.8 328.3,80.7 328.4,82.8 344.1,53.4 384.7,53.4 357.5,104 368.3,101.1 356.7,124.1 344.2,128.8 332.4,150.8 344.2,147.5    332.7,170.5 319,175.6 307.1,197.8 319.8,194.4 308.2,217.3 293.7,222.8 274.7,258.2 293.7,293.6 308.2,299 319.8,322 307.1,318.5    319,340.7 332.7,345.9  "
       clip-path="url(#SVGID_2_)"
       id="polyline70"
       style="fill:#e20613" /></g><path
     class="st0"
     d="m 179.35967,462.76713 -1.2,-1.3 c -8.5,-9.2 -22.4,-18 -43.6,-17.9 -14.2,0.1 -36.399997,0 -36.399997,0 -15.4,0 -27.9,-12.5 -27.9,-27.9 V 96.167131 c 0,-15.4 12.5,-27.9 27.9,-27.9 H 261.15967 c 15.4,0 27.9,12.5 27.9,27.9 V 415.66713 c 0,15.4 -12.5,27.9 -27.9,27.9 0,0 -22.2,0.1 -36.4,0 -21.2,-0.1 -35.3,8.6 -44,17.7 -0.5,0.5 -1,1 -1.4,1.5 z"
     id="path74"
     inkscape:connector-curvature="0"
     style="fill:none;stroke:#000000;stroke-width:1.5;stroke-miterlimit:3.86369991" /><path
     class="st0"
     d="m 34.959673,84.367131 c 0,0 -0.5,-7.5 -5.9,-8 -5.4,-0.5 -9.6,3.7 -10.2,9.1 -0.5,5.4 4.5,12.3 12.1,12.9 7.5,0.5 11.3,-7.1 11.3,-7.1 2.4,-5.7 0.7,-17.1 -10.3,-23.1 -8.4,-4.5 -24.3999998,-3 -28.4999998,18.9 -2.90000001,15.499999 1.7,27.899999 13.4999998,40.899999 16.5,18.1 29.7,40.6 30.3,62.6 0.7,29.5 -6.4,42.8 -20.1,42.6 -11.4,-0.1 -11.9,-11 -12.5,-15.8 -0.5,-4.8 3.5,-8.8 6.4,-8.7 2.9,0.1 6.6,2.8 6.7,8"
     id="path76"
     inkscape:connector-curvature="0"
     style="fill:none;stroke:#000000;stroke-width:1.5;stroke-miterlimit:3.86369991" /><path
     class="st0"
     d="m 14.659673,215.16713 c 0,0 2.9,12.1 12.3,10.8 9.4,-1.3 11.4,-10.2 10.2,-16.9 -1.2,-6.7 -7.2,-13.7 -18.6,-13.5 -11.3999998,0.1 -18.09999981,9.4 -17.79999981,20.8 0.30000001,11.4 10.19999981,32 27.29999981,32.8 17.2,0.8 31.1,-13.5 31.6,-39.8"
     id="path78"
     inkscape:connector-curvature="0"
     style="fill:none;stroke:#000000;stroke-width:1.5;stroke-miterlimit:3.86369991" /><line
     class="st0"
     x1="12.159673"
     y1="196.56712"
     x2="46.059673"
     y2="179.16713"
     id="line80"
     style="fill:none;stroke:#000000;stroke-width:1.5;stroke-miterlimit:3.86369991" /><path
     class="st0"
     d="m 59.559673,183.56713 c 0,0 2.9,-23.3 -13.9,-46.1 -16.9,-22.8 -20.6,-26.3 -19.6,-40.199999"
     id="path82"
     inkscape:connector-curvature="0"
     style="fill:none;stroke:#000000;stroke-width:1.5;stroke-miterlimit:3.86369991" /><path
     class="st0"
     d="m 41.359673,92.567131 c 0,0 11,-14.6 14.2,-18.4 3.2,-3.8 4.6,-9.4 -1.6,-17.7 -6.2,-8.3 -15.6,-14.7 -22,-8.8 -6.4,5.9 -22.5999998,25.1 -22.5999998,25.1"
     id="path84"
     inkscape:connector-curvature="0"
     style="fill:none;stroke:#000000;stroke-width:1.5;stroke-miterlimit:3.86369991" /><path
     class="st0"
     d="m 49.059673,82.467131 c 0,0 -4.7,6.5 -0.5,16.4 4.3,9.899999 11,13.899999 11,13.899999"
     id="path86"
     inkscape:connector-curvature="0"
     style="fill:none;stroke:#000000;stroke-width:1.5;stroke-miterlimit:3.86369991" /><path
     class="st0"
     d="m 128.75967,16.067131 c 0,0 5.1,-3.8 7.2,1.1 2.1,4.8 -0.8,10.2 -5.9,11.5 -5.1,1.3 -11.3,-0.5 -24.9,-14.2 -13.699997,-13.70000023 -33.199997,-7.8000002 -37.499997,-4.3 -4.3,3.5 -11.8,16.3 -1.3,30 10.4,13.7 19.8,15.5 27.1,9.9 7.199997,-5.6 4.5,-14.5 0.5,-19.8 -4,-5.4 -12.3,-5.1 -14.2,-3.2 -1.9,1.9 -3.7,6.4 1.1,10.5"
     id="path88"
     inkscape:connector-curvature="0"
     style="fill:none;stroke:#000000;stroke-width:1.5;stroke-miterlimit:3.86369991" /><path
     class="st0"
     d="m 97.259673,36.967131 c 0,0 17.499997,12.6 28.199997,12.8 10.7,0.3 23.9,-10.5 24.9,-22.3 1.1,-11.8 1.3,-19.8000002 -9.9,-25.2000002 -11.3,-5.4 -18,4.8 -19.8,9.6000002 -1.9,4.8 -3.8,14.1 4.8,16.8"
     id="path90"
     inkscape:connector-curvature="0"
     style="fill:none;stroke:#000000;stroke-width:1.5;stroke-miterlimit:3.86369991" /><path
     class="st0"
     d="m 134.65967,0.86713077 c 0,0 -12.6,1.50000003 -19,6.40000003 -6.4,4.8000002 -9.2,8.4000002 -9.2,8.4000002"
     id="path92"
     inkscape:connector-curvature="0"
     style="fill:none;stroke:#000000;stroke-width:1.5;stroke-miterlimit:3.86369991" /><path
     class="st0"
     d="m 140.55967,2.3671308 c 0,0 9.1,3 17.7,11.3000002 8.6,8.3 8,9.1 6.2,16.6 -1.9,7.5 -0.8,16.1 -16.6,27.3"
     id="path94"
     inkscape:connector-curvature="0"
     style="fill:none;stroke:#000000;stroke-width:1.5;stroke-miterlimit:3.86369991" /><path
     class="st0"
     d="m 116.65967,57.567131 c 0,0 -8,-3.5 -11.8,-5.6 -3.8,-2.1 -9.099997,-4.4 -9.099997,-4.4"
     id="path96"
     inkscape:connector-curvature="0"
     style="fill:none;stroke:#000000;stroke-width:1.5;stroke-miterlimit:3.86369991" /><path
     class="st0"
     d="m 91.759673,51.167131 c 0,0 3.2,0.8 6.7,6.1"
     id="path98"
     inkscape:connector-curvature="0"
     style="fill:none;stroke:#000000;stroke-width:1.5;stroke-miterlimit:3.86369991" /><path
     class="st0"
     d="m 91.759673,51.167131 c 0,0 -13.4,7.5 -15.8,8.8 -2.4,1.3 -10.5,0.3 -16.6,-6.4 -6.1,-6.7 -8.3,-11.5 -9.4,-15.8 -1.1,-4.3 -0.5,-5.6 4,-11 4.5,-5.4 13.7,-16.6 13.7,-16.6"
     id="path100"
     inkscape:connector-curvature="0"
     style="fill:none;stroke:#000000;stroke-width:1.5;stroke-miterlimit:3.86369991" /><line
     class="st0"
     x1="51.959675"
     y1="43.267132"
     x2="46.159672"
     y2="48.967129"
     id="line102"
     style="fill:none;stroke:#000000;stroke-width:1.5;stroke-miterlimit:3.86369991" /><line
     class="st0"
     x1="65.759682"
     y1="58.36713"
     x2="58.259678"
     y2="65.367134"
     id="line104"
     style="fill:none;stroke:#000000;stroke-width:1.5;stroke-miterlimit:3.86369991" /><path
     class="st0"
     d="m 16.959673,295.56713 c 4.6,-2.1 11.3,-2.4 14.9,3.3 3.7,5.8 1.2,14.9 -1.5,18.4 -2.7,3.6 -10.5,4.7 -15.3,1.3 -4.8,-3.5 -8.2999998,-11.5 -7.4999998,-19.6 1.4,-14.1 11.7999998,-19 22.7999998,-18.2 11,0.8 22.2,13.4 22,26.3 -0.3,12.9 -2.7,24.7 -7.8,37 -5.1,12.3 -16.9,38.9 -21.2,49.9 -4.3,11 -1.3,19 1.9,22 3.2,3 8.6,4 13.4,1.3 4.8,-2.7 6.2,-4.3 6.2,-4.3"
     id="path106"
     inkscape:connector-curvature="0"
     style="fill:none;stroke:#000000;stroke-width:1.5;stroke-miterlimit:3.86369991" /><path
     class="st0"
     d="m 33.059673,418.76713 c 0,0 -1.9,-3.9 -1.9,-8.5 0,-4.6 1.6,-9.1 9.4,-11 7.8,-1.9 12.1,4.3 13.9,11.5 1.9,7.2 0.5,20.9 -13.7,23.3 -14.2,2.4 -22.8,-4.3 -28.7,-18 -5.8999998,-13.7 -4.7999998,-27.9 2.4,-44.8 7.2,-16.9 14.7,-34 20.1,-46.1 5.4,-12.1 0.8,-22.6 -4,-27.9"
     id="path108"
     inkscape:connector-curvature="0"
     style="fill:none;stroke:#000000;stroke-width:1.5;stroke-miterlimit:3.86369991" /><line
     class="st0"
     x1="10.85967"
     y1="313.76712"
     x2="29.859671"
     y2="337.16711"
     id="line110"
     style="fill:none;stroke:#000000;stroke-width:1.5;stroke-miterlimit:3.86369991" /><line
     class="st0"
     x1="43.359669"
     y1="287.16711"
     x2="59.059666"
     y2="306.06714"
     id="line112"
     style="fill:none;stroke:#000000;stroke-width:1.5;stroke-miterlimit:3.86369991" /><path
     class="st0"
     d="m 55.159673,415.36713 c 0,0 3.4,15.5 4.4,19 1.1,3.5 -0.5,16.1 -17.1,17.4 -16.6,1.3 -25.5,-5.1 -28.4,-16.4 -2.9,-11.3 -5.6999998,-36.5 -5.6999998,-36.5"
     id="path114"
     inkscape:connector-curvature="0"
     style="fill:none;stroke:#000000;stroke-width:1.5;stroke-miterlimit:3.86369991" /><path
     class="st0"
     d="m 31.959673,451.56713 c 0,0 9.6,13.4 11.2,16.6 1.6,3.2 12.1,5.4 18.2,0 6.2,-5.4 6.2,-10.4 4,-14.7 -2.1,-4.3 -6.8,-11.5 -6.8,-11.5"
     id="path116"
     inkscape:connector-curvature="0"
     style="fill:none;stroke:#000000;stroke-width:1.5;stroke-miterlimit:3.86369991" /><path
     class="st0"
     d="m 62.359673,447.86713 c 0,0 6.1,-2.4 8.5,5.3 2.4,7.8 -1.3,13.7 -4.3,16.9 -2.9,3.2 -15.8,9.9 -23.9,5.1 -8,-4.8 -4,-14.1 -4,-14.1"
     id="path118"
     inkscape:connector-curvature="0"
     style="fill:none;stroke:#000000;stroke-width:1.5;stroke-miterlimit:3.86369991" /><path
     class="st0"
     d="m 59.959673,443.86713 c 0,0 12.2,-3.6 17.6,6.6 5.4,10.2 1.9,22.5 -5.9,29 -7.8,6.4 -27.6,8 -34.8,1.6 -7.2,-6.4 -8.2,-16.9 -1.7,-25.1"
     id="path120"
     inkscape:connector-curvature="0"
     style="fill:none;stroke:#000000;stroke-width:1.5;stroke-miterlimit:3.86369991" /><path
     class="st0"
     d="m 75.959673,447.16713 c 0,0 8.9,11.1 12.3,16.4 3.5,5.3 4,15 -3.7,23.3 -7.8,8.3 -26,13.9 -34,6.4 -8,-7.5 -15,-13.7 -15,-13.7"
     id="path122"
     inkscape:connector-curvature="0"
     style="fill:none;stroke:#000000;stroke-width:1.5;stroke-miterlimit:3.86369991" /><line
     class="st0"
     x1="85.759682"
     y1="460.06714"
     x2="93.859673"
     y2="454.26712"
     id="line124"
     style="fill:none;stroke:#000000;stroke-width:1.5;stroke-miterlimit:3.86369991" /><path
     class="st0"
     d="m 59.559673,348.36713 c 0,0 -5.3,11.3 -9.6,20.9 -4.3,9.6 -7.5,20.8 -7,29.7"
     id="path126"
     inkscape:connector-curvature="0"
     style="fill:none;stroke:#000000;stroke-width:1.5;stroke-miterlimit:3.86369991" /><line
     class="st0"
     x1="39.859669"
     y1="246.96713"
     x2="39.859669"
     y2="284.36713"
     id="line128"
     style="fill:none;stroke:#000000;stroke-width:1.5;stroke-miterlimit:3.86369991" /><line
     class="st0"
     x1="10.35967"
     y1="239.76712"
     x2="10.35967"
     y2="288.56714"
     id="line130"
     style="fill:none;stroke:#000000;stroke-width:1.5;stroke-miterlimit:3.86369991" /><path
     class="st0"
     d="m 59.559673,248.16713 c 0,0 -9.6,5.6 -12.3,6.7 -2.7,1.1 -7.1,3 -7.4,7.2 -0.3,4.3 2.9,6.4 5.5,8.6 2.7,2.1 14.2,8.6 14.2,8.6"
     id="path132"
     inkscape:connector-curvature="0"
     style="fill:none;stroke:#000000;stroke-width:1.5;stroke-miterlimit:3.86369991" /><path
     class="st0"
     d="m 179.15967,483.16713 c 0,0 -8.8,-29.1 -44.5,-28.9 -14.2,0.1 -36.499997,0 -36.499997,0 -21.3,0 -38.6,-17.3 -38.6,-38.6 V 96.167131 c 0,-21.3 17.3,-38.6 38.6,-38.6 H 261.15967 c 21.3,0 38.6,17.3 38.6,38.6 V 415.66713 c 0,21.3 -17.3,38.6 -38.6,38.6 0,0 -22.2,0.1 -36.4,0 -35.8,-0.2 -45.6,28.9 -45.6,28.9 z"
     id="path134"
     inkscape:connector-curvature="0"
     style="fill:none;stroke:#000000;stroke-width:1.5;stroke-miterlimit:3.86369991" /><path
     class="st0"
     d="m 165.45967,57.567131 c 0,0 2.4,-10.5 4.5,-15.3 2.1,-4.8 9.7,-4.5 9.7,-4.5 0,0 7.5,-0.3 9.6,4.5 2.1,4.8 4.5,15.3 4.5,15.3"
     id="path136"
     inkscape:connector-curvature="0"
     style="fill:none;stroke:#000000;stroke-width:1.5;stroke-miterlimit:3.86369991" /><path
     class="st0"
     d="m 199.05967,15.567131 c 0,0 -4.1,-5.2 -10,-6.6000002 -5.9,-1.3 -9.4,-0.8 -9.4,-0.8 0,0 -3.5,-0.5 -9.4,0.8 -5.9,1.3000002 -10,6.6000002 -10,6.6000002"
     id="path138"
     inkscape:connector-curvature="0"
     style="fill:none;stroke:#000000;stroke-width:1.5;stroke-miterlimit:3.86369991" /></svg>