<?xml version="1.0" encoding="UTF-8" standalone="no"?>
<!-- Generator: Adobe Illustrator 21.0.0, SVG Export Plug-In . SVG Version: 6.00 Build 0)  -->

<svg
   xmlns:dc="http://purl.org/dc/elements/1.1/"
   xmlns:cc="http://creativecommons.org/ns#"
   xmlns:rdf="http://www.w3.org/1999/02/22-rdf-syntax-ns#"
   xmlns:svg="http://www.w3.org/2000/svg"
   xmlns="http://www.w3.org/2000/svg"
   xmlns:xlink="http://www.w3.org/1999/xlink"
   xmlns:sodipodi="http://sodipodi.sourceforge.net/DTD/sodipodi-0.dtd"
   xmlns:inkscape="http://www.inkscape.org/namespaces/inkscape"
   version="1.1"
   id="Слой_1"
   x="0px"
   y="0px"
   viewBox="0 0 359.11935 497.14072"
   xml:space="preserve"
   sodipodi:docname="sweden.svg"
   width="359.11935"
   height="497.14072"
   inkscape:version="0.92.1 r15371"><metadata
     id="metadata165"><rdf:RDF><cc:Work
         rdf:about=""><dc:format>image/svg+xml</dc:format><dc:type
           rdf:resource="http://purl.org/dc/dcmitype/StillImage" /></cc:Work></rdf:RDF></metadata><defs
     id="defs163" /><sodipodi:namedview
     pagecolor="#ffffff"
     bordercolor="#666666"
     borderopacity="1"
     objecttolerance="10"
     gridtolerance="10"
     guidetolerance="10"
     inkscape:pageopacity="0"
     inkscape:pageshadow="2"
     inkscape:window-width="716"
     inkscape:window-height="480"
     id="namedview161"
     showgrid="false"
     inkscape:zoom="0.472"
     inkscape:cx="179.55967"
     inkscape:cy="248.574"
     inkscape:window-x="0"
     inkscape:window-y="0"
     inkscape:window-maximized="0"
     inkscape:current-layer="Слой_1" /><style
     type="text/css"
     id="style2">
	.st0{fill:none;stroke:#0061A6;stroke-width:1.5;stroke-miterlimit:3.8637;}
	.st1{clip-path:url(#SVGID_2_);fill:#0061A6;}
	.st2{clip-path:url(#SVGID_4_);}
	.st3{clip-path:url(#SVGID_6_);fill:#FFEC00;}
	.st4{fill:none;stroke:#FFFFFF;stroke-width:1.5;stroke-miterlimit:3.8637;}
</style><g
     id="g158"
     transform="translate(-70.440327,-1.4332922)"><path
       class="st0"
       d="m 394.6,85.6 c 0,0 0.5,-7.5 5.9,-8 5.4,-0.5 9.6,3.8 10.2,9.1 0.5,5.4 -4.6,12.3 -12.1,12.9 -7.5,0.5 -11.2,-7.1 -11.2,-7.1 -2.4,-5.7 -0.8,-17.1 10.3,-23 8.4,-4.5 24.4,-3 28.5,18.9 2.9,15.5 -1.8,27.9 -13.5,40.8 -16.5,18.1 -29.7,40.6 -30.3,62.5 -0.7,29.4 6.4,42.7 20.1,42.6 11.4,-0.1 11.9,-11 12.5,-15.8 0.5,-4.8 -3.5,-8.8 -6.4,-8.7 -2.9,0.1 -6.6,2.8 -6.7,8"
       id="path4"
       inkscape:connector-curvature="0"
       style="fill:none;stroke:#0061a6;stroke-width:1.5;stroke-miterlimit:3.86369991" /><path
       class="st0"
       d="m 414.9,216.3 c 0,0 -2.9,12.1 -12.3,10.8 -9.4,-1.3 -11.4,-10.2 -10.2,-16.9 1.2,-6.7 7.2,-13.7 18.6,-13.5 11.4,0.1 18.1,9.4 17.8,20.8 -0.3,11.4 -10.2,32 -27.3,32.8 -17.1,0.8 -31.1,-13.5 -31.6,-39.8"
       id="path6"
       inkscape:connector-curvature="0"
       style="fill:none;stroke:#0061a6;stroke-width:1.5;stroke-miterlimit:3.86369991" /><line
       class="st0"
       x1="417.39999"
       y1="197.8"
       x2="383.5"
       y2="180.3"
       id="line8"
       style="fill:none;stroke:#0061a6;stroke-width:1.5;stroke-miterlimit:3.86369991" /><path
       class="st0"
       d="m 370,184.7 c 0,0 -2.9,-23.3 13.9,-46.1 16.9,-22.8 20.6,-26.2 19.6,-40.2"
       id="path10"
       inkscape:connector-curvature="0"
       style="fill:none;stroke:#0061a6;stroke-width:1.5;stroke-miterlimit:3.86369991" /><path
       class="st0"
       d="m 388.2,93.8 c 0,0 -11,-14.6 -14.2,-18.4 -3.2,-3.8 -4.6,-9.4 1.6,-17.7 6.2,-8.3 15.5,-14.7 22,-8.8 6.4,5.9 22.6,25.1 22.6,25.1"
       id="path12"
       inkscape:connector-curvature="0"
       style="fill:none;stroke:#0061a6;stroke-width:1.5;stroke-miterlimit:3.86369991" /><path
       class="st0"
       d="m 380.5,83.7 c 0,0 4.7,6.5 0.5,16.4 -4.3,9.9 -11,13.9 -11,13.9"
       id="path14"
       inkscape:connector-curvature="0"
       style="fill:none;stroke:#0061a6;stroke-width:1.5;stroke-miterlimit:3.86369991" /><path
       class="st0"
       d="m 300.9,17.3 c 0,0 -5.1,-3.8 -7.2,1.1 -2.1,4.8 0.8,10.2 5.9,11.5 5.1,1.3 11.2,-0.5 24.9,-14.2 13.7,-13.7 33.2,-7.8 37.5,-4.3 4.3,3.5 11.8,16.3 1.3,30 -10.4,13.7 -19.8,15.5 -27,9.9 -7.2,-5.6 -4.6,-14.5 -0.5,-19.8 4,-5.4 12.3,-5.1 14.2,-3.2 1.9,1.9 3.7,6.4 -1.1,10.4"
       id="path16"
       inkscape:connector-curvature="0"
       style="fill:none;stroke:#0061a6;stroke-width:1.5;stroke-miterlimit:3.86369991" /><path
       class="st0"
       d="m 332.3,38.3 c 0,0 -17.5,12.6 -28.2,12.8 -10.7,0.3 -23.8,-10.4 -24.9,-22.2 -1.1,-11.8 -1.3,-19.8 9.9,-25.2 11.2,-5.4 17.9,4.8 19.8,9.6 1.9,4.8 3.8,14 -4.8,16.8"
       id="path18"
       inkscape:connector-curvature="0"
       style="fill:none;stroke:#0061a6;stroke-width:1.5;stroke-miterlimit:3.86369991" /><path
       class="st0"
       d="m 295,2.2 c 0,0 12.6,1.5 19,6.3 6.4,4.8 9.2,8.4 9.2,8.4"
       id="path20"
       inkscape:connector-curvature="0"
       style="fill:none;stroke:#0061a6;stroke-width:1.5;stroke-miterlimit:3.86369991" /><path
       class="st0"
       d="m 289.1,3.7 c 0,0 -9.1,2.9 -17.7,11.3 -8.6,8.3 -8,9.1 -6.2,16.6 1.8,7.5 0.8,16.1 16.6,27.3"
       id="path22"
       inkscape:connector-curvature="0"
       style="fill:none;stroke:#0061a6;stroke-width:1.5;stroke-miterlimit:3.86369991" /><path
       class="st0"
       d="m 312.9,58.9 c 0,0 8,-3.5 11.8,-5.6 3.7,-2.1 9.1,-4.4 9.1,-4.4"
       id="path24"
       inkscape:connector-curvature="0"
       style="fill:none;stroke:#0061a6;stroke-width:1.5;stroke-miterlimit:3.86369991" /><path
       class="st0"
       d="m 337.9,52.5 c 0,0 -3.2,0.8 -6.7,6.1"
       id="path26"
       inkscape:connector-curvature="0"
       style="fill:none;stroke:#0061a6;stroke-width:1.5;stroke-miterlimit:3.86369991" /><path
       class="st0"
       d="m 337.9,52.5 c 0,0 13.4,7.5 15.8,8.8 2.4,1.3 10.4,0.3 16.6,-6.4 6.2,-6.7 8.3,-11.5 9.4,-15.8 1.1,-4.3 0.5,-5.6 -4,-11 C 371.1,22.7 362,11.5 362,11.5"
       id="path28"
       inkscape:connector-curvature="0"
       style="fill:none;stroke:#0061a6;stroke-width:1.5;stroke-miterlimit:3.86369991" /><line
       class="st0"
       x1="377.60001"
       y1="44.599998"
       x2="383.39999"
       y2="50.299999"
       id="line30"
       style="fill:none;stroke:#0061a6;stroke-width:1.5;stroke-miterlimit:3.86369991" /><line
       class="st0"
       x1="363.79999"
       y1="59.700001"
       x2="371.29999"
       y2="66.599998"
       id="line32"
       style="fill:none;stroke:#0061a6;stroke-width:1.5;stroke-miterlimit:3.86369991" /><path
       class="st0"
       d="m 412.6,296.7 c -4.6,-2.1 -11.2,-2.4 -14.9,3.3 -3.7,5.8 -1.2,14.9 1.5,18.4 2.7,3.6 10.5,4.7 15.3,1.3 4.8,-3.5 8.3,-11.5 7.5,-19.5 -1.4,-14.1 -11.8,-19 -22.8,-18.2 -11,0.8 -22.2,13.4 -22,26.2 0.3,12.9 2.7,24.6 7.8,37 5.1,12.3 16.9,38.8 21.2,49.8 4.3,11 1.3,19 -1.9,22 -3.2,2.9 -8.6,4 -13.4,1.3 -4.8,-2.7 -6.2,-4.3 -6.2,-4.3"
       id="path34"
       inkscape:connector-curvature="0"
       style="fill:none;stroke:#0061a6;stroke-width:1.5;stroke-miterlimit:3.86369991" /><path
       class="st0"
       d="m 396.5,419.8 c 0,0 1.9,-3.9 1.9,-8.5 0,-4.6 -1.6,-9.1 -9.4,-11 -7.8,-1.9 -12.1,4.3 -13.9,11.5 -1.9,7.2 -0.5,20.9 13.7,23.3 14.2,2.4 22.8,-4.3 28.7,-17.9 5.9,-13.7 4.8,-27.9 -2.4,-44.7 -7.2,-16.9 -14.7,-34 -20.1,-46.1 -5.4,-12 -0.8,-22.5 4,-27.9"
       id="path36"
       inkscape:connector-curvature="0"
       style="fill:none;stroke:#0061a6;stroke-width:1.5;stroke-miterlimit:3.86369991" /><line
       class="st0"
       x1="418.70001"
       y1="314.89999"
       x2="399.70001"
       y2="338.20001"
       id="line38"
       style="fill:none;stroke:#0061a6;stroke-width:1.5;stroke-miterlimit:3.86369991" /><line
       class="st0"
       x1="386.20001"
       y1="288.20001"
       x2="370.5"
       y2="307.10001"
       id="line40"
       style="fill:none;stroke:#0061a6;stroke-width:1.5;stroke-miterlimit:3.86369991" /><path
       class="st0"
       d="m 374.4,416.4 c 0,0 -3.4,15.5 -4.4,19 -1.1,3.5 0.5,16.1 17.1,17.4 16.6,1.3 25.4,-5.1 28.4,-16.3 2.9,-11.3 5.7,-36.4 5.7,-36.4"
       id="path42"
       inkscape:connector-curvature="0"
       style="fill:none;stroke:#0061a6;stroke-width:1.5;stroke-miterlimit:3.86369991" /><path
       class="st0"
       d="m 397.6,452.5 c 0,0 -9.6,13.4 -11.2,16.6 -1.6,3.2 -12.1,5.4 -18.2,0 -6.2,-5.4 -6.2,-10.4 -4,-14.7 2.1,-4.3 6.8,-11.5 6.8,-11.5"
       id="path44"
       inkscape:connector-curvature="0"
       style="fill:none;stroke:#0061a6;stroke-width:1.5;stroke-miterlimit:3.86369991" /><path
       class="st0"
       d="m 367.2,448.8 c 0,0 -6.1,-2.4 -8.5,5.3 -2.4,7.8 1.3,13.7 4.3,16.9 2.9,3.2 15.8,9.9 23.8,5.1 8,-4.8 4,-14.1 4,-14.1"
       id="path46"
       inkscape:connector-curvature="0"
       style="fill:none;stroke:#0061a6;stroke-width:1.5;stroke-miterlimit:3.86369991" /><path
       class="st0"
       d="m 369.6,444.9 c 0,0 -12.2,-3.6 -17.6,6.6 -5.4,10.2 -1.9,22.5 5.9,28.9 7.8,6.4 27.6,8 34.8,1.6 7.2,-6.4 8.1,-16.9 1.7,-25"
       id="path48"
       inkscape:connector-curvature="0"
       style="fill:none;stroke:#0061a6;stroke-width:1.5;stroke-miterlimit:3.86369991" /><path
       class="st0"
       d="m 353.7,448.2 c 0,0 -8.8,11.1 -12.3,16.4 -3.5,5.4 -4,15 3.7,23.3 7.8,8.3 26,13.9 34,6.4 8,-7.5 15,-13.7 15,-13.7"
       id="path50"
       inkscape:connector-curvature="0"
       style="fill:none;stroke:#0061a6;stroke-width:1.5;stroke-miterlimit:3.86369991" /><line
       class="st0"
       x1="343.79999"
       y1="461"
       x2="335.70001"
       y2="455.20001"
       id="line52"
       style="fill:none;stroke:#0061a6;stroke-width:1.5;stroke-miterlimit:3.86369991" /><path
       class="st0"
       d="m 370,349.4 c 0,0 5.4,11.3 9.6,20.9 4.3,9.6 7.5,20.8 7,29.7"
       id="path54"
       inkscape:connector-curvature="0"
       style="fill:none;stroke:#0061a6;stroke-width:1.5;stroke-miterlimit:3.86369991" /><line
       class="st0"
       x1="389.70001"
       y1="248.10001"
       x2="389.70001"
       y2="285.39999"
       id="line56"
       style="fill:none;stroke:#0061a6;stroke-width:1.5;stroke-miterlimit:3.86369991" /><line
       class="st0"
       x1="419.10001"
       y1="240.89999"
       x2="419.10001"
       y2="289.70001"
       id="line58"
       style="fill:none;stroke:#0061a6;stroke-width:1.5;stroke-miterlimit:3.86369991" /><path
       class="st0"
       d="m 370,249.3 c 0,0 9.6,5.6 12.3,6.7 2.7,1.1 7.1,2.9 7.4,7.2 0.4,4.3 -2.9,6.4 -5.5,8.6 -2.7,2.1 -14.2,8.6 -14.2,8.6"
       id="path60"
       inkscape:connector-curvature="0"
       style="fill:none;stroke:#0061a6;stroke-width:1.5;stroke-miterlimit:3.86369991" /><g
       id="g70"><defs
         id="defs63"><path
           id="SVGID_1_"
           d="m 249.7,463.7 -1.2,-1.3 c -8.5,-9.2 -22.4,-18 -43.6,-17.9 -14.2,0.1 -36.4,0 -36.4,0 -15.4,0 -27.9,-12.5 -27.9,-27.9 V 97.4 c 0,-15.4 12.5,-27.9 27.9,-27.9 h 80.9 81.9 c 15.4,0 27.8,12.5 27.8,27.9 v 319.2 c 0,15.4 -12.5,27.9 -27.9,27.9 0,0 -22.2,0.1 -36.4,0 -21.2,-0.1 -35.3,8.6 -44,17.7 -0.2,0.5 -0.6,1 -1.1,1.5 z"
           inkscape:connector-curvature="0" /></defs><clipPath
         id="SVGID_2_"><use
           xlink:href="#SVGID_1_"
           style="overflow:visible"
           id="use65"
           x="0"
           y="0"
           width="100%"
           height="100%" /></clipPath><rect
         x="124.6"
         y="53.799999"
         class="st1"
         width="259.79999"
         height="409.20001"
         clip-path="url(#SVGID_2_)"
         id="rect68"
         style="fill:#0061a6" /></g><g
       id="g90"><defs
         id="defs73"><path
           id="SVGID_3_"
           d="m 249.7,463.7 -1.2,-1.3 c -8.5,-9.2 -22.4,-18 -43.6,-17.9 -14.2,0.1 -36.4,0 -36.4,0 -15.4,0 -27.9,-12.5 -27.9,-27.9 V 97.4 c 0,-15.4 12.5,-27.9 27.9,-27.9 h 80.9 81.9 c 15.4,0 27.8,12.5 27.8,27.9 v 319.2 c 0,15.4 -12.5,27.9 -27.9,27.9 0,0 -22.2,0.1 -36.4,0 -21.2,-0.1 -35.3,8.6 -44,17.7 -0.2,0.5 -0.6,1 -1.1,1.5 z"
           inkscape:connector-curvature="0" /></defs><clipPath
         id="SVGID_4_"><use
           xlink:href="#SVGID_3_"
           style="overflow:visible"
           id="use75"
           x="0"
           y="0"
           width="100%"
           height="100%" /></clipPath><g
         class="st2"
         clip-path="url(#SVGID_4_)"
         id="g88"><defs
           id="defs79"><rect
             id="SVGID_5_"
             x="124.6"
             y="53.799999"
             width="259.79999"
             height="409.20001" /></defs><clipPath
           id="SVGID_6_"><use
             xlink:href="#SVGID_5_"
             style="overflow:visible"
             id="use81"
             x="0"
             y="0"
             width="100%"
             height="100%" /></clipPath><rect
           x="120.5"
           y="248.8"
           class="st3"
           width="259.70001"
           height="32.200001"
           clip-path="url(#SVGID_6_)"
           id="rect84"
           style="fill:#ffec00" /><rect
           x="231.60001"
           y="48.200001"
           class="st3"
           width="37.5"
           height="433.39999"
           clip-path="url(#SVGID_6_)"
           id="rect86"
           style="fill:#ffec00" /></g></g><path
       class="st4"
       d="m 249.7,463.7 -1.2,-1.3 c -8.5,-9.2 -22.4,-18 -43.6,-17.9 -14.2,0.1 -36.4,0 -36.4,0 -15.4,0 -27.9,-12.5 -27.9,-27.9 V 97.4 c 0,-15.4 12.5,-27.9 27.9,-27.9 h 162.8 c 15.4,0 27.8,12.5 27.8,27.9 v 319.2 c 0,15.4 -12.5,27.9 -27.9,27.9 0,0 -22.2,0.1 -36.4,0 -21.2,-0.1 -35.3,8.6 -44,17.7 -0.2,0.5 -0.6,1 -1.1,1.5 z"
       id="path92"
       inkscape:connector-curvature="0"
       style="fill:none;stroke:#ffffff;stroke-width:1.5;stroke-miterlimit:3.86369991" /><path
       class="st0"
       d="m 105.4,85.6 c 0,0 -0.5,-7.5 -5.9,-8 -5.4,-0.5 -9.6,3.8 -10.2,9.1 -0.5,5.4 4.6,12.3 12.1,12.9 7.5,0.5 11.2,-7.1 11.2,-7.1 2.4,-5.7 0.8,-17.1 -10.3,-23 -8.4,-4.5 -24.4,-3 -28.5,18.9 -2.9,15.5 1.8,27.9 13.5,40.8 16.5,18.1 29.7,40.6 30.3,62.5 0.7,29.4 -6.4,42.7 -20.1,42.6 -11.4,-0.1 -11.9,-11 -12.5,-15.8 -0.5,-4.8 3.5,-8.8 6.4,-8.7 2.9,0.1 6.6,2.8 6.7,8"
       id="path94"
       inkscape:connector-curvature="0"
       style="fill:none;stroke:#0061a6;stroke-width:1.5;stroke-miterlimit:3.86369991" /><path
       class="st0"
       d="m 85.1,216.3 c 0,0 2.9,12.1 12.3,10.8 9.4,-1.3 11.4,-10.2 10.2,-16.9 -1.2,-6.7 -7.2,-13.7 -18.6,-13.5 -11.4,0.1 -18.1,9.4 -17.8,20.8 0.3,11.4 10.2,32 27.3,32.8 17.1,0.8 31.1,-13.5 31.6,-39.8"
       id="path96"
       inkscape:connector-curvature="0"
       style="fill:none;stroke:#0061a6;stroke-width:1.5;stroke-miterlimit:3.86369991" /><line
       class="st0"
       x1="82.599998"
       y1="197.8"
       x2="116.5"
       y2="180.3"
       id="line98"
       style="fill:none;stroke:#0061a6;stroke-width:1.5;stroke-miterlimit:3.86369991" /><path
       class="st0"
       d="m 130,184.7 c 0,0 2.9,-23.3 -13.9,-46.1 C 99.2,115.8 95.5,112.4 96.6,98.4"
       id="path100"
       inkscape:connector-curvature="0"
       style="fill:none;stroke:#0061a6;stroke-width:1.5;stroke-miterlimit:3.86369991" /><path
       class="st0"
       d="m 111.8,93.8 c 0,0 11,-14.6 14.2,-18.4 3.2,-3.8 4.6,-9.4 -1.6,-17.7 C 118.2,49.4 108.9,43 102.4,48.9 96,54.8 79.9,74.1 79.9,74.1"
       id="path102"
       inkscape:connector-curvature="0"
       style="fill:none;stroke:#0061a6;stroke-width:1.5;stroke-miterlimit:3.86369991" /><path
       class="st0"
       d="m 119.5,83.7 c 0,0 -4.7,6.5 -0.5,16.4 4.3,9.9 11,13.9 11,13.9"
       id="path104"
       inkscape:connector-curvature="0"
       style="fill:none;stroke:#0061a6;stroke-width:1.5;stroke-miterlimit:3.86369991" /><path
       class="st0"
       d="m 199.1,17.3 c 0,0 5.1,-3.8 7.2,1.1 2.1,4.8 -0.8,10.2 -5.9,11.5 -5.1,1.3 -11.2,-0.5 -24.9,-14.2 C 161.8,2 142.3,7.9 138,11.4 c -4.3,3.5 -11.8,16.3 -1.3,30 10.4,13.7 19.8,15.5 27,9.9 7.2,-5.6 4.6,-14.5 0.5,-19.8 -4,-5.4 -12.3,-5.1 -14.2,-3.2 -1.9,1.9 -3.7,6.4 1.1,10.4"
       id="path106"
       inkscape:connector-curvature="0"
       style="fill:none;stroke:#0061a6;stroke-width:1.5;stroke-miterlimit:3.86369991" /><path
       class="st0"
       d="m 167.7,38.3 c 0,0 17.5,12.6 28.2,12.8 10.7,0.3 23.8,-10.4 24.9,-22.2 1.1,-11.8 1.3,-19.8 -9.9,-25.2 -11.2,-5.4 -17.9,4.8 -19.8,9.6 -1.9,4.8 -3.8,14 4.8,16.8"
       id="path108"
       inkscape:connector-curvature="0"
       style="fill:none;stroke:#0061a6;stroke-width:1.5;stroke-miterlimit:3.86369991" /><path
       class="st0"
       d="m 205,2.2 c 0,0 -12.6,1.5 -19,6.3 -6.4,4.8 -9.2,8.4 -9.2,8.4"
       id="path110"
       inkscape:connector-curvature="0"
       style="fill:none;stroke:#0061a6;stroke-width:1.5;stroke-miterlimit:3.86369991" /><path
       class="st0"
       d="m 210.9,3.7 c 0,0 9.1,2.9 17.7,11.3 8.6,8.3 8,9.1 6.2,16.6 -1.9,7.5 -0.8,16.1 -16.6,27.3"
       id="path112"
       inkscape:connector-curvature="0"
       style="fill:none;stroke:#0061a6;stroke-width:1.5;stroke-miterlimit:3.86369991" /><path
       class="st0"
       d="m 187.1,58.9 c 0,0 -8,-3.5 -11.8,-5.6 -3.8,-2.1 -9.1,-4.4 -9.1,-4.4"
       id="path114"
       inkscape:connector-curvature="0"
       style="fill:none;stroke:#0061a6;stroke-width:1.5;stroke-miterlimit:3.86369991" /><path
       class="st0"
       d="m 162.1,52.5 c 0,0 3.2,0.8 6.7,6.1"
       id="path116"
       inkscape:connector-curvature="0"
       style="fill:none;stroke:#0061a6;stroke-width:1.5;stroke-miterlimit:3.86369991" /><path
       class="st0"
       d="m 162.1,52.5 c 0,0 -13.4,7.5 -15.8,8.8 -2.4,1.3 -10.4,0.3 -16.6,-6.4 -6.2,-6.7 -8.3,-11.5 -9.4,-15.8 -1.1,-4.3 -0.5,-5.6 4,-11 4.6,-5.4 13.7,-16.6 13.7,-16.6"
       id="path118"
       inkscape:connector-curvature="0"
       style="fill:none;stroke:#0061a6;stroke-width:1.5;stroke-miterlimit:3.86369991" /><line
       class="st0"
       x1="122.4"
       y1="44.599998"
       x2="116.6"
       y2="50.299999"
       id="line120"
       style="fill:none;stroke:#0061a6;stroke-width:1.5;stroke-miterlimit:3.86369991" /><line
       class="st0"
       x1="136.2"
       y1="59.700001"
       x2="128.7"
       y2="66.599998"
       id="line122"
       style="fill:none;stroke:#0061a6;stroke-width:1.5;stroke-miterlimit:3.86369991" /><path
       class="st0"
       d="m 87.4,296.7 c 4.5,-2.1 11.2,-2.4 14.9,3.3 3.7,5.8 1.2,14.9 -1.5,18.4 -2.7,3.6 -10.5,4.7 -15.3,1.3 -4.8,-3.5 -8.3,-11.5 -7.5,-19.5 1.4,-14.1 11.8,-19 22.8,-18.2 11,0.8 22.2,13.4 22,26.2 -0.3,12.9 -2.7,24.6 -7.8,37 -5.1,12.3 -16.9,38.8 -21.2,49.8 -4.3,11 -1.3,19 1.9,22 3.2,2.9 8.6,4 13.4,1.3 4.8,-2.7 6.2,-4.3 6.2,-4.3"
       id="path124"
       inkscape:connector-curvature="0"
       style="fill:none;stroke:#0061a6;stroke-width:1.5;stroke-miterlimit:3.86369991" /><path
       class="st0"
       d="m 103.5,419.8 c 0,0 -1.9,-3.9 -1.9,-8.5 0,-4.6 1.6,-9.1 9.4,-11 7.8,-1.9 12.1,4.3 13.9,11.5 1.9,7.2 0.5,20.9 -13.7,23.3 -14.2,2.4 -22.8,-4.3 -28.7,-17.9 -5.9,-13.7 -4.8,-27.9 2.4,-44.7 7.2,-16.9 14.7,-34 20.1,-46.1 5.4,-12 0.8,-22.5 -4,-27.9"
       id="path126"
       inkscape:connector-curvature="0"
       style="fill:none;stroke:#0061a6;stroke-width:1.5;stroke-miterlimit:3.86369991" /><line
       class="st0"
       x1="81.300003"
       y1="314.89999"
       x2="100.3"
       y2="338.20001"
       id="line128"
       style="fill:none;stroke:#0061a6;stroke-width:1.5;stroke-miterlimit:3.86369991" /><line
       class="st0"
       x1="113.8"
       y1="288.20001"
       x2="129.5"
       y2="307.10001"
       id="line130"
       style="fill:none;stroke:#0061a6;stroke-width:1.5;stroke-miterlimit:3.86369991" /><path
       class="st0"
       d="m 125.6,416.4 c 0,0 3.4,15.5 4.4,19 1.1,3.5 -0.5,16.1 -17.1,17.4 -16.6,1.3 -25.4,-5.1 -28.4,-16.3 -2.9,-11.3 -5.7,-36.4 -5.7,-36.4"
       id="path132"
       inkscape:connector-curvature="0"
       style="fill:none;stroke:#0061a6;stroke-width:1.5;stroke-miterlimit:3.86369991" /><path
       class="st0"
       d="m 102.4,452.5 c 0,0 9.6,13.4 11.2,16.6 1.6,3.2 12.1,5.4 18.2,0 6.2,-5.4 6.2,-10.4 4,-14.7 -2.1,-4.3 -6.8,-11.5 -6.8,-11.5"
       id="path134"
       inkscape:connector-curvature="0"
       style="fill:none;stroke:#0061a6;stroke-width:1.5;stroke-miterlimit:3.86369991" /><path
       class="st0"
       d="m 132.8,448.8 c 0,0 6.1,-2.4 8.5,5.3 2.4,7.8 -1.3,13.7 -4.3,16.9 -2.9,3.2 -15.8,9.9 -23.8,5.1 -8,-4.8 -4,-14.1 -4,-14.1"
       id="path136"
       inkscape:connector-curvature="0"
       style="fill:none;stroke:#0061a6;stroke-width:1.5;stroke-miterlimit:3.86369991" /><path
       class="st0"
       d="m 130.4,444.9 c 0,0 12.2,-3.6 17.6,6.6 5.4,10.2 1.9,22.5 -5.9,28.9 -7.8,6.4 -27.6,8 -34.8,1.6 -7.2,-6.4 -8.2,-16.9 -1.7,-25"
       id="path138"
       inkscape:connector-curvature="0"
       style="fill:none;stroke:#0061a6;stroke-width:1.5;stroke-miterlimit:3.86369991" /><path
       class="st0"
       d="m 146.3,448.2 c 0,0 8.8,11.1 12.3,16.4 3.5,5.4 4,15 -3.7,23.3 -7.8,8.3 -26,13.9 -34,6.4 -8,-7.5 -15,-13.7 -15,-13.7"
       id="path140"
       inkscape:connector-curvature="0"
       style="fill:none;stroke:#0061a6;stroke-width:1.5;stroke-miterlimit:3.86369991" /><line
       class="st0"
       x1="156.2"
       y1="461"
       x2="164.3"
       y2="455.20001"
       id="line142"
       style="fill:none;stroke:#0061a6;stroke-width:1.5;stroke-miterlimit:3.86369991" /><path
       class="st0"
       d="m 130,349.4 c 0,0 -5.4,11.3 -9.6,20.9 -4.3,9.6 -7.5,20.8 -7,29.7"
       id="path144"
       inkscape:connector-curvature="0"
       style="fill:none;stroke:#0061a6;stroke-width:1.5;stroke-miterlimit:3.86369991" /><line
       class="st0"
       x1="110.3"
       y1="248.10001"
       x2="110.3"
       y2="285.39999"
       id="line146"
       style="fill:none;stroke:#0061a6;stroke-width:1.5;stroke-miterlimit:3.86369991" /><line
       class="st0"
       x1="80.900002"
       y1="240.89999"
       x2="80.900002"
       y2="289.70001"
       id="line148"
       style="fill:none;stroke:#0061a6;stroke-width:1.5;stroke-miterlimit:3.86369991" /><path
       class="st0"
       d="m 130,249.3 c 0,0 -9.6,5.6 -12.3,6.7 -2.7,1.1 -7.1,2.9 -7.4,7.2 -0.3,4.3 2.9,6.4 5.5,8.6 2.7,2.1 14.2,8.6 14.2,8.6"
       id="path150"
       inkscape:connector-curvature="0"
       style="fill:none;stroke:#0061a6;stroke-width:1.5;stroke-miterlimit:3.86369991" /><path
       class="st0"
       d="m 249.5,484.1 c 0,0 -8.7,-29.1 -44.5,-28.9 -14.2,0.1 -36.4,0 -36.4,0 -21.3,0 -38.6,-17.3 -38.6,-38.6 V 97.4 c 0,-21.3 17.3,-38.6 38.6,-38.6 h 162.8 c 21.3,0 38.6,17.3 38.6,38.6 v 319.2 c 0,21.3 -17.3,38.6 -38.6,38.6 0,0 -22.2,0.1 -36.4,0 -35.7,-0.1 -45.5,28.9 -45.5,28.9 z"
       id="path152"
       inkscape:connector-curvature="0"
       style="fill:none;stroke:#0061a6;stroke-width:1.5;stroke-miterlimit:3.86369991" /><path
       class="st0"
       d="m 235.8,58.9 c 0,0 2.4,-10.4 4.6,-15.3 2.1,-4.8 9.6,-4.6 9.6,-4.6 0,0 7.5,-0.3 9.6,4.6 2.1,4.8 4.6,15.3 4.6,15.3"
       id="path154"
       inkscape:connector-curvature="0"
       style="fill:none;stroke:#0061a6;stroke-width:1.5;stroke-miterlimit:3.86369991" /><path
       class="st0"
       d="m 269.4,16.9 c 0,0 -4.1,-5.2 -10,-6.5 C 253.5,9 250,9.6 250,9.6 c 0,0 -3.5,-0.5 -9.4,0.8 -5.9,1.3 -10,6.5 -10,6.5"
       id="path156"
       inkscape:connector-curvature="0"
       style="fill:none;stroke:#0061a6;stroke-width:1.5;stroke-miterlimit:3.86369991" /></g></svg>