<?xml version="1.0" encoding="utf-8"?>
<!-- Generator: Adobe Illustrator 21.0.0, SVG Export Plug-In . SVG Version: 6.00 Build 0)  -->
<svg version="1.1"
	 id="Слой_1" inkscape:version="0.92.1 r15371" sodipodi:docname="spain.svg" xmlns:cc="http://creativecommons.org/ns#" xmlns:dc="http://purl.org/dc/elements/1.1/" xmlns:inkscape="http://www.inkscape.org/namespaces/inkscape" xmlns:rdf="http://www.w3.org/1999/02/22-rdf-syntax-ns#" xmlns:sodipodi="http://sodipodi.sourceforge.net/DTD/sodipodi-0.dtd" xmlns:svg="http://www.w3.org/2000/svg"
	 xmlns="http://www.w3.org/2000/svg" xmlns:xlink="http://www.w3.org/1999/xlink" x="0px" y="0px" viewBox="0 0 359.3 497.5"
	 style="enable-background:new 0 0 359.3 497.5;" xml:space="preserve">
<style type="text/css">
	.st0{fill:none;stroke:#0A9B9B;stroke-width:1.5;stroke-miterlimit:3.8637;}
	.st1{clip-path:url(#SVGID_2_);fill:#FFFFFF;stroke:#0A9B9B;stroke-miterlimit:10;}
	.st2{fill:#FFFFFF;stroke:#0A9B9B;stroke-width:1.5;stroke-miterlimit:3.8637;}
	.st3{fill:#0A9B9B;stroke:#0A9B9B;stroke-miterlimit:10;}
	.st4{fill:#FFFF00;}
</style>
<sodipodi:namedview  bordercolor="#666666" borderopacity="1" gridtolerance="10" guidetolerance="10" id="namedview141" inkscape:current-layer="Слой_1" inkscape:cx="167.76793" inkscape:cy="319.2473" inkscape:pageopacity="0" inkscape:pageshadow="2" inkscape:window-height="480" inkscape:window-maximized="0" inkscape:window-width="716" inkscape:window-x="0" inkscape:window-y="0" inkscape:zoom="0.472" objecttolerance="10" pagecolor="#ffffff" showgrid="false">
	</sodipodi:namedview>
<path id="path4" inkscape:connector-curvature="0" class="st0" d="M324.4,84.4c0,0,0.5-7.5,5.9-8s9.6,3.7,10.2,9.1
	c0.5,5.4-4.5,12.3-12.1,12.9c-7.5,0.5-11.2-7.1-11.2-7.1c-2.4-5.7-0.8-17.1,10.3-23.1c8.4-4.5,24.4-3,28.6,18.9
	c2.9,15.5-1.8,27.9-13.5,40.9c-16.5,18.1-29.8,40.6-30.3,62.6c-0.7,29.5,6.4,42.8,20.1,42.6c11.4-0.1,11.9-11,12.5-15.8
	c0.5-4.8-3.5-8.8-6.4-8.7s-6.6,2.8-6.7,8"/>
<path id="path6" inkscape:connector-curvature="0" class="st0" d="M344.7,215.2c0,0-2.9,12.1-12.3,10.8s-11.4-10.2-10.2-16.9
	c1.2-6.7,7.2-13.7,18.6-13.5c11.4,0.1,18.1,9.4,17.8,20.8c-0.3,11.4-10.2,32-27.3,32.8c-17.1,0.8-31.1-13.5-31.6-39.8"/>
<line id="line8" class="st0" x1="347.2" y1="196.6" x2="313.3" y2="179.2"/>
<path id="path10" inkscape:connector-curvature="0" class="st0" d="M299.8,183.6c0,0-2.9-23.3,13.9-46.1
	c16.9-22.8,20.6-26.3,19.6-40.2"/>
<path id="path12" inkscape:connector-curvature="0" class="st0" d="M318,92.6c0,0-11-14.6-14.2-18.4s-4.5-9.4,1.6-17.7
	c6.2-8.3,15.5-14.7,22-8.8c6.4,5.9,22.6,25.1,22.6,25.1"/>
<path id="path14" inkscape:connector-curvature="0" class="st0" d="M310.3,82.5c0,0,4.8,6.5,0.5,16.4s-11,13.9-11,13.9"/>
<path id="path16" inkscape:connector-curvature="0" class="st0" d="M230.6,16.1c0,0-5.1-3.8-7.2,1.1c-2.1,4.8,0.8,10.2,5.9,11.5
	c5.1,1.3,11.3-0.5,24.9-14.2c13.7-13.7,33.2-7.8,37.5-4.3s11.8,16.3,1.3,30s-19.8,15.5-27.1,9.9c-7.2-5.6-4.6-14.5-0.5-19.8
	c4-5.4,12.3-5.1,14.2-3.2c1.9,1.9,3.7,6.4-1.1,10.5"/>
<path id="path18" inkscape:connector-curvature="0" class="st0" d="M262.1,37c0,0-17.5,12.6-28.2,12.8C223.2,50.1,210,39.3,209,27.5
	c-1.1-11.8-1.3-19.8,9.9-25.2s18,4.8,19.8,9.6c1.9,4.8,3.8,14.1-4.8,16.8"/>
<path id="path20" inkscape:connector-curvature="0" class="st0" d="M224.7,0.9c0,0,12.6,1.5,19,6.4c6.4,4.8,9.2,8.4,9.2,8.4"/>
<path id="path22" inkscape:connector-curvature="0" class="st0" d="M218.8,2.4c0,0-9.1,3-17.7,11.3c-8.6,8.3-8,9.1-6.2,16.6
	c1.9,7.5,0.8,16.1,16.6,27.3"/>
<path id="path24" inkscape:connector-curvature="0" class="st0" d="M242.7,57.6c0,0,8-3.5,11.8-5.6c3.7-2.1,9.1-4.4,9.1-4.4"/>
<path id="path26" inkscape:connector-curvature="0" class="st0" d="M267.6,51.2c0,0-3.2,0.8-6.7,6.1"/>
<path id="path28" inkscape:connector-curvature="0" class="st0" d="M267.6,51.2c0,0,13.4,7.5,15.8,8.8s10.5,0.3,16.6-6.4
	c6.2-6.7,8.3-11.5,9.4-15.8s0.5-5.6-4-11c-4.6-5.4-13.7-16.6-13.7-16.6"/>
<line id="line30" class="st0" x1="307.4" y1="43.3" x2="313.2" y2="49"/>
<line id="line32" class="st0" x1="293.6" y1="58.4" x2="301.1" y2="65.4"/>
<path id="path34" inkscape:connector-curvature="0" class="st0" d="M342.4,295.6c-4.5-2.1-11.3-2.4-14.9,3.3
	c-3.7,5.8-1.2,14.9,1.5,18.4c2.7,3.6,10.5,4.7,15.3,1.3c4.8-3.5,8.3-11.5,7.5-19.6c-1.4-14.1-11.8-19-22.8-18.2s-22.3,13.4-22,26.3
	s2.7,24.7,7.8,37c5.1,12.3,16.9,38.9,21.2,49.9c4.3,11,1.3,19-1.9,22c-3.2,3-8.6,4-13.4,1.3s-6.2-4.3-6.2-4.3"/>
<path id="path36" inkscape:connector-curvature="0" class="st0" d="M326.3,418.8c0,0,1.9-3.9,1.9-8.5s-1.6-9.1-9.4-11
	s-12.1,4.3-13.9,11.5c-1.9,7.2-0.5,20.9,13.7,23.3s22.8-4.3,28.7-18c5.9-13.7,4.8-27.9-2.4-44.8c-7.2-16.9-14.7-34-20.1-46.1
	s-0.8-22.6,4-27.9"/>
<line id="line38" class="st0" x1="348.5" y1="313.8" x2="329.5" y2="337.2"/>
<line id="line40" class="st0" x1="316" y1="287.2" x2="300.3" y2="306.1"/>
<path id="path42" inkscape:connector-curvature="0" class="st0" d="M304.2,415.4c0,0-3.4,15.5-4.4,19c-1.1,3.5,0.5,16.1,17.2,17.4
	c16.6,1.3,25.5-5.1,28.4-16.4s5.7-36.5,5.7-36.5"/>
<path id="path44" inkscape:connector-curvature="0" class="st0" d="M327.4,451.6c0,0-9.6,13.4-11.3,16.6c-1.6,3.2-12.1,5.4-18.2,0
	c-6.2-5.4-6.2-10.4-4-14.7c2.1-4.3,6.8-11.5,6.8-11.5"/>
<path id="path46" inkscape:connector-curvature="0" class="st0" d="M297,447.9c0,0-6.1-2.4-8.5,5.3c-2.4,7.8,1.3,13.7,4.3,16.9
	c2.9,3.2,15.8,9.9,23.9,5.1c8-4.8,4-14.1,4-14.1"/>
<path id="path48" inkscape:connector-curvature="0" class="st0" d="M299.4,443.9c0,0-12.2-3.6-17.6,6.6s-1.9,22.5,5.9,29
	c7.8,6.4,27.6,8,34.8,1.6c7.2-6.4,8.2-16.9,1.7-25.1"/>
<path id="path50" inkscape:connector-curvature="0" class="st0" d="M283.4,447.2c0,0-8.9,11.1-12.3,16.4c-3.5,5.3-4,15,3.7,23.3
	c7.8,8.3,26,13.9,34,6.4s15-13.7,15-13.7"/>
<line id="line52" class="st0" x1="273.6" y1="460.1" x2="265.5" y2="454.3"/>
<path id="path54" inkscape:connector-curvature="0" class="st0" d="M299.8,348.4c0,0,5.4,11.3,9.6,20.9c4.3,9.6,7.5,20.8,7,29.7"/>
<line id="line56" class="st0" x1="319.5" y1="247" x2="319.5" y2="284.4"/>
<line id="line58" class="st0" x1="349" y1="239.8" x2="349" y2="288.6"/>
<path id="path60" inkscape:connector-curvature="0" class="st0" d="M299.8,248.2c0,0,9.6,5.6,12.3,6.7c2.7,1.1,7.1,3,7.4,7.2
	c0.4,4.3-2.9,6.4-5.5,8.6c-2.7,2.1-14.2,8.6-14.2,8.6"/>
<g id="g72" transform="translate(-70.340327,-1.1328692)">
	<g>
		<defs>
			<path id="SVGID_1_" d="M249.7,463.9l-1.2-1.3c-8.5-9.2-22.4-18-43.6-17.9c-14.2,0.1-36.4,0-36.4,0c-15.4,0-27.9-12.5-27.9-27.9
				V97.3c0-15.4,12.5-27.9,27.9-27.9h81h82c15.4,0,27.9,12.5,27.9,27.9v319.5c0,15.4-12.5,27.9-27.9,27.9c0,0-22.2,0.1-36.4,0
				c-21.2-0.1-35.3,8.6-44,17.7C250.6,462.9,250.1,463.4,249.7,463.9L249.7,463.9z"/>
		</defs>
		<clipPath id="SVGID_2_">
			<use xlink:href="#SVGID_1_"  style="overflow:visible;"/>
		</clipPath>
		<rect id="rect68" x="124.5" y="53.6" class="st1" width="260" height="409.5"/>
		<use xlink:href="#SVGID_1_"  style="overflow:visible;fill:none;stroke:#0A9B9B;stroke-miterlimit:10;"/>
	</g>
	<g>
		<defs>
			<path id="SVGID_3_" d="M249.7,463.9l-1.2-1.3c-8.5-9.2-22.4-18-43.6-17.9c-14.2,0.1-36.4,0-36.4,0c-15.4,0-27.9-12.5-27.9-27.9
				V97.3c0-15.4,12.5-27.9,27.9-27.9h81h82c15.4,0,27.9,12.5,27.9,27.9v319.5c0,15.4-12.5,27.9-27.9,27.9c0,0-22.2,0.1-36.4,0
				c-21.2-0.1-35.3,8.6-44,17.7C250.6,462.9,250.1,463.4,249.7,463.9L249.7,463.9z"/>
		</defs>
		<clipPath id="SVGID_4_">
			<use xlink:href="#SVGID_3_"  style="overflow:visible;"/>
		</clipPath>
		<use xlink:href="#SVGID_3_"  style="overflow:visible;fill:none;stroke:#0A9B9B;stroke-miterlimit:10;"/>
	</g>
</g>
<path id="path76" inkscape:connector-curvature="0" class="st0" d="M35,84.4c0,0-0.5-7.5-5.9-8s-9.6,3.7-10.2,9.1
	c-0.5,5.4,4.5,12.3,12.1,12.9c7.5,0.5,11.3-7.1,11.3-7.1C44.7,85.6,43,74.2,32,68.2c-8.4-4.5-24.4-3-28.5,18.9
	C0.6,102.6,5.2,115,17,128c16.5,18.1,29.7,40.6,30.3,62.6c0.7,29.5-6.4,42.8-20.1,42.6c-11.4-0.1-11.9-11-12.5-15.8
	c-0.5-4.8,3.5-8.8,6.4-8.7s6.6,2.8,6.7,8"/>
<path id="path78" inkscape:connector-curvature="0" class="st0" d="M14.7,215.2c0,0,2.9,12.1,12.3,10.8s11.4-10.2,10.2-16.9
	s-7.2-13.7-18.6-13.5C7.2,195.7,0.5,205,0.8,216.4c0.3,11.4,10.2,32,27.3,32.8c17.2,0.8,31.1-13.5,31.6-39.8"/>
<line id="line80" class="st0" x1="12.2" y1="196.6" x2="46.1" y2="179.2"/>
<path id="path82" inkscape:connector-curvature="0" class="st0" d="M59.6,183.6c0,0,2.9-23.3-13.9-46.1
	c-16.9-22.8-20.6-26.3-19.6-40.2"/>
<path id="path84" inkscape:connector-curvature="0" class="st0" d="M41.4,92.6c0,0,11-14.6,14.2-18.4s4.6-9.4-1.6-17.7
	s-15.6-14.7-22-8.8S9.4,72.8,9.4,72.8"/>
<path id="path86" inkscape:connector-curvature="0" class="st0" d="M49.1,82.5c0,0-4.7,6.5-0.5,16.4c4.3,9.9,11,13.9,11,13.9"/>
<path id="path88" inkscape:connector-curvature="0" class="st0" d="M128.8,16.1c0,0,5.1-3.8,7.2,1.1c2.1,4.8-0.8,10.2-5.9,11.5
	c-5.1,1.3-11.3-0.5-24.9-14.2C91.5,0.8,72,6.7,67.7,10.2s-11.8,16.3-1.3,30c10.4,13.7,19.8,15.5,27.1,9.9c7.2-5.6,4.5-14.5,0.5-19.8
	c-4-5.4-12.3-5.1-14.2-3.2c-1.9,1.9-3.7,6.4,1.1,10.5"/>
<path id="path90" inkscape:connector-curvature="0" class="st0" d="M97.3,37c0,0,17.5,12.6,28.2,12.8c10.7,0.3,23.9-10.5,24.9-22.3
	c1.1-11.8,1.3-19.8-9.9-25.2c-11.3-5.4-18,4.8-19.8,9.6c-1.9,4.8-3.8,14.1,4.8,16.8"/>
<path id="path92" inkscape:connector-curvature="0" class="st0" d="M134.7,0.9c0,0-12.6,1.5-19,6.4c-6.4,4.8-9.2,8.4-9.2,8.4"/>
<path id="path94" inkscape:connector-curvature="0" class="st0" d="M140.6,2.4c0,0,9.1,3,17.7,11.3c8.6,8.3,8,9.1,6.2,16.6
	c-1.9,7.5-0.8,16.1-16.6,27.3"/>
<path id="path96" inkscape:connector-curvature="0" class="st0" d="M116.7,57.6c0,0-8-3.5-11.8-5.6s-9.1-4.4-9.1-4.4"/>
<path id="path98" inkscape:connector-curvature="0" class="st0" d="M91.8,51.2c0,0,3.2,0.8,6.7,6.1"/>
<path id="path100" inkscape:connector-curvature="0" class="st0" d="M91.8,51.2c0,0-13.4,7.5-15.8,8.8s-10.5,0.3-16.6-6.4
	S51.1,42.1,50,37.8c-1.1-4.3-0.5-5.6,4-11s13.7-16.6,13.7-16.6"/>
<line id="line102" class="st0" x1="52" y1="43.3" x2="46.2" y2="49"/>
<line id="line104" class="st0" x1="65.8" y1="58.4" x2="58.3" y2="65.4"/>
<path id="path106" inkscape:connector-curvature="0" class="st0" d="M17,295.6c4.6-2.1,11.3-2.4,14.9,3.3c3.7,5.8,1.2,14.9-1.5,18.4
	c-2.7,3.6-10.5,4.7-15.3,1.3c-4.8-3.5-8.3-11.5-7.5-19.6c1.4-14.1,11.8-19,22.8-18.2s22.2,13.4,22,26.3c-0.3,12.9-2.7,24.7-7.8,37
	S27.7,383,23.4,394s-1.3,19,1.9,22s8.6,4,13.4,1.3s6.2-4.3,6.2-4.3"/>
<path id="path108" inkscape:connector-curvature="0" class="st0" d="M33.1,418.8c0,0-1.9-3.9-1.9-8.5s1.6-9.1,9.4-11
	s12.1,4.3,13.9,11.5c1.9,7.2,0.5,20.9-13.7,23.3s-22.8-4.3-28.7-18s-4.8-27.9,2.4-44.8s14.7-34,20.1-46.1s0.8-22.6-4-27.9"/>
<line id="line110" class="st0" x1="10.9" y1="313.8" x2="29.9" y2="337.2"/>
<line id="line112" class="st0" x1="43.4" y1="287.2" x2="59.1" y2="306.1"/>
<path id="path114" inkscape:connector-curvature="0" class="st0" d="M55.2,415.4c0,0,3.4,15.5,4.4,19c1.1,3.5-0.5,16.1-17.1,17.4
	s-25.5-5.1-28.4-16.4s-5.7-36.5-5.7-36.5"/>
<path id="path116" inkscape:connector-curvature="0" class="st0" d="M32,451.6c0,0,9.6,13.4,11.2,16.6s12.1,5.4,18.2,0
	c6.2-5.4,6.2-10.4,4-14.7c-2.1-4.3-6.8-11.5-6.8-11.5"/>
<path id="path118" inkscape:connector-curvature="0" class="st0" d="M62.4,447.9c0,0,6.1-2.4,8.5,5.3c2.4,7.8-1.3,13.7-4.3,16.9
	c-2.9,3.2-15.8,9.9-23.9,5.1c-8-4.8-4-14.1-4-14.1"/>
<path id="path120" inkscape:connector-curvature="0" class="st0" d="M60,443.9c0,0,12.2-3.6,17.6,6.6s1.9,22.5-5.9,29
	c-7.8,6.4-27.6,8-34.8,1.6s-8.2-16.9-1.7-25.1"/>
<path id="path122" inkscape:connector-curvature="0" class="st0" d="M76,447.2c0,0,8.9,11.1,12.3,16.4c3.5,5.3,4,15-3.7,23.3
	c-7.8,8.3-26,13.9-34,6.4s-15-13.7-15-13.7"/>
<line id="line124" class="st0" x1="85.8" y1="460.1" x2="93.9" y2="454.3"/>
<path id="path126" inkscape:connector-curvature="0" class="st0" d="M59.6,348.4c0,0-5.3,11.3-9.6,20.9s-7.5,20.8-7,29.7"/>
<line id="line128" class="st0" x1="39.9" y1="247" x2="39.9" y2="284.4"/>
<line id="line130" class="st0" x1="10.4" y1="239.8" x2="10.4" y2="288.6"/>
<path id="path132" inkscape:connector-curvature="0" class="st0" d="M59.6,248.2c0,0-9.6,5.6-12.3,6.7c-2.7,1.1-7.1,3-7.4,7.2
	c-0.3,4.3,2.9,6.4,5.5,8.6c2.7,2.1,14.2,8.6,14.2,8.6"/>
<g>
	<path id="path134" inkscape:connector-curvature="0" class="st2" d="M179.2,484c0,0-8.8-29.1-44.5-28.9c-14.2,0.1-36.5,0-36.5,0
		c-21.3,0-38.6-17.3-38.6-38.6V97c0-21.3,17.3-38.6,38.6-38.6h163c21.3,0,38.6,17.3,38.6,38.6v319.5c0,21.3-17.3,38.6-38.6,38.6
		c0,0-22.2,0.1-36.4,0C189,454.9,179.2,484,179.2,484z"/>
	<path id="path74" inkscape:connector-curvature="0" class="st3" d="M177,462.5l-1.2-1.3c-8.5-9.2-22.4-18-43.6-17.9
		c-14.2,0.1-36.4,0-36.4,0c-15.4,0-27.9-12.5-27.9-27.9V95.9C67.9,80.5,80.4,68,95.8,68h163c15.4,0,27.9,12.5,27.9,27.9v319.5
		c0,15.4-12.5,27.9-27.9,27.9c0,0-22.2,0.1-36.4,0c-21.2-0.1-35.3,8.6-44,17.7C177.9,461.5,177.4,462,177,462.5L177,462.5z"/>
</g>
<path id="path136" inkscape:connector-curvature="0" class="st0" d="M165.5,57.6c0,0,2.4-10.5,4.5-15.3s9.7-4.5,9.7-4.5
	s7.5-0.3,9.6,4.5s4.5,15.3,4.5,15.3"/>
<path id="path138" inkscape:connector-curvature="0" class="st0" d="M199.1,15.6c0,0-4.1-5.2-10-6.6c-5.9-1.3-9.4-0.8-9.4-0.8
	s-3.5-0.5-9.4,0.8s-10,6.6-10,6.6"/>
<path class="st4" d="M109,197.7h141.3v60.6h20.2v20.2h-40.4v-60.6h-40.4v60.6h20.2v20.2h-60.6v-20.2h20.2v-60.6h-40.4v60.6H88.8
	v-20.2H109V197.7z"/>
</svg>
