<?xml version="1.0" encoding="utf-8"?>
<!-- Generator: Adobe Illustrator 21.0.0, SVG Export Plug-In . SVG Version: 6.00 Build 0)  -->
<svg version="1.1" id="Слой_1" xmlns="http://www.w3.org/2000/svg" xmlns:xlink="http://www.w3.org/1999/xlink" x="0px" y="0px"
	 viewBox="0 0 30 30" style="enable-background:new 0 0 30 30;" xml:space="preserve">
<style type="text/css">
	.st0{fill:#4F3900;}
	.st1{fill-rule:evenodd;clip-rule:evenodd;fill:none;}
	.st2{clip-path:url(#SVGID_2_);fill:#D1C347;}
	.st3{clip-path:url(#SVGID_2_);fill:#D4C759;}
	.st4{clip-path:url(#SVGID_2_);fill:#D8CC6A;}
	.st5{clip-path:url(#SVGID_2_);fill:#DCD17A;}
	.st6{clip-path:url(#SVGID_2_);fill:#E0D68A;}
	.st7{clip-path:url(#SVGID_2_);fill:#E4DB99;}
	.st8{clip-path:url(#SVGID_2_);fill:#E7E0A9;}
	.st9{clip-path:url(#SVGID_2_);fill:#ECE5B7;}
	.st10{clip-path:url(#SVGID_2_);fill:#F0EBC6;}
	.st11{clip-path:url(#SVGID_2_);fill:#F4F0D5;}
	.st12{clip-path:url(#SVGID_2_);fill:#F7F5E3;}
	.st13{clip-path:url(#SVGID_2_);fill:#FBFAF1;}
	.st14{clip-path:url(#SVGID_2_);fill:#FFFFFF;}
	.st15{fill-rule:evenodd;clip-rule:evenodd;fill:#4F3900;}
	.st16{clip-path:url(#SVGID_4_);fill:#C09E00;}
	.st17{clip-path:url(#SVGID_4_);fill:#C7A718;}
	.st18{clip-path:url(#SVGID_4_);fill:#CFB133;}
	.st19{clip-path:url(#SVGID_4_);fill:#D6BA4A;}
	.st20{clip-path:url(#SVGID_4_);fill:#DCC35F;}
	.st21{clip-path:url(#SVGID_4_);fill:#E4CD74;}
	.st22{clip-path:url(#SVGID_4_);fill:#ECD889;}
	.st23{clip-path:url(#SVGID_4_);fill:#F3E39F;}
	.st24{clip-path:url(#SVGID_4_);fill:#FAEEB4;}
	.st25{clip-path:url(#SVGID_4_);fill:#FFF9C8;}
	.st26{clip-path:url(#SVGID_4_);fill:#E9D79B;}
	.st27{clip-path:url(#SVGID_4_);fill:#D2B771;}
	.st28{clip-path:url(#SVGID_4_);fill:#BB9A4A;}
	.st29{clip-path:url(#SVGID_4_);fill:#A48026;}
	.st30{clip-path:url(#SVGID_4_);fill:#8E6700;}
	.st31{fill-rule:evenodd;clip-rule:evenodd;fill:#1D1D1B;}
	.st32{fill:#1D1D1B;}
</style>
<path class="st0" d="M15.2,27.4l-0.8-2c0,0-0.6-2.2-2.8-2.2C8.4,23.3,6,21,6,17.5V4.9h18.4"/>
<path class="st0" d="M24.4,4.9v12.6c0,3.5-2.4,5.8-5.6,5.8c-2.2,0-2.8,2.2-2.8,2.2l-0.7,2"/>
<path class="st1" d="M25,3.7v12.6c0,3.5-2.4,5.8-5.6,5.8c-2.2,0-2.8,2.2-2.8,2.2l-0.8,2l-0.7-2c0,0-0.6-2.2-2.8-2.2
	c-3.3,0-5.6-2.3-5.6-5.8V3.7h9.2H25z M15.8,22.4l0.1-0.1c0.6-0.8,1.7-1.7,3.4-1.7c2.4,0,4.1-1.6,4.1-4.2V5.3h-7.6H8.1v11.1
	c0,2.6,1.7,4.2,4.1,4.2c1.7,0,2.8,0.9,3.4,1.7L15.8,22.4z"/>
<g>
	<defs>
		<path id="SVGID_1_" d="M15.6,22.3c-0.6-0.8-1.7-1.6-3.4-1.6C9.8,20.7,8,19,8,16.3V5.1h7.8h7.8v11.2c0,2.7-1.8,4.3-4.2,4.3
			c-1.7,0-2.7,0.8-3.4,1.6l-0.2,0.3L15.6,22.3z"/>
	</defs>
	<clipPath id="SVGID_2_">
		<use xlink:href="#SVGID_1_"  style="overflow:visible;"/>
	</clipPath>
	<rect x="7.7" y="4.9" class="st2" width="1.3" height="17.7"/>
	<rect x="8.9" y="4.9" class="st3" width="1.3" height="17.7"/>
	<rect x="10.2" y="4.9" class="st4" width="1.3" height="17.7"/>
	<rect x="11.4" y="4.9" class="st5" width="1.3" height="17.7"/>
	<rect x="12.7" y="4.9" class="st6" width="1.3" height="17.7"/>
	<rect x="13.9" y="4.9" class="st7" width="1.3" height="17.7"/>
	<rect x="15.1" y="4.9" class="st8" width="1.3" height="17.7"/>
	<rect x="16.4" y="4.9" class="st9" width="1.3" height="17.7"/>
	<rect x="17.6" y="4.9" class="st10" width="1.3" height="17.7"/>
	<rect x="18.9" y="4.9" class="st11" width="1.3" height="17.7"/>
	<rect x="20.1" y="4.9" class="st12" width="1.3" height="17.7"/>
	<rect x="21.4" y="4.9" class="st13" width="1.3" height="17.7"/>
	<rect x="22.6" y="4.9" class="st14" width="1.3" height="17.7"/>
</g>
<path class="st15" d="M8,5.7V5.1h15.5v11.2c0,1.5-0.6,2.7-1.5,3.4c0.6-0.7,0.9-1.7,0.9-2.9V5.7H8 M16.1,22.2L16,22.3l-0.2,0.3
	C15.8,22.4,16,22.3,16.1,22.2z"/>
<g>
	<defs>
		<path id="SVGID_3_" d="M25,3.7v12.6c0,3.5-2.4,5.8-5.6,5.8c-2.2,0-2.8,2.2-2.8,2.2l-0.8,2l-0.7-2c0,0-0.6-2.2-2.8-2.2
			c-3.3,0-5.6-2.3-5.6-5.8V3.7h9.2H25z M15.8,22.4l0.1-0.1c0.6-0.8,1.7-1.7,3.4-1.7c2.4,0,4.1-1.6,4.1-4.2V5.3h-7.6H8.1v11.1
			c0,2.6,1.7,4.2,4.1,4.2c1.7,0,2.8,0.9,3.4,1.7L15.8,22.4z"/>
	</defs>
	<clipPath id="SVGID_4_">
		<use xlink:href="#SVGID_3_"  style="overflow:visible;"/>
	</clipPath>
	<rect x="6.2" y="3.5" class="st16" width="1.3" height="22.7"/>
	<rect x="7.5" y="3.5" class="st17" width="1.3" height="22.7"/>
	<rect x="8.7" y="3.5" class="st18" width="1.3" height="22.7"/>
	<rect x="9.9" y="3.5" class="st19" width="1.3" height="22.7"/>
	<rect x="11.1" y="3.5" class="st20" width="1.3" height="22.7"/>
	<rect x="12.3" y="3.5" class="st21" width="1.3" height="22.7"/>
	<rect x="13.6" y="3.5" class="st22" width="1.3" height="22.7"/>
	<rect x="14.8" y="3.5" class="st23" width="1.3" height="22.7"/>
	<rect x="16" y="3.5" class="st24" width="1.3" height="22.7"/>
	<rect x="17.2" y="3.5" class="st25" width="1.3" height="22.7"/>
	<rect x="17.8" y="3.5" class="st25" width="1.3" height="22.7"/>
	<rect x="19.1" y="3.5" class="st26" width="1.3" height="22.7"/>
	<rect x="20.3" y="3.5" class="st27" width="1.3" height="22.7"/>
	<rect x="21.6" y="3.5" class="st28" width="1.3" height="22.7"/>
	<rect x="22.8" y="3.5" class="st29" width="1.3" height="22.7"/>
	<rect x="24" y="3.5" class="st30" width="1.3" height="22.7"/>
	<polygon class="st30" points="25.3,26.2 25.3,26.2 25.3,3.5 	"/>
</g>
<path class="st31" d="M11.9,13c0.2-1.1,0.7-2.2,1.4-3l1.6,1.6c-0.3,0.4-0.6,0.9-0.7,1.4H11.9 M14.6,8.8c0.8-0.5,1.7-0.9,2.7-1.1v2.4
	c-0.4,0.1-0.7,0.2-1,0.4L14.6,8.8z M19.4,7.7c1,0.2,2,0.6,2.8,1.2l-1.7,1.7c-0.4-0.2-0.8-0.4-1.2-0.5V7.7z M14.2,15.4
	c0.1,0.4,0.3,0.7,0.5,1.1l-1.7,1.7c-0.6-0.8-1-1.7-1.2-2.7H14.2z M23.6,10.3c0.6,0.8,1,1.7,1.2,2.7h-2.4c-0.1-0.4-0.3-0.7-0.5-1.1
	L23.6,10.3z M24.8,15.4c-0.2,1-0.6,1.9-1.2,2.7l-1.7-1.7c0.2-0.3,0.4-0.7,0.5-1.1H24.8z M22.2,19.5c-0.8,0.6-1.7,1-2.7,1.2v-2.4
	c0.4-0.1,0.7-0.3,1.1-0.5L22.2,19.5z M17.2,20.6c-1-0.2-1.9-0.6-2.7-1.2l1.7-1.7c0.3,0.2,0.7,0.4,1.1,0.5V20.6z"/>
<path class="st31" d="M4.6,19.6c0,0,0.2,0,0.4,0l0,1.8H4.6C4.7,21.5,4.6,19.6,4.6,19.6 M6.9,19.2c0.2-0.1,0.4-0.3,0.6-0.4l3.4,1.6
	c-0.1,0.1-0.2,0.1-0.2,0.2c-1.1,0.7-2.4,0.9-3.7,1L6.9,19.2z M8.5,16.7c0.1-0.8,0-1.4,0-1.4l2.6-1.4v1.5h0.4c0.1,0.7,0.4,1.4,0.7,2
	c0,0.1,0,0.5,0,0.9L8.5,16.7z M14.7,12.9c0.2-0.4,0.4-0.9,0.7-1.2l2.6-1.3c0.1,0,0.2,0,0.3,0c0.7,0,1.3,0.2,1.9,0.5l-0.1,0.1
	l1.4,1.4l-6.6,3.5c-0.1-0.1-0.1-0.3-0.2-0.5H15v-2.5H14.7z"/>
<path class="st32" d="M21.6,4l0.9-0.4l-0.1-0.3l1.4-0.7l0.1,0.3l0.7-0.3L26,5.5l-0.7,0.3l0.1,0.3l-1.4,0.7l-0.1-0.3L23,7l0-0.1
	l-1.9,0.9c-0.5-0.2-1.1-0.4-1.7-0.5V7h-2.1v0.3c-1.1,0.2-2.1,0.6-3,1.2l-0.1-0.1l-1.2,1.2L13,9.7c-0.7,0.8-1.2,1.7-1.4,2.8l-0.7,0.3
	l0.3,0.7l-0.7,0.3l-0.3-0.7l-0.3,0.2l-0.8,0.2L8,11.1l0.5-0.6l0.4-0.2L8.6,9.7l0.7-0.3L9.6,10l2.8-1.3l-0.2-0.4l1.4-0.7L13.7,8
	l2.8-1.3l-0.2-0.4l1.4-0.7L17.9,6L21.6,4L21.6,4"/>
<rect x="17.5" y="18" class="st32" width="1.7" height="3.3"/>
<rect x="22.1" y="13.3" class="st32" width="3.3" height="1.7"/>
<rect x="11.5" y="13.3" class="st32" width="3" height="1.7"/>
<polyline class="st32" points="20.4,17.8 21.3,16.9 23.4,19 22.4,19.9 20.4,17.8 "/>
<polyline class="st32" points="21.3,12.2 20.4,11.2 22.4,9.2 23.4,10.1 21.3,12.2 "/>
<polyline class="st32" points="13.7,19.8 12.7,18.9 14.8,16.9 15.7,17.8 13.7,19.8 "/>
<polyline class="st32" points="7,18.7 7.7,17.2 11.9,19.1 11.2,20.6 7,18.7 "/>
<polyline class="st32" points="6.3,22.2 5.1,22.2 5,19.4 6.3,19.4 6.3,22.2 "/>
<path class="st32" d="M20,13.7c0,0,0,0.1,0,0.1h1.6v0.9H20c-0.2,0.5-0.6,0.9-1.1,1v1.8h-0.9v-1.8c-0.3-0.1-0.7-0.3-0.9-0.5L20,13.7"
	/>
<polyline class="st32" points="12.9,10 13.8,9 15.9,11.1 15,12 12.9,10 "/>
<rect x="17.5" y="7.2" class="st32" width="1.7" height="3.3"/>
</svg>
