<?xml version="1.0" encoding="utf-8"?>
<!-- Generator: Adobe Illustrator 21.0.0, SVG Export Plug-In . SVG Version: 6.00 Build 0)  -->
<svg version="1.1" id="Слой_1" xmlns="http://www.w3.org/2000/svg" xmlns:xlink="http://www.w3.org/1999/xlink" x="0px" y="0px"
	 viewBox="0 0 30 30" style="enable-background:new 0 0 30 30;" xml:space="preserve">
<style type="text/css">
	.st0{fill:#4F3900;}
	.st1{fill:#C09E00;}
	.st2{fill:#C7A718;}
	.st3{fill:#E4CD74;}
	.st4{fill:#FFF9C8;}
	.st5{fill:#E9D79B;}
	.st6{fill:#D2B771;}
	.st7{fill:#BB9A4A;}
	.st8{fill:#A48026;}
	.st9{fill:#8E6700;}
	.st10{fill-rule:evenodd;clip-rule:evenodd;fill:none;}
	.st11{clip-path:url(#SVGID_2_);fill:#D1C347;}
	.st12{clip-path:url(#SVGID_2_);fill:#D4C759;}
	.st13{clip-path:url(#SVGID_2_);fill:#D8CC6A;}
	.st14{clip-path:url(#SVGID_2_);fill:#DCD17A;}
	.st15{clip-path:url(#SVGID_2_);fill:#E0D68A;}
	.st16{clip-path:url(#SVGID_2_);fill:#E4DB99;}
	.st17{clip-path:url(#SVGID_2_);fill:#E7E0A9;}
	.st18{clip-path:url(#SVGID_2_);fill:#ECE5B7;}
	.st19{clip-path:url(#SVGID_2_);fill:#F0EBC6;}
	.st20{clip-path:url(#SVGID_2_);fill:#F4F0D5;}
	.st21{clip-path:url(#SVGID_2_);fill:#F7F5E3;}
	.st22{clip-path:url(#SVGID_2_);fill:#FBFAF1;}
	.st23{clip-path:url(#SVGID_2_);fill:#FFFFFF;}
	.st24{fill-rule:evenodd;clip-rule:evenodd;fill:#4F3900;}
	.st25{fill-rule:evenodd;clip-rule:evenodd;fill:#FFFFFF;}
	.st26{clip-path:url(#SVGID_4_);fill:#C09E00;}
	.st27{clip-path:url(#SVGID_4_);fill:#C7A718;}
	.st28{clip-path:url(#SVGID_4_);fill:#CFB133;}
	.st29{clip-path:url(#SVGID_4_);fill:#D6BA4A;}
	.st30{clip-path:url(#SVGID_4_);fill:#DCC35F;}
	.st31{clip-path:url(#SVGID_4_);fill:#E4CD74;}
	.st32{clip-path:url(#SVGID_4_);fill:#ECD889;}
	.st33{clip-path:url(#SVGID_4_);fill:#F3E39F;}
	.st34{clip-path:url(#SVGID_4_);fill:#FAEEB4;}
	.st35{clip-path:url(#SVGID_4_);fill:#FFF9C8;}
	.st36{clip-path:url(#SVGID_4_);fill:#E9D79B;}
	.st37{clip-path:url(#SVGID_4_);fill:#D2B771;}
	.st38{clip-path:url(#SVGID_4_);fill:#BB9A4A;}
	.st39{clip-path:url(#SVGID_4_);fill:#A48026;}
	.st40{fill-rule:evenodd;clip-rule:evenodd;fill:#1D1D1B;}
</style>
<path class="st0" d="M23.9,5v12.7c0,3.5-2.4,5.8-5.7,5.8c-2.2,0-2.8,2.2-2.8,2.2l-0.8,2l-0.7-2c0,0-0.6-2.2-2.8-2.2
	c-3.3,0-5.7-2.3-5.7-5.8V5H23.9"/>
<line class="st1" x1="7" y1="3.7" x2="5.7" y2="3.7"/>
<line class="st2" x1="8.2" y1="3.7" x2="6.9" y2="3.7"/>
<path class="st3" d="M13.1,26.4"/>
<line class="st4" x1="18.6" y1="3.7" x2="17.3" y2="3.7"/>
<line class="st5" x1="19.8" y1="3.7" x2="18.6" y2="3.7"/>
<line class="st6" x1="21.1" y1="3.7" x2="19.8" y2="3.7"/>
<line class="st7" x1="22.3" y1="3.7" x2="21" y2="3.7"/>
<line class="st8" x1="23.5" y1="3.7" x2="22.3" y2="3.7"/>
<path class="st8" d="M23.5,26.4"/>
<path class="st9" d="M23.5,26.4"/>
<line class="st9" x1="24.8" y1="3.7" x2="23.5" y2="3.7"/>
<path class="st9" d="M24.8,3.7"/>
<path class="st9" d="M24.8,26.4"/>
<path class="st10" d="M15.3,22.5l0.1-0.1c0.6-0.8,1.7-1.7,3.5-1.7c2.4,0,4.1-1.6,4.1-4.2V5.4h-7.7H7.6v11.1c0,2.6,1.7,4.2,4.1,4.2
	c1.7,0,2.8,0.9,3.5,1.7L15.3,22.5z"/>
<g>
	<defs>
		<path id="SVGID_1_" d="M15.1,22.5c-0.6-0.8-1.7-1.6-3.4-1.6c-2.5,0-4.2-1.6-4.2-4.3V5.3h7.8H23v11.2c0,2.7-1.8,4.3-4.2,4.3
			c-1.7,0-2.7,0.8-3.4,1.6l-0.2,0.3L15.1,22.5z"/>
	</defs>
	<clipPath id="SVGID_2_">
		<use xlink:href="#SVGID_1_"  style="overflow:visible;"/>
	</clipPath>
	<rect x="7.2" y="5" class="st11" width="1.3" height="17.7"/>
	<rect x="8.4" y="5" class="st12" width="1.3" height="17.7"/>
	<rect x="9.7" y="5" class="st13" width="1.3" height="17.7"/>
	<rect x="10.9" y="5" class="st14" width="1.3" height="17.7"/>
	<rect x="12.1" y="5" class="st15" width="1.3" height="17.7"/>
	<rect x="13.4" y="5" class="st16" width="1.3" height="17.7"/>
	<rect x="14.6" y="5" class="st17" width="1.3" height="17.7"/>
	<rect x="15.9" y="5" class="st18" width="1.3" height="17.7"/>
	<rect x="17.1" y="5" class="st19" width="1.3" height="17.7"/>
	<rect x="18.4" y="5" class="st20" width="1.3" height="17.7"/>
	<rect x="19.6" y="5" class="st21" width="1.3" height="17.7"/>
	<rect x="20.8" y="5" class="st22" width="1.3" height="17.7"/>
	<rect x="22.1" y="5" class="st23" width="1.3" height="17.7"/>
	<polygon class="st23" points="23,22.7 23,22.7 23,5 	"/>
</g>
<path class="st24" d="M7.5,5.9V5.3H23v11.2c0,1.5-0.6,2.7-1.5,3.5c0.6-0.7,0.9-1.7,0.9-2.9V5.9H7.5 M15.6,22.3l-0.1,0.1l-0.2,0.3
	C15.3,22.5,15.4,22.4,15.6,22.3z"/>
<path class="st25" d="M24.5,3.3l-2,2.5c0,0.1,0,0.1,0.1,0.2l0,0.1c0.1,0,0.1,0,0.1,0l0.2,1l-0.1,0c0,0.2,0.1,0.3,0.1,0.5
	c0.1,0.9,0,2.5,0,2.9c0,0.2,0,0.4,0,0.8c0,0.1,0,0.2,0.1,0.3c0.1,0.1,0.1,0.2,0.2,0.3l0.2-0.1l0,1.1l-0.1,0V13c0,0.2,0,0.4,0,0.5
	c0,0.2,0,0.3,0,0.3c0.1,0.4,0.1,0.8,0.1,1.2c0,0.4,0,0.7,0,0.9c0,0.1,0,0.2,0.1,0.3c0,0.1,0,0.2,0,0.3c0,0.2-0.1,0.5-0.4,0.7
	c-0.2,0.1-0.3,0.2-0.4,0.2c0,0-0.1,0-0.1,0.1c0,0,0,0.1-0.1,0.1c0,0.1-0.1,0.1-0.2,0.2c-0.1,0.2-0.4,0.4-0.7,0.3
	c-0.3,0-0.5-0.2-0.7-0.3c-0.1-0.1-0.2-0.1-0.2-0.2l-0.5,0.2c0,0-0.2,0-0.3-0.1c-0.1,0-0.2-0.1-0.4-0.3c0,0,0-0.1-0.1-0.1l-0.5,0.9
	c0,0-1.5-0.6-2.7-1.1c-0.3-0.1-0.8-0.3-1.4-0.5c-0.4,1.8-0.4,2.8-0.4,3c0,0.1,0,0.3,0.1,0.5c0,0.3,0.1,0.7,0,1.1l0,0.2h-1.3
	l-5.3-1.3c-1.7-1.1-1.6-8.3-1.6-8.3v-2l0.1,0c0,0,0-0.1,0-0.1c0-0.2,0.1-0.4,0.2-0.6C7,9,7.2,8.9,7.3,8.9c0-0.1,0.1-0.2,0.2-0.3
	c0.1-0.1,0.2-0.1,0.2-0.2c0.1,0,0.2,0,0.2,0C8,8.3,8.1,8.1,8.3,8c0.1-0.1,0.3-0.1,0.4-0.1c0-0.1,0.1-0.2,0.2-0.3
	C9,7.4,9.1,7.4,9.2,7.4c0-0.1,0.1-0.2,0.1-0.3c0.1-0.2,0.3-0.3,0.5-0.3c0.1,0,0.1,0,0.2,0c0,0,0-0.1,0.1-0.1
	c0.1-0.2,0.4-0.3,0.5-0.3c0,0,0.1,0,0.1,0c0-0.1,0.1-0.2,0.2-0.3c0.1-0.2,0.4-0.2,0.5-0.2c0,0,0.1,0,0.1,0c0.1-0.1,0.3-0.2,0.4-0.3
	c0.2-0.1,0.4-0.2,0.5-0.2c0,0,0.1,0,0.1,0c0.1-0.1,0.2-0.1,0.3-0.3c0.2-0.2,0.5-0.2,0.6-0.3c0.1,0,0.2,0,0.3,0
	c0.1-0.1,0.3-0.2,0.6-0.3c0.3-0.2,0.6-0.1,0.8,0c0.1,0,0.2,0.1,0.2,0.1c0,0,0.2,0.2,0.3,0.3c0.2,0,0.3-0.1,0.5-0.1
	c1.1-0.2,2.6-0.1,3.6,0V4.6l1.2,0l0,0.2l0,0l0.1,0"/>
<path class="st25" d="M20.8,4.9C21,4.7,21.6,4.3,22,4.1c0.3-0.2,0.8-0.3,1.2-0.5c0.4-0.1,1.4-0.3,1.4-0.3"/>
<path class="st25" d="M19.3,15.2c-0.1-0.1-0.3-0.2-0.4-0.4l-0.3,0.3l-0.3-1c0,0,0.1-0.1,0.3-0.2c0,0-0.1-0.1-0.1-0.1
	c-0.5-0.5-0.6-0.6-1-0.9l-0.1,0.1l-0.6-0.5c-0.1,0.3-0.9,1.9-1.4,3.2c1.2,0.5,2.4,0.9,3.5,1.4l0.3-0.4l-0.1-0.1
	c0-0.1-0.1-0.1-0.1-0.2c-0.2-0.4,0-0.8,0.1-1C19.1,15.3,19.2,15.3,19.3,15.2z"/>
<g>
	<defs>
		<path id="SVGID_3_" d="M24.5,3.8v12.7c0,3.5-2.4,5.8-5.7,5.8c-2.2,0-2.8,2.2-2.8,2.2l-0.8,2l-0.8-2c0,0-0.6-2.2-2.8-2.2
			C8.4,22.3,6,20,6,16.5V3.8h9.2H24.5z M15.3,22.5l0.1-0.1c0.6-0.8,1.7-1.7,3.5-1.7c2.4,0,4.1-1.6,4.1-4.2V5.4h-7.7H7.6v11.1
			c0,2.6,1.7,4.2,4.1,4.2c1.7,0,2.8,0.9,3.5,1.7L15.3,22.5z"/>
	</defs>
	<clipPath id="SVGID_4_">
		<use xlink:href="#SVGID_3_"  style="overflow:visible;"/>
	</clipPath>
	<rect x="5.7" y="3.7" class="st26" width="1.3" height="22.8"/>
	<rect x="6.9" y="3.7" class="st27" width="1.3" height="22.8"/>
	<rect x="8.1" y="3.7" class="st28" width="1.3" height="22.8"/>
	<rect x="9.4" y="3.7" class="st29" width="1.3" height="22.8"/>
	<rect x="10.6" y="3.7" class="st30" width="1.3" height="22.8"/>
	<rect x="11.8" y="3.7" class="st31" width="1.3" height="22.8"/>
	<rect x="13" y="3.7" class="st32" width="1.3" height="22.8"/>
	<rect x="14.3" y="3.7" class="st33" width="1.3" height="22.8"/>
	<rect x="15.5" y="3.7" class="st34" width="1.3" height="22.8"/>
	<rect x="16.7" y="3.7" class="st35" width="1.3" height="22.8"/>
	<rect x="17.3" y="3.7" class="st35" width="1.3" height="22.8"/>
	<rect x="18.6" y="3.7" class="st36" width="1.3" height="22.8"/>
	<rect x="19.8" y="3.7" class="st37" width="1.3" height="22.8"/>
	<rect x="21" y="3.7" class="st38" width="1.3" height="22.8"/>
	<rect x="22.3" y="3.7" class="st39" width="1.3" height="22.8"/>
</g>
<path class="st40" d="M20.7,5.1c0.1,0,0.2,0,0.2,0s0.8-0.5,1.2-0.9C22.6,3.9,24,3.7,24,3.7l-1.7,2.1c0,0,0.1,0.1,0.1,0.3
	c-0.2,0-0.5,0-0.8,0c-0.3,0-0.6,0.1-0.9,0.1L20.7,5.1 M19.7,4.9l0.7,0l0.1,1.6c0,0,0.6-0.1,1.1-0.2c0.5-0.1,0.9,0,0.9,0l0.1,0.6
	c0,0-0.5-0.1-1.1,0.1C21,7.1,20,7.3,20,7.3s-0.2-1.4-0.2-1.8C19.7,5.2,19.7,4.9,19.7,4.9z M20.8,7.6l0.1,1l-0.9,0.1l-0.1-1.1
	L20.8,7.6z M7.8,13.6C7.5,12.9,7.2,12.3,7,12l-0.2-0.2v0c0.8,0.8,1.7,1.4,2.7,2.1c1.3,0.9,3.7,2,5.5,2.7c-0.4,2-0.4,3.1-0.4,3.1
	s0.2,0.8,0.1,1.6h-0.5c-0.3-0.6-0.7-1-1.1-1.5c-1.6-2-3.2-4-4.9-5.8C8,13.8,7.9,13.7,7.8,13.6z M6.8,18.3c0.2-0.1,0.4-0.2,0.6-0.3
	c0.5-0.3,0.9-0.8,1-1.6c0-0.4,0-0.9-0.2-1.4c1.5,1.7,2.9,3.4,4.3,5.2c0.3,0.4,0.6,0.7,0.9,1.1L8.4,20C8,18.6,6.8,18.3,6.8,18.3z
	 M20.9,15.8c0,0,0.1,0,0.1,0l0,0.1c0,0,0.1,0.1,0.1,0.1c0,0,0.1,0.1,0.2,0.1c0.1,0,0.3-0.1,0.3-0.2c0-0.1,0-0.2,0-0.3
	c0-0.1,0-0.2,0-0.4c0.1-0.1,0.1-0.3,0.1-0.5c0-0.3-0.1-0.5-0.2-0.7l-0.1-0.6l1.7-0.5c0,0.4,0,0.7,0,0.9c0.2,0.7,0.1,1.6,0.2,2
	c0.1,0.4,0.3,0.9-0.2,1.1c-0.4,0.2-0.5,0.4-0.5,0.4s-0.3,0.6-0.8,0.5c-0.4-0.1-0.9-0.5-0.9-0.5l-0.5,0.2c0,0-0.3-0.1-0.4-0.3
	c0,0-0.1-0.1-0.1-0.2l0.6-0.9C20.7,16.2,20.8,16,20.9,15.8L20.9,15.8z M19.9,15.2c-0.1,0.1-0.2,0.3-0.2,0.5c0,0,0,0.1,0,0.1
	l-0.4,0.7c0-0.1-0.1-0.1-0.1-0.2c-0.3-0.5,0.5-1.2,0.5-1.2s-0.3-0.2-0.6-0.5c0.1-0.1,0.4-0.3,0.6-0.4c0.1-0.1,0.3-0.1,0.3-0.1
	c-0.1,0.2-0.2,0.4-0.2,0.6C19.8,14.9,19.8,15,19.9,15.2z M19.9,9.2c0,1,0.1,3.4,0.1,4l0,0.1c-0.1,0-0.3,0.1-0.5,0.1
	c-0.2,0.1-0.5,0.2-0.7,0.3c0-0.1-0.1-0.1-0.2-0.2c-0.5-0.5-0.6-0.6-1.1-0.9c0.2-0.4,0.7-1.2,1-1.6c0.3-0.5,0.8-1.2,1-1.5l0.2,0.1
	L19.9,9.2z M19.8,7.4l-0.1,0l0.1,0.8l-0.6-0.3l-0.5,1.2c-0.1,0.2-0.5,0.7-0.6,0.8c0,0-0.1,0.1-0.1,0.1c0,0,0,0.1-0.1,0.1
	c0,0.1-0.1,0.2-0.2,0.3c-0.1,0.2-0.3,0.5-0.4,0.8c-0.3,0.6-0.7,1.3-0.7,1.3s-0.9,1.8-1.4,3.3c-0.3-0.1-0.5-0.2-0.8-0.3
	c-1.6-0.6-3.1-1.4-4.4-2.3c-0.8-0.6-1.8-1.5-2.7-2.3c1-1.1,2.1-2.2,3.1-3c1.6-1.3,3.7-2.6,5.6-2.9c1.1-0.2,2.5-0.1,3.6,0
	c0,0.2,0,0.4,0,0.6C19.6,5.8,19.8,6.9,19.8,7.4z M6.8,14c0.2,0.3,0.3,0.7,0.5,1c0.1,0.7,0.3,1.4-0.5,1.6V14z M21.5,12.6l-0.4-3.8
	l0.1,0L21,7.3l-0.2,0c0.3-0.1,0.7-0.2,0.9-0.2c0.3,0,0.6-0.1,0.8-0.1c0.1,0,0.2,0,0.3,0c0,0.2,0.1,0.4,0.1,0.5c0.1,0.9,0,2.4,0,2.9
	c0,0.2,0,0.4,0,0.8c0,0.3,0.2,0.4,0.3,0.7L21.5,12.6z M21.4,9.4c0,0,0.1,0.4,0.3,0.5c0.2,0.1,0.3,0.1,0.6,0c0-0.4-0.2-0.6-0.5-0.6
	C21.5,9.2,21.4,9.4,21.4,9.4z M19.3,8.2l0.7,0.3l-0.4,0.9l-0.7-0.4L19.3,8.2z M18.8,9.2l0.5,0.3c0,0-0.6,0.9-1,1.5
	c-0.4,0.6-1,1.7-1,1.7l-0.5-0.4c0,0,1.2-2.2,1.3-2.3C18.3,10,18.8,9.2,18.8,9.2z M21.4,12.8l1.9-0.6l0,0.6l-1.8,0.5L21.4,12.8z
	 M21.5,15.5l0,0.1c0,0.3-0.1,0.2-0.3,0C21.3,15.6,21.4,15.6,21.5,15.5z M21.3,13.5l0,0.4c-0.1,0-0.2-0.1-0.2-0.1c0-0.2,0-0.3,0-0.3
	H21.3z M20.1,8.9l0.8-0.1l0.5,4.3l-0.4,0L20.4,9c0,0,0.1,3.7,0.2,4.2l0.1,0.5c-0.2,0-0.3,0.1-0.5,0.2c-0.1,0-0.3,0-0.6,0.1
	c-0.4,0.2-0.8,0.6-0.8,0.6l-0.1-0.5c0,0,0.5-0.3,0.9-0.5c0.5-0.2,0.7-0.1,0.7-0.1c0-0.1,0-0.2,0-0.3C20.2,12.4,20.1,8.9,20.1,8.9z
	 M20.2,14.8c0-0.3,0.3-0.6,0.6-0.6c0.3,0,0.6,0.3,0.6,0.6c0,0.3-0.3,0.6-0.6,0.6C20.5,15.3,20.2,15.1,20.2,14.8z M13.6,21.3
	c0-0.1-0.1-0.2-0.1-0.2c-0.2-0.4-0.5-0.7-0.8-1c-1-1.2-2-2.5-3-3.7c-0.9-1-1.1-1.4-2-2.2c0.3,0.8,0.4,1.6,0.4,2.2
	c0,0.9-0.8,1.5-1.3,1.7v-0.9c1.3-0.2,1.2-1.3,1-2.3c-0.4-0.7-0.7-1.4-1-2.1v-0.7l0,0.1C7,12.5,7.3,13,7.6,13.7L7.9,14
	c0.9,0.9,1.7,1.9,2.5,2.8c0.8,1,1.6,2,2.4,3c0.2,0.2,0.3,0.4,0.5,0.6c0.2,0.2,0.3,0.4,0.4,0.6c0,0,0,0.1,0.1,0.1H13.6z M6.8,10.9
	c0.9,0.8,2.1,1.8,3,2.4c2.5,1.8,6.2,2.9,9.1,4.1l1-1.6c0,0,0-0.1,0-0.2c0-0.2,0.2-0.4,0.4-0.4c0.2,0,0.4,0.2,0.4,0.4
	c0,0.2-0.2,0.4-0.4,0.4L19.1,18c0,0-1.3-0.6-2.5-1c-1.2-0.4-5.3-2.1-7-3.3c-1-0.7-1.9-1.4-2.8-2.1V10.9z M6.9,10.7l-0.1-0.1V10
	l0.1,0c0,0-0.1-0.3,0.2-0.7C7.3,9,7.5,9.2,7.5,9.2s0.1-0.3,0.2-0.5c0.1-0.2,0.5-0.1,0.5-0.1S8.1,8.4,8.4,8.2C8.7,8,8.8,8.1,8.8,8.1
	s0-0.2,0.2-0.4c0.2-0.2,0.4-0.1,0.4-0.1s0-0.1,0.1-0.4C9.7,7,10.1,7,10.1,7s0-0.1,0.1-0.3c0.1-0.2,0.5-0.2,0.5-0.2s0.1-0.2,0.2-0.4
	c0.1-0.2,0.5-0.1,0.5-0.1s0.3-0.2,0.5-0.4c0.2-0.2,0.5-0.1,0.5-0.1s0.1-0.1,0.4-0.3C13.2,5,13.7,5,13.7,5s0.1-0.1,0.6-0.4
	c0.5-0.2,0.8,0.1,0.8,0.1s-0.9,0.3-1.5,0.6c-0.7,0.3-2.4,1.3-3.4,2.1C9.2,8.3,6.9,10.7,6.9,10.7z"/>
</svg>
