<?xml version="1.0" encoding="utf-8"?>
<!-- Generator: Adobe Illustrator 21.0.0, SVG Export Plug-In . SVG Version: 6.00 Build 0)  -->
<svg version="1.1" id="Слой_1" xmlns="http://www.w3.org/2000/svg" xmlns:xlink="http://www.w3.org/1999/xlink" x="0px" y="0px"
	 viewBox="0 0 30 30" style="enable-background:new 0 0 30 30;" xml:space="preserve">
<style type="text/css">
	.st0{fill:#1D1D1B;}
	.st1{fill-rule:evenodd;clip-rule:evenodd;fill:#1D1D1B;}
</style>
<path class="st0" d="M23.6,20c0,0.2,6-1.4,2.9-5.5c-4-5.3-10.4,0.5-10.4,4.9c0,4.4,2.5,5.4,4.6,4.7c2.1-0.7,2.3-4.3-0.8-4.3
	c0.7,1.8,0,2.6-1.3,2.6c-1.3,0-2.1-1.5-0.7-3.6c1.4-2.1,2.8-2.7,4.2-2.1C23.5,17.2,24,18.4,23.6,20"/>
<path class="st0" d="M6.4,20c0,0.2-6-1.4-2.9-5.5c4-5.3,10.4,0.5,10.4,4.9c0,4.4-2.5,5.4-4.6,4.7c-2.1-0.7-2.3-4.3,0.8-4.3
	c-0.7,1.8,0,2.6,1.3,2.6c1.3,0,2.1-1.5,0.7-3.6c-1.4-2.1-2.8-2.7-4.2-2.1C6.5,17.2,6,18.4,6.4,20"/>
<polyline class="st1" points="17.3,25 16.1,24.8 15.1,26.7 14.2,24.8 12.9,25 14.5,22.3 14.3,17.4 11.7,12.3 11.6,9.3 15.1,2.4 
	18.5,9.3 18.6,12.3 15.7,17.4 15.7,22.3 17.3,25 "/>
<path class="st0" d="M11.6,20c0-0.3,0.6-0.5,1.3-0.5h4.6c0.7,0,1.3,0.2,1.3,0.5c0,0.3-0.6,0.5-1.3,0.5h-4.6
	C12.2,20.5,11.6,20.3,11.6,20"/>
</svg>
