<?xml version="1.0" encoding="utf-8"?>
<!-- Generator: Adobe Illustrator 21.0.0, SVG Export Plug-In . SVG Version: 6.00 Build 0)  -->
<svg version="1.1" id="Слой_1" xmlns="http://www.w3.org/2000/svg" xmlns:xlink="http://www.w3.org/1999/xlink" x="0px" y="0px"
	 viewBox="0 0 30 30" style="enable-background:new 0 0 30 30;" xml:space="preserve">
<style type="text/css">
	.st0{fill-rule:evenodd;clip-rule:evenodd;fill:#FFFFFF;stroke:#FFFFFF;stroke-miterlimit:10;}
	.st1{fill-rule:evenodd;clip-rule:evenodd;fill:#1D1D1B;}
</style>
<path class="st0" d="M14.4,8.2c0,0,0.1,0.6-0.4,0.5c-0.6,0-0.7-0.9-0.7-0.9"/>
<path class="st1" d="M14.9,7.9c0,0,0.3,1.5-1.2,1.4C12.2,9.1,12,6.8,12,6.8l5,0.3L14.9,7.9 M3.5,19.1c0,0-0.7-2.8-0.4-5.1
	c0.3-2.4,0.5-2.9,2.2-3.5c0.8-0.3,1.8-0.5,2.8-0.7l0.1,1.1c0,0,1-0.5,1.8-0.1c0.6,0.3,2.8,2.4,3.8,4.8c-0.4,0.4-0.8,0.8-1.2,1.1
	c-1.1,0.8-3.1,1.3-3.1,1.3s1.6-0.9,2.3-2.2C11.5,15.8,8,16.1,8,16.1l1-0.7c0,0,1.2,0.2,1.8-0.3c0.6-0.6,1.2-1.2,1.2-1.2
	S9.5,13.7,8,14c-1.5,0.3-2.7,1.9-3.1,2.7C4.5,17.4,3.5,19.1,3.5,19.1z M8.1,9.7L8,7.3c-0.1-1.7,1.8-3.4,4.9-3.4c3.1,0,4.6,0,5.5,0.2
	C19.3,4.3,23,3.7,24,1.6c-1.9,4.8-3.4,5.2-3.9,5.8c-0.5,0.6-0.6,1.1-0.6,1.1s3.8,2.9,5.3,7.2c1.4,4.3,2.1,10.1,2.1,10.1l-2.1-3.3
	c0,0-0.4,2.7-1.1,4.1c-0.7-2.8-0.9-4-3.8-4.8c1.2,4.8-0.7,5.6-0.7,5.6s0-3.2-0.7-4.2c-0.7-1.1-1.4-1.3-1.4-1.3s-0.3,3.3-1.7,5.1
	c-0.1-2.9-0.6-4.2-0.6-4.2l-3.7,4.3c0,0,2.1-4.6,3.1-8.2c0.3-1.1,0.1-2.3-0.4-3.4c0.6-0.6,1-1.1,1-1.1l-4.3-5
	C10.5,9.4,9.4,9.5,8.1,9.7z"/>
</svg>
