<?xml version="1.0" encoding="utf-8"?>
<!-- Generator: Adobe Illustrator 21.0.0, SVG Export Plug-In . SVG Version: 6.00 Build 0)  -->
<svg version="1.1" id="Слой_1" xmlns="http://www.w3.org/2000/svg" xmlns:xlink="http://www.w3.org/1999/xlink" x="0px" y="0px"
	 viewBox="0 0 30 30" style="enable-background:new 0 0 30 30;" xml:space="preserve">
<style type="text/css">
	.st0{fill:#FFFFFF;}
	.st1{fill:#1D1D1B;}
	.st2{fill-rule:evenodd;clip-rule:evenodd;fill:#1D1D1B;}
</style>
<path class="st0" d="M3.1,22.8l-0.9-2c0,0,2.5-2,3.9-2.9c1.4-0.9,2.1-1.2,2.1-1.2L8.9,16l1.1-0.5l0.1,0.3l16-6.8l0.5,1.1l-4.2,1.8
	l-0.3,0.5l-6.4,2.7l-0.1,0.3L9.4,18c0,0-2,1.1-2.7,1.7C6,20.2,3.1,22.8,3.1,22.8"/>
<path class="st1" d="M15.2,11.1c-0.7-0.2-1.7-0.2-2.2,0.5l-0.3,0c0.1-0.2,0.3-0.4,0.7-0.6c0.5-0.2,1.3-0.2,1.8-0.1L15.2,11.1
	 M12.7,12.1c0,0.1-0.1,0.3-0.1,0.4l-0.3-0.1c0-0.1,0.1-0.2,0.1-0.4L12.7,12.1z"/>
<path class="st1" d="M12.6,17.2c-0.2,0.6,0,0.4-0.1,0.8c0,0.2-0.1,0.3-0.3,0.5c-1.5,0.9-3.1,1.9-4.3,3.3l-0.3-0.3
	c0,0,0.2-0.3,0.6-0.7c1.1-1.1,2.4-1.9,3.7-2.7c0.2-0.1,0.1-0.3,0.1-0.4c0-0.2,0.1-0.5,0.1-0.7L12.6,17.2"/>
<path class="st1" d="M13.3,14.3l0-0.1c0,0,0-0.1,0-0.1c0-0.1,0-0.1,0-0.2l14.7-6.3l0.4,1l-2.4,1l0.3,0.6L22.2,12
	c-0.2,0.1-0.4,0.3-0.5,0.5l-6.3,2.7c-0.1,0-0.2,0.3-0.2,0.4c-0.1,0.2-3.7,1.6-5.1,2.2c0,0,0-0.1,0-0.1l0.2-0.4l4.5-1.9
	c0-0.2,0.2-0.4,0.4-0.5l6.1-2.6c0.1-0.3,0.3-0.5,0.6-0.6l3.8-1.6l-0.3-0.7l-12.3,5.2L13.3,14.3 M8.3,15.8l0.2-0.1c0,0.1,0,0.1,0,0.2
	C8.4,15.8,8.3,15.8,8.3,15.8z M9.6,15.4l3.1-1.3l-0.1,0.2l-0.1,0.2l-0.1,0.2l-3.1,1.3l-0.1-0.3l-0.1,0.1c0.1,0.1,0.1,0.3,0.2,0.4
	c0,0,0,0,0,0l0,0c0,0,0.1,0.1,0.1,0.1c0.1,0,0.2,0.1,0.3,0.2c0.1,0.2,0,0.4-0.2,0.5c-0.2,0.1-0.4,0-0.5-0.2c0,0,0-0.1,0-0.1
	c0,0,0,0,0-0.1c0,0,0,0,0,0c-0.4-0.1-0.8-0.3-0.9-0.3L8,16.8c0,0-0.6,0.3-2.3,1.2c-1.3,0.8-2.5,1.7-3.7,2.7l0.7,1.7
	c2.2-2.2,3.8-3.6,6.7-4.9l0.1,0c0,0.1-0.1,0.3-0.1,0.5c-2.9,1.3-4.6,2.9-6.9,5.1l-1.1-2.5c0,0,0.6-0.6,1.4-1.2
	c1.5-1.2,3.1-2.2,4.8-3l0.1-0.2c0.2,0,0.3,0,0.4,0.1c0.2,0,0.6,0.2,0.9,0.3c0,0,0,0,0,0c0,0,0,0,0,0.1c0,0,0,0.1,0,0.1
	c0.1,0.2,0.3,0.3,0.5,0.2c0.2-0.1,0.3-0.3,0.2-0.5c-0.1-0.1-0.2-0.2-0.3-0.2c0,0-0.1-0.1-0.1-0.1l0,0c0,0,0,0,0,0
	c-0.1-0.1-0.2-0.3-0.2-0.4c-0.1-0.1-0.1-0.3-0.1-0.4l0.5-0.2L9.6,15.4z"/>
<path class="st1" d="M7.5,15.6c0.2-0.1,0.3,0,0.4,0.2c0.3,0,0.6,0.1,0.8,0.1c0.1,0,0.3,0.1,0.5,0.2c-0.3-0.7,0-1.4,0.4-1.9
	c0.1-0.2,0.2-0.2,0.2-0.2l0.2,0.2c0,0-0.1,0.1-0.2,0.2c-0.7,0.9-0.6,1.3-0.1,2c0,0,0.1,0.1,0.2,0.2c0.1,0,0.2,0.1,0.2,0.2
	c0,0.1,0,0.3-0.1,0.3c-0.1,0-0.3,0-0.3-0.1c0,0,0-0.1,0-0.1c-0.1-0.1-0.1-0.1-0.1-0.2c-0.4-0.1-0.8-0.3-1-0.3
	c-0.1,0-0.5-0.1-0.8-0.1c0,0-0.1,0.1-0.1,0.1c-0.2,0.1-0.3,0-0.4-0.2C7.3,15.9,7.4,15.7,7.5,15.6"/>
<path class="st1" d="M14.6,14.7L14.6,14.7c0.1-0.2,0.2-0.6,0.3-1.1c0.1-0.5-0.5-1.5-1.2-1.5C12.9,12,12.4,12,12.4,12l0-0.3
	c0,0,0.5,0,1.3,0.1c0.9,0.1,1.7,1.2,1.5,2c-0.1,0.5-0.2,0.9-0.3,1.1c0,0,0,0.1,0.1,0.1c0.1,0.2,0,0.3-0.2,0.4
	c-0.2,0.1-0.3,0-0.4-0.2C14.4,15,14.4,14.8,14.6,14.7"/>
<path class="st2" d="M13.6,15c0.1,0,0.1,0.1,0.1,0.2c0.1,0.3,0,0.6-0.3,0.7l-3.9,1.7c-0.3,0.1-0.6,0-0.7-0.3c-0.1-0.3,0-0.6,0.3-0.7
	c0.1,0,0.2,0.1,0.4,0.1c0,0,0,0,0,0c0,0,0,0,0,0.1c0,0,0,0.1,0,0.1c0.1,0.2,0.3,0.3,0.5,0.2c0.2-0.1,0.3-0.3,0.2-0.5
	c-0.1-0.1-0.2-0.2-0.3-0.2c0,0-0.1-0.1-0.1-0.1l0,0c0,0,0,0,0,0l0,0l3.1-1.3l0,0.1c-0.2,0.1-0.3,0.3-0.2,0.6
	c0.1,0.2,0.4,0.3,0.6,0.2c0.2-0.1,0.3-0.4,0.2-0.6c0,0,0,0,0-0.1L13.6,15 M11.5,15.9c-0.1,0.1-0.2,0.2-0.1,0.3
	c0.1,0.1,0.2,0.2,0.3,0.1c0.1-0.1,0.2-0.2,0.1-0.3C11.7,15.9,11.6,15.8,11.5,15.9z"/>
</svg>
