<?xml version="1.0" encoding="utf-8"?>
<!-- Generator: Adobe Illustrator 21.0.0, SVG Export Plug-In . SVG Version: 6.00 Build 0)  -->
<svg version="1.1" id="Слой_1" xmlns="http://www.w3.org/2000/svg" xmlns:xlink="http://www.w3.org/1999/xlink" x="0px" y="0px"
	 viewBox="0 0 30 30" style="enable-background:new 0 0 30 30;" xml:space="preserve">
<style type="text/css">
	.st0{fill:#C09E00;}
	.st1{fill:#C7A718;}
	.st2{fill:#CFB133;}
	.st3{fill:#D6BA4A;}
	.st4{fill:#DCC35F;}
	.st5{fill:#FAEEB4;}
	.st6{fill:#FFF9C8;}
	.st7{fill:#E9D79B;}
	.st8{fill:#D2B771;}
	.st9{fill:#BB9A4A;}
	.st10{fill:#A48026;}
	.st11{fill:#8E6700;}
	.st12{fill-rule:evenodd;clip-rule:evenodd;fill:none;}
	.st13{fill:#4F3900;}
	.st14{clip-path:url(#SVGID_2_);fill:#D1C347;}
	.st15{clip-path:url(#SVGID_2_);fill:#D4C759;}
	.st16{clip-path:url(#SVGID_2_);fill:#D8CC6A;}
	.st17{clip-path:url(#SVGID_2_);fill:#DCD17A;}
	.st18{clip-path:url(#SVGID_2_);fill:#E0D68A;}
	.st19{clip-path:url(#SVGID_2_);fill:#E4DB99;}
	.st20{clip-path:url(#SVGID_2_);fill:#E7E0A9;}
	.st21{clip-path:url(#SVGID_2_);fill:#ECE5B7;}
	.st22{clip-path:url(#SVGID_2_);fill:#F0EBC6;}
	.st23{clip-path:url(#SVGID_2_);fill:#F4F0D5;}
	.st24{clip-path:url(#SVGID_2_);fill:#F7F5E3;}
	.st25{clip-path:url(#SVGID_2_);fill:#FBFAF1;}
	.st26{clip-path:url(#SVGID_2_);fill:#FFFFFF;}
	.st27{fill-rule:evenodd;clip-rule:evenodd;fill:#4F3900;}
	.st28{clip-path:url(#SVGID_4_);fill:#C09E00;}
	.st29{clip-path:url(#SVGID_4_);fill:#C7A718;}
	.st30{clip-path:url(#SVGID_4_);fill:#CFB133;}
	.st31{clip-path:url(#SVGID_4_);fill:#D6BA4A;}
	.st32{clip-path:url(#SVGID_4_);fill:#DCC35F;}
	.st33{clip-path:url(#SVGID_4_);fill:#E4CD74;}
	.st34{clip-path:url(#SVGID_4_);fill:#ECD889;}
	.st35{clip-path:url(#SVGID_4_);fill:#F3E39F;}
	.st36{clip-path:url(#SVGID_4_);fill:#FAEEB4;}
	.st37{clip-path:url(#SVGID_4_);fill:#FFF9C8;}
	.st38{clip-path:url(#SVGID_4_);fill:#E9D79B;}
	.st39{clip-path:url(#SVGID_4_);fill:#D2B771;}
	.st40{clip-path:url(#SVGID_4_);fill:#BB9A4A;}
	.st41{clip-path:url(#SVGID_4_);fill:#A48026;}
	.st42{clip-path:url(#SVGID_4_);fill:#8E6700;}
	.st43{fill:#FFFFFF;}
	.st44{fill-rule:evenodd;clip-rule:evenodd;fill:#1D1D1B;}
</style>
<line class="st0" x1="7.5" y1="3.7" x2="6.2" y2="3.7"/>
<line class="st1" x1="8.7" y1="3.7" x2="7.4" y2="3.7"/>
<line class="st2" x1="9.9" y1="3.7" x2="8.6" y2="3.7"/>
<line class="st3" x1="11.1" y1="3.7" x2="9.8" y2="3.7"/>
<line class="st4" x1="12.3" y1="3.7" x2="11.1" y2="3.7"/>
<line class="st5" x1="15.9" y1="3.7" x2="15.9" y2="26.3"/>
<path class="st5" d="M17.2,3.7"/>
<line class="st6" x1="18.4" y1="3.7" x2="17.1" y2="3.7"/>
<line class="st6" x1="19" y1="3.7" x2="17.7" y2="3.7"/>
<line class="st7" x1="20.2" y1="3.7" x2="19" y2="3.7"/>
<line class="st8" x1="21.5" y1="3.7" x2="20.2" y2="3.7"/>
<line class="st9" x1="22.7" y1="3.7" x2="21.4" y2="3.7"/>
<line class="st10" x1="23.9" y1="3.7" x2="22.7" y2="3.7"/>
<line class="st11" x1="25.2" y1="3.7" x2="23.9" y2="3.7"/>
<path class="st12" d="M15.7,22.5l0.1-0.1c0.6-0.8,1.7-1.7,3.4-1.7c2.4,0,4.1-1.6,4.1-4.2v-11h-7.6H8.1v11c0,2.6,1.7,4.2,4.1,4.2
	c1.7,0,2.8,0.8,3.4,1.7L15.7,22.5z"/>
<path class="st13" d="M24.3,5.1v12.6c0,3.5-2.4,5.7-5.6,5.7c-2.2,0-2.8,2.1-2.8,2.2l-0.7,1.9l-0.7-1.9c0,0-0.6-2.2-2.8-2.2
	c-3.2,0-5.6-2.3-5.6-5.7V5.1H24.3"/>
<g>
	<defs>
		<path id="SVGID_1_" d="M15.5,22.4c-0.6-0.8-1.7-1.6-3.3-1.6c-2.4,0-4.2-1.6-4.2-4.3V5.3h7.7h7.7v11.1c0,2.7-1.7,4.3-4.2,4.3
			c-1.7,0-2.7,0.8-3.3,1.6l-0.2,0.3L15.5,22.4z"/>
	</defs>
	<clipPath id="SVGID_2_">
		<use xlink:href="#SVGID_1_"  style="overflow:visible;"/>
	</clipPath>
	<rect x="7.7" y="5.1" class="st14" width="1.3" height="17.6"/>
	<rect x="8.9" y="5.1" class="st15" width="1.3" height="17.6"/>
	<rect x="10.1" y="5.1" class="st16" width="1.3" height="17.6"/>
	<rect x="11.4" y="5.1" class="st17" width="1.3" height="17.6"/>
	<rect x="12.6" y="5.1" class="st18" width="1.3" height="17.6"/>
	<rect x="13.8" y="5.1" class="st19" width="1.3" height="17.6"/>
	<rect x="15.1" y="5.1" class="st20" width="1.3" height="17.6"/>
	<rect x="16.3" y="5.1" class="st21" width="1.3" height="17.6"/>
	<rect x="17.5" y="5.1" class="st22" width="1.3" height="17.6"/>
	<rect x="18.8" y="5.1" class="st23" width="1.3" height="17.6"/>
	<rect x="20" y="5.1" class="st24" width="1.3" height="17.6"/>
	<rect x="21.2" y="5.1" class="st25" width="1.3" height="17.6"/>
	<rect x="22.5" y="5.1" class="st26" width="1.3" height="17.6"/>
</g>
<path class="st27" d="M8,5.9V5.3h15.4v11.1c0,1.5-0.6,2.7-1.5,3.4c0.6-0.7,0.9-1.7,0.9-2.8V5.9H8 M16,22.3l-0.1,0.1l-0.2,0.3
	C15.8,22.5,15.9,22.4,16,22.3z"/>
<g>
	<defs>
		<path id="SVGID_3_" d="M24.5,4.1v12.3c0,3.4-2.3,5.6-5.5,5.6c-2.1,0-2.7,2.1-2.7,2.1L15.6,26l-0.7-1.9c0,0-0.6-2.1-2.7-2.1
			c-3.2,0-5.5-2.2-5.5-5.6V4.1h8.9H24.5z M15.6,22.2l0.1-0.1c0.6-0.8,1.7-1.6,3.3-1.6c2.3,0,4-1.5,4-4.1V5.6h-7.4H8.2v10.8
			c0,2.5,1.7,4.1,4,4.1c1.7,0,2.7,0.8,3.3,1.6L15.6,22.2z"/>
	</defs>
	<clipPath id="SVGID_4_">
		<use xlink:href="#SVGID_3_"  style="overflow:visible;"/>
	</clipPath>
	<rect x="6.3" y="3.9" class="st28" width="1.2" height="22.1"/>
	<rect x="7.5" y="3.9" class="st29" width="1.2" height="22.1"/>
	<rect x="8.7" y="3.9" class="st30" width="1.2" height="22.1"/>
	<rect x="9.9" y="3.9" class="st31" width="1.2" height="22.1"/>
	<rect x="11.1" y="3.9" class="st32" width="1.2" height="22.1"/>
	<rect x="12.3" y="3.9" class="st33" width="1.2" height="22.1"/>
	<rect x="13.4" y="3.9" class="st34" width="1.2" height="22.1"/>
	<rect x="14.6" y="3.9" class="st35" width="1.2" height="22.1"/>
	<rect x="15.8" y="3.9" class="st36" width="1.2" height="22.1"/>
	<rect x="17" y="3.9" class="st37" width="1.2" height="22.1"/>
	<rect x="17.6" y="3.9" class="st37" width="1.2" height="22.1"/>
	<rect x="18.8" y="3.9" class="st38" width="1.2" height="22.1"/>
	<rect x="20" y="3.9" class="st39" width="1.2" height="22.1"/>
	<rect x="21.2" y="3.9" class="st40" width="1.2" height="22.1"/>
	<rect x="22.4" y="3.9" class="st41" width="1.2" height="22.1"/>
	<rect x="23.6" y="3.9" class="st42" width="1.2" height="22.1"/>
</g>
<path class="st43" d="M9.5,12.2C9.2,11.5,9,10.6,9,9.5c-0.1-2.3,2-5.2,5.5-5.3C17.9,4,20,6.4,20.5,8.8c0.1,0.5,0.1,1.2-0.1,1.7
	c0-0.1-0.1-0.2-0.1-0.2c-0.9-2.1-2.6-4.1-6-3.9c-3.4,0.2-4.5,2.9-4.8,5.2C9.5,11.8,9.5,12,9.5,12.2"/>
<path class="st43" d="M10.1,13.9c-0.2-2.6,0.2-6.7,4.3-7c5-0.3,6.1,4.8,6.2,7.4c-1.5,0.9-3.2,1.3-5.2,1.4
	C13.5,15.8,11.7,15,10.1,13.9"/>
<path class="st43" d="M4.8,9.7c0,0,2.7,10.1,10.3,10.1c7.6,0,9.7-7.1,10-9.1c-2.4,3.4-5.5,5.5-9.8,5.6C9.8,16.5,4.8,9.7,4.8,9.7"/>
<path class="st44" d="M4.8,9.7c0,0,2.7,10.1,10.3,10.1c7.6,0,9.7-7.1,10-9.1c-2.4,3.4-5.5,5.5-9.8,5.6C9.8,16.5,4.8,9.7,4.8,9.7
	 M10.1,13.9c-0.2-2.6,0.2-6.7,4.3-7c5-0.3,6.1,4.8,6.2,7.4c-1.5,0.9-3.2,1.3-5.2,1.4C13.5,15.8,11.7,15,10.1,13.9z M9.5,12.2
	C9.2,11.5,9,10.6,9,9.5c-0.1-2.3,2-5.2,5.5-5.3C17.9,4,20,6.4,20.5,8.8c0.1,0.5,0.1,1.2-0.1,1.7c0-0.1-0.1-0.2-0.1-0.2
	c-0.9-2.1-2.6-4.1-6-3.9c-3.4,0.2-4.5,2.9-4.8,5.2C9.5,11.8,9.5,12,9.5,12.2z M9.5,9.2c0.1-2,1.9-4.3,4.9-4.4c0.5,0,1.1,0,1.5,0.1
	l-0.3,0.9c-0.4,0-0.9-0.1-1.3,0C11.7,6,10.3,7.5,9.5,9.2z M14.6,7.6l-0.5,0.8c0.4,0.3,1.8,2,2.1,4.2c0.2,1.1,0.2,2,0.2,2.5
	c-0.3,0-0.7,0.1-1,0.1c-1.6,0-3.2-0.6-4.6-1.5c-0.1-2.6,0.4-5.8,3.8-6L14.6,7.6z M15.2,7.6L15.2,7.6L15.2,7.6L15.2,7.6z M15,16.9
	l0,1.2c-6-0.2-7.4-4.5-7.9-4.9C8.9,14.6,12.4,16.9,15,16.9z"/>
</svg>
