<?xml version="1.0" encoding="utf-8"?>
<!-- Generator: Adobe Illustrator 21.0.0, SVG Export Plug-In . SVG Version: 6.00 Build 0)  -->
<svg version="1.1" id="Слой_1" xmlns="http://www.w3.org/2000/svg" xmlns:xlink="http://www.w3.org/1999/xlink" x="0px" y="0px"
	 viewBox="0 0 30 30" style="enable-background:new 0 0 30 30;" xml:space="preserve">
<style type="text/css">
	.st0{fill:#1D1D1B;}
	.st1{fill-rule:evenodd;clip-rule:evenodd;fill:#1D1D1B;}
</style>
<path class="st0" d="M24.5,22.7c0.6,0.6,1,1.1,1.2,1.6l-0.8,0.8c-0.5-0.2-1-0.6-1.6-1.2c-0.3-0.3-0.6-0.7-0.8-1l1-1
	C23.8,22.1,24.1,22.4,24.5,22.7"/>
<path class="st1" d="M20.4,20.7l-4.9-5l0.7-0.7l5.1,4.9c-0.2,0.1-0.3,0.2-0.5,0.4C20.6,20.3,20.5,20.5,20.4,20.7 M14.3,14.5L2.8,2.6
	l0.3-0.3L15,13.8L14.3,14.5z"/>
<path class="st0" d="M24,21.4c0.8-0.3,1.6-0.3,2.3,0.4c0.7,0.7,1.1,1.8,0.4,2.6L26.4,24c0.4-0.6,0.1-1.3-0.4-1.8
	c-0.6-0.6-1.3-0.6-2-0.2c-0.1-0.1-0.2-0.2-0.3-0.3L24,21.4"/>
<path class="st0" d="M26.6,24.6L26,25.2c0.2-0.1,0.4,0,0.5,0.1c0.2,0.2,0.2,0.5,0,0.7c-0.2,0.2-0.5,0.2-0.7,0
	c-0.1-0.1-0.2-0.3-0.1-0.5l-0.6,0.6l-0.4-0.4l1.5-1.5L26.6,24.6"/>
<path class="st0" d="M20.8,23.4c-0.7-0.9-0.7-2.2,0.2-3c0.8-0.8,2.1-0.9,3-0.2l1.1-1.1c0-0.1,0-0.3,0.1-0.4c0.2-0.2,0.5-0.2,0.7,0
	c0.2,0.2,0.2,0.5,0,0.7c-0.1,0.1-0.2,0.2-0.4,0.1l-5.3,5.3c0,0.1,0,0.3-0.1,0.4c-0.2,0.2-0.5,0.2-0.7,0c-0.2-0.2-0.2-0.5,0-0.7
	c0.1-0.1,0.2-0.2,0.4-0.1L20.8,23.4"/>
<path class="st0" d="M6,22.7c-0.5,0.6-1,1.1-1.2,1.6l0.8,0.8c0.5-0.2,1-0.6,1.6-1.2c0.3-0.3,0.6-0.7,0.8-1l-1-1
	C6.7,22.1,6.3,22.4,6,22.7"/>
<path class="st0" d="M10.1,20.7L27.7,2.6l-0.3-0.3L9.3,19.8c0.2,0.1,0.3,0.2,0.5,0.4C9.9,20.3,10,20.5,10.1,20.7"/>
<path class="st0" d="M6.5,21.4c-0.8-0.3-1.6-0.3-2.3,0.4c-0.7,0.7-1.1,1.8-0.4,2.6L4.1,24c-0.4-0.6-0.1-1.3,0.4-1.8
	c0.6-0.6,1.3-0.6,2-0.2c0.1-0.1,0.2-0.2,0.3-0.3L6.5,21.4"/>
<path class="st0" d="M9.7,23.4c0.7-0.9,0.7-2.2-0.2-3c-0.8-0.8-2.1-0.9-3-0.2l-1.1-1.1c0-0.1,0-0.3-0.1-0.4c-0.2-0.2-0.5-0.2-0.7,0
	c-0.2,0.2-0.2,0.5,0,0.7c0.1,0.1,0.2,0.2,0.4,0.1l5.3,5.3c0,0.1,0,0.3,0.1,0.4c0.2,0.2,0.5,0.2,0.7,0c0.2-0.2,0.2-0.5,0-0.7
	c-0.1-0.1-0.2-0.2-0.4-0.1L9.7,23.4"/>
</svg>
