<?xml version="1.0" encoding="utf-8"?>
<!-- Generator: Adobe Illustrator 21.0.0, SVG Export Plug-In . SVG Version: 6.00 Build 0)  -->
<svg version="1.1" id="Слой_1" xmlns="http://www.w3.org/2000/svg" xmlns:xlink="http://www.w3.org/1999/xlink" x="0px" y="0px"
	 viewBox="0 0 30 30" style="enable-background:new 0 0 30 30;" xml:space="preserve">
<style type="text/css">
	.st0{fill:#1D1D1B;}
</style>
<path class="st0" d="M10.4,7c0,0-0.4,0.5-0.6,1.3C9.6,8.4,9.5,8.6,9.3,8.8c-1.4,2.1-1.5,4.8,0.1,6.9c0,0.5,0.1,1.1,0.4,1.5
	c-1.8-1.6-2.5-2.5-2.5-5.2C7.3,9.3,10.4,7,10.4,7 M9.7,9.3c0.1,0.5,0.3,0.9,0.8,1.4c1.3,1.1,2.5,0.6,3.2,0.2v3.8
	c-0.3-0.4-1-0.8-2.3-0.8c-1,0-1.5,0.5-1.8,1.2C8.5,13.2,8.6,11.1,9.7,9.3z M14.2,11c0.1,0.2,0.3,0.4,0.5,0.6v2.1
	c-0.2,0.1-0.4,0.2-0.5,0.3V11z M16.8,11.9c0.4,0,0.7-0.1,1-0.3v-0.8h0.8v1c0.5,0,1.4,0.1,2,0.5c0.9,0.5,2,2.3,0.3,4.2
	c0.1-1.7-0.5-2.1-2.3-2.2V15h-0.8v-0.8c-0.1-0.2-0.4-0.4-1-0.5V11.9z"/>
<path class="st0" d="M16.3,10.6v4h0.5v0.9h-0.5v2.7h-1.1v-2.7h-0.5v-0.9h0.5v-4h-0.4V9.8h0.5c-0.6-0.6-1.6-1.2-1.6-1.2
	s0.6-1.1,1.1-2.7c0.5-1.7,0.9-4.5,0.9-4.5s0.4,2.8,0.9,4.5c0.5,1.7,1.2,2.7,1.2,2.7s-1,0.6-1.6,1.2h0.5v0.8H16.3"/>
<path class="st0" d="M16.2,23.9v4.4h-1.1v-4.4l-0.6,0l0.1-0.8l-0.5,0c0,0.6,0,0.8,0,0.8l-0.7,0c-0.1-0.5,0-1.1,0.1-1.8
	c-0.3,0.8-0.6,1.7-0.6,1.7l-0.7-0.1c0.4-1.3,0.9-2.5,2-3.6l0.1-0.1c0-0.1-0.1-0.2-0.1-0.2v-0.6c0-0.3,0.3-0.5,0.7-0.5h1.5
	c0.4,0,0.7,0.2,0.7,0.5v0.6c0,0.1,0,0.2-0.1,0.2l0.1,0.1c1.1,1,1.5,2.3,2,3.6l-0.7,0.1c0,0-0.3-0.9-0.6-1.7c0.1,0.7,0.2,1.4,0.1,1.8
	l-0.7,0c0,0,0-0.2,0-0.8l-0.4,0l0.1,0.8L16.2,23.9"/>
</svg>
