<?xml version="1.0" encoding="utf-8"?>
<!-- Generator: Adobe Illustrator 21.0.0, SVG Export Plug-In . SVG Version: 6.00 Build 0)  -->
<svg version="1.1" id="Слой_1" xmlns="http://www.w3.org/2000/svg" xmlns:xlink="http://www.w3.org/1999/xlink" x="0px" y="0px"
	 viewBox="0 0 30 30" style="enable-background:new 0 0 30 30;" xml:space="preserve">
<style type="text/css">
	.st0{fill:#4F3900;}
	.st1{fill-rule:evenodd;clip-rule:evenodd;fill:none;}
	.st2{clip-path:url(#SVGID_2_);fill:#D1C347;}
	.st3{clip-path:url(#SVGID_2_);fill:#D4C759;}
	.st4{clip-path:url(#SVGID_2_);fill:#D8CC6A;}
	.st5{clip-path:url(#SVGID_2_);fill:#DCD17A;}
	.st6{clip-path:url(#SVGID_2_);fill:#E0D68A;}
	.st7{clip-path:url(#SVGID_2_);fill:#E4DB99;}
	.st8{clip-path:url(#SVGID_2_);fill:#E7E0A9;}
	.st9{clip-path:url(#SVGID_2_);fill:#ECE5B7;}
	.st10{clip-path:url(#SVGID_2_);fill:#F0EBC6;}
	.st11{clip-path:url(#SVGID_2_);fill:#F4F0D5;}
	.st12{clip-path:url(#SVGID_2_);fill:#F7F5E3;}
	.st13{clip-path:url(#SVGID_2_);fill:#FBFAF1;}
	.st14{clip-path:url(#SVGID_2_);fill:#FFFFFF;}
	.st15{fill-rule:evenodd;clip-rule:evenodd;fill:#4F3900;}
	.st16{clip-path:url(#SVGID_4_);fill:#C09E00;}
	.st17{clip-path:url(#SVGID_4_);fill:#C7A718;}
	.st18{clip-path:url(#SVGID_4_);fill:#CFB133;}
	.st19{clip-path:url(#SVGID_4_);fill:#D6BA4A;}
	.st20{clip-path:url(#SVGID_4_);fill:#DCC35F;}
	.st21{clip-path:url(#SVGID_4_);fill:#E4CD74;}
	.st22{clip-path:url(#SVGID_4_);fill:#ECD889;}
	.st23{clip-path:url(#SVGID_4_);fill:#F3E39F;}
	.st24{clip-path:url(#SVGID_4_);fill:#FAEEB4;}
	.st25{clip-path:url(#SVGID_4_);fill:#FFF9C8;}
	.st26{clip-path:url(#SVGID_4_);fill:#E9D79B;}
	.st27{clip-path:url(#SVGID_4_);fill:#D2B771;}
	.st28{clip-path:url(#SVGID_4_);fill:#BB9A4A;}
	.st29{clip-path:url(#SVGID_4_);fill:#A48026;}
	.st30{clip-path:url(#SVGID_4_);fill:#8E6700;}
	.st31{fill:#FFFFFF;}
	.st32{fill:#1D1D1B;}
	.st33{fill-rule:evenodd;clip-rule:evenodd;fill:#1D1D1B;}
</style>
<path class="st0" d="M14.6,26.2l-0.7-1.9c0,0-0.6-2.1-2.6-2.1c-3.1,0-5.3-2.2-5.3-5.4V4.9h17.4"/>
<path class="st0" d="M23.2,4.9v11.9c0,3.3-2.3,5.4-5.3,5.4c-2.1,0-2.6,2-2.6,2.1l-0.7,1.9"/>
<path class="st1" d="M23.8,3.8v11.9c0,3.3-2.3,5.4-5.3,5.4c-2.1,0-2.6,2-2.6,2.1l-0.7,1.9l-0.7-1.9c0,0-0.6-2.1-2.6-2.1
	c-3.1,0-5.3-2.2-5.3-5.4V3.8h8.7H23.8z M15.1,21.4l0.1-0.1c0.6-0.8,1.6-1.6,3.3-1.6c2.3,0,3.9-1.5,3.9-4V5.3h-7.2H7.9v10.5
	c0,2.5,1.6,4,3.9,4c1.6,0,2.7,0.8,3.3,1.6L15.1,21.4z"/>
<g>
	<defs>
		<path id="SVGID_1_" d="M14.9,21.4c-0.6-0.8-1.6-1.6-3.2-1.6c-2.3,0-4-1.6-4-4.1V5.2h7.3h7.3v10.6c0,2.5-1.7,4.1-4,4.1
			c-1.6,0-2.6,0.8-3.2,1.6l-0.2,0.2L14.9,21.4z"/>
	</defs>
	<clipPath id="SVGID_2_">
		<use xlink:href="#SVGID_1_"  style="overflow:visible;"/>
	</clipPath>
	<rect x="7.5" y="4.9" class="st2" width="1.2" height="16.7"/>
	<rect x="8.6" y="4.9" class="st3" width="1.2" height="16.7"/>
	<rect x="9.8" y="4.9" class="st4" width="1.2" height="16.7"/>
	<rect x="11" y="4.9" class="st5" width="1.2" height="16.7"/>
	<rect x="12.2" y="4.9" class="st6" width="1.2" height="16.7"/>
	<rect x="13.3" y="4.9" class="st7" width="1.2" height="16.7"/>
	<rect x="14.5" y="4.9" class="st8" width="1.2" height="16.7"/>
	<rect x="15.7" y="4.9" class="st9" width="1.2" height="16.7"/>
	<rect x="16.8" y="4.9" class="st10" width="1.2" height="16.7"/>
	<rect x="18" y="4.9" class="st11" width="1.2" height="16.7"/>
	<rect x="19.2" y="4.9" class="st12" width="1.2" height="16.7"/>
	<rect x="20.4" y="4.9" class="st13" width="1.2" height="16.7"/>
	<rect x="21.5" y="4.9" class="st14" width="1.2" height="16.7"/>
	<polygon class="st14" points="22.4,21.6 22.4,21.6 22.4,4.9 	"/>
	<polygon class="st14" points="22.7,21.6 22.7,21.6 22.7,4.9 	"/>
</g>
<path class="st15" d="M7.8,5.7V5.2h14.7v10.6c0,1.4-0.5,2.6-1.4,3.3c0.5-0.7,0.9-1.6,0.9-2.7V5.7H7.8 M15.4,21.2l-0.1,0.1l-0.2,0.2
	C15.2,21.5,15.3,21.3,15.4,21.2z"/>
<g>
	<defs>
		<path id="SVGID_3_" d="M23.8,3.8v11.9c0,3.3-2.3,5.4-5.3,5.4c-2.1,0-2.6,2-2.6,2.1l-0.7,1.9l-0.7-1.9c0,0-0.6-2.1-2.6-2.1
			c-3.1,0-5.3-2.2-5.3-5.4V3.8h8.7H23.8z M15.1,21.4l0.1-0.1c0.6-0.8,1.6-1.6,3.3-1.6c2.3,0,3.9-1.5,3.9-4V5.3h-7.2H7.9v10.5
			c0,2.5,1.6,4,3.9,4c1.6,0,2.7,0.8,3.3,1.6L15.1,21.4z"/>
	</defs>
	<clipPath id="SVGID_4_">
		<use xlink:href="#SVGID_3_"  style="overflow:visible;"/>
	</clipPath>
	<rect x="6.1" y="3.6" class="st16" width="1.2" height="21.5"/>
	<rect x="7.2" y="3.6" class="st17" width="1.2" height="21.5"/>
	<rect x="8.4" y="3.6" class="st18" width="1.2" height="21.5"/>
	<rect x="9.5" y="3.6" class="st19" width="1.2" height="21.5"/>
	<rect x="10.7" y="3.6" class="st20" width="1.2" height="21.5"/>
	<rect x="11.8" y="3.6" class="st21" width="1.2" height="21.5"/>
	<rect x="13" y="3.6" class="st22" width="1.2" height="21.5"/>
	<rect x="14.2" y="3.6" class="st23" width="1.2" height="21.5"/>
	<rect x="15.3" y="3.6" class="st24" width="1.2" height="21.5"/>
	<rect x="16.5" y="3.6" class="st25" width="1.2" height="21.5"/>
	<rect x="17" y="3.6" class="st25" width="1.2" height="21.5"/>
	<rect x="18.2" y="3.6" class="st26" width="1.2" height="21.5"/>
	<rect x="19.4" y="3.6" class="st27" width="1.2" height="21.5"/>
	<rect x="20.6" y="3.6" class="st28" width="1.2" height="21.5"/>
	<rect x="21.7" y="3.6" class="st29" width="1.2" height="21.5"/>
	<rect x="22.9" y="3.6" class="st30" width="1.2" height="21.5"/>
	<polygon class="st30" points="24.1,25.1 24.1,25.1 24.1,3.6 	"/>
</g>
<path class="st31" d="M4,20.1l-0.8-2c0,0,2.4-2,3.8-2.8c1.4-0.8,2-1.1,2-1.1l0.6-0.6l1-0.4l0.1,0.3l15.4-6.5l0.5,1.1l-4,1.7
	l-0.3,0.4l-6.1,2.6L16,13l-5.9,2.5c0,0-1.9,1.1-2.6,1.6C6.8,17.6,4,20.1,4,20.1"/>
<path class="st32" d="M14.3,9.2c-0.6-0.1-1.7-0.1-2.1,0.4l-0.3,0c0.1-0.2,0.3-0.4,0.7-0.6c0.5-0.2,1.2-0.2,1.8-0.1L14.3,9.2
	 M11.9,10.3c0,0.1-0.1,0.3-0.1,0.4l-0.3-0.1c0-0.1,0.1-0.2,0.1-0.3L11.9,10.3z"/>
<path class="st32" d="M11.2,15.1c-0.2,0.6,0,0.4-0.1,0.8c0,0.2-0.1,0.3-0.3,0.4c-1.5,0.9-3,1.8-4.1,3.2l-0.3-0.2
	c0,0,0.2-0.3,0.6-0.7c1-1,2.3-1.8,3.6-2.6c0.2-0.1,0.1-0.2,0.1-0.4c0-0.2,0.1-0.5,0.1-0.6L11.2,15.1"/>
<path class="st32" d="M14.3,11.9l0-0.1c0,0,0-0.1,0-0.1c0-0.1,0-0.1,0-0.2l14.2-6l0.4,0.9l-2.3,1L26.9,8l-4,1.7
	c-0.2,0.1-0.4,0.3-0.4,0.5l-6.1,2.6c-0.1,0-0.2,0.3-0.2,0.4c-0.1,0.2-3.6,1.5-4.9,2.1c0,0,0-0.1,0-0.1l0.2-0.4l4.4-1.8
	c0-0.2,0.2-0.4,0.4-0.5l5.9-2.5c0.1-0.3,0.3-0.5,0.6-0.6l3.6-1.5l-0.3-0.7l-11.9,5L14.3,11.9 M9.5,13.4l0.2-0.1c0,0,0,0.1,0,0.1
	C9.6,13.4,9.5,13.4,9.5,13.4z M10.7,13l3-1.3L13.7,12l-0.1,0.2l-0.1,0.2l-2.9,1.2l-0.1-0.3l-0.1,0.1c0.1,0.1,0.1,0.2,0.2,0.4
	c0,0,0,0,0,0l0,0c0,0,0.1,0.1,0.1,0.1c0.1,0,0.2,0.1,0.3,0.2c0.1,0.2,0,0.4-0.2,0.5c-0.2,0.1-0.4,0-0.5-0.2c0,0,0-0.1,0-0.1
	c0,0,0,0,0-0.1c0,0,0,0,0,0c-0.4-0.1-0.7-0.3-0.9-0.3l-0.2,0.4c0,0-0.6,0.2-2.2,1.2c-1.3,0.7-2.4,1.7-3.5,2.6l0.7,1.6
	c2.2-2.1,3.7-3.5,6.5-4.7l0.1,0c0,0.1-0.1,0.3-0.1,0.5c-2.8,1.2-4.4,2.7-6.6,4.9l-1-2.4c0,0,0.6-0.5,1.3-1.1c1.4-1.1,3-2.1,4.6-2.9
	l0.1-0.2c0.2,0,0.3,0,0.4,0.1c0.2,0,0.5,0.2,0.9,0.3c0,0,0,0,0,0c0,0,0,0,0,0.1c0,0,0,0.1,0,0.1c0.1,0.2,0.3,0.3,0.5,0.2
	c0.2-0.1,0.3-0.3,0.2-0.5c0-0.1-0.2-0.2-0.3-0.2c0,0-0.1-0.1-0.1-0.1l0,0c0,0,0,0,0,0c-0.1-0.1-0.2-0.3-0.2-0.4
	c-0.1-0.1-0.1-0.3-0.1-0.4l0.4-0.2L10.7,13z"/>
<path class="st32" d="M8.2,13.2c0.2-0.1,0.3,0,0.4,0.2c0.3,0,0.6,0.1,0.8,0.1c0.1,0,0.3,0.1,0.5,0.1c-0.3-0.7,0-1.3,0.4-1.9
	c0.1-0.2,0.2-0.2,0.2-0.2l0.2,0.2c0,0-0.1,0.1-0.2,0.2c-0.6,0.9-0.6,1.2-0.1,1.9c0,0,0.1,0.1,0.2,0.2c0.1,0,0.2,0.1,0.2,0.1
	c0,0.1,0,0.2-0.1,0.3c-0.1,0.1-0.3,0-0.3-0.1c0,0,0-0.1,0-0.1c0-0.1-0.1-0.1-0.1-0.2c-0.3-0.1-0.8-0.3-0.9-0.3
	c-0.1,0-0.5-0.1-0.8-0.1c0,0-0.1,0.1-0.1,0.1c-0.2,0.1-0.3,0-0.4-0.2C8,13.5,8.1,13.3,8.2,13.2"/>
<path class="st32" d="M13.6,12.7L13.6,12.7c0.1-0.2,0.2-0.6,0.3-1.1c0.1-0.5-0.5-1.4-1.2-1.5c-0.7-0.1-1.3-0.1-1.3-0.1l0-0.3
	c0,0,0.5,0,1.3,0.1c0.8,0.1,1.7,1.2,1.5,1.9c-0.1,0.5-0.2,0.9-0.3,1.1c0,0,0,0,0.1,0.1c0.1,0.1,0,0.3-0.2,0.4
	c-0.1,0.1-0.3,0-0.4-0.2C13.4,13,13.4,12.8,13.6,12.7"/>
<path class="st33" d="M14.1,12.6c0.1,0,0.1,0.1,0.1,0.2c0.1,0.2,0,0.5-0.3,0.6L10.2,15c-0.3,0.1-0.5,0-0.6-0.3
	c-0.1-0.2,0-0.5,0.3-0.6c0.1,0,0.2,0.1,0.4,0.1c0,0,0,0,0,0c0,0,0,0,0,0.1c0,0,0,0.1,0,0.1c0.1,0.2,0.3,0.3,0.5,0.2
	c0.2-0.1,0.3-0.3,0.2-0.5c0-0.1-0.2-0.2-0.3-0.2c0,0-0.1-0.1-0.1-0.1l0,0c0,0,0,0,0,0l0,0l3-1.3l0,0.1c-0.2,0.1-0.3,0.3-0.2,0.5
	c0.1,0.2,0.3,0.3,0.6,0.2c0.2-0.1,0.3-0.3,0.2-0.6c0,0,0,0,0-0.1L14.1,12.6 M12,13.5c-0.1,0-0.2,0.2-0.1,0.3
	c0.1,0.1,0.2,0.2,0.3,0.1c0.1,0,0.2-0.2,0.1-0.3C12.3,13.5,12.1,13.4,12,13.5z"/>
</svg>
