<?xml version="1.0" encoding="utf-8"?>
<!-- Generator: Adobe Illustrator 21.0.0, SVG Export Plug-In . SVG Version: 6.00 Build 0)  -->
<svg version="1.1" id="Слой_1" xmlns="http://www.w3.org/2000/svg" xmlns:xlink="http://www.w3.org/1999/xlink" x="0px" y="0px"
	 viewBox="0 0 30 29.1" style="enable-background:new 0 0 30 29.1;" xml:space="preserve">
<style type="text/css">
	.st0{fill:#FFFFFF;}
	.st1{fill:#1D1D1B;}
</style>
<path class="st0" d="M1.9,21.3l-1-2.2c0,0,2.8-2.2,4.3-3.2s2.3-1.3,2.3-1.3l0.8-0.8l1.2-0.6l0.1,0.3l17.8-7.6L28,7.2l-4.7,2L23,9.7
	l-7.1,3l-0.1,0.3l-6.9,2.9c0,0-2.2,1.2-3,1.9C5.1,18.4,1.9,21.3,1.9,21.3"/>
<path class="st1" d="M15.3,8.3c-0.8-0.2-1.9-0.2-2.4,0.6h-0.3c0.1-0.2,0.3-0.4,0.8-0.7c0.6-0.2,1.4-0.2,2-0.1V8.3 M12.6,9.4
	c0,0.1-0.1,0.3-0.1,0.4l-0.3-0.1c0-0.1,0.1-0.2,0.1-0.4L12.6,9.4z"/>
<path class="st1" d="M12.4,15.1c-0.2,0.7,0,0.4-0.1,0.9c0,0.2-0.1,0.3-0.3,0.6c-1.7,1-3.4,2.1-4.8,3.7l-0.3-0.3c0,0,0.2-0.3,0.7-0.8
	c1.2-1.2,2.7-2.1,4.1-3c0.2-0.1,0.1-0.3,0.1-0.4c0-0.2,0.1-0.6,0.1-0.8L12.4,15.1"/>
<path class="st1" d="M13.2,11.8v-0.1v-0.1c0-0.1,0-0.1,0-0.2l16.3-7L30,5.5l-2.7,1.1l0.3,0.7l-4.6,2c-0.2,0.1-0.4,0.3-0.6,0.6l-7,3
	c-0.1,0-0.2,0.3-0.2,0.4c-0.1,0.2-4.1,1.8-5.7,2.4v-0.1l0.2-0.4l5-2.1c0-0.2,0.2-0.4,0.4-0.6l6.8-2.9c0.1-0.3,0.3-0.6,0.7-0.7
	L27,7.2l-0.3-0.8L13,12.2L13.2,11.8 M7.7,13.5l0.2-0.1c0,0.1,0,0.1,0,0.2C7.8,13.5,7.7,13.5,7.7,13.5z M9.1,13.1l3.4-1.4l-0.1,0.2
	l-0.1,0.2l-0.1,0.2l-3.4,1.4l-0.1-0.3l-0.1,0.1c0.1,0.1,0.1,0.3,0.2,0.4l0,0l0,0l0.1,0.1c0.1,0,0.2,0.1,0.3,0.2
	c0.1,0.2,0,0.4-0.2,0.6c-0.2,0.1-0.4,0-0.6-0.2v-0.1c0,0,0,0,0-0.1l0,0c-0.4-0.1-0.9-0.3-1-0.3l-0.1,0.6c0,0-0.7,0.3-2.6,1.3
	c-1.4,0.9-2.8,1.9-4.1,3l0.8,1.9c2.4-2.4,4.2-4,7.4-5.4H9c0,0.1-0.1,0.3-0.1,0.6c-3.2,1.4-5.1,3.2-7.7,5.7L0,18.8
	c0,0,0.7-0.7,1.6-1.3c1.7-1.3,3.4-2.4,5.3-3.3L7,13.9c0.2,0,0.3,0,0.4,0.1c0.2,0,0.7,0.2,1,0.3l0,0c0,0,0,0,0,0.1v0.1
	c0.1,0.2,0.3,0.3,0.6,0.2c0.2-0.1,0.3-0.3,0.2-0.6c-0.1-0.1-0.2-0.2-0.3-0.2l-0.1-0.1l0,0l0,0c-0.1-0.1-0.2-0.3-0.2-0.4
	c-0.1-0.1-0.1-0.3-0.1-0.4L9,12.8L9.1,13.1z"/>
<path class="st1" d="M6.8,13.3c0.2-0.1,0.3,0,0.4,0.2c0.3,0,0.7,0.1,0.9,0.1c0.1,0,0.3,0.1,0.6,0.2c-0.3-0.8,0-1.6,0.4-2.1
	c0.1-0.2,0.2-0.2,0.2-0.2l0.2,0.2c0,0-0.1,0.1-0.2,0.2c-0.8,1-0.7,1.4-0.1,2.2c0,0,0.1,0.1,0.2,0.2c0.1,0,0.2,0.1,0.2,0.2
	s0,0.3-0.1,0.3c-0.1,0-0.3,0-0.3-0.1v-0.1c-0.1-0.1-0.1-0.1-0.1-0.2c-0.4-0.1-0.9-0.3-1.1-0.3c-0.1,0-0.6-0.1-0.9-0.1L7,14.2
	c-0.2,0.1-0.3,0-0.4-0.2C6.6,13.6,6.7,13.4,6.8,13.3"/>
<path class="st1" d="M14.7,12.3L14.7,12.3c0.1-0.2,0.2-0.7,0.3-1.2c0.1-0.6-0.6-1.7-1.3-1.7c-0.9-0.1-1.4-0.1-1.4-0.1V8.9
	c0,0,0.6,0,1.4,0.1c1,0.1,1.9,1.3,1.7,2.2c-0.1,0.6-0.2,1-0.3,1.2c0,0,0,0.1,0.1,0.1c0.1,0.2,0,0.3-0.2,0.4c-0.2,0.1-0.3,0-0.4-0.2
	C14.4,12.6,14.4,12.4,14.7,12.3"/>
<path class="st1" d="M13.6,12.6c0.1,0,0.1,0.1,0.1,0.2c0.1,0.3,0,0.7-0.3,0.8L9,15.5c-0.3,0.1-0.7,0-0.8-0.3c-0.1-0.3,0-0.7,0.3-0.8
	c0.1,0,0.2,0.1,0.4,0.1l0,0c0,0,0,0,0,0.1v0.1c0.1,0.2,0.3,0.3,0.6,0.2c0.2-0.1,0.3-0.3,0.2-0.6c-0.1-0.1-0.2-0.2-0.3-0.2l-0.1-0.1
	l0,0l0,0l0,0l3.4-1.4v0.1c-0.2,0.1-0.3,0.3-0.2,0.7c0.1,0.2,0.4,0.3,0.7,0.2c0.2-0.1,0.3-0.4,0.2-0.7c0,0,0,0,0-0.1L13.6,12.6
	 M11.2,13.6c-0.1,0.1-0.2,0.2-0.1,0.3c0.1,0.1,0.2,0.2,0.3,0.1s0.2-0.2,0.1-0.3C11.4,13.6,11.3,13.5,11.2,13.6z"/>
</svg>
