<?xml version="1.0" encoding="utf-8"?>
<!-- Generator: Adobe Illustrator 21.0.0, SVG Export Plug-In . SVG Version: 6.00 Build 0)  -->
<svg version="1.1" id="Слой_1" xmlns="http://www.w3.org/2000/svg" xmlns:xlink="http://www.w3.org/1999/xlink" x="0px" y="0px"
	 viewBox="0 0 30 30" style="enable-background:new 0 0 30 30;" xml:space="preserve">
<style type="text/css">
	.st0{fill-rule:evenodd;clip-rule:evenodd;fill:#1D1D1B;}
</style>
<path class="st0" d="M28.3,7.9L28,5.8h0.1L28,5h-0.1C28,5,28.2,5,28.4,4.9c0.2,0,0.3,0,0.4,0c0,0,0.1,0,0.2,0C29,5,29,5.1,29,5.2
	c0.1,0.5,0,1.3,0,1.6c0,0.1,0,0.2,0,0.4c0,0.2,0.1,0.2,0.1,0.4L28.3,7.9 M27.8,3.8C27.9,3.8,27.9,3.8,27.8,3.8
	c0.1,0,0.5-0.3,0.8-0.5c0.3-0.2,1-0.3,1-0.3l-1,1.2c0,0,0,0.1,0.1,0.2c-0.1,0-0.3,0-0.4,0c-0.2,0-0.3,0-0.5,0.1L27.8,3.8z M27.3,3.7
	l0.4,0l0.1,0.9c0,0,0.3-0.1,0.6-0.1c0.3,0,0.5,0,0.5,0L29,4.8c0,0-0.3,0-0.6,0C28,4.9,27.5,5,27.5,5s-0.1-0.8-0.1-1
	C27.3,3.8,27.3,3.7,27.3,3.7z M27.9,5.2L28,5.7l-0.5,0l-0.1-0.6L27.9,5.2z M19.1,15.6c0.1,0.1,0.1,0.3,0.2,0.4
	c0.1,0.2,0.1,0.4,0.1,0.5l-0.3,0.2C19,16.5,19,16.2,19,15.9C19,15.8,19.1,15.7,19.1,15.6z M18.5,16.6c-0.4,0-1.5,0.1-2.6,0
	c-1.6-0.1-2.9-0.4-4.3-1.1c-0.9,1.1-1.1,1.8-2,2.2c-0.9,0.4-1.5,0.4-1.7,0.8c-0.3,0.3-0.4,0.4-0.3,0.6c0.2,0.2,0.9,1,1.2,1.4
	c0.3,0.3,0.7,0.6,0.8,0.7c0.1,0.1,0.4,0.1,0.3,0.5c-0.1,0.3-0.1,0.5-0.1,0.8c0,0.3,0.1,0.8-0.2,1c-0.2,0.3-0.4,0.8-0.4,0.8
	s-0.2,0.1-0.4-0.2C8.8,23.8,8.3,23,8.3,23s0.2-0.1,0.2-0.3c0-0.2,0-0.4,0.2-0.3c0.2,0,0.3-0.1,0.4-0.2C9.2,22.1,9.2,22,9,22
	c-0.2,0-0.3,0-0.4-0.2c-0.1-0.2,0-0.3-0.4-0.6c-0.4-0.3-1.1-1.3-1.4-1.5c-0.3-0.3-0.8-0.6-0.9-0.8c-0.1-0.2-0.1-0.2-0.2-0.3
	c-0.1,0,0,0.2-0.1,0.3c-0.1,0.1-0.4,0.7-0.5,0.9c-0.1,0.2-0.3,0.7-0.3,0.9c0,0.2,0,1-0.1,1.9c0,0.8,0,0.9,0,1.1c0,0.1,0,0.1,0.2,0.3
	c0.1,0.2,0.2,0.4,0.3,0.5c0.1,0.1,0.2,0.3,0.2,0.3s0.2-0.1,0.4,0.2c0.2,0.3,0.5,0.6,0.5,0.7C6.5,25.8,6.5,26,6.3,26
	c-0.2,0-1,0.1-1.2,0C5,26.1,5,26,5,26s-0.2-0.1-0.2-0.2c0-0.1,0.2-0.4,0.1-0.5c-0.1-0.1-0.3-0.4-0.5-0.4c-0.2,0-0.3-0.1-0.4-0.1
	c-0.1,0-0.2-0.1-0.3-0.3c0-0.2,0.1-2.1,0.1-2.7c0-0.6-0.1-1.5-0.1-1.9c0-0.3,0-0.5,0-0.6c0-0.1,0-0.2,0.1-0.2c0.1-0.1,0.5-1,0.9-1.5
	C5,17,5.3,16.5,5.4,16.2c0.1-0.2,0-0.7,0-0.9c-0.1-0.2-0.4-1.3-0.5-2c-0.1-0.7-0.1-1.5,0-1.9c0.2-0.5,0.3-0.9,0.3-0.9
	s-0.4,0-0.6,0.1c-0.2,0.2-0.4,0.3-0.4,0.5c0,0.2,0.1,0.3,0.1,0.3s-0.1,0.1-0.2,0.1c-0.1,0-0.1-0.1-0.1-0.1S3.9,12,4,12.1
	c0,0.1,0.1,0.4,0.1,0.6c0,0.2-0.1,0.4-0.1,0.4s0-0.2,0-0.3c0-0.1-0.1-0.3-0.1-0.3s-0.2,1.3-0.3,1.5c-0.1,0.3-0.1,0.6-0.1,0.8
	c0,0.1,0.1,0.6,0.1,0.6s-0.1-0.3-0.2-0.4c-0.1-0.1-0.1-0.3-0.1-0.3s0,0.5-0.1,0.8c0,0.3-0.1,0.6-0.3,0.9c-0.2,0.3-1.1,1.1-1.2,1.4
	c-0.1,0.3-0.2,0.5-0.2,0.8c0,0.4,0.3,0.9,0.3,0.9S1.4,19.3,1.3,19c-0.1-0.3-0.2-0.9-0.1-1.3c-0.2,0.8-0.4,1.2-0.4,1.5
	c0,0.3-0.2,0.8-0.3,0.9c0,0.1-0.1,0.2-0.1,0.2s0.3-0.6,0.3-1.3c0-0.8,0-0.6,0-1.1c0-0.8-0.3-1.2,0.4-2.1c0.6-0.8,1-1.2,1-1.2l-0.7,0
	c0,0,0.6-0.2,0.7-0.6c0.1-0.4,0.4-1.8,0.4-1.8L1.7,13c0,0,0.2-0.6,0.5-1.3c0.3-0.7,0.6-1,0.9-1.1c0.3-0.5,0.8-0.8,1.3-0.9
	C5,9.6,5.9,9.4,5.9,9.4l0.5-0.2L7,9c0,0,1.4-0.5,1.8-0.6c0.3-0.1,1-0.2,1.6,0s1,0.3,1.3,0.4c0,0,0.1,0,0.2,0c0,0.4,0,0.9,0,1
	c0,0.1-0.2,1.7-0.1,2.3c0,0.6,0.1,1,0.4,1.3c0.3,0.3,2.6,0.5,3.5,0.5c0.5,0,1,0,1.5,0c0.5,0,1-0.1,1.3-0.3c0.1,0,0.2-0.1,0.3-0.1
	c0,0.2,0,0.3,0,0.4c0,0.7,0.1,1,0.1,1.2c0,0,0,0,0,0C18.5,15.5,18.4,16.1,18.5,16.6z M20.7,8.5c-0.1-0.4-0.3-0.7-0.4-0.9l-0.2-0.2
	c0.5,0.5,1,0.9,1.5,1.2c0.7,0.5,2.1,1.1,3,1.5c-0.2,1.1-0.2,1.7-0.2,1.7s0.2,0.8,0,1.2c0,0,0,0.1,0,0.1c-0.1-0.5-0.5-0.9-0.8-1.3
	c-0.9-1.1-1.7-2.2-2.7-3.2C20.8,8.6,20.8,8.5,20.7,8.5z M18.4,19.3c0.1-0.4,0.3-1.2,0.5-1.8l1.1-0.6l0-0.1c-0.1-0.3-0.1-0.6-0.2-0.9
	c-0.1-0.3-0.2-0.6-0.5-0.8c0-0.2-0.1-0.5-0.1-1.2c0-0.2,0-0.4,0-0.7c0.1,0,0.1-0.1,0.2-0.1c0.3-0.2,0.5-0.5,0.6-0.9
	c0.1-0.5,0.1-0.8,0.1-1c0,0,0,0,0.1,0c0.1,0,0.2-0.1,0.3-0.2c0.3-0.2,0.5-0.5,0.5-0.9c0-0.2,0-0.5-0.1-0.8c0.8,0.9,1.6,1.9,2.4,2.9
	c0.3,0.4,0.6,0.7,0.7,1.2c0,0.1,0,0.2,0,0.2l0,0.1c0,0,0,0.1,0,0.1c0,0,0,0,0,0s0,0,0,0.1c0,0.1,0,0.2-0.1,0.3
	c-0.1,0.1-0.2,0.3-0.3,0.5c1.3,0.4,1.7,0.6,2,0.7c0.3,0.1,0.4,0.2,0.5,0.5c0.1,0.3,0.3,0.6,0.2,1c0,0.4,0,1,0,1.3
	c0,0.4,0.2,0.7,0.2,0.8c0,0.2,0,0.4-0.1,0.5c-0.1,0.1-0.5,0.2-0.5,0.2s0,0.2-0.4,0.7c-0.4,0.5-0.5,0.5-0.5,0.5l-1,0.6l-0.1-1.6
	l0.3-0.1c0,0,0.1-0.2,0.4-0.3c0.3-0.1,0.4,0.2,0.4,0.2s0.1,0,0.2-0.1c0.1-0.1,0.2-0.2,0.2-0.2s-0.1-0.1,0-0.3l0.1-0.2
	c0,0,0.2-0.2,0.2-0.7c0-0.5,0-0.9-0.1-1.2c-0.1-0.3-0.7-0.6-1.4-0.5c-0.7,0.1-1.3-0.1-1.3-0.1s-0.3,0.2-0.7,0.2c-0.4,0-0.6,0-0.6,0
	s-0.6,0.8-1.2,2.1c-0.6,1.2-1,2.1-1.2,2.6c-0.2,0.5-0.1,0.6-0.2,0.8c-0.1,0.2-0.2,0.9-0.2,1.2c0,0.2,0.1,0.5,0.2,0.7
	c0.1,0.2,0.5,0.5,0.5,0.5s0.5,0.2,0.7,0.5c0.2,0.3,0.7,0.7,0.7,0.7l-1.7,0.2c0,0-0.3-0.2-0.4-0.3c-0.1-0.1-0.2-0.2-0.2-0.4
	c0-0.3,0.1-0.5-0.3-0.7c-0.4-0.1-0.8-0.2-0.6-1c0.2-0.8,0.5-2.3,0.6-2.6c0.1-0.3,0-0.7,0-0.7S18.2,19.9,18.4,19.3z M27.9,9.7
	C28,9.7,28,9.7,27.9,9.7l0.1,0c0,0,0,0.1,0.1,0.1c0,0,0.1,0.1,0.1,0.1c0.1,0,0.1,0,0.2-0.1c0,0,0-0.1,0-0.2c0-0.1,0-0.1,0-0.2
	c0-0.1,0.1-0.2,0.1-0.3c0-0.1,0-0.3-0.1-0.4l0-0.3l0.9-0.3c0,0.2,0,0.4,0,0.5c0.1,0.4,0.1,0.9,0.1,1.1c0,0.2,0.2,0.5-0.1,0.6
	c-0.2,0.1-0.3,0.2-0.3,0.2s-0.2,0.3-0.4,0.3c-0.2,0-0.5-0.3-0.5-0.3l-0.3,0.1c0,0-0.2,0-0.2-0.1c0,0,0-0.1-0.1-0.1l0.3-0.5
	C27.8,9.9,27.9,9.8,27.9,9.7z M27.4,9.4c-0.1,0.1-0.1,0.2-0.1,0.3c0,0,0,0,0,0.1L27,10.1c0,0,0-0.1-0.1-0.1
	c-0.2-0.3,0.3-0.7,0.3-0.7s-0.2-0.1-0.3-0.3C27,9,27.1,8.9,27.3,8.9c0.1,0,0.1,0,0.2,0c-0.1,0.1-0.1,0.2-0.1,0.3
	C27.4,9.2,27.4,9.3,27.4,9.4z M27.4,6.1c0,0.6,0,1.8,0,2.2l0,0.1c-0.1,0-0.2,0-0.3,0.1c-0.1,0-0.3,0.1-0.4,0.2c0,0-0.1-0.1-0.1-0.1
	c-0.3-0.3-0.4-0.3-0.6-0.5c0.1-0.2,0.4-0.6,0.5-0.9c0.2-0.3,0.5-0.7,0.6-0.8l0.1,0L27.4,6.1z M27.4,5.1L27.4,5.1l0,0.5L27,5.4
	L26.7,6c-0.1,0.1-0.3,0.4-0.3,0.4c0,0,0,0,0,0c0,0,0,0,0,0c0,0-0.1,0.1-0.1,0.2C26.1,6.8,26,7,25.9,7.2c-0.2,0.3-0.4,0.7-0.4,0.7
	s-0.5,1-0.8,1.8c-0.1-0.1-0.3-0.1-0.4-0.2c-0.9-0.4-1.7-0.8-2.4-1.2c-0.4-0.3-1-0.8-1.5-1.2c0.6-0.6,1.2-1.2,1.7-1.7
	c0.9-0.7,2.1-1.5,3.1-1.6c0.6-0.1,1.4,0,2,0c0,0.1,0,0.2,0,0.3C27.2,4.2,27.3,4.8,27.4,5.1z M12,9.7c0,0,0-0.6,0-1
	c0-0.4,0-0.2,0.4-0.2c0,0.7,0,1.8,0,2.4c-0.1,0.5-0.3,1.7,0.4,1.9c0.5,0.1,2,0.4,3.4,0.4c1.1,0,1.9-0.2,2.4-0.5c0,0.2,0,0.4,0,0.6
	c-0.1,0-0.2,0.1-0.3,0.1c-0.6,0.3-1.8,0.3-2.7,0.3c-0.9,0-3.1-0.2-3.4-0.5c-0.2-0.3-0.3-0.6-0.3-1.2C11.9,11.4,12,9.7,12,9.7z
	 M18.4,6.9c0.1-0.1,0.3-0.2,0.5-0.3l0,0C19,6.8,19.3,7,19.3,7.2c0.1,0.2,0.2,0.4,0.3,0.5c0.3,0.5,0.5,1,0.8,1.5
	c0.1,0.5,0.2,0.9-0.5,0.9c-0.4,0-0.8-0.9-0.9-1.2c-0.1-0.5-0.4-1-0.5-1.4C18.5,7.3,18.4,7.1,18.4,6.9z M12.7,8.5c0.2,0,0.2,0,0.5,0
	c0.5,0,3.2,0.1,4.2-0.1c0.3,0,0.4-0.1,0.6-0.1l0.1,0c0.2,0.9,0.2,1.4,0.6,1.9c0,0.5,0,1.3,0,2.1c-0.5,0.3-1.2,0.5-2.4,0.5
	c-1.4,0-2.9-0.2-3.3-0.4c-0.5-0.1-0.3-1.3-0.2-1.6C12.7,10.3,12.7,9.2,12.7,8.5z M19.1,10.9c0.1,0,0.1,0.1,0.2,0.1v0.7l-0.2,0.2
	C19.1,11.5,19.1,11.1,19.1,10.9z M28.2,6.2c0,0,0.1-0.1,0.3-0.1c0.2,0,0.3,0.1,0.3,0.3c-0.2,0.1-0.2,0.1-0.3,0
	C28.3,6.4,28.2,6.2,28.2,6.2z M27,5.5l0.4,0.2l-0.2,0.5L26.8,6L27,5.5z M19.1,15.4c0,0.1-0.1,0.2-0.2,0.5c-0.1,0.3,0,0.7,0.1,1
	l0.5-0.3C19.4,16.3,19.3,15.7,19.1,15.4C19.1,15.4,19.1,15.4,19.1,15.4z M26.8,6.1l0.3,0.2c0,0-0.3,0.5-0.6,0.8C26.3,7.4,26,8,26,8
	l-0.3-0.2c0,0,0.6-1.2,0.7-1.3C26.5,6.5,26.8,6.1,26.8,6.1z M28.2,8.1l1-0.3l0,0.3l-1,0.3L28.2,8.1z M28.3,9.5L28.3,9.5
	c0,0.3-0.1,0.2-0.1,0.1C28.2,9.6,28.2,9.6,28.3,9.5z M28.2,8.4l0,0.2c0,0-0.1,0-0.1-0.1c0-0.1,0-0.2,0-0.2H28.2z M27.5,5.9l0.4,0
	l0.3,2.4l-0.2,0L27.7,6c0,0,0.1,2.1,0.1,2.3l0,0.3c-0.1,0-0.2,0.1-0.2,0.1c0,0-0.2,0-0.3,0.1c-0.2,0.1-0.5,0.3-0.5,0.3l-0.1-0.3
	c0,0,0.3-0.2,0.5-0.3c0.2-0.1,0.4-0.1,0.4-0.1c0-0.1,0-0.1,0-0.2C27.5,7.8,27.5,5.9,27.5,5.9z M27.6,9.1c0-0.2,0.1-0.3,0.3-0.3
	c0.2,0,0.3,0.1,0.3,0.3c0,0.2-0.1,0.3-0.3,0.3C27.7,9.4,27.6,9.3,27.6,9.1z M19,10.6c0,0,0,2.3,0.1,3.3c0,0.8,0.1,1.2,0.1,1.3
	c0.5,0.3,0.6,1.2,0.7,1.7l-1,0.5c0,0-0.2-0.3-0.3-0.5c-0.1-0.4-0.1-1.2,0.2-1.6c0,0,0,0,0-0.1c0-0.2-0.1-0.6-0.1-1.3
	c-0.1-1-0.1-3.6-0.1-3.6L19,10.6z M24,14.5c0.1-0.3,0.3-0.8,0.2-1l0-0.1c0,0,0-0.1,0-0.2c0-0.3-0.2-0.5-0.3-0.7
	c-0.1-0.2-0.3-0.4-0.4-0.6c-0.5-0.7-1.1-1.4-1.6-2c-0.5-0.6-0.6-0.8-1.1-1.2c0.1,0.4,0.2,0.9,0.2,1.2c0,0.7-1,1-1,1s0.1,0.3-0.1,1.1
	c-0.1,0.4-0.4,0.7-0.7,0.9c0-0.2,0-0.4,0-0.7l0.5-0.4v-1.1c-1.2-0.7-1.1-1.3-1.4-2.7L18,8.1C18,8,18,7.9,18,7.7
	c-0.1-0.3,0-0.5,0.2-0.7c0.1,0.2,0.1,0.4,0.2,0.5c0.1,0.5,0.5,0.9,0.5,1.4c0.1,0.5,0.6,1.5,1.2,1.5c0.9,0,0.8-0.7,0.7-1.3
	c-0.3-0.5-0.5-1.1-0.8-1.6c-0.3-0.4-0.4-0.7-0.7-1.1c0,0-0.1-0.1,0-0.2c0.1-0.1,0.2,0,0.2,0s1.4,1.3,2.4,2c1.4,1,3.4,1.6,5,2.3
	l0.5-0.9c0,0,0-0.1,0-0.1c0-0.1,0.1-0.2,0.2-0.2c0.1,0,0.2,0.1,0.2,0.2c0,0.1-0.1,0.2-0.2,0.2L27,10.9c0,0-0.7-0.3-1.4-0.5
	c-0.7-0.2-2.9-1.1-3.9-1.8C21,8,20.4,7.6,19.8,7c0.1,0.1,0.1,0.2,0.1,0.2l0.3,0.4c0.1,0.2,0.3,0.5,0.4,0.8l0.2,0.2
	c0.5,0.5,0.9,1,1.4,1.6c0.4,0.5,0.9,1.1,1.3,1.6c0.1,0.1,0.2,0.2,0.3,0.4c0.1,0.1,0.2,0.2,0.2,0.4c0.1,0.2,0.2,0.5,0.3,0.8v0l0,0
	c0,0.1,0,0.4-0.1,0.7C24.1,14.3,24.1,14.4,24,14.5C24.1,14.5,24,14.5,24,14.5L24,14.5z M20.2,6.9c0,0,1.3-1.3,1.8-1.8
	c0.5-0.4,1.5-1,1.8-1.2c0.4-0.2,0.9-0.3,0.9-0.3s-0.2-0.2-0.4-0.1C24.1,3.7,24,3.7,24,3.7s-0.3,0-0.5,0.1c-0.2,0.1-0.2,0.2-0.2,0.2
	S23.1,4,23,4.1c-0.1,0.1-0.3,0.2-0.3,0.2s-0.2-0.1-0.3,0c-0.1,0.1-0.1,0.2-0.1,0.2s-0.3,0-0.3,0.1C22,4.8,22,4.9,22,4.9
	s-0.2,0-0.3,0.1c-0.1,0.1-0.1,0.2-0.1,0.2s-0.1,0-0.2,0.1c-0.1,0.1-0.1,0.2-0.1,0.2s-0.1-0.1-0.2,0c-0.2,0.1-0.1,0.3-0.1,0.3
	s-0.2,0-0.3,0c-0.1,0.1-0.1,0.3-0.1,0.3s-0.1-0.1-0.2,0c-0.1,0.2-0.1,0.3-0.1,0.3l-0.3,0.2L20.2,6.9z"/>
</svg>
