<?xml version="1.0" encoding="utf-8"?>
<!-- Generator: Adobe Illustrator 21.0.0, SVG Export Plug-In . SVG Version: 6.00 Build 0)  -->
<svg version="1.1" id="Слой_1" xmlns="http://www.w3.org/2000/svg" xmlns:xlink="http://www.w3.org/1999/xlink" x="0px" y="0px"
	 viewBox="0 0 30 30" style="enable-background:new 0 0 30 30;" xml:space="preserve">
<style type="text/css">
	.st0{fill:#1D1D1B;}
</style>
<path class="st0" d="M25.1,11.8v2.1h0.4v1h-0.4v2.2h-0.9v-2.2h-0.4v-1h0.4v-2.1h-0.3v-0.9h0.4C23.8,10.2,23,9.5,23,9.5
	s0.5-1.2,0.9-3c0.4-1.9,0.7-5,0.7-5s0.3,3.1,0.7,5c0.4,1.9,0.9,3,0.9,3s-0.8,0.6-1.3,1.4h0.4v0.9H25.1"/>
<path class="st0" d="M25.1,23.4v4.1h-0.9v-4.1l-0.5,0l0.1-0.9l-0.4,0c0,0.6,0,0.9,0,0.9l-0.6,0c0-0.5,0-1.3,0.1-2
	c-0.3,0.9-0.5,1.9-0.5,1.9l-0.6-0.1c0.4-1.4,0.7-2.8,1.6-4l0.1-0.1c0-0.1-0.1-0.2-0.1-0.3v-0.7c0-0.3,0.3-0.6,0.6-0.6h1.2
	c0.3,0,0.6,0.3,0.6,0.6v0.7c0,0.1,0,0.2-0.1,0.3l0.1,0.1c0.9,1.2,1.3,2.6,1.6,4l-0.6,0.1c0,0-0.2-1-0.5-1.9c0.1,0.8,0.1,1.5,0.1,2
	l-0.6,0c0,0,0-0.2,0-0.9l-0.4,0l0.1,0.9L25.1,23.4"/>
<path class="st0" d="M18.9,11.8v2.1h0.4v1h-0.4v2.2H18v-2.2h-0.4v-1H18v-2.1h-0.3v-0.9h0.4c-0.5-0.7-1.3-1.4-1.3-1.4s0.5-1.2,0.9-3
	c0.4-1.9,0.7-5,0.7-5s0.3,3.1,0.7,5c0.4,1.9,0.9,3,0.9,3s-0.8,0.6-1.3,1.4h0.4v0.9H18.9"/>
<path class="st0" d="M18.8,23.4v4.1h-0.9v-4.1l-0.5,0l0.1-0.9l-0.4,0c0,0.6,0,0.9,0,0.9l-0.6,0c0-0.5,0-1.3,0.1-2
	c-0.3,0.9-0.5,1.9-0.5,1.9l-0.6-0.1c0.4-1.4,0.7-2.8,1.6-4l0.1-0.1c0-0.1-0.1-0.2-0.1-0.3v-0.7c0-0.3,0.3-0.6,0.6-0.6h1.2
	c0.3,0,0.6,0.3,0.6,0.6v0.7c0,0.1,0,0.2-0.1,0.3l0.1,0.1c0.9,1.2,1.3,2.6,1.6,4l-0.6,0.1c0,0-0.2-1-0.5-1.9c0.1,0.8,0.1,1.5,0.1,2
	l-0.6,0c0,0,0-0.2,0-0.9l-0.4,0l0.1,0.9L18.8,23.4"/>
<path class="st0" d="M12.6,11.8v2.1H13v1h-0.4v2.2h-0.9v-2.2h-0.4v-1h0.4v-2.1h-0.3v-0.9h0.4c-0.5-0.7-1.3-1.4-1.3-1.4
	s0.5-1.2,0.9-3c0.4-1.9,0.7-5,0.7-5s0.3,3.1,0.7,5c0.4,1.9,0.9,3,0.9,3s-0.8,0.6-1.3,1.4h0.4v0.9H12.6"/>
<path class="st0" d="M12.5,23.4v4.1h-0.9v-4.1l-0.5,0l0.1-0.9l-0.4,0c0,0.6,0,0.9,0,0.9l-0.6,0c0-0.5,0-1.3,0.1-2
	c-0.3,0.9-0.5,1.9-0.5,1.9l-0.6-0.1c0.4-1.4,0.7-2.8,1.6-4l0.1-0.1c0-0.1-0.1-0.2-0.1-0.3v-0.7c0-0.3,0.3-0.6,0.6-0.6h1.2
	c0.3,0,0.6,0.3,0.6,0.6v0.7c0,0.1,0,0.2-0.1,0.3l0.1,0.1c0.9,1.2,1.3,2.6,1.6,4l-0.6,0.1c0,0-0.2-1-0.5-1.9c0.1,0.8,0.1,1.5,0.1,2
	l-0.6,0c0,0,0-0.2,0-0.9l-0.4,0l0.1,0.9L12.5,23.4"/>
<path class="st0" d="M6.3,11.8v2.1h0.4v1H6.3v2.2H5.4v-2.2H5v-1h0.4v-2.1H5.1v-0.9h0.4C5,10.2,4.2,9.5,4.2,9.5s0.5-1.2,0.9-3
	c0.4-1.9,0.7-5,0.7-5s0.3,3.1,0.7,5c0.4,1.9,0.9,3,0.9,3s-0.8,0.6-1.3,1.4h0.4v0.9H6.3"/>
<path class="st0" d="M6.2,23.4v4.1H5.3v-4.1l-0.5,0l0.1-0.9l-0.4,0c0,0.6,0,0.9,0,0.9l-0.6,0c0-0.5,0-1.3,0.1-2
	c-0.3,0.9-0.5,1.9-0.5,1.9L3,23.1c0.4-1.4,0.7-2.8,1.6-4l0.1-0.1c0-0.1-0.1-0.2-0.1-0.3v-0.7c0-0.3,0.3-0.6,0.6-0.6h1.2
	c0.3,0,0.6,0.3,0.6,0.6v0.7c0,0.1,0,0.2-0.1,0.3l0.1,0.1c0.9,1.2,1.3,2.6,1.6,4L8,23.2c0,0-0.2-1-0.5-1.9c0.1,0.8,0.1,1.5,0.1,2
	l-0.6,0c0,0,0-0.2,0-0.9l-0.4,0l0.1,0.9L6.2,23.4"/>
</svg>
