<svg version="1" xmlns="http://www.w3.org/2000/svg" width="434.667" height="434.667" viewBox="0 0 326.000000 326.000000"><path d="M151.5 29c-14.7 1.7-26.6 6.2-37.4 14.2l-5.3 4-20.4-.4-20.4-.4V51h37l-4.4 5.4C94.7 63.7 89.3 74.9 87.4 84c-2 9.2-1.3 23.6 1.6 35.9 2.9 11.9 3.6 12.6 4.3 4 2-24.5 14.9-48.2 31.8-58.2 10.8-6.4 18.2-8.1 34.4-8.2 16.2 0 22.6 1.3 35.1 7.5 13.8 6.8 25.3 19.2 34.4 37.3 2.9 5.8 3.5 6.5 4.4 5 .6-1 1-5.9 1-10.8-.2-24.3-16.7-49.3-39.9-60.5-13.2-6.3-28-8.7-43-7z"/><path d="M250 36.8v8.9l-12.2.6c-6.6.4-14.8.7-18.1.7-5.9 0-6 0-4.2 2 1.7 1.9 3.1 2 20.2 2H254v102.8l-9.6 6.2c-21.9 14.2-41.7 20.8-69 23-20.7 1.7-37.3-1.5-57.2-11-19.3-9.2-37.1-22.2-57.4-41.9L49 118.7V79.4c0-34.2-.2-39.4-1.5-39.4s-1.5 5.1-1.7 37.2l-.3 37.3-5.9-7.2c-3.3-4-6.2-7.1-6.4-6.9-.6.6 5.8 18.5 9.2 25.6l3.1 6.5.6 41.5c.7 46.4.9 48.2 7.9 62.5 11.4 23.3 32.3 36.3 61.4 38.1 13 .9 19.5 3.2 26.3 9.7 6.8 6.4 8.9 10.2 15.3 27.5 2.9 7.9 5.6 14 6.1 13.5.4-.4 2.6-6 4.9-12.3 5.8-16.2 8.4-21.4 13.6-27.1 7-7.4 13-9.9 26.6-11 15.4-1.2 24.4-3.3 33.6-7.9 13.6-6.9 23.7-17.1 30.1-30.6 6-12.5 6.4-15.1 6.8-49.4l.4-31.5 4.4-11c4.2-10.4 10.2-31.2 9.3-32-.2-.3-2.3 2.1-4.6 5.3-2.3 3.1-5.4 7-6.7 8.7l-2.5 3V84.7c0-39.1-.2-44.7-1.5-44.7-1.2 0-1.5-1.3-1.5-6v-6h-26v8.8zM63.9 167.1c33.6 49.7 76.6 69.4 128.2 58.9 22.3-4.6 43.1-15.2 56.4-28.9 2.1-2.3 4.3-4.1 4.8-4.1 1 0-.2 11.2-1.9 17-.9 2.8-1.4 9.7-1.4 18.7v14.2l-3 2.1c-4.3 3.1-15.2 7.8-21.8 9.5-3.1.8-10.7 1.9-16.7 2.4-21.5 1.7-30.3 9.2-38.8 32.6-1.4 3.8-3.5 9.7-4.7 12.9l-2.3 6-5.2-14c-6.3-17.1-8.5-21.4-13.7-27-6.4-6.9-12.7-9.4-26.2-10.5-22.7-1.8-36-7.2-48.6-19.9-8.5-8.4-13.5-17-17.1-29-2-6.8-2.3-10.1-2.6-37l-.4-29.5 5.3 9.6c3 5.2 7.3 12.4 9.7 16zm18.2-8.8c29.7 19.8 59.6 32.7 76.2 32.7h4.7v16.1l-6.2-.6c-31.6-3.2-54.4-13.6-73-33.3-7.5-8-21.6-28.1-18.1-25.9.4.3 7.8 5.2 16.4 11z"/><path d="M146 64.6c-25.4 5.6-41 25.7-45 58.4-1.2 9.7-1.3 28-.2 29.6 2.9 4.2 28 17 40.7 20.6 7 2 10.2 2.3 25.5 2.3 24.2-.1 41.1-3.6 59.8-12.7l8.2-4V154c0-2.6-.9-9.9-1.9-16.2-6.1-35.2-21.5-59.1-44.9-69.5-11.6-5.1-28.8-6.6-42.2-3.7z"/></svg>